<svg id="Layer_1" data-name="Layer 1" xmlns="http://www.w3.org/2000/svg" viewBox="0 0 878.58 305.46"><defs><style>.cls-1{fill:#ffc655;}.cls-2{fill:#00613e;}.cls-3{fill:none;}.cls-4{fill:#a9db3d;}.cls-5{fill:#c8f255;}.cls-6{fill:#9bbf37;}.cls-7{fill:#e2a324;}.cls-8{fill:#cc8a17;}</style></defs><rect class="cls-1" width="878.58" height="305.46" rx="152.73"/><rect class="cls-2" x="272.39" y="37" width="333.8" height="231.45" rx="35.19"/><rect class="cls-3" x="272.39" y="37" width="333.8" height="231.45" rx="24.04"/><circle class="cls-2" cx="186.58" cy="90.53" r="12.6"/><circle class="cls-2" cx="107.85" cy="153.52" r="12.6"/><circle class="cls-2" cx="186.58" cy="216.5" r="12.6"/><circle class="cls-2" cx="692" cy="90.53" r="12.6"/><circle class="cls-2" cx="770.73" cy="153.52" r="12.6"/><circle class="cls-2" cx="692" cy="216.5" r="12.6"/><path class="cls-4" d="M549.72,529.09a29.59,29.59,0,0,1,3.17-10.16c3.65-6.55,11.5-12,18.48-14.38,21.76-7.27,39.64-26.64,45.76-48.52a51.42,51.42,0,0,0,2-18.54c-.37-4-1.06-6.24-2.54-7.17s-4-.49-7.78,1a306.26,306.26,0,0,0-37.66,17.38c-7.15,3.92-14.24,8.18-20,14C539,475,534.77,492.49,534.8,509.41A65.4,65.4,0,0,1,549.72,529.09Zm2-37.08c2.28-8.95,9.74-16.23,17.31-21.07,6.78-4.33,14.64-6.88,21.15-11.59,1.11-.8,2.35.71,1.77,1.77-3.43,6.24-8.8,10.57-14.75,14.32-8.53,5.37-13.32,11-18.39,19.56C556.53,498.83,550.62,496.27,551.69,492Z" transform="translate(-100.71 -376.16)"/><path class="cls-5" d="M556.27,548.3a78.61,78.61,0,0,0-6.55-19.21c-.68,4.53-.76,9.21-1.15,13.65-.21,2.29-1,10.2-4.8,9.52-1.72-.3-2.82-4-3.55-7.09a4.43,4.43,0,0,1-4.84-2.71c-5.76-14.12-17.22-20.75-30.15-27.48-9.76-5.07-20.22-10-25.06-20.53-.42-.91.69-2,1.46-1.14,9,9.74,23,12.49,34.43,18.25,8,4,15,9.2,20.26,15.93a117.41,117.41,0,0,1-1.43-13.74c-.06-1.44-.09-2.89-.09-4.34-.82-.74-1.67-1.46-2.54-2.16-14.13-11.43-31.68-18.32-45.24-30.39-13.1-11.65-25.08-24.57-33.53-40.05-2-3.6-5.94-10.83-8.18-2.79-1.39,5,.41,10.71.24,15.62-.41,12.23-1,26.64,4,38,7.54,17.13,17.9,32.45,34.81,41.84,10.13,5.62,21.28,9.17,31.52,14.57,19.31,10.18,30.46,24.15,29.55,46.55a61.54,61.54,0,0,0,.29,7.82c3.35-.3,6.73-.56,10.12-.74C557.48,581.15,559.76,565.12,556.27,548.3Z" transform="translate(-100.71 -376.16)"/><path class="cls-5" d="M534.89,513.75a117.41,117.41,0,0,0,1.43,13.74,44.55,44.55,0,0,1,7,12.78c1,2.78-.89,4.59-3.11,4.9.73,3.11,1.83,6.79,3.55,7.09,3.84.68,4.59-7.23,4.8-9.52.39-4.44.47-9.12,1.15-13.65a65.4,65.4,0,0,0-14.92-19.68C534.8,510.86,534.83,512.31,534.89,513.75Z" transform="translate(-100.71 -376.16)"/><path class="cls-4" d="M536.32,527.49c-5.26-6.73-12.29-11.93-20.26-15.93-11.47-5.76-25.41-8.51-34.43-18.25-.77-.82-1.88.23-1.46,1.14C485,505,495.47,509.91,505.23,515c12.93,6.73,24.39,13.36,30.15,27.48a4.43,4.43,0,0,0,4.84,2.71c-.37-1.59-.65-3-.86-3.81A130.82,130.82,0,0,1,536.32,527.49Z" transform="translate(-100.71 -376.16)"/><path class="cls-4" d="M543.33,540.27a44.55,44.55,0,0,0-7-12.78,130.82,130.82,0,0,0,3,13.87c.21.77.49,2.22.86,3.81C542.44,544.86,544.31,543.05,543.33,540.27Z" transform="translate(-100.71 -376.16)"/><path class="cls-6" d="M558.78,495c5.07-8.59,9.86-14.19,18.39-19.56,6-3.75,11.32-8.08,14.75-14.32.58-1.06-.66-2.57-1.77-1.77-6.51,4.71-14.37,7.26-21.15,11.59-7.57,4.84-15,12.12-17.31,21.07C550.62,496.27,556.53,498.83,558.78,495Z" transform="translate(-100.71 -376.16)"/><path class="cls-7" d="M556.19,643.83a3.15,3.15,0,0,1,2.57,1.17H606.5a4,4,0,0,1,6.64,0h6.09a3,3,0,0,1,5.38,0h13.11a106.19,106.19,0,0,0-26.6-33.62c-15.55-12.89-35.59-14.69-55.26-13.67-.44,4.56-.84,9.15-1.05,13.81,0,8.13.91,28.05.39,28.82-2.72,4-6.9,3.18-9.07.28a3,3,0,0,1-3.58,1.77,6.21,6.21,0,0,1-1.41-.65,3.28,3.28,0,1,1,3.56-5.49,101.43,101.43,0,0,1,0-10.46,2,2,0,0,1-1,.28c-2.66,0-2.66-4.12,0-4.12a1.88,1.88,0,0,1,1.22.44c.29-4.07.71-8.14,1.12-12.13a61.23,61.23,0,0,0-.33-11.81c-4.55.42-9,.9-13.4,1.36-15.53,1.64-31.16,5.31-45.43,11.74-7,3.16-13.44,7.5-19.67,12.05-8,5.85-15.55,13.06-20.55,21.4H553.62A3.15,3.15,0,0,1,556.19,643.83Zm58.28-20.7c2.8,0,2.8,4.34,0,4.34S611.67,623.13,614.47,623.13Zm-5.58,9.26a2.6,2.6,0,0,1-.15,1.17,1.79,1.79,0,0,1-3.43,0,2.74,2.74,0,0,1-.15-1.17A1.87,1.87,0,0,1,608.89,632.39Zm-3.37-14.3a3.11,3.11,0,0,1,.94.67,2.22,2.22,0,0,1,0,3,3.32,3.32,0,0,1-.94.68,2.55,2.55,0,1,1,0-4.4Zm-11-7.16a3.3,3.3,0,0,1,2.17.81,1.58,1.58,0,0,1,0,2.21,3.29,3.29,0,0,1-2.17.8,2,2,0,1,1,0-3.82Zm-114.72,25a9.75,9.75,0,0,1-.8.64,2.66,2.66,0,0,1-2.71,0,2.7,2.7,0,0,1,0-4.64,2.64,2.64,0,0,1,2.71,0,9.75,9.75,0,0,1,.8.64A2.39,2.39,0,0,1,479.8,635.93Zm25.2-7.09a1.9,1.9,0,0,1-1.95.38c-.42,0-.39,0-.22-.05a2.37,2.37,0,0,1-2.47-2.37,2.44,2.44,0,0,1,2.42-2.42,3,3,0,0,1,2.7,1.4,2.37,2.37,0,0,1,.09,2.11A1.69,1.69,0,0,1,505,628.84Zm10.76,8.74a3.74,3.74,0,0,1-3.73-.05,3.8,3.8,0,1,1,3.73.05Zm8.75-12.31a3,3,0,0,1-4.37,0c-2.08-1.83-.38-5.28,2.19-5.28S526.59,623.44,524.51,625.27ZM537,620.42a2.31,2.31,0,1,1,3.15-3.16,2.8,2.8,0,0,1,.71,1.91,2,2,0,0,1-2,2A2.82,2.82,0,0,1,537,620.42Z" transform="translate(-100.71 -376.16)"/><path class="cls-7" d="M546.07,610.26c-.41,4-.83,8.06-1.12,12.13a2.13,2.13,0,0,1-.2,3.4,101.43,101.43,0,0,0,0,10.46,3.3,3.3,0,0,1,.94,1,6.21,6.21,0,0,1,.65,1.41,2.83,2.83,0,0,1-.16,2c2.17,2.9,6.35,3.72,9.07-.28.52-.77-.39-20.69-.39-28.82.21-4.66.61-9.25,1.05-13.81-3.39.18-6.77.44-10.12.74A61.23,61.23,0,0,1,546.07,610.26Z" transform="translate(-100.71 -376.16)"/><path class="cls-8" d="M505.43,628.17l.05-.07a1.33,1.33,0,0,0,.09-.21,4.85,4.85,0,0,0,.14-.76C505.62,627.48,505.52,627.82,505.43,628.17Z" transform="translate(-100.71 -376.16)"/><path class="cls-8" d="M505.48,625.78a3,3,0,0,0-2.7-1.4,2.44,2.44,0,0,0-2.42,2.42,2.37,2.37,0,0,0,2.47,2.37h.09a.61.61,0,0,1-.12,0,4.54,4.54,0,0,1-.63-.53l2,.54a2,2,0,0,1-.81.11l-.33,0a1.9,1.9,0,0,0,1.95-.38,1.69,1.69,0,0,0,.57-1,1.33,1.33,0,0,1-.09.21l-.05.07c.09-.35.19-.69.28-1a4.85,4.85,0,0,1-.14.76A2.37,2.37,0,0,0,505.48,625.78Z" transform="translate(-100.71 -376.16)"/><path class="cls-8" d="M504.19,629.13l-2-.54a4.54,4.54,0,0,0,.63.53.61.61,0,0,0,.12,0h.1c.13,0,.27,0,.4,0l-.4,0h-.09l.12.05.33,0A2,2,0,0,0,504.19,629.13Z" transform="translate(-100.71 -376.16)"/><path class="cls-8" d="M502.83,629.17c-.17,0-.2,0,.22.05l-.12-.05Z" transform="translate(-100.71 -376.16)"/><path class="cls-8" d="M503,629.17h0Z" transform="translate(-100.71 -376.16)"/><path class="cls-8" d="M503,629.17l.4,0C503.29,629.16,503.15,629.16,503,629.17Z" transform="translate(-100.71 -376.16)"/><path class="cls-8" d="M502.93,629.17h0Z" transform="translate(-100.71 -376.16)"/><path class="cls-8" d="M511.27,631.56a3.83,3.83,0,0,0,.76,6,3.74,3.74,0,0,0,3.73.05,3.79,3.79,0,1,0-4.49-6Z" transform="translate(-100.71 -376.16)"/><path class="cls-8" d="M522.33,620c-2.57,0-4.27,3.45-2.19,5.28a3,3,0,0,0,4.37,0C526.59,623.44,524.89,620,522.33,620Z" transform="translate(-100.71 -376.16)"/><path class="cls-8" d="M544.7,636.25a3.28,3.28,0,1,0-3.56,5.49,6.21,6.21,0,0,0,1.41.65,3,3,0,0,0,3.58-1.77,7.08,7.08,0,0,1-1.41-3.88C544.71,636.57,544.71,636.41,544.7,636.25Z" transform="translate(-100.71 -376.16)"/><path class="cls-8" d="M546.29,638.65a6.21,6.21,0,0,0-.65-1.41,3.3,3.3,0,0,0-.94-1c0,.16,0,.32,0,.49a7.08,7.08,0,0,0,1.41,3.88A2.83,2.83,0,0,0,546.29,638.65Z" transform="translate(-100.71 -376.16)"/><path class="cls-8" d="M605.52,622.49a3.32,3.32,0,0,0,.94-.68,2.22,2.22,0,0,0,0-3,3.11,3.11,0,0,0-.94-.67,2.55,2.55,0,1,0,0,4.4Z" transform="translate(-100.71 -376.16)"/><path class="cls-8" d="M614.47,627.47c2.8,0,2.8-4.34,0-4.34S611.67,627.47,614.47,627.47Z" transform="translate(-100.71 -376.16)"/><path class="cls-8" d="M605.16,632.39a2.74,2.74,0,0,0,.15,1.17,1.79,1.79,0,0,0,3.43,0,2.6,2.6,0,0,0,.15-1.17A1.87,1.87,0,0,0,605.16,632.39Z" transform="translate(-100.71 -376.16)"/><path class="cls-8" d="M621.92,643.27a2.78,2.78,0,0,0-2.69,1.73h5.38A2.78,2.78,0,0,0,621.92,643.27Z" transform="translate(-100.71 -376.16)"/><path class="cls-8" d="M479,631.93a2.64,2.64,0,0,0-2.71,0,2.7,2.7,0,0,0,0,4.64,2.66,2.66,0,0,0,2.71,0,9.75,9.75,0,0,0,.8-.64,2.39,2.39,0,0,0,0-3.36A9.75,9.75,0,0,0,479,631.93Z" transform="translate(-100.71 -376.16)"/><path class="cls-8" d="M556.19,643.83a3.15,3.15,0,0,0-2.57,1.17h5.14A3.15,3.15,0,0,0,556.19,643.83Z" transform="translate(-100.71 -376.16)"/><path class="cls-8" d="M609.82,643.21A3.7,3.7,0,0,0,606.5,645h6.64A3.7,3.7,0,0,0,609.82,643.21Z" transform="translate(-100.71 -376.16)"/><path class="cls-8" d="M540.85,619.17a2.8,2.8,0,0,0-.71-1.91,2.31,2.31,0,1,0-3.15,3.16,2.82,2.82,0,0,0,1.9.71A2,2,0,0,0,540.85,619.17Z" transform="translate(-100.71 -376.16)"/><path class="cls-8" d="M543.73,622c-2.66,0-2.66,4.12,0,4.12a2,2,0,0,0,1-.28c0-1.14.12-2.27.2-3.4A1.88,1.88,0,0,0,543.73,622Z" transform="translate(-100.71 -376.16)"/><path class="cls-8" d="M545,622.39c-.08,1.13-.15,2.26-.2,3.4A2.13,2.13,0,0,0,545,622.39Z" transform="translate(-100.71 -376.16)"/><path class="cls-8" d="M594.52,614.75a3.29,3.29,0,0,0,2.17-.8,1.58,1.58,0,0,0,0-2.21,3.3,3.3,0,0,0-2.17-.81,2,2,0,1,0,0,3.82Z" transform="translate(-100.71 -376.16)"/></svg>