<svg id="Layer_1" data-name="Layer 1" xmlns="http://www.w3.org/2000/svg" viewBox="0 0 1080 1080"><defs><style>.cls-1{fill:#00613e;}.cls-2{fill:#f4f1e4;}.cls-3{fill:#64b27a;}.cls-4{fill:#ffc655;}</style></defs><rect class="cls-1" x="428.35" y="286.4" width="483.65" height="601.48" rx="27.22" transform="translate(122.2 -115.42) rotate(10.83)"/><rect class="cls-2" x="522.67" y="387.97" width="369.33" height="9.67" transform="translate(86.36 -125.86) rotate(10.83)"/><rect class="cls-2" x="507.8" y="465.7" width="369.33" height="9.67" transform="translate(100.7 -121.68) rotate(10.83)"/><rect class="cls-2" x="492.94" y="543.43" width="369.33" height="9.67" transform="translate(115.03 -117.51) rotate(10.83)"/><rect class="cls-2" x="478.08" y="621.17" width="369.33" height="9.67" transform="translate(129.36 -113.33) rotate(10.83)"/><rect class="cls-2" x="463.21" y="698.9" width="369.33" height="9.67" transform="translate(143.7 -109.16) rotate(10.83)"/><rect class="cls-2" x="448.35" y="776.64" width="369.33" height="9.67" transform="translate(158.03 -104.98) rotate(10.83)"/><rect class="cls-3" x="159.77" y="186.3" width="483.65" height="601.48" rx="27.22" transform="translate(-69.79 67.18) rotate(-8.8)"/><rect class="cls-2" x="186.66" y="286.67" width="369.33" height="9.67" transform="translate(-40.23 60.25) rotate(-8.8)"/><rect class="cls-2" x="198.77" y="364.89" width="369.33" height="9.67" transform="translate(-52.05 63.02) rotate(-8.8)"/><rect class="cls-2" x="210.88" y="443.1" width="369.33" height="9.67" transform="translate(-63.88 65.79) rotate(-8.8)"/><rect class="cls-2" x="222.99" y="521.31" width="369.33" height="9.67" transform="translate(-75.7 68.57) rotate(-8.8)"/><rect class="cls-2" x="235.09" y="599.52" width="369.33" height="9.67" transform="translate(-87.53 71.34) rotate(-8.8)"/><rect class="cls-2" x="247.2" y="677.73" width="369.33" height="9.67" transform="translate(-99.35 74.11) rotate(-8.8)"/><path class="cls-4" d="M909.57,311.69c-17.21,4.47-22.14,10.36-25.46,32.72a1.84,1.84,0,0,1-3.63,0c-3.31-22.36-8.24-28.25-25.46-32.72a1.83,1.83,0,0,1,0-3.55c17.22-4.47,22.15-10.36,25.46-32.72a1.84,1.84,0,0,1,3.63,0c3.32,22.36,8.25,28.25,25.46,32.72A1.83,1.83,0,0,1,909.57,311.69Z"/><path class="cls-4" d="M344.93,820.29c-13.32,3.46-17.14,8-19.71,25.32a1.42,1.42,0,0,1-2.8,0c-2.57-17.31-6.39-21.86-19.71-25.32a1.42,1.42,0,0,1,0-2.75c13.32-3.46,17.14-8,19.71-25.32a1.42,1.42,0,0,1,2.8,0c2.57,17.31,6.39,21.86,19.71,25.32A1.42,1.42,0,0,1,344.93,820.29Z"/><path class="cls-1" d="M203,219.5c0,4.08-18.56,5.17-19.76,8.85S196.33,244,194,247.13s-18-6.79-21.19-4.46,1.51,20.3-2.3,21.54S160.08,248.14,156,248.14s-10.84,17.27-14.53,16.07.88-19.22-2.3-21.54-18.86,7.67-21.19,4.46,12-15,10.78-18.78S109,223.58,109,219.5s18.56-5.17,19.76-8.85S115.67,195,118,191.87s18,6.79,21.19,4.46-1.51-20.3,2.3-21.54,10.45,16.07,14.53,16.07,10.84-17.27,14.53-16.07-.88,19.22,2.3,21.54,18.86-7.67,21.19-4.46-12,15-10.78,18.78S203,215.42,203,219.5Z"/><path class="cls-3" d="M966,717.5c0,5.16-23.5,6.55-25,11.21-1.57,4.83,16.57,19.75,13.64,23.77s-22.77-8.6-26.83-5.64,1.92,25.69-2.91,27.26c-4.66,1.51-13.23-20.35-18.39-20.35s-13.73,21.86-18.39,20.35c-4.83-1.57,1.11-24.34-2.91-27.26s-23.88,9.7-26.83,5.64,15.21-18.94,13.64-23.77c-1.51-4.66-25-6.05-25-11.21s23.5-6.55,25-11.21c1.57-4.83-16.57-19.75-13.64-23.77s22.77,8.6,26.83,5.64-1.92-25.69,2.91-27.26c4.66-1.51,13.23,20.35,18.39,20.35s13.73-21.86,18.39-20.35c4.83,1.57-1.11,24.34,2.91,27.26s23.88-9.7,26.83-5.64S939.42,701.46,941,706.29C942.5,711,966,712.34,966,717.5Z"/></svg>