<svg id="Layer_1" data-name="Layer 1" xmlns="http://www.w3.org/2000/svg" viewBox="0 0 1080 1080"><defs><style>.cls-1{fill:#00613e;}.cls-2,.cls-3{fill:#ffc655;}.cls-3{font-size:187.33px;font-family:IBMPlexMono-Bold, IBM Plex Mono;font-weight:700;}</style></defs><path class="cls-1" d="M119,822.76a30.74,30.74,0,0,0,30.74,30.74H930.26A30.74,30.74,0,0,0,961,822.76V350H119Z"/><path class="cls-2" d="M930.26,226.5H149.74A30.74,30.74,0,0,0,119,257.24V350H961V257.24A30.74,30.74,0,0,0,930.26,226.5Z"/><text class="cls-3" transform="translate(259.02 576.12)">hello<tspan x="0" y="159.91">world</tspan></text><path class="cls-1" d="M796.15,295.07V281.43l42.52-22.75v13.65L809.3,287.85v.8l29.37,15.52v13.65Z"/><path class="cls-1" d="M855.48,304.17l29.37-15.52v-.8l-29.37-15.52V258.68L898,281.43v13.64l-42.52,22.75Z"/></svg>