<svg xmlns="http://www.w3.org/2000/svg" viewBox="0 0 1080 1080"><defs><style>.cls-1{isolation:isolate;}.cls-2{fill:#f4f1e4;}.cls-3{fill:#00613e;}.cls-4{fill:#433c74;}.cls-4,.cls-5{opacity:0.3;}.cls-4,.cls-5,.cls-8{mix-blend-mode:multiply;}.cls-5{fill:#3b724c;}.cls-6{fill:#00472c;}.cls-7{fill:#339e54;}.cls-8{fill:#4c9aa6;}.cls-9{fill:#ffc655;}</style></defs><g class="cls-1"><g id="Layer_1" data-name="Layer 1"><path class="cls-2" d="M203.3,447.55,211.8,530l641.5-66.12-8.51-82.49A31.73,31.73,0,0,0,810,353.11L231.62,412.72A31.74,31.74,0,0,0,203.3,447.55Z"/><path class="cls-2" d="M209.47,507.42,235.2,757.07a32.49,32.49,0,0,0,35.64,29l576.88-59.46a32.48,32.48,0,0,0,29-35.64L851,441.3Z"/><rect class="cls-3" x="219.41" y="473.77" width="644.89" height="226.94" transform="translate(-57.35 58.65) rotate(-5.88)"/><polygon class="cls-4" points="745.97 559.29 762.45 735.38 433.74 769.26 413.53 593.55 745.97 559.29"/><rect class="cls-3" x="241.44" y="392.28" width="51.62" height="17.04" rx="1.96" transform="translate(574.19 772.09) rotate(174.12)"/><polygon class="cls-2" points="680.25 377.1 652.62 293.78 450.99 314.56 440.94 401.77 680.25 377.1"/><polygon class="cls-4" points="647.92 369.21 630.14 333.33 481.06 348.69 470.98 387.44 647.92 369.21"/><rect class="cls-4" x="438.1" y="398.09" width="254.06" height="71.22" transform="translate(-41.49 60.22) rotate(-5.88)"/><path class="cls-3" d="M710,334.25h76.19a3.15,3.15,0,0,1,3.15,3.15v21.87a0,0,0,0,1,0,0H706.8a0,0,0,0,1,0,0V337.4A3.15,3.15,0,0,1,710,334.25Z" transform="translate(-31.61 78.52) rotate(-5.88)"/><rect class="cls-3" x="313.56" y="375.5" width="95.23" height="22.49" rx="0.7" transform="translate(-37.75 39.07) rotate(-5.88)"/><path class="cls-5" d="M388.5,445.17a23.63,23.63,0,1,0-21.09,25.93A23.63,23.63,0,0,0,388.5,445.17Z"/><path class="cls-3" d="M376.84,446.37a11.91,11.91,0,1,0-10.63,13.07A11.92,11.92,0,0,0,376.84,446.37Z"/><path class="cls-6" d="M719.31,441.2l-62,40.65,28.22,43.09,62.06-40.65A25.75,25.75,0,0,0,755,448.64h0A25.76,25.76,0,0,0,719.31,441.2Z"/><path class="cls-7" d="M744.47,456.13a15.7,15.7,0,1,0-4.53,21.74A15.7,15.7,0,0,0,744.47,456.13Z"/><path class="cls-8" d="M737.17,460.91a7,7,0,1,0-2,9.66A7,7,0,0,0,737.17,460.91Z"/><circle class="cls-6" cx="579.75" cy="576.42" r="167.1" transform="translate(-237.78 578.77) rotate(-45)"/><path class="cls-7" d="M579.64,718.58c-71.89,0-133.77-54.54-141.3-127.59-8-78,48.86-147.94,126.83-156s148,48.86,156,126.83h0A142.25,142.25,0,0,1,579.64,718.58Zm.21-282.32a141.38,141.38,0,0,0-14.47.74c-76.87,7.93-133,76.91-125,153.79s76.9,133,153.79,125,133-76.91,125-153.78C711.74,490,650.73,436.26,579.85,436.26Z"/><path class="cls-7" d="M579.88,477.28a99.14,99.14,0,0,1,10,197.75,101.46,101.46,0,0,1-10.29.53,99.14,99.14,0,0,1-10-197.75,101.31,101.31,0,0,1,10.29-.53m0-11a110.14,110.14,0,0,0-.26,220.28A113,113,0,0,0,591,686a110.14,110.14,0,0,0-11.16-219.69Z"/><path class="cls-7" d="M574.81,528.52a48.15,48.15,0,1,0,52.84,43A48.15,48.15,0,0,0,574.81,528.52Z"/><path class="cls-8" d="M576.87,548.52a28,28,0,1,0,30.77,25A28.06,28.06,0,0,0,576.87,548.52Z"/><path class="cls-2" d="M589.71,517.43a25.21,25.21,0,1,0,27.66,22.49A25.22,25.22,0,0,0,589.71,517.43Z"/><rect class="cls-3" x="718.67" y="388.39" width="95.77" height="32.92" rx="1.85" transform="translate(-37.47 80.72) rotate(-5.88)"/><path class="cls-9" d="M280.93,334.88c-13.31,3.45-17.12,8-19.69,25.29a1.42,1.42,0,0,1-2.8,0c-2.56-17.29-6.38-21.84-19.69-25.29a1.43,1.43,0,0,1,0-2.76c13.31-3.45,17.13-8,19.69-25.29a1.42,1.42,0,0,1,2.8,0c2.57,17.29,6.38,21.84,19.69,25.29A1.42,1.42,0,0,1,280.93,334.88Z"/><path class="cls-3" d="M618.22,300.5c-9.71,2.52-12.49,5.84-14.36,18.45a1,1,0,0,1-2,0C600,306.34,597.17,303,587.46,300.5a1,1,0,0,1,0-2c9.71-2.52,12.49-5.84,14.36-18.45a1,1,0,0,1,2,0c1.87,12.61,4.65,15.93,14.36,18.45A1,1,0,0,1,618.22,300.5Z"/><path class="cls-3" d="M392.22,787.5c-9.71,2.52-12.49,5.84-14.36,18.45a1,1,0,0,1-2,0C374,793.34,371.17,790,361.46,787.5a1,1,0,0,1,0-2c9.71-2.52,12.49-5.84,14.36-18.45a1,1,0,0,1,2,0c1.87,12.61,4.65,15.93,14.36,18.45A1,1,0,0,1,392.22,787.5Z"/><path class="cls-9" d="M875.62,750.28c-17.22,4.46-22.15,10.35-25.46,32.71a1.84,1.84,0,0,1-3.63,0c-3.32-22.36-8.25-28.25-25.46-32.71a1.84,1.84,0,0,1,0-3.56c17.21-4.46,22.14-10.35,25.46-32.71a1.84,1.84,0,0,1,3.63,0c3.31,22.36,8.24,28.25,25.46,32.71A1.84,1.84,0,0,1,875.62,750.28Z"/></g></g></svg>