<svg id="Layer_1" data-name="Layer 1" xmlns="http://www.w3.org/2000/svg" viewBox="0 0 1080 1080"><defs><style>.cls-1{fill:#00613e;}.cls-2{fill:#f4f1e4;}.cls-3{fill:#ffc655;}.cls-4{fill:#231f20;}.cls-5{fill:#a9db3d;}.cls-6{fill:#c8f255;}.cls-7{fill:#9bbf37;}.cls-8{fill:#e2a324;}.cls-9{fill:#cc8a17;}</style></defs><rect class="cls-1" x="246.13" y="212.43" width="587.17" height="726.69" rx="26.72"/><rect class="cls-2" x="276.36" y="237.43" width="526.71" height="676.7" rx="26.72"/><path class="cls-1" d="M829.85,160.15l-32.19-18.24a7.94,7.94,0,0,0-3.92-1H269.62a23.5,23.5,0,0,0-23.5,23.49v4.26a23.49,23.49,0,0,0,23.5,23.49H793.85a8,8,0,0,0,3.74-.93l32.08-17.11A8,8,0,0,0,829.85,160.15Z"/><path class="cls-3" d="M315.16,165.2a2.25,2.25,0,0,0-.53,1.37c-.08,1.68.95,3.05,3.29,3.05a3.92,3.92,0,0,0,3-1.29,4.39,4.39,0,0,0,1.29-3,4.26,4.26,0,0,0-1.6-3.22,6.38,6.38,0,0,0-4.35-1.39,10.87,10.87,0,0,0-5,1.21,12.77,12.77,0,0,0-4,3,17,17,0,0,0-1.19,1.53l2.45-5.41a.73.73,0,0,0,.11-.37.49.49,0,0,0-.45-.63c-.4-.06-.74.16-1,.66l-.52,1.1a10.63,10.63,0,0,1-2.32,3.16,6.52,6.52,0,0,1-4.56,1.82,4.78,4.78,0,0,1-3.76-1.56,5.52,5.52,0,0,1-1.37-3.76,10.93,10.93,0,0,1,2.76-6.58,9.7,9.7,0,0,1,7.14-3.48c2.55,0,4.19,1.21,4.19,2.66a2.42,2.42,0,0,1-2.35,2.5c-1.13,0-1.65-.55-1.68-1.26a1.39,1.39,0,0,1,.26-.77c.32-.44.32-.79,0-1s-.64-.16-.95.18a2.3,2.3,0,0,0-.63,1.61,2.73,2.73,0,0,0,3,2.63,3.4,3.4,0,0,0,2.66-1.18,4.06,4.06,0,0,0,1.08-2.72,3.53,3.53,0,0,0-1.55-2.81,6.35,6.35,0,0,0-4.06-1.19,9.61,9.61,0,0,0-4.55,1.13,11.83,11.83,0,0,0-3.61,2.82,12.53,12.53,0,0,0-3.11,7.48,6.82,6.82,0,0,0,1.77,4.71,6,6,0,0,0,4.76,2,7.8,7.8,0,0,0,4.22-1.13c.18-.13.42-.18.23.13l-.79,1.74c-1.18,2.71-3,4.27-4.89,4.27-1.27,0-1.93-.5-2-1.5a1.43,1.43,0,0,1,1.39-1.56c1.11,0,1.08-1.34,0-1.34a2.71,2.71,0,0,0-2.08.92,3,3,0,0,0-.79,2c0,1.6,1.16,2.87,3.45,2.87,2.12,0,3.93-1.26,5.41-3.75a10.26,10.26,0,0,0-.36,2.39,8.75,8.75,0,0,0,2.08,6.16,7.22,7.22,0,0,0,5.79,2.58,7,7,0,0,0,4.82-1.79,6.72,6.72,0,0,0,2.35-4,4.07,4.07,0,0,0-.82-3.19,3.49,3.49,0,0,0-3-1.42,4,4,0,0,0-2.84,1,2.87,2.87,0,0,0-1.19,2.16c-.05,1.13,1.29,1.13,1.35,0,.07-.92,1-1.71,2.47-1.69a2.48,2.48,0,0,1,2,.92,2.67,2.67,0,0,1,.58,2.14,4.84,4.84,0,0,1-1.82,3.16,6.17,6.17,0,0,1-8.66-.85,7.72,7.72,0,0,1-1.71-5.1,12.4,12.4,0,0,1,3.19-7.32,10.78,10.78,0,0,1,8-3.8,5.15,5.15,0,0,1,3.42,1,2.81,2.81,0,0,1,1.19,2.32,2.74,2.74,0,0,1-.84,1.89,2.7,2.7,0,0,1-2,.85c-1.34,0-2-.69-1.95-1.5a1.59,1.59,0,0,1,.37-.85C317,164.91,316,164.22,315.16,165.2Z"/><path class="cls-4" d="M529.89,729.47l-1.29-.78a69.61,69.61,0,0,1,8.58-12.57l1.2.91Z"/><path class="cls-5" d="M638.68,385.69c2,1.26,2.93,4.3,3.43,9.71a69.66,69.66,0,0,1-2.67,25.06c-8.29,29.59-32.47,55.79-61.89,65.63-9.45,3.16-20.06,10.58-25,19.43-5.4,9.69-4.9,21.5-5.85,32.21-.27,3.1-1.29,13.79-6.48,12.87-3.52-.61-5.13-11.67-6-14.74a169.79,169.79,0,0,1-6-37.33c-1.08-24.64,4.15-51,22-69.09,7.74-7.86,17.32-13.62,27-18.91A413.08,413.08,0,0,1,628.15,387C633.33,385,636.59,384.38,638.68,385.69Z"/><path class="cls-6" d="M555.68,669.72c.7-1-.53-28-.53-39,1.33-29.25,8-56.5,2-85.5-4.56-22-14.92-41.33-32.47-55.51-19.12-15.46-42.85-24.78-61.19-41.09-17.72-15.77-33.91-33.24-45.34-54.17-2.65-4.87-8-14.65-11.07-3.78-1.88,6.73.56,14.49.34,21.13-.57,16.55-1.35,36,5.43,51.44,10.2,23.16,24.21,43.87,47.08,56.57,13.69,7.6,28.77,12.4,42.63,19.71,26.11,13.76,41.18,32.66,39.95,63-.37,9,1.78,17.59.85,26.55-1.22,11.78-2.5,24-1.84,35.81C541.93,672.36,550.65,677.12,555.68,669.72Z"/><path class="cls-5" d="M454.2,472.42c6.55,14.22,20.7,20.9,33.9,27.77,17.49,9.1,33,18.06,40.78,37.16,2.64,6.48,13.18,3.94,10.75-3-6.35-18.08-20.1-30.4-36.88-38.83-15.51-7.79-34.37-11.51-46.56-24.67-1-1.12-2.55.3-2,1.53Z"/><path class="cls-7" d="M603,425c-8.8,6.37-19.43,9.82-28.61,15.68-10.24,6.55-20.33,16.39-23.4,28.5-1.46,5.75,6.53,9.21,9.59,4,6.85-11.63,13.33-19.2,24.86-26.46,8.05-5.06,15.31-10.92,20-19.37.78-1.42-.89-3.47-2.39-2.39Z"/><path class="cls-4" d="M660.86,722.72h0a5.44,5.44,0,0,1-4.93-2.47,4.56,4.56,0,0,1-.24-4.74c1.86-3.5,7.81-5.48,10.61-5.6h.38c1.84,0,5.78.54,7.45,2.59a3.26,3.26,0,0,1,.68,2.79,4.14,4.14,0,0,1-1.53,2.2C670.82,719.59,665.18,722.72,660.86,722.72Zm5.82-11.31h-.3c-2.78.12-7.92,2.1-9.36,4.81a3,3,0,0,0,.19,3.24,3.9,3.9,0,0,0,3.65,1.76c4.08,0,9.46-3.18,11.44-4.87a2.76,2.76,0,0,0,1-1.37,1.74,1.74,0,0,0-.37-1.54C671.82,712,668.6,711.41,666.68,711.41Z"/><path class="cls-8" d="M631.31,630.56c23.4,19.4,42.74,49.67,47,79.34,1.79,12.55-1,27-11.65,35.78a90.88,90.88,0,0,1-44.27,20c-13,1.86-26.3.4-39.36-1.24-52.64-6.6-139.24,18.63-169.78-24.76-28-39.79-4.42-72.21,23.5-92.59,8.43-6.15,17.11-12,26.6-16.3,19.31-8.69,40.44-13.66,61.45-15.87C560.06,611.19,601.71,606,631.31,630.56Z"/><path class="cls-9" d="M485.66,654.57c-.4.06-2,0-.06.14a2.67,2.67,0,0,0,1.09-.15l-2.72-.72a6.53,6.53,0,0,0,.85.71,2.51,2.51,0,0,0,3-.38,3.22,3.22,0,0,0,.95-2.31c-.12.47-.25.94-.38,1.41a.86.86,0,0,0,.07-.1,3.1,3.1,0,0,0,0-3.14,4,4,0,0,0-3.65-1.89,3.3,3.3,0,0,0-3.28,3.28c0,2.31,2.08,3.47,4.15,3.15Z"/><path class="cls-9" d="M497.3,665.92a5,5,0,0,0,5,.07,5.13,5.13,0,1,0-5-.07Z"/><path class="cls-9" d="M508.26,649.34c2,1.74,3.94,1.74,5.92,0,2.81-2.47.52-7.14-3-7.14s-5.77,4.67-3,7.14Z"/><path class="cls-9" d="M536.67,671.62a8.25,8.25,0,0,0,1.91.87,4.14,4.14,0,0,0,5-5,8.48,8.48,0,0,0-.88-1.91,4.45,4.45,0,1,0-6.08,6.09Z"/><path class="cls-9" d="M530.1,681.1c2.57,0,2.57-4,0-4s-2.56,4,0,4Z"/><path class="cls-9" d="M544,687.62a4.78,4.78,0,0,0,1.24-.94,1.84,1.84,0,0,0,0-2.56,4.78,4.78,0,0,0-1.24-.94,2.57,2.57,0,1,0,0,4.44Z"/><path class="cls-9" d="M623.74,645.58a4.5,4.5,0,0,0,1.26-.91,3,3,0,0,0,0-4.13,4.75,4.75,0,0,0-1.26-.92,3.45,3.45,0,1,0,0,6Z"/><path class="cls-9" d="M635.84,652.31c3.79,0,3.79-5.87,0-5.87s-3.79,5.87,0,5.87Z"/><path class="cls-9" d="M623.25,659a3.69,3.69,0,0,0,.2,1.58,2.43,2.43,0,0,0,4.64,0,3.69,3.69,0,0,0,.2-1.58,2.52,2.52,0,0,0-5,0Z"/><path class="cls-9" d="M645.91,682c5.36,0,5.36-8.32,0-8.32s-5.36,8.32,0,8.32Z"/><path class="cls-9" d="M494.86,688.79a4.08,4.08,0,0,0,1.83-.17,3.37,3.37,0,0,0,0-6.43,4,4,0,0,0-1.83-.18c-1.83.23-3.39,1.38-3.39,3.39s1.56,3.16,3.39,3.39Z"/><path class="cls-9" d="M452.63,664.62a12.72,12.72,0,0,0,1.08-.86,3.25,3.25,0,0,0,0-4.55,12.72,12.72,0,0,0-1.08-.86,3.56,3.56,0,0,0-3.66,0,3.63,3.63,0,0,0,0,6.27,3.56,3.56,0,0,0,3.66,0Z"/><path class="cls-9" d="M557,683.77c6,0,6-9.33,0-9.33s-6,9.33,0,9.33Z"/><path class="cls-9" d="M536.4,699.32c3.34,0,3.34-5.18,0-5.18s-3.34,5.18,0,5.18Z"/><path class="cls-9" d="M560.31,699.76a6.86,6.86,0,0,0,1.75-.13c2.87-.51,2.87-5.28,0-5.8a6.86,6.86,0,0,0-1.75-.13,3,3,0,0,0,0,6.06Z"/><path class="cls-9" d="M629.55,684.62c7.1,0,7.1-11,0-11s-7.11,11,0,11Z"/><path class="cls-9" d="M656.83,696.4c-.07.15-.13.31-.2.46l-3.17,1.82a4.88,4.88,0,0,0,2.45-.62c1.05-.81,1.14-.88.26-.22a5.32,5.32,0,0,0,1.57-1.6c1.33-1.8.27-4.45-1.44-5.51a4.54,4.54,0,0,0-6.67,2.68,4.2,4.2,0,0,0,1.07,4.05l.17.15-1-1.63c.15.43.33.85.52,1.26a3.48,3.48,0,0,0,3,1.73,3.55,3.55,0,0,0,3.37-2.57Z"/><path class="cls-9" d="M531.05,642.78a3.81,3.81,0,0,0,2.58,1,2.71,2.71,0,0,0,2.64-2.65,3.79,3.79,0,0,0-1-2.58c-1.19-1.57-3.34-2.18-4.9-.63s-.94,3.7.64,4.9Z"/><path class="cls-9" d="M540.17,650.43c3.6,0,3.6-5.58,0-5.58s-3.59,5.58,0,5.58Z"/><path class="cls-9" d="M608.86,635.11a4.45,4.45,0,0,0,2.93-1.08,2.14,2.14,0,0,0,0-3,4.46,4.46,0,0,0-2.93-1.09c-1.69-.23-3.39.67-3.39,2.58s1.7,2.82,3.39,2.58Z"/><path class="cls-3" d="M885,914.08c0,7.08-32.18,9-34.26,15.36-2.14,6.61,22.7,27,18.69,32.56s-31.19-11.78-36.75-7.73,2.62,35.2-4,37.34c-6.39,2.08-18.12-27.87-25.19-27.87s-18.8,30-25.19,27.87c-6.61-2.15,1.52-33.33-4-37.34s-32.7,13.29-36.75,7.73,20.83-26,18.69-32.56c-2.08-6.39-34.26-8.28-34.26-15.36s32.18-9,34.26-15.35c2.14-6.62-22.7-27.06-18.69-32.56s31.19,11.78,36.75,7.73-2.62-35.2,4-37.34c6.39-2.08,18.12,27.87,25.19,27.87s18.8-29.95,25.19-27.87c6.61,2.14-1.52,33.33,4,37.34s32.7-13.29,36.75-7.73-20.83,25.94-18.69,32.56C852.82,905.11,885,907,885,914.08Z"/><path class="cls-3" d="M302,227.08c0,4.87-22.11,6.17-23.54,10.55-1.47,4.55,15.6,18.6,12.84,22.38s-21.43-8.09-25.25-5.31,1.8,24.18-2.74,25.66c-4.39,1.42-12.45-19.15-17.31-19.15s-12.92,20.57-17.31,19.15,1-22.91-2.74-25.66-22.47,9.13-25.25,5.31,14.31-17.83,12.84-22.38C212.11,233.25,190,232,190,227.08s22.11-6.16,23.54-10.55c1.47-4.54-15.6-18.59-12.84-22.37s21.43,8.09,25.25,5.31-1.8-24.18,2.74-25.66S241.14,193,246,193s12.92-20.57,17.31-19.15c4.54,1.48-1,22.91,2.74,25.66s22.47-9.13,25.25-5.31S277,212,278.46,216.53C279.89,220.92,302,222.22,302,227.08Z"/><path class="cls-1" d="M653.69,531.25c-11.31,2.94-14.55,6.8-16.73,21.5a1.2,1.2,0,0,1-2.38,0c-2.18-14.7-5.42-18.56-16.73-21.5a1.2,1.2,0,0,1,0-2.33c11.31-2.94,14.55-6.81,16.73-21.5a1.2,1.2,0,0,1,2.38,0c2.18,14.69,5.42,18.56,16.73,21.5A1.2,1.2,0,0,1,653.69,531.25Z"/><path class="cls-1" d="M500.69,387.25c-11.31,2.94-14.55,6.8-16.73,21.5a1.2,1.2,0,0,1-2.38,0c-2.18-14.7-5.42-18.56-16.73-21.5a1.2,1.2,0,0,1,0-2.33c11.31-2.94,14.55-6.81,16.73-21.5a1.2,1.2,0,0,1,2.38,0c2.18,14.69,5.42,18.56,16.73,21.5A1.2,1.2,0,0,1,500.69,387.25Z"/><path class="cls-1" d="M442.69,578.25c-11.31,2.94-14.55,6.8-16.73,21.5a1.2,1.2,0,0,1-2.38,0c-2.18-14.7-5.42-18.56-16.73-21.5a1.2,1.2,0,0,1,0-2.33c11.31-2.94,14.55-6.81,16.73-21.5a1.2,1.2,0,0,1,2.38,0c2.18,14.69,5.42,18.56,16.73,21.5A1.2,1.2,0,0,1,442.69,578.25Z"/></svg>