<svg id="Layer_1" data-name="Layer 1" xmlns="http://www.w3.org/2000/svg" viewBox="0 0 1080 1080"><defs><style>.cls-1{fill:#00472c;}.cls-2{fill:#f4f1e4;}.cls-3{fill:#00613e;}.cls-4{fill:#ffc655;}.cls-5{fill:#318c69;}</style></defs><polygon class="cls-1" points="620.5 924.67 459.5 924.67 479.5 774.67 600.5 774.67 620.5 924.67"/><path class="cls-2" d="M983,189a40.65,40.65,0,0,0-40.64-40.64H137.64A40.65,40.65,0,0,0,97,189v550.7H983Z"/><path class="cls-3" d="M137.64,813H942.36A40.64,40.64,0,0,0,983,772.36V739.67H97v32.69A40.64,40.64,0,0,0,137.64,813Z"/><rect class="cls-3" x="141" y="189" width="798" height="510"/><path class="cls-4" d="M582.85,369.78c104.74-181.42-190.44-181.42-85.7,0C392.41,188.36,244.81,444,454.3,444c-209.49,0-61.89,255.64,42.85,74.22-104.74,181.42,190.44,181.42,85.7,0C687.59,699.64,835.19,444,625.7,444,835.19,444,687.59,188.36,582.85,369.78Z"/><circle class="cls-5" cx="540" cy="444" r="80.52"/><path class="cls-4" d="M561.53,441.47a6.47,6.47,0,0,0-1.53,4c-.22,4.88,2.75,8.84,9.53,8.84a11.44,11.44,0,0,0,8.69-3.73,12.81,12.81,0,0,0,3.73-8.61,12.26,12.26,0,0,0-4.65-9.3c-3-2.67-7.24-4-12.57-4a31.57,31.57,0,0,0-14.56,3.5,37,37,0,0,0-11.66,8.84,49.52,49.52,0,0,0-3.43,4.43l7.09-15.67a2.08,2.08,0,0,0,.31-1.07,1.43,1.43,0,0,0-1.3-1.83c-1.14-.15-2.13.46-2.82,1.91l-1.52,3.2a30.5,30.5,0,0,1-6.71,9.14A18.8,18.8,0,0,1,517,446.3c-4.65,0-8.23-1.52-10.9-4.49a16,16,0,0,1-4-10.9c0-6.1,3.12-13.26,8-19.05s12.65-10.07,20.65-10.07c7.39,0,12.12,3.51,12.12,7.7a7,7,0,0,1-6.78,7.24c-3.28-.07-4.8-1.6-4.88-3.66a3.92,3.92,0,0,1,.76-2.21c.92-1.29.92-2.28-.07-3s-1.83-.46-2.75.54a6.61,6.61,0,0,0-1.83,4.64c0,4,3.2,7.63,8.77,7.63a9.86,9.86,0,0,0,7.69-3.43,11.69,11.69,0,0,0,3.13-7.85,10.38,10.38,0,0,0-4.5-8.16c-2.89-2.28-6.78-3.43-11.73-3.43a27.72,27.72,0,0,0-13.19,3.28A33.88,33.88,0,0,0,507,409.26c-5.49,6.63-9,14.71-9,21.65a19.83,19.83,0,0,0,5.1,13.64c3.43,3.89,8,5.79,13.8,5.79a22.64,22.64,0,0,0,12.19-3.27c.54-.39,1.22-.54.69.38l-2.29,5c-3.43,7.85-8.76,12.34-14.17,12.34-3.66,0-5.57-1.45-5.8-4.34a4.14,4.14,0,0,1,4-4.5c3.2,0,3.13-3.88.08-3.88a7.81,7.81,0,0,0-6,2.66,8.83,8.83,0,0,0-2.29,5.72c0,4.65,3.36,8.31,10,8.31,6.13,0,11.37-3.64,15.68-10.84a28.51,28.51,0,0,0-1.06,6.92,25.39,25.39,0,0,0,6,17.83c4.19,4.95,9.83,7.47,16.76,7.47a20.41,20.41,0,0,0,14-5.18,19.51,19.51,0,0,0,6.78-11.74,11.65,11.65,0,0,0-2.36-9.22,10.13,10.13,0,0,0-8.54-4.12,11.74,11.74,0,0,0-8.23,2.75A8.32,8.32,0,0,0,549,468.9c-.15,3.28,3.74,3.28,3.89,0,.23-2.66,3-4.95,7.16-4.87a7.15,7.15,0,0,1,5.8,2.66,7.75,7.75,0,0,1,1.67,6.18,13.88,13.88,0,0,1-5.26,9.14,17.85,17.85,0,0,1-25.07-2.44,22.19,22.19,0,0,1-4.95-14.78c.22-6.94,3.73-14.86,9.22-21.19a31.31,31.31,0,0,1,23.17-11c4.26,0,7.54,1,9.9,3a8.12,8.12,0,0,1,3.43,6.71,8.35,8.35,0,0,1-8.15,7.92c-3.89,0-5.72-2-5.64-4.34a4.62,4.62,0,0,1,1.07-2.44C566.79,440.63,563.89,438.65,561.53,441.47Z"/><path class="cls-4" d="M549.52,775.22a2.83,2.83,0,0,0-.67,1.75c-.11,2.15,1.21,3.91,4.21,3.91a5.06,5.06,0,0,0,3.84-1.65,5.71,5.71,0,0,0,1.65-3.81,5.44,5.44,0,0,0-2-4.11,8.19,8.19,0,0,0-5.57-1.79,14,14,0,0,0-6.43,1.55,16.31,16.31,0,0,0-5.16,3.91,23.25,23.25,0,0,0-1.52,1.95L541,770a1,1,0,0,0,.14-.48.62.62,0,0,0-.58-.8c-.5-.07-.94.2-1.24.84L538.6,771a13.26,13.26,0,0,1-3,4,8.36,8.36,0,0,1-5.83,2.32,6.11,6.11,0,0,1-4.82-2,7,7,0,0,1-1.75-4.81,14,14,0,0,1,3.53-8.43,12.4,12.4,0,0,1,9.14-4.45c3.27,0,5.35,1.55,5.35,3.41a3.1,3.1,0,0,1-3,3.2c-1.45,0-2.13-.71-2.16-1.62a1.71,1.71,0,0,1,.34-1c.4-.57.4-1,0-1.31s-.81-.2-1.21.23a2.94,2.94,0,0,0-.81,2.06c0,1.79,1.42,3.37,3.88,3.37a4.36,4.36,0,0,0,3.4-1.52,5.15,5.15,0,0,0,1.38-3.47,4.55,4.55,0,0,0-2-3.6,8.14,8.14,0,0,0-5.19-1.52,12.25,12.25,0,0,0-5.83,1.45,15,15,0,0,0-4.61,3.6c-2.43,2.94-4,6.51-4,9.58a8.77,8.77,0,0,0,2.26,6,7.69,7.69,0,0,0,6.1,2.56,10,10,0,0,0,5.39-1.45c.23-.17.54-.24.3.17l-1,2.22c-1.52,3.47-3.87,5.46-6.27,5.46-1.61,0-2.46-.64-2.56-1.92a1.83,1.83,0,0,1,1.79-2c1.41,0,1.38-1.72,0-1.72a3.47,3.47,0,0,0-2.66,1.18,3.88,3.88,0,0,0-1,2.53c0,2.06,1.48,3.67,4.41,3.67,2.72,0,5-1.6,6.94-4.78a12.29,12.29,0,0,0-.47,3,11.25,11.25,0,0,0,2.66,7.89,9.28,9.28,0,0,0,7.42,3.3,9,9,0,0,0,6.16-2.29,8.63,8.63,0,0,0,3-5.19,5.16,5.16,0,0,0-1-4.08,4.49,4.49,0,0,0-3.78-1.82,5.19,5.19,0,0,0-3.63,1.21,3.68,3.68,0,0,0-1.52,2.77c-.07,1.45,1.65,1.45,1.72,0,.1-1.18,1.31-2.19,3.17-2.16a3.15,3.15,0,0,1,2.56,1.18,3.42,3.42,0,0,1,.74,2.73,6.17,6.17,0,0,1-2.33,4,7.88,7.88,0,0,1-11.08-1.08,9.86,9.86,0,0,1-2.2-6.53,16,16,0,0,1,4.08-9.37,13.86,13.86,0,0,1,10.25-4.85,6.6,6.6,0,0,1,4.38,1.31,3.59,3.59,0,0,1,1.51,3,3.68,3.68,0,0,1-3.6,3.5c-1.72,0-2.53-.88-2.49-1.92a2,2,0,0,1,.47-1.08C551.84,774.84,550.56,774,549.52,775.22Z"/><rect class="cls-1" x="425.5" y="916.67" width="229" height="15"/><path class="cls-4" d="M340.09,297.17c-11.31,2.93-14.55,6.8-16.73,21.49a1.2,1.2,0,0,1-2.38,0c-2.18-14.69-5.42-18.56-16.73-21.49a1.21,1.21,0,0,1,0-2.34c11.31-2.93,14.55-6.8,16.73-21.49a1.2,1.2,0,0,1,2.38,0c2.18,14.69,5.42,18.56,16.73,21.49A1.21,1.21,0,0,1,340.09,297.17Z"/><path class="cls-4" d="M781.09,565.17c-11.31,2.93-14.55,6.8-16.73,21.49a1.2,1.2,0,0,1-2.38,0c-2.18-14.69-5.42-18.56-16.73-21.49a1.21,1.21,0,0,1,0-2.34c11.31-2.93,14.55-6.8,16.73-21.49a1.2,1.2,0,0,1,2.38,0c2.18,14.69,5.42,18.56,16.73,21.49A1.21,1.21,0,0,1,781.09,565.17Z"/></svg>