<svg id="Layer_1" data-name="Layer 1" xmlns="http://www.w3.org/2000/svg" viewBox="0 0 1080 1080"><defs><style>.cls-1{fill:#00613e;}.cls-2{fill:#ffc655;}</style></defs><rect class="cls-1" x="95.5" y="281.5" width="889" height="517" rx="51.23"/><path class="cls-2" d="M162.48,558.49a165.35,165.35,0,0,0,3.28-21.86c.82-8.74,1.27-17.22,1.27-25.32V475.14c0-8.1-.45-16.58-1.27-25.41a165.53,165.53,0,0,0-3.28-21.87H213.4q-4.1,19.27-4.1,47.28v36.17c0,18.58,1.37,34.34,4.1,47.18Z"/><path class="cls-2" d="M244.47,547.56c-11.57-9-17.31-20.95-17.31-35.71a46.09,46.09,0,0,1,15.31-34.7c9.83-9,26-14.58,45.54-14.58,23.69.09,38.9,5.92,46.55,14.3A26.93,26.93,0,0,1,342.12,496c0,17.22-13.93,25.78-38.26,25.78-16,0-28.33-2.55-38.26-10.11l-1.45.91c.73,5.74,4.73,10.75,12.11,15s15.85,6.47,25.69,6.47a71.88,71.88,0,0,0,21.77-3.28q10.39-3.27,15.58-9l.73,30.7c-5,2.55-12.12,4.65-21.41,6.29a168.9,168.9,0,0,1-27.78,2.37C271.43,561.14,256,556.58,244.47,547.56ZM298.67,508c3.1-2,4.65-4.56,4.65-7.75,0-7.37-6.93-12.11-17.95-12.11a22.11,22.11,0,0,0-13,4A17.39,17.39,0,0,0,265.42,504c5.1,4.74,12.48,7.1,22.23,7.1A19.14,19.14,0,0,0,298.67,508Z"/><path class="cls-2" d="M365.36,525.7v-48H348.78V465.21h16.58v-27l39.36-10.3v37.35h30.42v12.48H404.72v32.89c0,5.37,1.73,9.56,5.19,12.48a18.8,18.8,0,0,0,12.75,4.46c5.19,0,10.93-2,13.57-4.64v32.79a43.16,43.16,0,0,1-10.74,3.92,56.67,56.67,0,0,1-12.58,1.55Q365.36,561.14,365.36,525.7Z"/><path class="cls-2" d="M450.27,481.25a33.75,33.75,0,0,0,9.38-7.57,26.94,26.94,0,0,0,6.29-10.11,12.31,12.31,0,0,1-4.28.55,13.52,13.52,0,0,1-10.12-4.19A15.07,15.07,0,0,1,447.45,449a17,17,0,0,1,16.76-16.76,18.34,18.34,0,0,1,13.39,5.64q5.46,5.75,5.46,15.58c0,14.67-7.92,28-21,37.35Z"/><path class="cls-2" d="M513.22,558.77c-10.93-1.64-19.4-3.46-25.51-5.47V518.23A139.11,139.11,0,0,0,513,526.52c9.65,2.28,17.94,3.46,24.77,3.46,12.85,0,20.14-2.28,20.14-6.38,0-12.84-69.6,2.92-69.6-32.24,0-8.57,4.46-15.49,13.39-20.86s21.59-7.93,38.26-7.93A123.69,123.69,0,0,1,585.28,471l-.19,32a104.93,104.93,0,0,0-18.85-6.84A87.64,87.64,0,0,0,543.1,493c-11,0-17.67,2.64-17.67,6.37,0,6.47,22.77,4.74,42.36,8.38,14.48,2.46,27.51,8.57,27.42,22.78,0,9.75-4.74,17.22-14.31,22.59s-23,8-40.53,8A199.75,199.75,0,0,1,513.22,558.77Z"/><path class="cls-2" d="M177.51,667.47c-10.2-9.11-15-20.77-15-34.62s4.83-25.5,15-34.7,27.69-14.58,50.65-14.58a153.54,153.54,0,0,1,20.31,1.82c8.29,1.19,14.49,2.65,18.49,4.38l-1.82,31q-4.77-3.42-13.66-6A62.08,62.08,0,0,0,234,612.17c-19.68,0-31.61,7.57-31.61,20.68s12.48,20.68,34.34,20.68a72.45,72.45,0,0,0,17.95-2.46,58,58,0,0,0,16-6.47v32.07c-4.19,1.55-10.66,2.82-19.31,3.92a205.67,205.67,0,0,1-23.23,1.55C205.2,682.14,187.62,676.67,177.51,667.47Z"/><path class="cls-2" d="M284.28,679.49a170.72,170.72,0,0,0,3.28-17.67,154.32,154.32,0,0,0,1-18.86V627.48a186.71,186.71,0,0,0-4.28-41.27h53.38a33.06,33.06,0,0,0-4.83,11.66,58.61,58.61,0,0,0-1.73,13.94v5.56h2.28c3.55-21.59,15.76-33.8,33.62-33.8a35.86,35.86,0,0,1,14.84,2.83v38.44c-4.73-5-13.66-8.75-22.5-8.75a28.39,28.39,0,0,0-19.85,7.65A25,25,0,0,0,331.1,643v8.39q0,17.63,4.1,28.14Z"/><path class="cls-2" d="M407.18,668.56c-11.57-9-17.31-20.95-17.31-35.71a46.08,46.08,0,0,1,15.3-34.7c9.84-9,26-14.58,45.55-14.58,23.69.09,38.9,5.92,46.55,14.3A27,27,0,0,1,504.83,617c0,17.22-13.94,25.78-38.26,25.78-16,0-28.33-2.55-38.26-10.11l-1.46.91c.73,5.74,4.74,10.75,12.12,15s15.85,6.47,25.69,6.47a71.88,71.88,0,0,0,21.77-3.28q10.38-3.27,15.58-9l.73,30.7c-5,2.55-12.12,4.65-21.41,6.29a168.92,168.92,0,0,1-27.79,2.37C434.14,682.14,418.75,677.58,407.18,668.56ZM461.38,629c3.1-2,4.64-4.56,4.64-7.75,0-7.37-6.92-12.11-17.94-12.11a22.11,22.11,0,0,0-13,4A17.39,17.39,0,0,0,428.13,625c5.1,4.74,12.48,7.1,22.23,7.1A19.14,19.14,0,0,0,461.38,629Z"/><path class="cls-2" d="M518,666.19a29.78,29.78,0,0,1-4.28-15.76,29.39,29.39,0,0,1,10.11-22.68c6.74-6.1,16.21-9.11,28.33-9.11,17.94,0,30.06,7.2,35.07,17.77h2.46v-8.2c0-7.2-2.73-12.57-8.2-16.31s-12.48-5.56-20.77-5.56A71.92,71.92,0,0,0,540,609.26q-9.71,2.87-14.75,7.38V590c4.28-1.55,11-3,20.31-4.37a171.25,171.25,0,0,1,25.05-2q59.16,0,59.12,35.89v15.85c0,11.85.36,21.05,1,27.51a67.09,67.09,0,0,0,3.46,16.67H586.64q3-4.63,3-13.66v-1.64h-2.1c-5.1,10.93-17.3,17.95-35.61,17.95C535.81,682.14,523.6,675.67,518,666.19Zm71.14-16.57q0-4.79-4.92-8.2c-3.28-2.28-7.65-3.37-13-3.37-11,0-17.77,4.64-17.77,11.57,0,6.64,6.84,11.56,17.77,11.56S589.1,656.63,589.1,649.62Z"/><path class="cls-2" d="M652.06,646.7v-48H635.48V586.21h16.58V559.16l39.35-10.3v37.35h30.43v12.48H691.41v32.89c0,5.37,1.73,9.56,5.19,12.48a18.83,18.83,0,0,0,12.76,4.46c5.19,0,10.93-2,13.57-4.64v32.79a43.25,43.25,0,0,1-10.75,3.92,56.51,56.51,0,0,1-12.57,1.55Q652.06,682.14,652.06,646.7Z"/><path class="cls-2" d="M748.26,668.56c-11.57-9-17.31-20.95-17.31-35.71a46.09,46.09,0,0,1,15.31-34.7c9.83-9,26-14.58,45.54-14.58,23.69.09,38.9,5.92,46.55,14.3A27,27,0,0,1,845.92,617c0,17.22-13.94,25.78-38.26,25.78-16,0-28.34-2.55-38.27-10.11l-1.45.91c.73,5.74,4.73,10.75,12.11,15s15.85,6.47,25.69,6.47a71.88,71.88,0,0,0,21.77-3.28q10.4-3.27,15.58-9l.73,30.7c-5,2.55-12.12,4.65-21.41,6.29a168.9,168.9,0,0,1-27.78,2.37C775.22,682.14,759.83,677.58,748.26,668.56ZM802.46,629c3.1-2,4.65-4.56,4.65-7.75,0-7.37-6.92-12.11-18-12.11a22.06,22.06,0,0,0-13,4A17.36,17.36,0,0,0,769.21,625c5.1,4.74,12.48,7.1,22.23,7.1A19.12,19.12,0,0,0,802.46,629Z"/><path class="cls-2" d="M864.51,633.58l-6.38-84.72h46.64l-6.56,84.72Zm.45,43a18.1,18.1,0,0,1-6.1-14,18.58,18.58,0,0,1,6.1-14.39c4-3.74,9.48-5.65,16.31-5.65s12.39,1.91,16.49,5.65a18.58,18.58,0,0,1,6.1,14.39,18.1,18.1,0,0,1-6.1,14c-4.1,3.73-9.57,5.56-16.49,5.56S869,680.31,865,676.58Z"/><path class="cls-2" d="M678.29,479.59c-7.81,1.76-10.07,4.61-11.47,14.42-.17,1.19-1.53,1.19-1.7,0-1.4-9.81-3.66-12.66-11.47-14.42a1.15,1.15,0,0,1,0-2.13c7.81-1.76,10.07-4.61,11.47-14.42.17-1.19,1.53-1.19,1.7,0,1.4,9.81,3.66,12.66,11.47,14.42A1.15,1.15,0,0,1,678.29,479.59Z"/><path class="cls-2" d="M883.29,367.59c-7.81,1.76-10.07,4.61-11.47,14.42-.17,1.19-1.53,1.19-1.7,0-1.4-9.81-3.66-12.66-11.47-14.42a1.15,1.15,0,0,1,0-2.13c7.81-1.76,10.07-4.61,11.47-14.42.17-1.19,1.53-1.19,1.7,0,1.4,9.81,3.66,12.66,11.47,14.42A1.15,1.15,0,0,1,883.29,367.59Z"/><path class="cls-2" d="M863,445.5c0,5.56-45.67,5.05-47,10.19C814.54,461,854.3,483.37,851.61,488s-42-18.57-45.83-14.74,19.46,43.1,14.74,45.83-27-37.07-32.33-35.65c-5.14,1.37-4.63,47-10.19,47s-5-45.67-10.19-47c-5.31-1.42-27.68,38.34-32.33,35.65s18.57-42,14.74-45.83-43.1,19.46-45.83,14.74,37.07-27,35.65-32.33c-1.37-5.14-47-4.63-47-10.19s45.67-5.05,47-10.19c1.42-5.31-38.34-27.68-35.65-32.33s42,18.57,45.83,14.74-19.46-43.1-14.74-45.83,27,37.07,32.33,35.65c5.14-1.37,4.63-47,10.19-47s5,45.67,10.19,47c5.31,1.42,27.68-38.34,32.33-35.65s-18.57,42-14.74,45.83,43.1-19.46,45.83-14.74S814.54,430,816,435.31C817.33,440.45,863,439.94,863,445.5Z"/></svg>