<svg id="Layer_1" data-name="Layer 1" xmlns="http://www.w3.org/2000/svg" xmlns:xlink="http://www.w3.org/1999/xlink" viewBox="0 0 1080 1080"><defs><style>.cls-1{fill:none;}.cls-2{clip-path:url(#clip-path);}.cls-3{fill:#3c3c3b;}.cls-4{fill:#ffc655;}.cls-5{fill:#dadada;}.cls-12,.cls-6{fill:#fff;}.cls-7{fill:#634e42;}.cls-8{fill:#7b6a58;}.cls-9{fill:#575756;}.cls-10{fill:#64b27a;}.cls-11{fill:#00613e;}.cls-12{opacity:0.3;}</style><clipPath id="clip-path"><rect class="cls-1" x="359.58" y="166.26" width="360.85" height="418.63"/></clipPath></defs><g class="cls-2"><path class="cls-3" d="M393.75,330.57c4.63,18.52,1.43,25.71-4.37,27.16s-12-3.38-16.64-21.9-.14-45.17-.14-45.17S389.12,312.05,393.75,330.57Z"/><path class="cls-4" d="M426.21,455.86l-23.12,5.79,129.34,517h0c2.09,8.36,9,13.84,15.34,12.24s9.86-9.66,7.77-18h0Z"/><polygon class="cls-5" points="432.35 473.3 395.9 348.1 379.09 352.3 405.88 479.92 432.35 473.3"/><polygon class="cls-6" points="381.96 354.75 406.67 473.48 414.86 471.43 385.46 353.88 381.96 354.75"/><path class="cls-7" d="M642.34,290.08c-3.69,18.73-7.3,24.32-10.28,23.74s-4.2-7.14-.51-25.87,13.88-42,13.88-42S646,271.35,642.34,290.08Z"/><path class="cls-4" d="M606.15,399.29q-49,261.3-98.09,522.58h0c-1.57,8.47-1.12,15.67,1,16.09s5.28-6.08,7-14.51h0Q569.85,663.09,623.6,402.73Z"/><path class="cls-5" d="M622.53,418.19C632.84,351.88,638.6,314.76,642.29,291l-11-2.17L601.27,414Z"/><path class="cls-6" d="M632.71,293.72c-4.65,19.39-15.06,63.44-28,117.64l6.58,1.3c18.52-88.18,18.88-91.63,24.65-118.31Z"/><path class="cls-8" d="M575.12,301.39C581.34,334,551,362,543,360.66c-10.22-1.72-4.7-8.62-14-38.28C518.3,288.7,534.63,260.1,565.23,242,555.06,277.37,570.75,278.48,575.12,301.39Z"/><path class="cls-4" d="M519.29,467.7c-10.5,172.15-18.5,344.48-25,516.9h0c-.28,8.61,3.71,15.89,8.9,16.25s10.14-6.29,11.07-14.86h0c17.42-171.65,33.38-343.43,46.85-515.37Z"/><path class="cls-5" d="M562.64,480.49c1.17-58.92,2-103.08,2.38-137.41l-32-2.22c-4.36,34.05-9.68,77.89-16.69,136.41Z"/><path class="cls-6" d="M536.63,345.6C533,373.88,525.79,423.93,520,472.53l11.45.79c3.16-45.37,7.26-99,10.88-127.32Z"/><path class="cls-4" d="M538,875.6,463.21,235.07l-32.69,3.81,74.74,640.54h0c1,8.55,9.13,14.63,18.16,13.58S539,884.16,538,875.6Z"/><rect class="cls-5" x="435.09" y="236.58" width="37.25" height="118.18" transform="translate(-31.21 54.58) rotate(-6.66)"/><rect class="cls-6" x="438.42" y="240.96" width="8.2" height="111.64" transform="translate(-31.42 53.29) rotate(-6.66)"/><rect class="cls-9" x="425.3" y="186.41" width="37.25" height="50.74" transform="translate(-21.55 52.87) rotate(-6.65)"/><path class="cls-4" d="M661.68,487.09l-27.63-8.87L470.71,986.92h0c-2.64,8.2,1.41,16.83,9,19.28s15.95-2.21,18.59-10.41h0Z"/><polygon class="cls-5" points="661.84 495.1 691.16 380.39 672.19 374.3 629.26 484.64 661.84 495.1"/><polygon class="cls-6" points="674.25 378.53 633.82 482.47 641.86 485.05 678.16 379.79 674.25 378.53"/><polygon class="cls-9" points="709.36 332.94 685.23 325.2 672.4 374.37 691.16 380.39 709.36 332.94"/></g><path class="cls-10" d="M617.3,913.74H443.83c-16.29,0-30.53-9.49-34.52-23.07-29.27-99.59-43.7-203.22-29.53-302.91,2.19-15.37,17.35-26.94,35.37-26.94H646c18,0,33.18,11.57,35.36,26.94,14.18,99.69-.26,203.32-29.52,302.91C647.84,904.25,633.6,913.74,617.3,913.74Z"/><path class="cls-11" d="M391.79,821.92q7.45,34.58,17.51,68.71c4,13.59,18.23,23.11,34.54,23.11H617.29c16.31,0,30.56-9.52,34.54-23.11q10-34.08,17.51-68.71Z"/><path class="cls-12" d="M440.46,577.63H403.39a5.09,5.09,0,0,0-5.24,3.93c-12.87,83.82-5.29,170.52,14.55,255.37,1.29,5.52,10.84,4.45,10.44-1.18-4.91-70.36-6.95-183.81,22.28-252C446.68,580.75,444.12,577.63,440.46,577.63Z"/><path class="cls-11" d="M341.8,480.46c-15,3.88-19.26,9-22.15,28.45a1.59,1.59,0,0,1-3.15,0c-2.88-19.44-7.17-24.57-22.15-28.45a1.59,1.59,0,0,1,0-3.09c15-3.88,19.27-9,22.15-28.45a1.59,1.59,0,0,1,3.15,0c2.89,19.44,7.17,24.57,22.15,28.45A1.59,1.59,0,0,1,341.8,480.46Z"/><path class="cls-11" d="M778.56,275.77c-18,4.66-23.13,10.81-26.59,34.16a1.92,1.92,0,0,1-3.79,0c-3.46-23.35-8.61-29.5-26.59-34.16a1.91,1.91,0,0,1,0-3.71c18-4.66,23.13-10.81,26.59-34.16a1.92,1.92,0,0,1,3.79,0c3.46,23.35,8.61,29.5,26.59,34.16A1.91,1.91,0,0,1,778.56,275.77Z"/><path class="cls-4" d="M728,798.5c0,4.51-20.53,5.72-21.86,9.8s14.48,17.26,11.93,20.77-19.9-7.51-23.45-4.93,1.67,22.46-2.55,23.83S680.51,830.18,676,830.18,664,849.29,659.93,848s1-21.27-2.55-23.83-20.86,8.48-23.45,4.93,13.3-16.55,11.93-20.77S624,803,624,798.5s20.53-5.72,21.86-9.8-14.48-17.26-11.93-20.77,19.9,7.51,23.45,4.93-1.67-22.46,2.55-23.83,11.56,17.79,16.07,17.79,12-19.11,16.07-17.79-1,21.27,2.55,23.83,20.86-8.48,23.45-4.93-13.3,16.55-11.93,20.77S728,794,728,798.5Z"/></svg>