<svg id="Layer_1" data-name="Layer 1" xmlns="http://www.w3.org/2000/svg" viewBox="0 0 718.5 787.6"><defs><style>.cls-1{fill:#ffc655;}.cls-2{fill:#00613e;}</style></defs><path class="cls-1" d="M620.24,401C816.4,61.26,263.6,61.26,459.76,401,263.6,61.26-12.8,540,379.51,540c-392.31,0-115.91,478.74,80.25,139-196.16,339.75,356.64,339.75,160.48,0,196.16,339.75,472.56-139,80.25-139C1092.8,540,816.4,61.26,620.24,401Z" transform="translate(-180.75 -146.2)"/><circle class="cls-2" cx="359.25" cy="393.8" r="150.78"/><path class="cls-1" d="M580.32,535.26a12.11,12.11,0,0,0-2.86,7.42c-.43,9.13,5.14,16.56,17.84,16.56a21.4,21.4,0,0,0,16.27-7,24,24,0,0,0,7-16.13c-.15-6.7-3-12.41-8.71-17.41s-13.56-7.56-23.55-7.56a59.12,59.12,0,0,0-27.26,6.56,69,69,0,0,0-21.84,16.56,92.76,92.76,0,0,0-6.42,8.28l13.28-29.34a3.88,3.88,0,0,0,.57-2c.29-2-.57-3.14-2.42-3.42-2.15-.29-4,.85-5.28,3.56l-2.86,6a56.89,56.89,0,0,1-12.56,17.12,35.25,35.25,0,0,1-24.69,9.85c-8.71,0-15.41-2.85-20.41-8.42A30,30,0,0,1,469,515.48c0-11.42,5.85-24.83,15-35.68S507.68,461,522.66,461c13.85,0,22.7,6.57,22.7,14.42,0,7.28-5.43,13.56-12.71,13.56-6.13-.15-9-3-9.13-6.85A7.21,7.21,0,0,1,525,478c1.71-2.43,1.71-4.29-.15-5.57-1.71-1.28-3.42-.86-5.13,1a12.4,12.4,0,0,0-3.43,8.71c0,7.56,6,14.27,16.41,14.27a18.48,18.48,0,0,0,14.42-6.42,21.89,21.89,0,0,0,5.85-14.71c-.14-5.85-2.85-11-8.42-15.27-5.42-4.28-12.7-6.42-22-6.42a51.86,51.86,0,0,0-24.69,6.14A63.19,63.19,0,0,0,478.28,475c-10.28,12.42-16.85,27.55-16.85,40.53A37.14,37.14,0,0,0,471,541c6.42,7.28,15,10.85,25.83,10.85a42.45,42.45,0,0,0,22.84-6.14c1-.71,2.28-1,1.28.71l-4.28,9.42c-6.42,14.7-16.42,23.13-26.55,23.13-6.85,0-10.42-2.72-10.85-8.14a7.74,7.74,0,0,1,7.57-8.42c6,0,5.85-7.28.14-7.28a14.57,14.57,0,0,0-11.27,5,16.51,16.51,0,0,0-4.29,10.7c0,8.71,6.28,15.56,18.7,15.56,11.49,0,21.3-6.81,29.36-20.29a53,53,0,0,0-2,13c-.43,13,3.42,24.12,11.27,33.39s18.41,14,31.4,14a38.17,38.17,0,0,0,26.12-9.71c7.28-6.42,11.42-13.84,12.7-22a21.92,21.92,0,0,0-4.42-17.27c-3.86-5.13-9.28-7.7-16-7.7q-9.2-.22-15.41,5.14c-4.14,3.42-6.28,7.27-6.42,11.7-.29,6.14,7,6.14,7.28,0,.42-5,5.56-9.28,13.41-9.14a13.36,13.36,0,0,1,10.85,5,14.45,14.45,0,0,1,3.14,11.56q-1.08,9.63-9.85,17.13a31.43,31.43,0,0,1-21.12,7.56c-10.71,0-19.27-4-25.84-12.13a41.66,41.66,0,0,1-9.27-27.69c.43-13,7-27.83,17.27-39.68S569,518.7,586,518.7c8,0,14.12,1.86,18.55,5.57s6.56,7.85,6.42,12.56a15.64,15.64,0,0,1-15.27,14.84c-7.28,0-10.7-3.71-10.56-8.13,0-1.29.71-2.72,2-4.57C590.16,533.69,584.74,530,580.32,535.26Z" transform="translate(-180.75 -146.2)"/></svg>