<svg id="Layer_1" data-name="Layer 1" xmlns="http://www.w3.org/2000/svg" xmlns:xlink="http://www.w3.org/1999/xlink" viewBox="0 0 1300 200"><defs><style>.cls-1{fill:none;}.cls-2{clip-path:url(#clip-path);}.cls-3{fill:#ea8b4b;}.cls-4{fill:#ffc655;}.cls-5{fill:#00613e;}.cls-6{fill:#ff8a82;}.cls-7{fill:#3bb55d;}.cls-8{clip-path:url(#clip-path-2);}.cls-9{fill:#231f20;}.cls-10{fill:#a9db3d;}.cls-11{fill:#c8f255;}.cls-12{fill:#9bbf37;}.cls-13{fill:#e2a324;}.cls-14{fill:#cc8a17;}.cls-15{clip-path:url(#clip-path-3);}.cls-16{fill:#ffd892;}.cls-17{fill:#ffdda6;}.cls-18{clip-path:url(#clip-path-4);}</style><clipPath id="clip-path"><rect class="cls-1" width="1300" height="200"/></clipPath><clipPath id="clip-path-2"><rect class="cls-1" x="71.12" y="17.05" width="127.49" height="88.4" rx="24.04" transform="translate(13.16 -23.18) rotate(10.32)"/></clipPath><clipPath id="clip-path-3"><rect class="cls-1" x="1134.12" y="106.05" width="127.49" height="88.4" rx="24.04" transform="translate(46.32 -212.23) rotate(10.32)"/></clipPath><clipPath id="clip-path-4"><rect class="cls-1" x="400.23" y="6.07" width="89.68" height="62.18" rx="24.04" transform="translate(7.78 127.98) rotate(-16.51)"/></clipPath></defs><g class="cls-2"><rect class="cls-3" width="1300" height="200"/><path class="cls-4" d="M962.35-133.52h0a19.26,19.26,0,0,0,30.28,2.87h0c12.83-13.62,35.59-2.8,33.13,15.75h0a19.26,19.26,0,0,0,21.35,21.66h0c18.59-2.18,29.07,20.73,15.26,33.36h0a19.27,19.27,0,0,0,2.43,30.32h0c15.64,10.28,8.94,34.56-9.75,35.36h0a19.27,19.27,0,0,0-17.63,24.8h0c5.37,17.92-15.37,32.22-30.2,20.81h0a19.28,19.28,0,0,0-29.45,7.66h0c-7.4,17.19-32.48,14.81-36.51-3.46h0a19.27,19.27,0,0,0-27.48-13.06h0C897.07,51,879.38,33,888,16.42h0a19.27,19.27,0,0,0-12.66-27.66h0c-18.21-4.31-20.22-29.42-2.93-36.57h0a19.27,19.27,0,0,0,8.09-29.32h0c-11.18-15,3.42-35.53,21.26-29.89h0a19.28,19.28,0,0,0,25.05-17.27h0C927.92-143,952.3-149.31,962.35-133.52Z"/><path class="cls-5" d="M497.47,139.89h0a19.27,19.27,0,0,0,30.28,2.88h0c12.83-13.62,35.58-2.81,33.13,15.74h0a19.26,19.26,0,0,0,21.35,21.66h0c18.58-2.18,29,20.73,15.25,33.36h0a19.27,19.27,0,0,0,2.43,30.32h0c15.64,10.27,8.94,34.55-9.75,35.35h0A19.27,19.27,0,0,0,572.53,304h0c5.38,17.92-15.36,32.21-30.19,20.81h0a19.27,19.27,0,0,0-29.44,7.66h0c-7.4,17.18-32.48,14.8-36.51-3.46h0a19.27,19.27,0,0,0-27.48-13.06h0c-16.71,8.41-34.39-9.54-25.74-26.12h0a19.26,19.26,0,0,0-12.65-27.66h0c-18.21-4.31-20.22-29.42-2.93-36.56h0a19.27,19.27,0,0,0,8.09-29.32h0c-11.18-15,3.42-35.53,21.25-29.89h0A19.27,19.27,0,0,0,462,149.12h0C463.05,130.45,487.43,124.11,497.47,139.89Z"/><path class="cls-4" d="M659.25,56.8c22.61-116.65-135.67-62.06-46,15.85-89.72-77.91-121.58,86.46-9.25,47.72-112.33,38.74,14.09,148.52,36.7,31.87-22.61,116.65,135.67,62.06,46-15.85C776.42,214.3,808.28,49.93,696,88.67,808.28,49.93,681.86-59.85,659.25,56.8Z"/><circle class="cls-5" cx="650" cy="104.52" r="45.67"/><path class="cls-4" d="M661.08,99.18a3.63,3.63,0,0,0-.09,2.4c.78,2.66,3.11,4.24,6.74,3a6.45,6.45,0,0,0,4-3.61,7.27,7.27,0,0,0,.41-5.3,7,7,0,0,0-4.21-4.13,10.44,10.44,0,0,0-7.49.16,17.93,17.93,0,0,0-7.16,4.57,20.89,20.89,0,0,0-4.61,6.9,25.93,25.93,0,0,0-1,3l.91-9.71a1.29,1.29,0,0,0,0-.63.81.81,0,0,0-1-.74c-.64.13-1.06.64-1.16,1.54l-.22,2a17.29,17.29,0,0,1-1.91,6.15,10.75,10.75,0,0,1-6.09,5.26,7.91,7.91,0,0,1-6.68-.4,9.06,9.06,0,0,1-4.14-5.11c-1.13-3.27-.78-7.69.77-11.7a15.85,15.85,0,0,1,9.21-9.21c4-1.37,7.15-.36,7.92,1.88a4,4,0,0,1-2.3,5.14c-1.77.57-2.87,0-3.29-1.06a2.27,2.27,0,0,1,0-1.32c.25-.87.07-1.4-.59-1.58s-1.06.09-1.37.79a3.71,3.71,0,0,0-.12,2.83c.74,2.17,3.12,3.5,6.11,2.47a5.61,5.61,0,0,0,3.49-3.27,6.56,6.56,0,0,0,.22-4.78,5.86,5.86,0,0,0-3.92-3.54,10.38,10.38,0,0,0-6.92.33A15.69,15.69,0,0,0,630,85.68,19.32,19.32,0,0,0,625.9,92c-1.71,4.57-2.1,9.55-.82,13.27a11.31,11.31,0,0,0,5.26,6.37,9.89,9.89,0,0,0,8.47.55,12.78,12.78,0,0,0,5.93-4c.22-.3.56-.51.44.08l-.29,3.12c-.39,4.84-2.42,8.24-5.32,9.24-2,.67-3.25.25-3.91-1.26a2.35,2.35,0,0,1,1.33-3.16c1.72-.59,1-2.66-.67-2.1a4.44,4.44,0,0,0-2.74,2.55,5,5,0,0,0-.17,3.48c.86,2.5,3.34,3.84,6.89,2.61,3.29-1.13,5.43-4,6.41-8.7a15.67,15.67,0,0,0,.71,3.9,14.36,14.36,0,0,0,6.53,8.44,11.86,11.86,0,0,0,10.37.91,11.57,11.57,0,0,0,6.52-5.36,11.12,11.12,0,0,0,1.47-7.55,6.64,6.64,0,0,0-3-4.51,5.71,5.71,0,0,0-5.33-.62,6.6,6.6,0,0,0-3.91,3,4.71,4.71,0,0,0-.68,4c.52,1.78,2.6,1.06,2.08-.72-.37-1.48.68-3.21,2.94-3.94a4,4,0,0,1,3.6.36,4.35,4.35,0,0,1,2,3,7.92,7.92,0,0,1-1.13,5.88,10.13,10.13,0,0,1-13.89,3.33,12.62,12.62,0,0,1-5.4-7c-1.16-3.76-.74-8.66,1-13.07a17.79,17.79,0,0,1,10.39-10.17,8.45,8.45,0,0,1,5.87-.23,4.61,4.61,0,0,1,3.08,3,4.76,4.76,0,0,1-2.91,5.76c-2.08.71-3.43,0-3.83-1.29a2.76,2.76,0,0,1,.12-1.51C663.74,97.76,661.82,97.23,661.08,99.18Z"/><circle class="cls-5" cx="1236.13" cy="68.32" r="94.87" transform="translate(-1.57 96.17) rotate(-4.45)"/><circle class="cls-4" cx="1236.13" cy="68.32" r="83.8" transform="translate(1 152.8) rotate(-7.08)"/><path class="cls-5" d="M1209.44,23.52a9.93,9.93,0,1,1-5.41-13A9.94,9.94,0,0,1,1209.44,23.52Z"/><path class="cls-5" d="M1272.6,46.91a9.92,9.92,0,1,1-5.4-13A9.91,9.91,0,0,1,1272.6,46.91Z"/><path class="cls-5" d="M1238.53,57.75a11.34,11.34,0,0,0,2.11-4c1.3-4.43-.88-9.23-5.75-10-2.9-.43-5.45.9-8.21,1.38a9.48,9.48,0,0,1-7.48-2.14c-1.93-1.64-3.18-4-5.24-5.48a7.11,7.11,0,0,0-6.39-1.16c-2.68.87-4.41,3.42-5.16,6-1.9,6.57,2.82,12.8,7.83,16.51,5.33,3.94,12.46,6,19,4.41A17.46,17.46,0,0,0,1238.53,57.75Z"/><path class="cls-6" d="M1226.46,50.43a31.3,31.3,0,0,0-11.89-.2,20.56,20.56,0,0,0-5.71,2.11,27.35,27.35,0,0,0-3.43,2,25.2,25.2,0,0,0,4.81,4.66c5.33,3.94,12.46,6,19,4.41a17.46,17.46,0,0,0,9.29-5.63,11.8,11.8,0,0,0,1.35-2.13A44.63,44.63,0,0,0,1226.46,50.43Z"/><path class="cls-5" d="M1224.33,114.05c-.14.53-.57.68-1.33.52l-4.6-.94c-1.17-.24-1.78-.55-1.51-1.35s1.08-.71.86-1.58a18.29,18.29,0,0,0-.84-2.41l-.47-1.21-1,.6a4.48,4.48,0,0,0-.06,2.75c.47,1.06.59,1.43.47,1.88s-.57.68-1.34.53l-4.92-1c-.8-.17-1.11-.47-1-1s.31-.76,1.17-1.54c.59-.55.78-1.39,1.15-3.17l1.1-5.34c.36-1.79.51-2.64.18-3.37-.47-1.05-.58-1.42-.46-1.88s.58-.78,1.4-.88,2.44-.22,2.74-.26c1.54-.11,2.17.73,1.87,2.19-.13.64-1,4.6-1.74,8.45l1.91-1.23c1.65-1.07,1.08-1.51,1.29-2.29.11-.38.38-.67,1.25-.49l3.5.72c.68.14,1,.49.87.92-.26,1.25-2.29.78-4.57,2l-.07.07,1.48,3.55a27.69,27.69,0,0,0,1.8,3.8C1224.16,113.05,1224.47,113.49,1224.33,114.05Z"/><path class="cls-5" d="M1239.1,111.76c-.78,1.77-2.55,3.28-5.62,3.29-3.63,0-7.23-2-7.39-6.43s3.32-6.94,7.23-6.79,5.67,2.76,5.88,4.89c.18,1.75-.13,2.43-1.8,2.43H1231c.63,3.34,5,3.85,7.1,1.79C1238.81,110.22,1239.54,110.79,1239.1,111.76Zm-8.11-5.44c-.08.29,0,.55.28.55h3c.63,0,.91-.44.7-1.22a1.87,1.87,0,0,0-2.08-1.7C1231.76,104,1231.22,105.22,1231,106.32Z"/><path class="cls-5" d="M1254.75,109c-.42,1.89-1.87,3.72-4.88,4.32-3.56.7-7.49-.62-8.49-4.89s1.92-7.45,5.79-8,6.09,1.61,6.71,3.67c.52,1.67.34,2.4-1.3,2.72l-6.31,1.26c1.26,3.15,5.63,2.81,7.3.38C1254.17,107.53,1255,108,1254.75,109Zm-9-3.77c0,.3.16.53.39.48l3-.59c.61-.12.81-.61.45-1.34a1.87,1.87,0,0,0-2.37-1.25C1246.06,102.81,1245.76,104.09,1245.74,105.21Z"/><path class="cls-5" d="M1270.21,99.22c1.52,3.6.51,7.09-3,8.47a4.83,4.83,0,0,1-3.36.11c.11.24.22.5.33.77.71,1.65,1.11,2.59,1.76,2.85,1,.43,1.5.71,1.62,1.2s-.07.88-.79,1.19l-4.8,2.06c-.71.3-1.14.23-1.41-.25s-.17-.81.08-1.94c.18-.78-.14-1.58-.84-3.23l-2.25-5.25c-.71-1.66-1.07-2.44-1.76-2.85-1-.6-1.29-.84-1.46-1.28s0-1,.66-1.53,1.87-1.59,2.1-1.78c1-.84,1.88-.69,2.49.19a4.68,4.68,0,0,1,2.43-2.41C1265.43,93.94,1268.65,95.63,1270.21,99.22Zm-4.46,1.9c-.9-2.1-2.3-3.32-3.76-2.69s-1.58,2.48-.67,4.59,2.3,3.33,3.79,2.69S1266.65,103.23,1265.75,101.12Z"/><path class="cls-5" d="M1191.05,117.31c-1.53,3.67,1.54,6.23,4.63,5.69,1-.17,1.3.67.43,1.25a6.06,6.06,0,0,1-6.72-.24c-3-2-4.55-5.4-2.47-9.05s6.33-4.22,9.6-2.08c3.67,2.39,4.31,6.48,1.66,7.62-1.43.62-3.57-.78-2.87-2.66s.49-2.85-.67-3.36S1192,115.06,1191.05,117.31Z"/><path class="cls-5" d="M1211.76,125a2.17,2.17,0,0,1-3.4-1.18c-.29-1.14.18-1.87-.64-2.21-.6-.25-.93.15-1.28.91s-.78,1.9-1.22,3c-.7,1.69-1,2.61-.82,3.27.38,1,.53,1.58.27,2s-.66.58-1.41.27l-4.79-2c-.75-.3-1-.66-.83-1.19s.45-.68,1.44-1.29c.68-.42,1-1.21,1.7-2.82s1-2.54.84-3.32c-.27-1.13-.31-1.51-.1-1.94s.72-.66,1.57-.59,2.42.21,2.71.25c1.35.16,1.86.91,1.57,2a4.09,4.09,0,0,1,3.41-.06C1213.36,121.11,1213.45,123.63,1211.76,125Z"/><path class="cls-5" d="M1224.46,133.7c-1.12,1.57-3.17,2.69-6.18,2.06-3.55-.75-6.65-3.5-5.9-7.82s4.69-6.1,8.48-5.14a5.66,5.66,0,0,1,4.74,6c-.18,1.74-.63,2.34-2.26,2l-6.3-1.32c-.07,3.39,4.08,4.8,6.57,3.22C1224.5,132.13,1225.1,132.85,1224.46,133.7Zm-6.81-7c-.14.27-.06.55.17.6l3,.62c.61.13,1-.24.94-1a1.87,1.87,0,0,0-1.69-2.09C1218.88,124.62,1218.1,125.68,1217.65,126.7Z"/><path class="cls-5" d="M1241.45,135.47c-.06,1.12-1.5,2-3,2-1.93,0-2.91-.57-3.32-1.69a3.72,3.72,0,0,1-3.45,1.64c-2.82,0-4.48-1.49-4.46-3.63,0-3.46,3.21-4.46,7.77-4.43V129c0-1.46-.06-2.61-1.1-2.77a1.49,1.49,0,0,0-1.81,1.08c-.5,1.59-1.52,2-2.67,1.55a1.64,1.64,0,0,1-.89-2.23c.77-2,3.43-2.42,5.65-2.41,3.59,0,5.59,1.66,5.56,5.46v.53c0,1.79-.1,3.33.47,3.94S1241.51,134.69,1241.45,135.47Zm-6.25-3.72c0-.83-.34-.86-1.22-.71a2.18,2.18,0,0,0-1.9,2c-.06,1.1.43,1.88,1.58,1.89s1.52-.82,1.53-2.18C1235.19,132.27,1235.19,132.06,1235.2,131.75Z"/><path class="cls-5" d="M1249.14,136.18c-2,.34-4.35-.31-4.9-3.66-.32-1.9-.83-5-1-6.25l-.88.14a1,1,0,0,1-1.16-.83l0-.24a1,1,0,0,1,.84-1.16l.51-.09c2.27-.37.67-3.31,2.48-3.6l1-.17c.85-.14,1.1.24,1.23,1,0,.23.16,1,.31,1.9l2.14-.35a1,1,0,0,1,1.17.84l0,.23a1,1,0,0,1-.84,1.17l-2.14.35c.25,1.49,1,6.07,1,6.07.23,1.39,1.39,1.57,2.49.7.4-.3.86-.43,1.19-.14C1253.62,133,1252,135.71,1249.14,136.18Z"/><path class="cls-5" d="M1251.09,118.45a3,3,0,1,1,3.6,1.75A2.84,2.84,0,0,1,1251.09,118.45Zm11.33,13.35c.11.54-.18.87-.93,1.09l-4.82,1.44c-.77.23-1.19.11-1.37-.41s-.08-.82.3-1.91c.26-.76,0-1.59-.48-3.34s-.78-2.54-1.42-3c-.92-.71-1.21-1-1.3-1.44s.15-1,.82-1.44,2-1.37,2.3-1.52c1.3-.83,2.25-.38,2.67,1l1.5,5c.53,1.75.8,2.56,1.43,3.05C1262,131.07,1262.31,131.34,1262.42,131.8Z"/><path class="cls-5" d="M1279.23,124c.2.51,0,.89-.75,1.25l-4.47,2.24c-.73.36-1.16.31-1.45-.15s-.2-.81,0-2c.13-.79-.23-1.57-1-3.21l-.12-.23c-.8-1.61-1.81-3.67-3.48-2.83-1.05.52-1.18,1.61-.47,3l.83,1.66c.82,1.63,1.22,2.39,1.94,2.76,1,.53,1.36.74,1.52,1.19s0,.87-.72,1.23l-4.48,2.24c-.72.36-1.15.32-1.44-.15s-.22-.79,0-1.93c.13-.8-.21-1.59-1-3.15s-1.27-2.43-2-2.8c-1-.53-1.34-.76-1.53-1.19s0-1,.58-1.57,1.75-1.69,2-1.89c1.11-1,2.07-.77,2.73.38a5.31,5.31,0,0,1,2.63-3.18c3.06-1.53,5.13,0,6,1.79l1.26,2.52c.82,1.63,1.23,2.39,1.94,2.76C1278.7,123.39,1279,123.6,1279.23,124Z"/><path class="cls-5" d="M1294,115.1c2.1,3-.58,6.33-3.12,8.38s-5.88,3.88-7.3,1.62a2.23,2.23,0,0,1-.06-2.48,2.28,2.28,0,0,1-2.32-1.34,3.55,3.55,0,0,1,.26-3.16,4.59,4.59,0,0,1-3.74-1.77c-2-2.41-1.17-5.55,1.55-7.75a7.3,7.3,0,0,1,1.29-.84,3.21,3.21,0,0,1-.62-3.63c1-1.68,2.8-1.89,3.56-.53a1.57,1.57,0,0,1-1,2.38c-.84.17-1.41-.17-1.6.39-.06.18.18.52.68.89a4.77,4.77,0,0,1,5.54,1.46c1.93,2.39,1.15,5.53-1.56,7.73a7.37,7.37,0,0,1-2.81,1.46c0,.52,0,.84.36,1,.47.25,2.26-1,3.72-2.2C1288.9,115.06,1291.85,112.11,1294,115.1Zm-12.89-1.48c1,1.27,2.22,1.88,3.14,1.15s.56-2-.47-3.32-2.2-1.9-3.14-1.15S1280,112.32,1281.07,113.62Zm10.62,5c-.54-.67-1.74.7-2.79,1.48A13.63,13.63,0,0,1,1286,122a1.49,1.49,0,0,0,.29.64c.54.67,1.7.2,3.64-1.26C1291.5,120.1,1292.18,119.25,1291.69,118.64Z"/><path class="cls-5" d="M1287.53,98.48l4,5.38c.86,1.15,1.35,1.7.69,2.41s-1.24.27-2.45-.49c-4.07-2.55-4.4-2.77-5.7-3.59-2-1.26-2.53-3.06-1.18-4.52S1286.11,96.6,1287.53,98.48Zm9,8.48a2.28,2.28,0,0,1,.12,3.37,2.36,2.36,0,1,1-3.47-3.19A2.27,2.27,0,0,1,1296.55,107Z"/><rect class="cls-4" x="-32.86" y="2.62" width="335.57" height="116.67" rx="51.68" transform="matrix(0.98, 0.18, -0.18, 0.98, 13.11, -23.19)"/><rect class="cls-7" x="71.12" y="17.05" width="127.49" height="88.4" rx="24.04" transform="translate(13.16 -23.18) rotate(10.32)"/><g class="cls-8"><path class="cls-9" d="M122.76,119.47l-.32-.28a19.43,19.43,0,0,1,3-3.06l.29.31Z"/><path class="cls-10" d="M170.38,29.46c.5.45.6,1.34.47,2.87a19.73,19.73,0,0,1-2,6.83,28,28,0,0,1-20.51,15.1,13.36,13.36,0,0,0-7.93,4.13c-2,2.42-2.45,5.73-3.25,8.66-.24.84-1.06,3.76-2.46,3.25-.94-.35-.83-3.51-.91-4.4A48.28,48.28,0,0,1,134,55.22c1-6.9,3.73-13.95,9.62-18.08a32,32,0,0,1,8.45-3.89,116.29,116.29,0,0,1,15.34-4C168.93,29,169.87,29,170.38,29.46Z"/><path class="cls-11" d="M133,104.17c.25-.25,1.27-7.8,1.82-10.85,1.85-8.06,5.08-15.3,4.88-23.66a26.47,26.47,0,0,0-6.21-17.07c-4.53-5.26-10.65-9.05-14.92-14.51a58.13,58.13,0,0,1-9.86-17.35c-.49-1.48-1.49-4.47-2.88-1.61-.87,1.78-.58,4.06-1,5.89-1,4.57-2.2,10-1.09,14.57,1.66,7,4.5,13.41,10.21,18.1,3.42,2.8,7.37,4.9,10.85,7.63,6.56,5.15,9.79,11.16,7.92,19.52-.56,2.48-.4,5-1.11,7.42a64.37,64.37,0,0,0-2.33,9.85C129,104.21,131.18,106,133,104.17Z"/><path class="cls-10" d="M114.74,44.22c1.1,4.28,4.69,6.85,8,9.43,4.4,3.41,8.25,6.69,9.45,12.39.41,1.93,3.46,1.76,3.14-.28-.85-5.35-4.05-9.46-8.28-12.65-3.92-3-9-4.94-11.69-9.22-.23-.36-.73,0-.63.33Z"/><path class="cls-12" d="M158.47,38.56c-2.77,1.32-5.9,1.74-8.74,2.91-3.18,1.3-6.48,3.52-7.95,6.73a1.49,1.49,0,0,0,2.46,1.61,19.75,19.75,0,0,1,8.25-6.1A15.39,15.39,0,0,0,159,39.34c.29-.35-.07-1-.54-.78Z"/><path class="cls-9" d="M159.49,124.22h0a1.56,1.56,0,0,1-1.25-.93,1.32,1.32,0,0,1,.18-1.33,4.11,4.11,0,0,1,3.23-1l.1,0a3,3,0,0,1,1.94,1.09.92.92,0,0,1,.05.81,1.16,1.16,0,0,1-.54.54A6.5,6.5,0,0,1,159.49,124.22Zm2.19-2.85h-.09a3.72,3.72,0,0,0-2.84.86.87.87,0,0,0-.11.91,1.07,1.07,0,0,0,.92.67A6.17,6.17,0,0,0,163,123c.26-.15.34-.27.36-.33a.49.49,0,0,0,0-.44A2.68,2.68,0,0,0,161.68,121.37Z"/><path class="cls-13" d="M155.94,97.12c5.52,6.57,9.36,16,9,24.42-.14,3.58-1.65,7.44-5,9.35a25.65,25.65,0,0,1-13.31,3.32,41.73,41.73,0,0,1-10.88-2.34c-14.29-4.5-39.63-1.87-45.91-15.47C84.06,103.93,92.25,96.11,101,91.86a42.75,42.75,0,0,1,8.22-3.18,56.8,56.8,0,0,1,17.87-1.3C137.13,88.13,149,88.8,155.94,97.12Z"/><path class="cls-14" d="M114.26,96.42c-.12,0-.54-.09,0,0a.81.81,0,0,0,.31,0l-.72-.34a1.16,1.16,0,0,0,.2.24.71.71,0,0,0,.84,0,.88.88,0,0,0,.39-.6l-.18.38,0,0a.86.86,0,0,0,.16-.87,1.14,1.14,0,0,0-.92-.71.92.92,0,0,0-1.07.74.94.94,0,0,0,1,1.09Z"/><path class="cls-14" d="M116.92,100.16a1.4,1.4,0,0,0,1.4.28,1.45,1.45,0,1,0-1.4-.28Z"/><path class="cls-14" d="M120.8,96.11a1.14,1.14,0,0,0,1.65.3,1.18,1.18,0,1,0-1.65-.3Z"/><path class="cls-14" d="M127.57,103.74a2.38,2.38,0,0,0,.49.34,1.17,1.17,0,0,0,1.65-1.15,2.16,2.16,0,0,0-.14-.57,1.26,1.26,0,1,0-2,1.38Z"/><path class="cls-14" d="M125.27,106a.56.56,0,0,0,.2-1.11.56.56,0,0,0-.2,1.11Z"/><path class="cls-14" d="M128.79,108.55a1.47,1.47,0,0,0,.4-.19.53.53,0,0,0,.13-.72,1.81,1.81,0,0,0-.3-.32.74.74,0,0,0-1.19.42.73.73,0,0,0,1,.81Z"/><path class="cls-14" d="M153.08,100.91a1.47,1.47,0,0,0,.4-.19.85.85,0,0,0,.21-1.15,1.14,1.14,0,0,0-.31-.31,1,1,0,1,0-.3,1.65Z"/><path class="cls-14" d="M156.1,103.39a.83.83,0,0,0,.3-1.63.83.83,0,0,0-.3,1.63Z"/><path class="cls-14" d="M152.27,104.6a1,1,0,0,0,0,.46.69.69,0,0,0,1.29.23,1,1,0,0,0,.14-.43.71.71,0,0,0-1.4-.26Z"/><path class="cls-14" d="M157.4,112.15a1.17,1.17,0,0,0,.42-2.31,1.17,1.17,0,0,0-.42,2.31Z"/><path class="cls-14" d="M115.08,106.39a1,1,0,0,0,.52,0,1,1,0,0,0,.33-1.79,1.14,1.14,0,0,0-.5-.14,1,1,0,0,0-1.12.77,1,1,0,0,0,.77,1.11Z"/><path class="cls-14" d="M104.57,97.54a3.84,3.84,0,0,0,.35-.18.93.93,0,0,0,.23-1.27,3.58,3.58,0,0,0-.26-.29,1,1,0,0,0-1-.19,1,1,0,0,0-.65.78,1,1,0,0,0,1.35,1.15Z"/><path class="cls-14" d="M132.61,108.15a1.32,1.32,0,0,0,.47-2.6,1.32,1.32,0,0,0-.47,2.6Z"/><path class="cls-14" d="M126.09,111.42a.73.73,0,0,0,.26-1.44.73.73,0,0,0-.26,1.44Z"/><path class="cls-14" d="M132.71,112.76a2.11,2.11,0,0,0,.5,0,.85.85,0,0,0,.29-1.6,2,2,0,0,0-.48-.13.86.86,0,0,0-1,.69.87.87,0,0,0,.68,1Z"/><path class="cls-14" d="M152.72,112.05a1.56,1.56,0,0,0,.55-3.06,1.56,1.56,0,0,0-.55,3.06Z"/><path class="cls-14" d="M159.7,116.71a.76.76,0,0,1-.08.11l-1,.35a1.32,1.32,0,0,0,.71,0c.34-.17.36-.19.09-.05a1.4,1.4,0,0,0,.51-.36,1.15,1.15,0,0,0-.12-1.61,1.29,1.29,0,0,0-2,.41,1.17,1.17,0,0,0,.1,1.18l0,0-.18-.5c0,.13,0,.25.08.37a1,1,0,0,0,.76.64,1,1,0,0,0,1.06-.54Z"/><path class="cls-14" d="M127.47,95.44a1.08,1.08,0,0,0,.67.4.75.75,0,0,0,.86-.6,1.09,1.09,0,0,0-.13-.77.88.88,0,1,0-1.4,1Z"/><path class="cls-14" d="M129.62,98a.79.79,0,0,0,.28-1.55.79.79,0,0,0-.28,1.55Z"/><path class="cls-14" d="M149.47,97.25a1.34,1.34,0,0,0,.88-.15.62.62,0,0,0,.15-.83,1.23,1.23,0,0,0-.76-.45.76.76,0,1,0-.27,1.43Z"/></g><circle class="cls-5" cx="44.16" cy="20.59" r="4.81"/><circle class="cls-5" cx="10.27" cy="38.86" r="4.81"/><circle class="cls-5" cx="35.54" cy="67.92" r="4.81"/><circle class="cls-5" cx="234.08" cy="55.18" r="4.81"/><circle class="cls-5" cx="259.35" cy="84.23" r="4.81"/><circle class="cls-5" cx="225.46" cy="102.51" r="4.81"/><rect class="cls-4" x="1030.14" y="91.62" width="335.57" height="116.67" rx="51.68" transform="translate(46.27 -212.24) rotate(10.32)"/><rect class="cls-7" x="1134.12" y="106.05" width="127.49" height="88.4" rx="24.04" transform="translate(46.32 -212.23) rotate(10.32)"/><g class="cls-15"><path class="cls-10" d="M1233.38,118.46c.5.45.6,1.34.47,2.87a19.73,19.73,0,0,1-2,6.83,28,28,0,0,1-20.51,15.1,13.36,13.36,0,0,0-7.93,4.13c-2,2.42-2.45,5.73-3.25,8.66-.24.84-1.06,3.76-2.46,3.25-.94-.35-.83-3.51-.91-4.4a48.28,48.28,0,0,1,.21-10.68c1-6.9,3.73-13.95,9.62-18.08a32,32,0,0,1,8.45-3.89,116.29,116.29,0,0,1,15.34-4C1231.93,118,1232.87,118,1233.38,118.46Z"/><path class="cls-11" d="M1196,193.17c.25-.25,1.27-7.8,1.82-10.85,1.85-8.06,5.08-15.3,4.88-23.66a26.47,26.47,0,0,0-6.21-17.07c-4.53-5.26-10.65-9.05-14.92-14.51a58.13,58.13,0,0,1-9.86-17.35c-.49-1.48-1.49-4.47-2.88-1.61-.87,1.78-.58,4.06-1,5.89-1,4.57-2.2,9.95-1.09,14.57,1.66,6.95,4.5,13.41,10.21,18.1,3.42,2.8,7.37,4.9,10.85,7.63,6.56,5.15,9.79,11.16,7.92,19.52-.56,2.48-.4,5-1.11,7.42a64.37,64.37,0,0,0-2.33,9.85C1192,193.21,1194.18,195,1196,193.17Z"/><path class="cls-10" d="M1177.74,133.22c1.1,4.28,4.69,6.85,8,9.43,4.4,3.41,8.25,6.69,9.45,12.39.41,1.93,3.46,1.76,3.14-.28-.85-5.35-4-9.46-8.28-12.65-3.92-3-9-4.94-11.69-9.22-.23-.36-.73,0-.63.33Z"/><path class="cls-12" d="M1221.47,127.56c-2.77,1.32-5.9,1.74-8.74,2.91-3.18,1.3-6.48,3.52-8,6.73a1.49,1.49,0,0,0,2.46,1.61,19.75,19.75,0,0,1,8.25-6.1,15.39,15.39,0,0,0,6.52-4.37c.29-.35-.07-1-.54-.78Z"/><path class="cls-13" d="M1218.94,186.12c5.52,6.57,9.36,16,9,24.42-.14,3.58-1.65,7.44-5,9.35a25.65,25.65,0,0,1-13.31,3.32,41.73,41.73,0,0,1-10.88-2.34c-14.29-4.5-39.63-1.87-45.91-15.47-5.77-12.47,2.42-20.29,11.21-24.54a42.75,42.75,0,0,1,8.22-3.18,56.8,56.8,0,0,1,17.87-1.3C1200.13,177.13,1212,177.8,1218.94,186.12Z"/><path class="cls-14" d="M1177.26,185.42c-.12,0-.54-.09,0,0a.81.81,0,0,0,.31,0l-.72-.34a1.16,1.16,0,0,0,.2.24.71.71,0,0,0,.84,0,.88.88,0,0,0,.39-.6l-.18.38,0,0a.86.86,0,0,0,.16-.87,1.14,1.14,0,0,0-.92-.71.92.92,0,0,0-1.07.74.94.94,0,0,0,1,1.09Z"/><path class="cls-14" d="M1179.92,189.16a1.4,1.4,0,0,0,1.4.28,1.45,1.45,0,1,0-1.4-.28Z"/><path class="cls-14" d="M1183.8,185.11a1.14,1.14,0,0,0,1.65.3,1.18,1.18,0,1,0-1.65-.3Z"/><path class="cls-14" d="M1190.57,192.74a2.38,2.38,0,0,0,.49.34,1.17,1.17,0,0,0,1.65-1.15,2.16,2.16,0,0,0-.14-.57,1.26,1.26,0,1,0-2,1.38Z"/><path class="cls-14" d="M1188.27,195a.56.56,0,0,0,.2-1.11.56.56,0,0,0-.2,1.11Z"/><path class="cls-14" d="M1191.79,197.55a1.47,1.47,0,0,0,.4-.19.53.53,0,0,0,.13-.72,1.81,1.81,0,0,0-.3-.32.74.74,0,0,0-1.19.42.73.73,0,0,0,1,.81Z"/><path class="cls-14" d="M1216.08,189.91a1.47,1.47,0,0,0,.4-.19.85.85,0,0,0,.21-1.15,1.14,1.14,0,0,0-.31-.31,1,1,0,1,0-.3,1.65Z"/><path class="cls-14" d="M1219.1,192.39a.83.83,0,0,0,.3-1.63.83.83,0,0,0-.3,1.63Z"/><path class="cls-14" d="M1215.27,193.6a1,1,0,0,0,0,.46.69.69,0,0,0,1.29.23,1,1,0,0,0,.14-.43.71.71,0,0,0-1.4-.26Z"/><path class="cls-14" d="M1220.4,201.15a1.17,1.17,0,0,0,.42-2.31,1.17,1.17,0,0,0-.42,2.31Z"/><path class="cls-14" d="M1178.08,195.39a1,1,0,0,0,.52.05,1,1,0,0,0,.33-1.79,1.14,1.14,0,0,0-.5-.14,1,1,0,0,0-1.12.77,1,1,0,0,0,.77,1.11Z"/><path class="cls-14" d="M1167.57,186.54a3.84,3.84,0,0,0,.35-.18.93.93,0,0,0,.23-1.27,3.58,3.58,0,0,0-.26-.29,1,1,0,0,0-1-.19,1,1,0,0,0-.65.78,1,1,0,0,0,1.35,1.15Z"/><path class="cls-14" d="M1195.61,197.15a1.32,1.32,0,0,0,.47-2.6,1.32,1.32,0,0,0-.47,2.6Z"/><path class="cls-14" d="M1189.09,200.42a.73.73,0,0,0,.26-1.44.73.73,0,0,0-.26,1.44Z"/><path class="cls-14" d="M1215.72,201.05a1.56,1.56,0,0,0,.55-3.06,1.56,1.56,0,0,0-.55,3.06Z"/><path class="cls-14" d="M1190.47,184.44a1.08,1.08,0,0,0,.67.4.75.75,0,0,0,.86-.6,1.09,1.09,0,0,0-.13-.77.88.88,0,1,0-1.4,1Z"/><path class="cls-14" d="M1192.62,187a.79.79,0,0,0,.28-1.55.79.79,0,0,0-.28,1.55Z"/><path class="cls-14" d="M1212.47,186.25a1.34,1.34,0,0,0,.88-.15.62.62,0,0,0,.15-.83,1.23,1.23,0,0,0-.76-.45.76.76,0,1,0-.27,1.43Z"/></g><circle class="cls-5" cx="1107.16" cy="109.59" r="4.81"/><circle class="cls-5" cx="1073.27" cy="127.86" r="4.81"/><circle class="cls-5" cx="1098.54" cy="156.92" r="4.81"/><circle class="cls-5" cx="1297.08" cy="144.18" r="4.81"/><circle class="cls-5" cx="1288.46" cy="191.51" r="4.81"/><path class="cls-5" d="M942.06,45.2l12.08,59a9.63,9.63,0,0,0,5.68,6.94l55.48,23.53a9.63,9.63,0,0,1,1,17.25l-52.42,29.73a9.6,9.6,0,0,0-4.84,7.54l-5.23,60a9.63,9.63,0,0,1-16.1,6.27l-44.47-40.66a9.66,9.66,0,0,0-8.68-2.28l-58.71,13.58a9.63,9.63,0,0,1-10.94-13.38l24.93-54.86a9.65,9.65,0,0,0-.51-9L808.26,97.34A9.63,9.63,0,0,1,817.6,82.8l59.88,6.76a9.63,9.63,0,0,0,8.35-3.26l39.52-45.49A9.63,9.63,0,0,1,942.06,45.2Z"/><path class="cls-4" d="M884.55,123.6c-1.78,3-5.16,3-8.66,1.68-2.43-.91-2.63-1.87-4.68-1.3a1.29,1.29,0,0,1-1.62-1.36c0-1,.53-3.88.65-4.75s.63-1.61,1.22-1.45h0c1.75.46.24,4.64,4.36,6.38,1.34.56,2.23.24,2.6-.39.64-1.12-.33-2.07-2.72-3.67-4-2.71-4.34-5.64-2-8.39,1.54-1.78,4.67-1.79,7-1.12s2.47,1.41,4.29,1c.93-.24,1.75.22,1.68,1.13s-.35,3.17-.47,4-.61,1.4-1.16,1.26l-.07,0c-1.75-.46-.69-3.58-4-4.72-.88-.23-1.47-.1-1.81.4-.52.8-.27,1.56,1.77,3.06C883.62,117.25,887,119.54,884.55,123.6Z"/><path class="cls-4" d="M904.43,130.87l0,.06c-.31,1.2-2.44,1-4.81.37s-4.29-1.48-4-2.68l0-.06c.29-1.11,1.49-1.2,1.91-2.79l1.46-5.55c.58-2.21.17-3.18-1-3.49-1-.26-2,.38-2.52,2.36L894,124.83c-.42,1.59.59,2.27.3,3.37l0,.07c-.32,1.2-2.45,1-4.78.37s-4.33-1.48-4-2.68v-.07c.29-1.1,1.5-1.2,1.92-2.79l3.5-13.37c.41-1.56-.59-2.24-.3-3.34l0-.06c.31-1.21,1.8-1.72,4.55-2,2.34-.22,4.14.19,3.65,2.07L896.57,115a5.49,5.49,0,0,1,3.92-.53c4.46,1,5.91,4.43,5,8l-1.32,5C903.72,129.08,904.72,129.76,904.43,130.87Z"/><path class="cls-4" d="M914.66,133.55l0,.06c-.32,1.21-2.41,1-4.78.38s-4.3-1.47-4-2.67v-.07c.29-1.1,1.47-1.21,1.88-2.8l1.24-4.71c.41-1.55-.56-2.22-.27-3.33l0-.06c.31-1.2,1.8-1.71,4.54-2,2.32-.22,4.15.19,3.66,2.07l-2.57,9.77C914,131.78,914.94,132.45,914.66,133.55ZM911.6,112c.57-2.17,2.61-3,4.69-2.41s3.47,2.23,2.9,4.4-2.65,3-4.69,2.41S911,114.21,911.6,112Z"/><path class="cls-4" d="M935.07,138.91l0,.06c-.32,1.2-2.45,1-4.81.37s-4.3-1.47-4-2.68v-.06c.29-1.1,1.5-1.2,1.92-2.79l1.34-5.13c.58-2.21.14-3.19-1-3.49-1-.25-2,.39-2.53,2.36l-1.39,5.32c-.42,1.59.58,2.27.29,3.37l0,.07c-.31,1.2-2.44,1-4.81.36s-4.3-1.47-4-2.67l0-.07c.29-1.1,1.49-1.2,1.91-2.79l1.23-4.7c.41-1.56-.59-2.24-.3-3.34l0-.07c.31-1.2,1.8-1.71,4.55-2,2.34-.21,3.71.11,3.23,2l-.26,1a4.89,4.89,0,0,1,4.72-1.47c4.47,1,5.82,4.4,4.87,8l-1.32,5C934.36,137.13,935.36,137.8,935.07,138.91Z"/><path class="cls-4" d="M951.57,139.6c1.13,1.23-2.22,5.17-7.6,3.59-4.39-1.26-7.53-4.89-6.11-10.28a8.13,8.13,0,0,1,9.95-6.06c4.46,1.1,6.33,4.68,5.83,7.64-.41,2.35-1.24,2.73-2.73,2.33L944.06,135c-.23,3.4,3.26,4.63,5.65,4.39C950.57,139.3,951.17,139.15,951.57,139.6Zm-7.18-7,3,.78c.62.16,1,0,1.25-.54.41-1,.93-3-.92-3.5C946.24,129,945,130.15,944.39,132.61Z"/><path class="cls-4" d="M870.8,146.14c-1.31,5-5.28,7.29-9.76,6.11a7.16,7.16,0,0,1-4.18-2.69,12.62,12.62,0,0,1-1.89.34c-2.35.21-4.15-.19-3.66-2.07l4.34-16.52c.41-1.56-.59-2.24-.3-3.34v-.06c.32-1.21,1.84-1.71,4.58-2,2.32-.23,4.12.18,3.63,2.06l-2.13,8.11a5.85,5.85,0,0,1,3.64-.12C869.55,137.15,872.1,141.18,870.8,146.14ZM864,144.35c.92-3.47.48-5.49-.92-5.86-1.59-.41-2.86,1.78-3.62,4.67s-.74,5.46.85,5.88C861.69,149.4,863.06,147.86,864,144.35Z"/><path class="cls-4" d="M886.6,148.59a2.83,2.83,0,0,1-3.87-2.82c0-.72-.44-1.12-1-1.05s-.81.34-1.26,1.78l-1.38,5.26c-.42,1.59.58,2.27.29,3.37l0,.06c-.31,1.21-2.44,1-4.81.37s-4.29-1.47-4-2.67l0-.07c.29-1.1,1.46-1.21,1.88-2.8l1.23-4.71c.41-1.55-.56-2.22-.27-3.33l0-.06c.32-1.2,1.8-1.71,4.55-2,2.34-.21,3.71.11,3.23,2l-.32,1.2a5.56,5.56,0,0,1,5.34-1.55,3.57,3.57,0,0,1,2.63,3.05A3.67,3.67,0,0,1,886.6,148.59Z"/><path class="cls-4" d="M895.43,159.34v.06c-.32,1.2-2.42,1-4.79.38s-4.29-1.48-4-2.68l0-.06c.29-1.1,1.46-1.21,1.88-2.8l1.24-4.71c.41-1.56-.56-2.23-.27-3.33v-.06c.32-1.2,1.8-1.72,4.55-2,2.31-.23,4.15.19,3.66,2.07L895.17,156C894.75,157.56,895.72,158.23,895.43,159.34Zm-3.06-21.51c.57-2.18,2.62-3,4.69-2.41s3.48,2.23,2.91,4.4-2.65,3-4.69,2.41S891.8,140,892.37,137.83Z"/><path class="cls-4" d="M912.43,167.51c-.95,3.64-5.23,4.73-10.13,3.45-3.92-1-8.23-3.38-7.56-6.88.45-2.38,1.92-3.07,3.22-2.86-.25-1.42.41-2.91,2.07-4.21a6,6,0,0,1-1.12-5.36c1-3.86,5-5.47,9.39-4.33a9.53,9.53,0,0,1,1.86.69,9,9,0,0,1,2.71-2.37c2-1.15,4.17-.95,4.68,1.05a2.19,2.19,0,0,1-2.54,2.8,11.3,11.3,0,0,0-2.82-.22,6.12,6.12,0,0,1,2.2,6.44c-1,3.9-5,5.48-9.43,4.33a12,12,0,0,1-2.57-1c-1,1.66,2.32,2.14,4.91,2.82C911.42,162.91,913.17,164.69,912.43,167.51Zm-6.87-.24c.17-.65-.38-1.21-2-1.64a10.48,10.48,0,0,1-3.21-1.37c-.46,2.14,1.49,3.41,2.89,3.78C904.41,168.35,905.36,168.15,905.56,167.27Zm-.39-13.84c-.44,2.45-.25,4.38.75,4.53s1.8-1.57,2.21-4,.23-4.34-.76-4.53S905.57,151,905.17,153.43Z"/><path class="cls-4" d="M933,169.19l0,.06c-.32,1.2-2.45,1-4.81.37s-4.3-1.48-4-2.68v-.06c.29-1.11,1.5-1.21,1.91-2.8l1.46-5.54c.58-2.21.18-3.18-1-3.49-1-.26-2,.38-2.53,2.35l-1.5,5.75c-.42,1.59.58,2.27.29,3.37l0,.06c-.31,1.21-2.44,1-4.78.38s-4.33-1.48-4-2.68l0-.07c.29-1.1,1.49-1.2,1.91-2.79l3.51-13.37c.41-1.56-.59-2.24-.3-3.34v-.07c.32-1.2,1.8-1.71,4.55-2,2.35-.22,4.15.19,3.65,2.07l-2.25,8.56a5.52,5.52,0,0,1,3.93-.53c4.45,1,5.91,4.43,5,8l-1.32,5C932.23,167.4,933.24,168.08,933,169.19Z"/><path class="cls-4" d="M940.71,173.17c-3.44-.91-5.1-3.94-4.11-7.71l1.81-6.91-.68-.18a1.41,1.41,0,0,1-1.14-1.75c.33-1.24,3.1-3.21,6.28-4.08,2.27-.62,4.17,0,3.69,1.8l-.88,3.34,2.4.63c1,.27,1.35.95,1.15,1.69a1.33,1.33,0,0,1-1.83.91l-2.4-.63-1.61,6.13c-.65,2.47.7,2.75,1.8,2.66.86-.12,1.47-.2,1.86.18C948.27,170.29,945.26,174.36,940.71,173.17Z"/><path class="cls-4" d="M959.81,157a82.55,82.55,0,0,1-4.67,10.53c-.66,1.21-1.14,1.57-2,1.35s-1.08-.77-1-2.15a79.51,79.51,0,0,1,1.07-11.47c.35-2.13,1.76-3.29,4.22-2.64S960.59,154.94,959.81,157Zm-4.74,16.89a2.92,2.92,0,0,1-3.78,2.09,3,3,0,1,1,1.52-5.77A3,3,0,0,1,955.07,173.85Z"/><path class="cls-5" d="M1001.75,92.34c-7.42.3-11.18,2.49-15.08,8.81a2.22,2.22,0,0,1-4.12-1.08c-.3-7.42-2.49-11.18-8.81-15.08a2.22,2.22,0,0,1,1.08-4.12c7.42-.29,11.18-2.49,15.08-8.81A2.22,2.22,0,0,1,994,73.14c.29,7.42,2.49,11.18,8.81,15.08A2.22,2.22,0,0,1,1001.75,92.34Z"/><circle class="cls-5" cx="1013.18" cy="74.35" r="5.13"/><path class="cls-5" d="M169.33,186.62,16.52,204.35c-13.76,1.6-26.31-9.13-28-23.95l-6.79-58.55C-20,107-10.26,93.71,3.49,92.12L124.89,78l2.59-.3,2.89-.33,8.81-1L142.1,76,145,75.7l3.3-.38,8-.93c13.76-1.6,26.31,9.12,28,24l6.79,58.55C192.84,171.71,183.08,185,169.33,186.62Z"/><path class="cls-16" d="M49.83,141.25c0,1-.57,1.47-2,1.64l-8.86,1c-1.43.16-2.13-.18-2.33-1.13s.11-1.47,1.16-3.27c.7-1.25.57-2.78.2-6l-.06-.46c-.37-3.18-.79-7.25-4.12-6.87-2.07.25-3,2-2.62,4.8l.38,3.28c.37,3.23.6,4.75,1.56,5.81C34.52,141.58,35,142.14,35,143s-.53,1.46-2,1.63l-8.86,1c-1.43.16-2.13-.18-2.33-1.13s.11-1.47,1.12-3.27c.7-1.25.61-2.78.24-6l-1.12-9.69c-.38-3.24-.65-4.75-1.61-5.81-1.4-1.52-1.79-2.08-1.84-2.92s.56-1.65,1.93-2.28,4-1.73,4.46-2c2.59-1,4.07,0,4.38,2.67l1.07,9.28a9.64,9.64,0,0,1,6.36-3.68c6.05-.7,8.6,3.12,9,6.67l.58,5c.37,3.23.6,4.75,1.56,5.81C49.34,139.86,49.78,140.42,49.83,141.25Z"/><path class="cls-16" d="M73.42,134.45c-1,3.3-3.85,6.34-9.3,7-6.41.74-13.21-2.16-14.38-9.89-1.16-7.91,4.48-13,11.44-13.49,6.81-.6,10.58,3.73,11.39,7.47.68,3.06.27,4.32-2.69,4.67l-11.4,1.32c1.8,5.78,9.61,5.81,12.93,1.73C72.6,131.78,74,132.65,73.42,134.45Zm-15.48-8c-.08.53.21,1,.62.91l5.41-.62c1.1-.13,1.52-1,1-2.32s-1.48-3.1-4-2.57C58.86,122.24,58.13,124.48,57.94,126.46Z"/><path class="cls-16" d="M94.22,122.58c-1.06,4.1-2.35,9.12-3.17,12.58-1.6,6.74-1.91,12.15-6.76,13.89-3,1-8.24.77-9-2.09a3.13,3.13,0,0,1,2-4c3.57-1.12,4.06,2.33,6.43,1.73.77-.23,1.5-.73,2.36-5-1-1.66-5-8-8.2-13.08a26.7,26.7,0,0,0-4.37-5.35c-1.12-1.18-1.55-1.64-1.57-2.67s.62-1.47,2.33-1.67l6.7-.78c1.8-.21,2.93-.15,3,1.39s-1,2.13-.19,3.53,4.78,8.57,4.78,8.57l1.58-6.55c1.33-5.44-.88-4.76-.86-6.59,0-1,.45-1.36,1.65-1.5l4.94-.57a1.26,1.26,0,0,1,1.58,1.12C97.51,117.43,95.54,117.42,94.22,122.58Z"/><path class="cls-16" d="M36,183.89c-3.65.43-7.73-.92-8.43-6.92l-1.3-11.22-1.57.18a1.79,1.79,0,0,1-2-1.59l-.05-.42a1.82,1.82,0,0,1,1.59-2l.93-.1c4.06-.48,1.47-5.84,4.7-6.21l1.85-.22c1.52-.17,1.93.53,2.1,2l.4,3.42,3.83-.45a1.85,1.85,0,0,1,2,1.59l0,.42a1.83,1.83,0,0,1-1.6,2l-3.83.44,1.27,10.9c.29,2.49,2.35,2.91,4.38,1.45.73-.5,1.55-.69,2.13-.15C44.2,178.63,41.1,183.3,36,183.89Z"/><path class="cls-16" d="M72.79,177.8c0,1-.58,1.47-2,1.63l-8.86,1c-1.43.17-2.13-.17-2.33-1.13s.11-1.46,1.16-3.27c.7-1.25.57-2.78.19-6l0-.46c-.37-3.19-.8-7.26-4.12-6.87-2.08.24-3,2-2.63,4.79l.38,3.28c.38,3.23.6,4.75,1.57,5.81,1.39,1.52,1.83,2.08,1.83,2.92s-.53,1.47-2,1.63l-8.86,1c-1.43.17-2.13-.17-2.33-1.13s.11-1.46,1.11-3.27c.7-1.25.62-2.78.25-6L45,162.12c-.37-3.23-.64-4.75-1.61-5.8-1.39-1.53-1.78-2.09-1.83-2.92,0-1,.55-1.66,1.93-2.29s4-1.72,4.45-2c2.59-1,4.08.05,4.38,2.68l1.08,9.28a9.58,9.58,0,0,1,6.36-3.69c6-.7,8.59,3.12,9,6.68l.57,5c.38,3.24.6,4.75,1.57,5.81C72.3,176.4,72.74,177,72.79,177.8Z"/><path class="cls-16" d="M96.38,171c-1,3.3-3.85,6.34-9.3,7-6.42.75-13.21-2.16-14.39-9.88-1.15-7.92,4.49-13,11.44-13.5s10.59,3.74,11.4,7.48c.68,3.05.27,4.32-2.69,4.66L81.44,168c1.79,5.78,9.61,5.81,12.93,1.73C95.55,168.32,97,169.19,96.38,171ZM80.9,163c-.08.52.21,1,.62.91l5.4-.63c1.11-.13,1.53-1,1-2.31s-1.49-3.11-4-2.58C81.81,158.78,81.09,161,80.9,163Z"/><path class="cls-16" d="M118.56,158.08a3.86,3.86,0,0,1-6.33,1.1c-1.44-1.51-1.34-3.07-2.91-2.89-1.15.14-1.33,1.05-1.2,2.53l.65,5.68c.38,3.23.63,5,1.57,5.81,1.44,1.18,2.19,2,2.16,2.88s-.54,1.47-2,1.63l-9.18,1.07c-1.44.16-2.13-.18-2.33-1.14s.11-1.46,1.11-3.26c.7-1.25.57-2.78.21-5.87s-.61-4.85-1.57-5.9c-1.4-1.53-1.79-2.09-1.84-2.92,0-1,.56-1.66,1.94-2.29s3.95-1.77,4.45-2c2.23-.92,3.67-.2,4.18,1.76a7.3,7.3,0,0,1,5.26-3.05C117.7,150.69,120,154.54,118.56,158.08Z"/><path class="cls-16" d="M144,165.46c-1,3.3-3.85,6.34-9.3,7-6.42.74-13.21-2.17-14.39-9.89-1.15-7.92,4.48-13,11.44-13.5,6.81-.6,10.59,3.74,11.4,7.48.68,3.05.26,4.32-2.69,4.66l-11.4,1.33c1.79,5.78,9.61,5.81,12.92,1.72C143.2,162.8,144.61,163.66,144,165.46Zm-15.48-8c-.08.52.2,1,.62.91l5.4-.63c1.11-.13,1.52-1,1-2.31s-1.48-3.11-4-2.58C129.46,153.25,128.74,155.49,128.55,157.48Z"/><path class="cls-16" d="M153.4,143.79c-.2,2.73-.26,3.44-.81,12-.18,2.55-.16,3.86-1.87,4.06s-2-1.08-2.75-3.52c-2.54-8.17-2.71-8.86-3.53-11.47-1.22-4,.16-7.09,3.67-7.49S153.66,139.59,153.4,143.79Zm2.31,22a4.3,4.3,0,1,1-4.73-3.66A4.07,4.07,0,0,1,155.71,165.74Z"/><path class="cls-17" d="M118.82,107.9c-4.14,1.45-5.19,3.14-5.34,8.57,0,.66-.75.75-.92.11-1.38-5.26-2.8-6.66-7.16-7.13a.63.63,0,0,1-.13-1.16c4.14-1.45,5.19-3.14,5.33-8.58,0-.66.76-.74.93-.1,1.38,5.25,2.79,6.66,7.15,7.12A.64.64,0,0,1,118.82,107.9Z"/><path class="cls-17" d="M145.59,120.92c-8.4,2.94-10.54,6.38-10.83,17.4,0,1.33-1.53,1.51-1.87.22-2.8-10.66-5.67-13.52-14.52-14.46a1.29,1.29,0,0,1-.27-2.36c5.6-2,8.41-4.14,9.75-8.64a22.15,22.15,0,0,0,.75-3.84c-.09-1.78-.31-3.7.66-5.36.72-.48,2,.54,2.1,1.31a17.1,17.1,0,0,0,4.43,9.79,10.45,10.45,0,0,0,3.92,2.43,23.34,23.34,0,0,0,5.6,1.15A1.29,1.29,0,0,1,145.59,120.92Z"/><path class="cls-17" d="M144.16,97.28a3.22,3.22,0,0,1-2.86,3.26,3.32,3.32,0,0,1-3.42-2.71,3.15,3.15,0,0,1,6.28-.55Z"/><path class="cls-5" d="M887.05,56.57,755.54,71.83C743.7,73.2,732.9,64,731.42,51.22L725.57.82c-1.48-12.75,6.92-24.21,18.76-25.58L848.81-36.89l2.23-.25,2.49-.29,7.58-.88,2.51-.29,2.48-.29,2.84-.33,6.9-.8c11.84-1.38,22.64,7.85,24.12,20.61L905.81,31C907.29,43.74,898.89,55.19,887.05,56.57Z"/><path class="cls-16" d="M784.21,17.53c0,.84-.5,1.26-1.73,1.4l-7.63.89c-1.23.14-1.83-.15-2-1s.09-1.26,1-2.81c.6-1.08.49-2.39.16-5.17l0-.4c-.32-2.74-.69-6.24-3.55-5.91-1.79.21-2.54,1.7-2.26,4.13l.33,2.82c.32,2.78.52,4.09,1.35,5,1.2,1.31,1.57,1.79,1.58,2.51s-.46,1.26-1.69,1.4l-7.63.89c-1.23.14-1.83-.15-2-1s.1-1.26,1-2.81c.6-1.07.53-2.39.21-5.13L760.3,4c-.33-2.78-.56-4.08-1.39-5-1.2-1.31-1.54-1.8-1.58-2.52s.48-1.42,1.67-2,3.41-1.48,3.83-1.69c2.23-.91,3.5,0,3.77,2.3l.92,8A8.29,8.29,0,0,1,773,0c5.21-.6,7.4,2.69,7.76,5.75l.5,4.29c.32,2.78.51,4.09,1.34,5C783.79,16.33,784.17,16.81,784.21,17.53Z"/><path class="cls-16" d="M804.51,11.67c-.88,2.84-3.31,5.45-8,6-5.52.64-11.37-1.86-12.38-8.51C783.14,2.35,788-2,794-2.45S803.09.76,803.78,4c.59,2.63.23,3.72-2.31,4l-9.82,1.14c1.55,5,8.28,5,11.13,1.49C803.8,9.37,805,10.12,804.51,11.67ZM791.19,4.8c-.07.45.18.82.53.78L796.37,5c1-.11,1.32-.84.86-2S796,.38,793.75.83C792,1.16,791.36,3.09,791.19,4.8Z"/><path class="cls-16" d="M822.42,1.45c-.92,3.53-2,7.85-2.73,10.83-1.39,5.8-1.65,10.46-5.83,12-2.59.91-7.09.66-7.77-1.79A2.69,2.69,0,0,1,807.82,19c3.07-1,3.49,2,5.53,1.5.66-.2,1.29-.64,2-4.31-.89-1.42-4.34-6.86-7.06-11.26A23,23,0,0,0,804.56.3c-1-1-1.33-1.41-1.35-2.29s.54-1.27,2-1.45L811-4.1c1.55-.18,2.52-.14,2.55,1.19s-.87,1.83-.17,3l4.12,7.37,1.36-5.63c1.15-4.68-.76-4.1-.74-5.67,0-.85.39-1.18,1.42-1.3l4.25-.49a1.08,1.08,0,0,1,1.36,1C825.24-3,823.55-3,822.42,1.45Z"/><path class="cls-16" d="M772.28,54.22c-3.14.37-6.66-.79-7.25-6l-1.13-9.65-1.35.15a1.54,1.54,0,0,1-1.73-1.37l0-.36a1.56,1.56,0,0,1,1.37-1.72l.8-.1c3.49-.4,1.27-5,4-5.34l1.59-.18c1.31-.16,1.66.45,1.8,1.68l.35,2.94,3.29-.38a1.58,1.58,0,0,1,1.73,1.37l0,.35a1.55,1.55,0,0,1-1.37,1.73l-3.29.39,1.08,9.37c.25,2.15,2,2.51,3.77,1.26.64-.44,1.34-.6,1.84-.14C779.37,49.7,776.69,53.71,772.28,54.22Z"/><path class="cls-16" d="M804,49c0,.84-.5,1.26-1.73,1.41l-7.63.88c-1.23.14-1.83-.15-2-1s.1-1.26,1-2.82c.6-1.08.48-2.39.16-5.17l0-.4c-.32-2.74-.69-6.24-3.55-5.91-1.79.21-2.54,1.7-2.26,4.13l.33,2.82c.32,2.78.51,4.09,1.34,5,1.2,1.31,1.58,1.79,1.58,2.51s-.45,1.26-1.69,1.41l-7.62.88c-1.24.14-1.83-.15-2-1s.1-1.26,1-2.81c.6-1.08.53-2.4.21-5.14l-1-8.35c-.32-2.78-.55-4.08-1.38-5-1.2-1.31-1.54-1.8-1.58-2.51s.48-1.43,1.66-2,3.41-1.48,3.83-1.69c2.23-.91,3.51,0,3.77,2.3l.93,8a8.29,8.29,0,0,1,5.47-3.17c5.21-.6,7.4,2.69,7.76,5.75l.49,4.29c.33,2.78.52,4.09,1.35,5C803.55,47.78,803.93,48.26,804,49Z"/><path class="cls-16" d="M824.27,43.12c-.88,2.84-3.31,5.46-8,6-5.52.64-11.37-1.86-12.39-8.51-1-6.81,3.86-11.16,9.85-11.61s9.11,3.21,9.81,6.43c.59,2.63.23,3.72-2.31,4l-9.82,1.14c1.55,5,8.27,5,11.13,1.49C823.56,40.82,824.77,41.57,824.27,43.12ZM811,36.25c-.07.45.18.82.53.78l4.65-.54c1-.11,1.31-.84.86-2s-1.28-2.67-3.48-2.21C811.74,32.61,811.11,34.54,811,36.25Z"/><path class="cls-16" d="M843.36,32a3.33,3.33,0,0,1-5.45,1c-1.24-1.31-1.15-2.65-2.5-2.49-1,.12-1.15.9-1,2.17l.57,4.89c.32,2.78.54,4.29,1.34,5,1.25,1,1.89,1.71,1.86,2.48s-.46,1.26-1.69,1.41l-7.91.91c-1.23.15-1.82-.15-2-1s.09-1.26,1-2.81c.6-1.08.49-2.39.18-5.06s-.52-4.16-1.35-5.07c-1.2-1.31-1.54-1.8-1.58-2.52s.47-1.42,1.66-2,3.41-1.53,3.83-1.7c1.92-.78,3.16-.16,3.6,1.52a6.26,6.26,0,0,1,4.53-2.62C842.62,25.65,844.61,29,843.36,32Z"/><path class="cls-16" d="M865.28,38.36c-.88,2.84-3.32,5.46-8,6-5.53.64-11.38-1.86-12.39-8.51-1-6.81,3.86-11.16,9.85-11.61s9.11,3.21,9.81,6.43c.58,2.63.23,3.72-2.32,4l-9.81,1.13c1.54,5,8.27,5,11.12,1.49C864.57,36.07,865.78,36.81,865.28,38.36ZM852,31.49c-.07.45.17.82.53.78l4.65-.54c1-.11,1.31-.83.85-2s-1.27-2.67-3.47-2.21C852.74,27.85,852.12,29.78,852,31.49Z"/><path class="cls-16" d="M873.34,19.71c-.17,2.35-.22,3-.69,10.3-.15,2.2-.14,3.32-1.61,3.49s-1.72-.92-2.37-3c-2.18-7-2.33-7.63-3-9.88-1-3.46.14-6.1,3.16-6.45S873.57,16.1,873.34,19.71Zm2,18.89a3.49,3.49,0,0,1-3.23,4,3.62,3.62,0,1,1-.84-7.19A3.49,3.49,0,0,1,875.33,38.6Z"/><path class="cls-17" d="M866.62,0c-7.23,2.53-9.07,5.49-9.31,15,0,1.15-1.33,1.3-1.62.19C853.28,6,850.81,3.55,843.2,2.75a1.11,1.11,0,0,1-.24-2c4.82-1.69,7.24-3.57,8.4-7.44A18.88,18.88,0,0,0,852-10c-.07-1.53-.26-3.18.57-4.61.62-.41,1.73.46,1.8,1.12a14.86,14.86,0,0,0,3.82,8.44A8.85,8.85,0,0,0,861.56-3a20.27,20.27,0,0,0,4.82,1A1.11,1.11,0,0,1,866.62,0Z"/><circle class="cls-5" cx="309.13" cy="131.32" r="94.87" transform="translate(-9.26 24.39) rotate(-4.45)"/><circle class="cls-4" cx="309.13" cy="131.32" r="83.8" transform="translate(-13.82 39.08) rotate(-7.08)"/><path class="cls-5" d="M282.44,86.52a9.93,9.93,0,1,1-5.41-13A9.94,9.94,0,0,1,282.44,86.52Z"/><path class="cls-5" d="M345.6,109.91a9.92,9.92,0,1,1-5.4-13A9.91,9.91,0,0,1,345.6,109.91Z"/><path class="cls-5" d="M311.53,120.75a11.34,11.34,0,0,0,2.11-4c1.3-4.43-.88-9.23-5.75-10-2.9-.43-5.45.9-8.21,1.38a9.48,9.48,0,0,1-7.48-2.14c-1.93-1.64-3.18-4-5.24-5.48a7.11,7.11,0,0,0-6.39-1.16c-2.68.87-4.41,3.42-5.16,6-1.9,6.57,2.82,12.8,7.83,16.51,5.33,3.94,12.46,6,19,4.41A17.46,17.46,0,0,0,311.53,120.75Z"/><path class="cls-6" d="M299.46,113.43a31.3,31.3,0,0,0-11.89-.2,20.56,20.56,0,0,0-5.71,2.11,27.35,27.35,0,0,0-3.43,2,25.2,25.2,0,0,0,4.81,4.66c5.33,3.94,12.46,6,19,4.41a17.46,17.46,0,0,0,9.29-5.63,11.8,11.8,0,0,0,1.35-2.13A44.63,44.63,0,0,0,299.46,113.43Z"/><path class="cls-5" d="M297.33,177.05c-.14.53-.57.68-1.33.52l-4.6-.94c-1.17-.24-1.78-.55-1.51-1.35s1.08-.71.86-1.58a18.29,18.29,0,0,0-.84-2.41l-.47-1.21-1,.6a4.48,4.48,0,0,0-.06,2.75c.47,1.06.59,1.43.47,1.88s-.57.68-1.34.53l-4.92-1c-.8-.17-1.11-.47-1-1s.31-.76,1.17-1.54c.59-.55.78-1.39,1.15-3.17l1.1-5.34c.36-1.79.51-2.64.18-3.37-.47-1.05-.58-1.42-.46-1.88s.58-.78,1.4-.88,2.44-.22,2.74-.26c1.54-.11,2.17.73,1.87,2.19-.13.64-.95,4.6-1.74,8.45l1.91-1.23c1.65-1.07,1.08-1.51,1.29-2.29.11-.38.38-.67,1.25-.49l3.5.72c.68.14,1,.49.87.92-.26,1.25-2.29.78-4.57,2l-.07.07,1.48,3.55a27.69,27.69,0,0,0,1.8,3.8C297.16,176.05,297.47,176.49,297.33,177.05Z"/><path class="cls-5" d="M312.1,174.76c-.78,1.77-2.55,3.28-5.62,3.29-3.63,0-7.23-2.05-7.39-6.43s3.32-6.94,7.23-6.79,5.67,2.76,5.88,4.89c.18,1.75-.13,2.43-1.8,2.43H304c.63,3.34,5,3.85,7.1,1.79C311.81,173.22,312.54,173.79,312.1,174.76ZM304,169.32c-.08.29.05.55.28.55h3.05c.63,0,.91-.44.7-1.22a1.87,1.87,0,0,0-2.08-1.7C304.76,167,304.22,168.22,304,169.32Z"/><path class="cls-5" d="M327.75,172c-.42,1.89-1.87,3.72-4.88,4.32-3.56.7-7.49-.62-8.49-4.89s1.92-7.45,5.79-8,6.09,1.61,6.71,3.67c.52,1.67.34,2.4-1.3,2.72L319.27,171c1.26,3.15,5.63,2.81,7.3.38C327.17,170.53,328,171,327.75,172Zm-9-3.77c0,.3.16.53.39.48l3-.59c.61-.12.81-.61.45-1.34a1.87,1.87,0,0,0-2.37-1.25C319.06,165.81,318.76,167.09,318.74,168.21Z"/><path class="cls-5" d="M343.21,162.22c1.52,3.6.51,7.09-3,8.47a4.83,4.83,0,0,1-3.36.11c.11.24.22.5.33.77.71,1.65,1.11,2.59,1.76,2.85,1,.43,1.5.71,1.62,1.2s-.07.88-.79,1.19l-4.8,2.06c-.71.3-1.14.23-1.41-.25s-.17-.81.08-1.94c.18-.78-.14-1.58-.84-3.23l-2.25-5.25c-.71-1.66-1.07-2.44-1.76-2.85-1-.6-1.29-.84-1.46-1.28s0-1,.66-1.53,1.87-1.59,2.1-1.78c1-.84,1.88-.69,2.49.19a4.68,4.68,0,0,1,2.43-2.41C338.43,156.94,341.65,158.63,343.21,162.22Zm-4.46,1.9c-.9-2.1-2.3-3.32-3.76-2.69s-1.58,2.48-.67,4.59,2.3,3.33,3.79,2.69S339.65,166.23,338.75,164.12Z"/><path class="cls-5" d="M264.05,180.31c-1.53,3.67,1.54,6.23,4.63,5.69,1-.17,1.3.67.43,1.25a6.06,6.06,0,0,1-6.72-.24c-3-2-4.55-5.4-2.47-9s6.33-4.22,9.6-2.08c3.67,2.39,4.31,6.48,1.66,7.62-1.43.62-3.57-.78-2.87-2.66s.49-2.85-.67-3.36S265,178.06,264.05,180.31Z"/><path class="cls-5" d="M284.76,188a2.17,2.17,0,0,1-3.4-1.18c-.29-1.14.18-1.87-.64-2.21-.6-.25-.93.15-1.28.91s-.78,1.9-1.22,3c-.7,1.69-1.05,2.61-.82,3.27.38,1,.53,1.58.27,2s-.66.58-1.41.27l-4.79-2c-.75-.3-1-.66-.83-1.19s.45-.68,1.44-1.29c.68-.42,1-1.21,1.7-2.82s1-2.54.84-3.32c-.27-1.13-.31-1.51-.1-1.94s.72-.66,1.57-.59,2.42.21,2.71.25c1.35.16,1.86.91,1.57,2a4.09,4.09,0,0,1,3.41-.06C286.36,184.11,286.45,186.63,284.76,188Z"/><path class="cls-5" d="M297.46,196.7c-1.12,1.57-3.17,2.69-6.18,2.06-3.55-.75-6.65-3.5-5.9-7.82s4.69-6.1,8.48-5.14a5.66,5.66,0,0,1,4.74,6c-.18,1.74-.63,2.34-2.26,2l-6.3-1.32c-.07,3.39,4.08,4.8,6.57,3.22C297.5,195.13,298.1,195.85,297.46,196.7Zm-6.81-7c-.14.27-.06.55.17.6l3,.62c.61.13,1-.24.94-1a1.87,1.87,0,0,0-1.69-2.09C291.88,187.62,291.1,188.68,290.65,189.7Z"/><path class="cls-5" d="M314.45,198.47c-.06,1.12-1.5,2-3,2-1.93,0-2.91-.57-3.32-1.69a3.72,3.72,0,0,1-3.45,1.64c-2.82,0-4.48-1.49-4.46-3.63,0-3.46,3.21-4.46,7.77-4.43V192c0-1.46-.06-2.61-1.1-2.77a1.49,1.49,0,0,0-1.81,1.08c-.5,1.59-1.52,1.95-2.67,1.55a1.64,1.64,0,0,1-.89-2.23c.77-2,3.43-2.42,5.65-2.41,3.59,0,5.59,1.66,5.56,5.46v.53c0,1.79-.1,3.33.47,3.94S314.51,197.69,314.45,198.47Zm-6.25-3.72c0-.83-.34-.86-1.22-.71a2.18,2.18,0,0,0-1.9,2c-.06,1.1.43,1.88,1.58,1.89s1.52-.82,1.53-2.18C308.19,195.27,308.19,195.06,308.2,194.75Z"/><path class="cls-5" d="M322.14,199.18c-2,.34-4.35-.31-4.9-3.66-.32-1.9-.83-5-1-6.25l-.88.14a1,1,0,0,1-1.16-.83l0-.24a1,1,0,0,1,.84-1.16l.51-.09c2.27-.37.67-3.31,2.48-3.6l1-.17c.85-.14,1.1.24,1.23,1,0,.23.16,1,.31,1.9l2.14-.35a1,1,0,0,1,1.17.84l0,.23a1,1,0,0,1-.84,1.17l-2.14.35c.25,1.49,1,6.07,1,6.07.23,1.39,1.39,1.57,2.49.7.4-.3.86-.43,1.19-.14C326.62,196,325,198.71,322.14,199.18Z"/><path class="cls-5" d="M324.09,181.45a3,3,0,1,1,3.6,1.75A2.84,2.84,0,0,1,324.09,181.45Zm11.33,13.35c.11.54-.18.87-.93,1.09l-4.82,1.44c-.77.23-1.19.11-1.37-.41s-.08-.82.3-1.91c.26-.76,0-1.59-.48-3.34s-.78-2.54-1.42-3c-.92-.71-1.21-1-1.3-1.44s.15-1,.82-1.44,2-1.37,2.3-1.52c1.3-.83,2.25-.38,2.67,1l1.5,5.05c.53,1.75.8,2.56,1.43,3.05C335,194.07,335.31,194.34,335.42,194.8Z"/><path class="cls-5" d="M352.23,187c.2.51,0,.89-.75,1.25L347,190.52c-.73.36-1.16.31-1.45-.15s-.2-.81,0-2c.13-.79-.23-1.57-1.05-3.21l-.12-.23c-.8-1.61-1.81-3.67-3.48-2.83-1,.52-1.18,1.61-.47,3l.83,1.66c.82,1.63,1.22,2.39,1.94,2.76,1,.53,1.36.74,1.52,1.19s0,.87-.72,1.23l-4.48,2.24c-.72.36-1.15.32-1.44-.15s-.22-.79,0-1.93c.13-.8-.21-1.59-1-3.15s-1.27-2.43-2-2.8c-1-.53-1.34-.76-1.53-1.19s0-1,.58-1.57,1.75-1.69,2-1.89c1.11-1,2.07-.77,2.73.38a5.31,5.31,0,0,1,2.63-3.18c3.06-1.53,5.13,0,6,1.79l1.26,2.52c.82,1.63,1.23,2.39,1.94,2.76C351.7,186.39,352,186.6,352.23,187Z"/><path class="cls-5" d="M367,178.1c2.1,3-.58,6.33-3.12,8.38s-5.88,3.88-7.3,1.62a2.23,2.23,0,0,1-.06-2.48,2.28,2.28,0,0,1-2.32-1.34,3.55,3.55,0,0,1,.26-3.16,4.59,4.59,0,0,1-3.74-1.77c-1.95-2.41-1.17-5.55,1.55-7.75a7.3,7.3,0,0,1,1.29-.84,3.21,3.21,0,0,1-.62-3.63c1-1.68,2.8-1.89,3.56-.53a1.57,1.57,0,0,1-.95,2.38c-.84.17-1.41-.17-1.6.39-.06.18.18.52.68.89a4.77,4.77,0,0,1,5.54,1.46c1.93,2.39,1.15,5.53-1.56,7.73a7.37,7.37,0,0,1-2.81,1.46c0,.52,0,.84.36,1s2.26-1,3.72-2.2C361.9,178.06,364.85,175.11,367,178.1Zm-12.89-1.48c1,1.27,2.22,1.88,3.14,1.15s.56-2-.47-3.32-2.2-1.9-3.14-1.15S353,175.32,354.07,176.62Zm10.62,5c-.54-.67-1.74.7-2.79,1.48A13.63,13.63,0,0,1,359,185a1.49,1.49,0,0,0,.29.64c.54.67,1.7.2,3.64-1.26C364.5,183.1,365.18,182.25,364.69,181.64Z"/><path class="cls-5" d="M360.53,161.48l4,5.38c.86,1.15,1.35,1.7.69,2.41s-1.24.27-2.45-.49c-4.07-2.55-4.4-2.77-5.7-3.59-2-1.26-2.53-3.06-1.18-4.52S359.11,159.6,360.53,161.48Zm9,8.48a2.28,2.28,0,0,1,.12,3.37,2.36,2.36,0,1,1-3.47-3.19A2.27,2.27,0,0,1,369.55,170Z"/><rect class="cls-5" x="326.99" y="-4.07" width="236.04" height="82.06" rx="41.03" transform="translate(7.84 127.96) rotate(-16.51)"/><rect class="cls-7" x="400.23" y="6.07" width="89.68" height="62.18" rx="24.04" transform="translate(7.78 127.98) rotate(-16.51)"/><g class="cls-18"><path class="cls-9" d="M456,77.54l-.29-.07a13.27,13.27,0,0,1,.93-2.88l.28.11Z"/><path class="cls-10" d="M457.27,5.93c.45.12.8.65,1.2,1.65a13.8,13.8,0,0,1,.9,4.93,19.68,19.68,0,0,1-8.08,16,9.4,9.4,0,0,0-3.66,5.11c-.48,2.15.28,4.37.7,6.46.12.61.53,2.7-.51,2.82-.7.08-1.63-1.93-2-2.47a33.46,33.46,0,0,1-3.25-6.77c-1.6-4.63-2.09-9.94.29-14.4A22.32,22.32,0,0,1,447,14.13a82.37,82.37,0,0,1,8.37-7.36C456.21,6.1,456.8,5.79,457.27,5.93Z"/><path class="cls-11" d="M457.49,64.71c.08-.24-1.68-5.3-2.3-7.4-1.4-5.64-1.67-11.21-4.45-16.39a18.57,18.57,0,0,0-9.32-8.74c-4.51-1.87-9.56-2.3-14-4.38a40.93,40.93,0,0,1-11.69-7.75c-.78-.78-2.36-2.34-2.32-.1,0,1.39.92,2.73,1.25,4,.83,3.18,1.78,6.94,3.94,9.49,3.25,3.83,7.09,7,12.16,8.12,3,.67,6.18.73,9.23,1.34,5.75,1.15,9.69,3.9,11.16,9.74.44,1.74,1.33,3.25,1.66,5a46.81,46.81,0,0,0,1.67,6.92C455,66,457,66.4,457.49,64.71Z"/><path class="cls-10" d="M427,32.86c2.05,2.34,5.12,2.81,8,3.37,3.85.75,7.3,1.58,9.86,4.78.87,1.08,2.74,0,1.89-1.17a13.87,13.87,0,0,0-9.22-5.31c-3.39-.61-7.2-.26-10.26-2.08-.26-.15-.47.2-.29.41Z"/><path class="cls-12" d="M452.68,15.42c-1.32,1.71-3.15,3-4.57,4.6-1.58,1.83-2.94,4.27-2.84,6.75a1,1,0,0,0,2.05.23,13.93,13.93,0,0,1,3.24-6.44,10.88,10.88,0,0,0,2.71-4.82c.07-.31-.37-.61-.59-.32Z"/><path class="cls-9" d="M480.51,68.87h0a1.06,1.06,0,0,1-1.07-.2.89.89,0,0,1-.32-.89,2.9,2.9,0,0,1,1.71-1.66l.07,0a2.07,2.07,0,0,1,1.56.07.67.67,0,0,1,.29.49.77.77,0,0,1-.17.51A4.56,4.56,0,0,1,480.51,68.87Zm.47-2.49-.05,0a2.63,2.63,0,0,0-1.51,1.45.59.59,0,0,0,.21.6.77.77,0,0,0,.8.13,4.35,4.35,0,0,0,1.9-1.57.6.6,0,0,0,.13-.32.38.38,0,0,0-.16-.27A1.92,1.92,0,0,0,481,66.38Z"/><path class="cls-13" d="M469.69,53c5.55,2.38,10.94,7.05,13.42,12.46a7.7,7.7,0,0,1-.2,7.47,18,18,0,0,1-7.3,6.31,29.76,29.76,0,0,1-7.57,2c-10.4,1.71-25.47,11.4-33.73,4.86-7.58-6-4.92-13.5-.75-19a29.24,29.24,0,0,1,4.14-4.6A40,40,0,0,1,448.51,56C455,53.31,462.66,50,469.69,53Z"/><path class="cls-14" d="M443.3,65.78c-.07,0-.37.11,0,0a.34.34,0,0,0,.19-.09l-.56,0a1.33,1.33,0,0,0,.21.09.5.5,0,0,0,.54-.24.63.63,0,0,0,.05-.5c0,.1,0,.2,0,.29v0a.62.62,0,0,0-.18-.6.8.8,0,0,0-.8-.15.66.66,0,0,0-.44.81.67.67,0,0,0,1,.37Z"/><path class="cls-14" d="M446.16,67.28a1,1,0,0,0,1-.27,1,1,0,1,0-1,.27Z"/><path class="cls-14" d="M447.31,63.5a.8.8,0,0,0,1.13-.33.83.83,0,1,0-1.13.33Z"/><path class="cls-14" d="M454,66.14a1.4,1.4,0,0,0,.41.06.83.83,0,0,0,.68-1.25,2,2,0,0,0-.28-.31.88.88,0,1,0-.81,1.5Z"/><path class="cls-14" d="M453.26,68.32a.4.4,0,0,0-.22-.76.4.4,0,0,0,.22.76Z"/><path class="cls-14" d="M456.27,68.78a1.1,1.1,0,0,0,.19-.25.37.37,0,0,0-.15-.49.92.92,0,0,0-.29-.11.51.51,0,1,0,.25.85Z"/><path class="cls-14" d="M469.09,56.27a1,1,0,0,0,.19-.25.59.59,0,0,0-.23-.78.76.76,0,0,0-.3-.1.69.69,0,1,0,.34,1.13Z"/><path class="cls-14" d="M471.78,56.87a.59.59,0,0,0-.34-1.12.59.59,0,0,0,.34,1.12Z"/><path class="cls-14" d="M469.75,58.85a.84.84,0,0,0,.13.29.48.48,0,0,0,.88-.26.59.59,0,0,0-.05-.32.5.5,0,0,0-1,.29Z"/><path class="cls-14" d="M475.37,62a.83.83,0,0,0-.47-1.59.83.83,0,0,0,.47,1.59Z"/><path class="cls-14" d="M447,71.77a.78.78,0,0,0,.34-.13.67.67,0,0,0-.36-1.23.86.86,0,0,0-.36.07.67.67,0,0,0,.38,1.29Z"/><path class="cls-14" d="M437.58,69.55a1.7,1.7,0,0,0,.15-.22.64.64,0,0,0-.26-.87l-.25-.1a.71.71,0,0,0-.7.21.72.72,0,0,0-.16.69.72.72,0,0,0,1.22.29Z"/><path class="cls-14" d="M458.54,67.31a.93.93,0,0,0-.53-1.78.93.93,0,0,0,.53,1.78Z"/><path class="cls-14" d="M455.49,71.43a.51.51,0,0,0-.29-1,.51.51,0,0,0,.29,1Z"/><path class="cls-14" d="M460.07,70.17a1,1,0,0,0,.32-.13.6.6,0,0,0-.32-1.1,1.28,1.28,0,0,0-.34.07.6.6,0,1,0,.34,1.16Z"/><path class="cls-14" d="M472.4,63.38a1.1,1.1,0,0,0-.62-2.1,1.1,1.1,0,0,0,.62,2.1Z"/><path class="cls-14" d="M478.26,64.08v.1l-.5.53a1.06,1.06,0,0,0,.43-.26c.16-.21.17-.23,0-.06a1.33,1.33,0,0,0,.21-.39.81.81,0,0,0-.59-1,.91.91,0,0,0-1.12.89.83.83,0,0,0,.43.71l0,0-.27-.26.17.21a.68.68,0,0,0,.68.16.71.71,0,0,0,.49-.68Z"/><path class="cls-14" d="M451.28,61a.72.72,0,0,0,.54,0,.54.54,0,0,0,.36-.65.8.8,0,0,0-.33-.44.62.62,0,1,0-.57,1.06Z"/><path class="cls-14" d="M453.45,61.91a.55.55,0,0,0-.32-1.06.55.55,0,0,0,.32,1.06Z"/><path class="cls-14" d="M465.67,55.12a.93.93,0,0,0,.49-.38.41.41,0,0,0-.16-.56.91.91,0,0,0-.63,0,.54.54,0,1,0,.3,1Z"/></g><circle class="cls-4" cx="375.23" cy="40.43" r="3.38"/><circle class="cls-4" cx="359.76" cy="62.66" r="3.38"/><circle class="cls-4" cx="384.84" cy="72.88" r="3.38"/><circle class="cls-4" cx="505.42" cy="1.85" r="3.38"/><circle class="cls-4" cx="530.5" cy="12.06" r="3.38"/><circle class="cls-4" cx="515.03" cy="34.3" r="3.38"/></g></svg>