<svg id="Layer_1" data-name="Layer 1" xmlns="http://www.w3.org/2000/svg" viewBox="0 0 600 600"><defs><style>.cls-1{fill:#197730;}.cls-2{fill:#62b56f;}.cls-2,.cls-3,.cls-4{fill-rule:evenodd;}.cls-3{fill:#3a8747;}.cls-4{fill:#163a24;}</style></defs><circle class="cls-1" cx="300" cy="300" r="300"/><path class="cls-2" d="M400.25,165.13H380.92v44.55c17.08,1.39,16,26.93-1.1,26.93H355.05c-17.14,0-18.18-25.55-1.1-26.93V165.13H246.06v44.55c17.08,1.39,16,26.93-1.11,26.93H220.18c-17.13,0-18.18-25.54-1.1-26.93V165.13H199.75a27,27,0,0,0-27,27L161.31,461.84a27,27,0,0,0,27,27H411.72a27,27,0,0,0,27-27L427.22,192.1A27,27,0,0,0,400.25,165.13Z"/><path class="cls-3" d="M400.25,165.13H380.92v44.55c17.08,1.39,16,26.93-1.1,26.93H355.05c-17.14,0-18.18-25.55-1.1-26.93V179.24c-28.62,36-52.32,80.54-67.8,131-19.18,62.51-22.8,124.57-13.31,178.6H411.72a27,27,0,0,0,27-27L427.22,192.1A27,27,0,0,0,400.25,165.13Z"/><path class="cls-4" d="M400.25,138.16H380.92c0-29.79-36.24-53.95-80.92-53.95s-80.92,24.16-80.92,54H199.75A54,54,0,0,0,145.8,192.1L134.34,461.84a53.94,53.94,0,0,0,53.94,53.95H411.72a53.94,53.94,0,0,0,53.94-53.95L454.2,192.1A54,54,0,0,0,400.25,138.16ZM300,111.18c29.79,0,53.94,8.35,53.94,27H246.06C246.06,119.53,270.21,111.19,300,111.18ZM411.72,488.81H188.28a27,27,0,0,1-27-27L172.78,192.1a27,27,0,0,1,27-27h19.33v44.55c-17.08,1.39-16,26.93,1.1,26.93H245c17.14,0,18.19-25.54,1.11-26.93V165.13H354v44.55c-17.08,1.38-16,26.93,1.1,26.93h24.77c17.13,0,18.18-25.54,1.1-26.93V165.13h19.33a27,27,0,0,1,27,27l11.47,269.74A27,27,0,0,1,411.72,488.81Z"/></svg>