<svg id="Layer_1" data-name="Layer 1" xmlns="http://www.w3.org/2000/svg" viewBox="0 0 600 600"><defs><style>.cls-1{fill:#197730;}.cls-2{fill:#ffb288;}.cls-3{fill:#fe9150;opacity:0.7;}.cls-4{fill:#191919;}.cls-5{fill:#fbffff;}.cls-6{fill:#333;}.cls-7{fill:#ff6c4b;}.cls-8{fill:#f7533f;}.cls-9{fill:#ef3f3a;}</style></defs><circle class="cls-1" cx="300" cy="300" r="300"/><path class="cls-2" d="M138.07,363.91s-7.69-25.78-26.93-16.55c-19.52,9.38-16.15,75.11,8.52,75.09,19.27,0,21-13.93,21-13.93Z"/><path class="cls-2" d="M461.93,363.91s7.69-25.78,26.93-16.55c19.52,9.38,16.15,75.11-8.52,75.09-19.27,0-21-13.93-21-13.93Z"/><path class="cls-3" d="M119.61,364.89s-12-.39-10.48,12.31,3.27,32.28,10.48,29.41,8.26-9,8.32-16.9S126.63,366.42,119.61,364.89Z"/><path class="cls-3" d="M481.63,364.89s12-.39,10.48,12.31-3.27,32.28-10.48,29.41-8.25-9-8.31-16.9S474.61,366.42,481.63,364.89Z"/><path class="cls-2" d="M128.43,251.14c-4.58,1.38-7.73,23.7-7.73,28.48v61.77c0,65,43.38,154,108.35,154H376.59c65,0,101.84-89,101.84-153.95v-63c0-5.77-4.54-28.53-10.29-28.9C428.42,247,181.29,235.25,128.43,251.14Z"/><path class="cls-4" d="M298.85,134.79s-24.55-22-61.07-25.95c-29.47-3.19-51.5-1.47-94.71,33.26-42.31,34-43,87.89-43,119.31,0,50.62,41.18,129.45,41.18,129.45s-12-47.5-9.82-91.15c1.07-21.26,25.91-15,48.47-36.93s59.55,13,80.52,9.93c23.54-3.39,151.46-35.51,167.42-6.85,15.87,28.48,44.81,35.41,42.7,56.16s-13.46,68.84-13.46,68.84S499.22,325.68,499,255.18c0-14,.16-25.21.19-34.67.07-29.12-14.25-52.66-20.74-69.82-6.81-18-38.73-40.9-70.21-44.37C373.67,102.5,340.51,102.81,298.85,134.79Z"/><ellipse class="cls-3" cx="299.56" cy="391.13" rx="16.16" ry="6.07"/><path class="cls-5" d="M266.63,356.9c0,28.3-13.32,41.24-41.77,41.76-23.84.44-43.41-11.24-41.77-41.76,1.43-26.62,15.73-42.9,41.77-41.77C256.66,316.5,266.66,329.73,266.63,356.9Z"/><path class="cls-6" d="M259.34,356.89c0,23.37-11,34.06-34.49,34.49-19.68.36-35.84-9.28-34.49-34.49,1.19-22,13-35.41,34.49-34.48C251.11,323.54,259.37,334.46,259.34,356.89Z"/><path class="cls-5" d="M258.18,338.19c0,10.46-4.92,15.25-15.44,15.44-8.82.16-16.05-4.15-15.45-15.44.53-9.84,5.82-15.86,15.45-15.44C254.49,323.26,258.19,328.14,258.18,338.19Z"/><path class="cls-5" d="M416.67,356.9c0,28.3-13.31,41.24-41.77,41.76-23.83.44-43.41-11.24-41.76-41.76,1.43-26.62,15.72-42.9,41.76-41.77C406.7,316.5,416.71,329.73,416.67,356.9Z"/><path class="cls-6" d="M409.38,356.89c0,23.37-11,34.06-34.48,34.49-19.68.36-35.85-9.28-34.49-34.49,1.18-22,13-35.41,34.49-34.48C401.15,323.54,409.41,334.46,409.38,356.89Z"/><path class="cls-5" d="M408.22,338.19c0,10.46-4.92,15.25-15.44,15.44-8.81.16-16-4.15-15.44-15.44.53-9.84,5.81-15.86,15.44-15.44C404.54,323.26,408.24,328.14,408.22,338.19Z"/><path class="cls-6" d="M259.57,299.63c-1.27-5.6-30.92-14.95-44.66-11.29-14,3.72-37.74,17.53-35.39,21.35s26.17-7.93,38.1-9.46S261.71,309.06,259.57,299.63Z"/><path class="cls-6" d="M339.56,299.63c1.27-5.6,30.92-14.95,44.66-11.29,14,3.72,37.74,17.53,35.39,21.35s-26.17-7.93-38.11-9.46S337.42,309.06,339.56,299.63Z"/><path class="cls-7" d="M251,421.05s4.43,16.82,19.66,22.81c11.57,4.54,47.67,5.69,60.35-.8s17.12-22,17.12-22Z"/><path class="cls-5" d="M261.9,421.05s9.11,9.52,37.68,9.52,37.07-9.52,37.07-9.52Z"/><path class="cls-8" d="M276.34,445.45c12,2.5,32.79,3.08,46.27.3-4.29-3.46-11.88-7.72-23.33-7.72S280.46,442.13,276.34,445.45Z"/><path class="cls-9" d="M189.92,407.77a61.05,61.05,0,0,0-46.85,21.84c19,36.86,49,65.73,86,65.73h16.06a61.19,61.19,0,0,0-55.19-87.57Z"/><path class="cls-9" d="M409.21,407.77A61.19,61.19,0,0,0,354,495.34h22.57c36.33,0,63.86-27.82,81.09-63.71A61.06,61.06,0,0,0,409.21,407.77Z"/></svg>