<svg id="Layer_1" data-name="Layer 1" xmlns="http://www.w3.org/2000/svg" viewBox="0 0 486.6 149.7"><defs><style>.cls-1{fill:#1b8436;}.cls-2{fill:#f0ecd7;}</style></defs><path class="cls-1" d="M253.76,172.68h11.38c2.32.08,3.75.68,4.26,1.81a7.94,7.94,0,0,1,.65,3.61v14.22a5.65,5.65,0,0,1-1.81,4q-5.43,5.63-16.29,5.62a22.65,22.65,0,0,1-16.74-7.27,24.2,24.2,0,0,1-7.11-17.55,22.73,22.73,0,0,1,7.24-17.16,23.92,23.92,0,0,1,31.48-1.84,3.62,3.62,0,0,1,1.74,2.87,6.56,6.56,0,0,1-1.48,3.66q-2.52,3.42-4.59,3.42c-.82,0-2.13-.59-3.94-1.78a11.59,11.59,0,0,0-6.47-1.77,12.59,12.59,0,0,0-8.72,3.46,11.6,11.6,0,0,0-3.82,9,13,13,0,0,0,3.88,9.5,12.09,12.09,0,0,0,8.79,3.92,16.7,16.7,0,0,0,6.4-1.17v-7H253.5a5.78,5.78,0,0,1-2.84-.52,2.4,2.4,0,0,1-1.1-1.52,11.4,11.4,0,0,1-.26-2.71,10.64,10.64,0,0,1,.29-2.75,2.14,2.14,0,0,1,1.07-1.42A7,7,0,0,1,253.76,172.68Z" transform="translate(-35 -130.41)"/><path class="cls-1" d="M279.68,171.45a17.74,17.74,0,0,1,12.41-5,17.54,17.54,0,0,1,12.34,5A17.8,17.8,0,0,1,307,193.71a17.36,17.36,0,0,1-6.75,6.14,18.27,18.27,0,0,1-8.25,2,17.49,17.49,0,0,1-8.27-2.1,18.29,18.29,0,0,1-6.75-6.2,16.33,16.33,0,0,1-2.75-9.28A16.69,16.69,0,0,1,279.68,171.45Zm8.08,17.42a6.9,6.9,0,0,0,4.2,1.58,7.07,7.07,0,0,0,4.27-1.62,6.5,6.5,0,0,0,.13-9.5,7,7,0,0,0-4.34-1.55,6.76,6.76,0,0,0-4.33,1.62,5.75,5.75,0,0,0-2,4.75A5.58,5.58,0,0,0,287.76,188.87Z" transform="translate(-35 -130.41)"/><path class="cls-1" d="M343.6,188.83l1.17-.84a7.64,7.64,0,0,1,3.1-1.29c1.33,0,2.78,1.21,4.33,3.62a7.48,7.48,0,0,1,1.42,3.62,3.13,3.13,0,0,1-.87,2.26,10,10,0,0,1-2,1.62l-2.23,1.36a23.48,23.48,0,0,1-4.36,1.68,21.54,21.54,0,0,1-6.37,1,24.73,24.73,0,0,1-6.2-.81,27.49,27.49,0,0,1-12.44-7.37,21.37,21.37,0,0,1-4.37-7,25.06,25.06,0,0,1-1.71-9.34,24,24,0,0,1,1.68-9.15,20.91,20.91,0,0,1,4.3-6.78,24.29,24.29,0,0,1,6-4.49,26.14,26.14,0,0,1,12.73-3.5,24.63,24.63,0,0,1,10.92,2.85l1.56.9q1.16.72,1.8,1.17a3.92,3.92,0,0,1,1.69,3.07,6.2,6.2,0,0,1-1.36,3.58q-2.52,3.5-4.53,3.49a6.8,6.8,0,0,1-3.29-1.42,11.21,11.21,0,0,0-7.24-2.2,14.15,14.15,0,0,0-8.28,2.91,10.93,10.93,0,0,0-3.23,4,13.91,13.91,0,0,0,0,11.7,11.13,11.13,0,0,0,3.3,4.07,13.46,13.46,0,0,0,12,2.33A9.91,9.91,0,0,0,343.6,188.83Z" transform="translate(-35 -130.41)"/><path class="cls-1" d="M381,167.57a4.42,4.42,0,0,1,2,1.32,4.57,4.57,0,0,1,.81,3,10.16,10.16,0,0,1-1.23,4.52,3.85,3.85,0,0,1-3.56,2.46,5,5,0,0,1-2.22-.52,6.62,6.62,0,0,0-2.82-.51,5.13,5.13,0,0,0-3.26,1.22,3.72,3.72,0,0,0-1.52,3v13.57a17.51,17.51,0,0,1-.1,2.23,5.07,5.07,0,0,1-.61,1.71q-1,1.68-5,1.68c-2.07,0-3.56-.36-4.46-1.1a3.86,3.86,0,0,1-1.17-2.77V172.8a19.76,19.76,0,0,1,.1-2.23,5.45,5.45,0,0,1,.55-1.64q.9-1.76,5-1.75c2.59,0,4.2.5,4.85,1.49a3.75,3.75,0,0,1,.71,2.13,11.49,11.49,0,0,1,.94-1.1,11.89,11.89,0,0,1,2.62-1.74,7.45,7.45,0,0,1,3.52-1.1,16.65,16.65,0,0,1,2.55.16A15.35,15.35,0,0,1,381,167.57Z" transform="translate(-35 -130.41)"/><path class="cls-1" d="M418.32,180.14q0,4-2,5.88a6.17,6.17,0,0,1-4.37,1.91H396.66a3.56,3.56,0,0,0,2.14,3,8.44,8.44,0,0,0,4.26,1.22,17.71,17.71,0,0,0,5.88-.77l.72-.26a6.54,6.54,0,0,1,2.58-.71c1.38,0,2.56,1,3.56,2.91a7.1,7.1,0,0,1,.84,3q0,5.76-13.77,5.75a20.92,20.92,0,0,1-8.5-1.64,14.47,14.47,0,0,1-5.79-4.37,18.61,18.61,0,0,1-4.07-11.7q0-8.13,5.27-13a18.63,18.63,0,0,1,13.15-4.88q9,0,13.19,6.33A13.22,13.22,0,0,1,418.32,180.14Zm-13.64,1.91c1.64,0,2.45-.69,2.45-2.07a2.89,2.89,0,0,0-1.13-2.39,5,5,0,0,0-3.23-.91,6.51,6.51,0,0,0-4.17,1.72,4.77,4.77,0,0,0-2.06,3.65Z" transform="translate(-35 -130.41)"/><path class="cls-1" d="M444.62,170.8q.39-3.62,5.11-3.62a13.33,13.33,0,0,1,3.75.39,2.72,2.72,0,0,1,1.71,1.36,5.4,5.4,0,0,1,.58,1.71,17.61,17.61,0,0,1,.1,2.23v22.62a17.51,17.51,0,0,1-.1,2.23,5.79,5.79,0,0,1-.55,1.71q-.9,1.68-4.43,1.68c-2.34,0-3.92-.29-4.71-.87a3.47,3.47,0,0,1-1.39-2.55q-2.4,3.42-8,3.42T426.33,196a16.82,16.82,0,0,1-4.78-11.86,16.65,16.65,0,0,1,4.81-11.83q4.81-5.07,10.57-5.07a10.06,10.06,0,0,1,4,.77,7.23,7.23,0,0,1,3.68,2.78Zm-11.76,13.44a5.36,5.36,0,0,0,1.68,3.85,5.5,5.5,0,0,0,4.07,1.71,5.17,5.17,0,0,0,4-1.74,5.65,5.65,0,0,0,1.58-3.85,6,6,0,0,0-1.52-3.91,5.06,5.06,0,0,0-4.07-1.81,5.27,5.27,0,0,0-4.14,1.81A5.9,5.9,0,0,0,432.86,184.24Z" transform="translate(-35 -130.41)"/><path class="cls-1" d="M480.82,178.62l-4.2-.26v8.92a4.49,4.49,0,0,0,.54,2.52,2.38,2.38,0,0,0,2.07.78,19.58,19.58,0,0,1,2.33.1,4.54,4.54,0,0,1,1.71.61c1,.56,1.49,2,1.49,4.33q0,4.06-1.81,5a6.31,6.31,0,0,1-1.71.55,19.54,19.54,0,0,1-2.17.09q-6.72,0-10.21-3t-3.49-10.28v-9.57a16.89,16.89,0,0,1-2.65.2,3,3,0,0,1-2.36-1.1,5.78,5.78,0,0,1-.94-3.75,16,16,0,0,1,.33-3.85,3.44,3.44,0,0,1,.9-1.71,4,4,0,0,1,2.59-.84l2.13.26v-6.66a16.87,16.87,0,0,1,.1-2.2,3.92,3.92,0,0,1,.61-1.55q.84-1.6,5-1.61,4.4,0,5.23,2.39a11.87,11.87,0,0,1,.33,3.3v6.33c1.89-.17,3.32-.26,4.29-.26a17.18,17.18,0,0,1,2.2.1,5.07,5.07,0,0,1,1.71.61q1.68.84,1.68,5t-1.74,5a5.91,5.91,0,0,1-1.71.54A17.61,17.61,0,0,1,480.82,178.62Z" transform="translate(-35 -130.41)"/><path class="cls-1" d="M521.6,180.14q0,4-2,5.88a6.17,6.17,0,0,1-4.36,1.91H500a3.54,3.54,0,0,0,2.13,3,8.45,8.45,0,0,0,4.27,1.22,17.75,17.75,0,0,0,5.88-.77l.71-.26a6.54,6.54,0,0,1,2.58-.71q2.07,0,3.56,2.91a7.1,7.1,0,0,1,.84,3q0,5.76-13.77,5.75a20.92,20.92,0,0,1-8.5-1.64,14.43,14.43,0,0,1-5.78-4.37,18.55,18.55,0,0,1-4.07-11.7q0-8.13,5.26-13a18.65,18.65,0,0,1,13.16-4.88q9,0,13.18,6.33A13.14,13.14,0,0,1,521.6,180.14ZM508,182.05q2.46,0,2.46-2.07a2.92,2.92,0,0,0-1.13-2.39,5,5,0,0,0-3.23-.91,6.47,6.47,0,0,0-4.17,1.72,4.79,4.79,0,0,0-2.07,3.65Z" transform="translate(-35 -130.41)"/><path class="cls-1" d="M287.27,250a6.2,6.2,0,0,1-1.68-3.72q0-1.65,2.78-4.36a4.93,4.93,0,0,1,3.43-1.55c1.2,0,2.89,1.08,5,3.23a9.75,9.75,0,0,0,2.59,2.1,6.11,6.11,0,0,0,3.1,1c4,0,6-1.63,6-4.91a2.91,2.91,0,0,0-1.65-2.49,12.26,12.26,0,0,0-4.1-1.45,34.68,34.68,0,0,1-5.3-1.46,33.23,33.23,0,0,1-5.3-2.36,10.66,10.66,0,0,1-4.11-4.29,14.26,14.26,0,0,1-1.65-7.08,13.56,13.56,0,0,1,4.24-9.92q4.23-4.23,11.54-4.24a23.49,23.49,0,0,1,7.07,1,13.58,13.58,0,0,1,4.43,2l1.62,1.23c1.33,1.25,2,2.31,2,3.17a7.17,7.17,0,0,1-1.55,3.55c-1.47,2.16-3,3.23-4.53,3.23a6.67,6.67,0,0,1-3.36-1.29,5.89,5.89,0,0,1-.74-.65,12.07,12.07,0,0,0-1-.84,6.59,6.59,0,0,0-3.46-.84,5.81,5.81,0,0,0-3.49,1,3.21,3.21,0,0,0-1.39,2.78,3.32,3.32,0,0,0,1.65,2.87,10.21,10.21,0,0,0,4.1,1.49,50.67,50.67,0,0,1,5.37,1.19,33.11,33.11,0,0,1,5.36,2,9.46,9.46,0,0,1,4.11,4,14.15,14.15,0,0,1,1.64,7.08,15.68,15.68,0,0,1-1.68,7.4,12.79,12.79,0,0,1-4.39,4.95,20.09,20.09,0,0,1-11.18,3.42,22,22,0,0,1-5.76-.74,18.34,18.34,0,0,1-9.17-5.85Z" transform="translate(-35 -130.41)"/><path class="cls-1" d="M357.08,235.55q0,4-2,5.89a6.16,6.16,0,0,1-4.37,1.9H335.43a3.54,3.54,0,0,0,2.13,3,8.45,8.45,0,0,0,4.26,1.23,17.78,17.78,0,0,0,5.89-.78l.71-.26a6.54,6.54,0,0,1,2.58-.71c1.38,0,2.56,1,3.56,2.91a7.14,7.14,0,0,1,.84,3q0,5.76-13.77,5.76a20.76,20.76,0,0,1-8.5-1.65,14.35,14.35,0,0,1-5.78-4.36,18.56,18.56,0,0,1-4.08-11.7q0-8.14,5.27-13a18.64,18.64,0,0,1,13.16-4.88q9,0,13.18,6.34A13.16,13.16,0,0,1,357.08,235.55Zm-13.64,1.91q2.46,0,2.46-2.07a2.92,2.92,0,0,0-1.13-2.39,5.12,5.12,0,0,0-3.24-.9,6.5,6.5,0,0,0-4.16,1.71,4.77,4.77,0,0,0-2.07,3.65Z" transform="translate(-35 -130.41)"/><path class="cls-1" d="M373.17,245.22a4.14,4.14,0,0,1,3.17,1.1c.69.73,1,2.24,1,4.52s-.36,3.8-1.1,4.56a4.21,4.21,0,0,1-3.16,1.13c-4.36,0-7.41-1-9.18-3.14s-2.65-5.57-2.65-10.44V212.12a17.61,17.61,0,0,1,.1-2.23,5.91,5.91,0,0,1,.54-1.71q.91-1.68,5.05-1.68,3.93,0,4.91,1.81a4.54,4.54,0,0,1,.61,1.65,17.51,17.51,0,0,1,.1,2.23v31C372.59,244.55,372.78,245.22,373.17,245.22Zm17.39-.39a5.38,5.38,0,0,0,2.65.39,5.59,5.59,0,0,1,3.55,1.1c.95.73,1.42,2.24,1.42,4.52s-.5,3.8-1.51,4.56a7,7,0,0,1-4.24,1.13q-13.69,0-13.7-13.58l-.06-30.83a20.29,20.29,0,0,1,.09-2.23,5.27,5.27,0,0,1,.62-1.71q1-1.68,5-1.68,3.93,0,4.91,1.81a8.84,8.84,0,0,1,.71,3.88v31A2,2,0,0,0,390.56,244.83Z" transform="translate(-35 -130.41)"/><path class="cls-1" d="M434.57,235.55c0,2.65-.65,4.61-2,5.89a6.14,6.14,0,0,1-4.36,1.9H412.92a3.54,3.54,0,0,0,2.13,3,8.49,8.49,0,0,0,4.27,1.23,17.68,17.68,0,0,0,5.88-.78l.71-.26a6.62,6.62,0,0,1,2.59-.71q2.07,0,3.55,2.91a7.14,7.14,0,0,1,.84,3q0,5.76-13.77,5.76a20.71,20.71,0,0,1-8.49-1.65,14.45,14.45,0,0,1-5.79-4.36,18.61,18.61,0,0,1-4.07-11.7q0-8.14,5.27-13a18.61,18.61,0,0,1,13.15-4.88q9,0,13.19,6.34A13.15,13.15,0,0,1,434.57,235.55Zm-13.64,1.91q2.46,0,2.46-2.07a2.92,2.92,0,0,0-1.13-2.39,5.07,5.07,0,0,0-3.23-.9,6.54,6.54,0,0,0-4.17,1.71,4.8,4.8,0,0,0-2.07,3.65Z" transform="translate(-35 -130.41)"/><path class="cls-1" d="M461.91,223a4.36,4.36,0,0,1,2,1.33,4.52,4.52,0,0,1,.81,3,10.24,10.24,0,0,1-1.23,4.53,3.85,3.85,0,0,1-3.56,2.45,5.16,5.16,0,0,1-2.23-.51,6.38,6.38,0,0,0-2.81-.52,5.08,5.08,0,0,0-3.26,1.23,3.71,3.71,0,0,0-1.52,3V251a17.4,17.4,0,0,1-.1,2.23,5.19,5.19,0,0,1-.61,1.72q-1,1.68-5,1.68a7.13,7.13,0,0,1-4.46-1.1,3.91,3.91,0,0,1-1.17-2.78V228.22a19.63,19.63,0,0,1,.1-2.23,5.41,5.41,0,0,1,.55-1.65c.6-1.16,2.28-1.75,5-1.75,2.59,0,4.2.5,4.85,1.49a3.75,3.75,0,0,1,.71,2.13,11.56,11.56,0,0,1,.94-1.09,11.82,11.82,0,0,1,2.62-1.75,7.54,7.54,0,0,1,3.52-1.1,18,18,0,0,1,2.55.16A15.66,15.66,0,0,1,461.91,223Z" transform="translate(-35 -130.41)"/><rect class="cls-1" width="149.7" height="149.7" rx="10.2"/><path class="cls-2" d="M178.17,189.44a50.41,50.41,0,0,0-22.38-5.83q-13.11,0-26.09,7.15A50.6,50.6,0,0,0,117.45,200l-.29.3V179a16.42,16.42,0,0,0-1.33-7.42q-1.59-3.44-8.74-3.71H83.78a14.25,14.25,0,0,0-6.36,1.2A4.39,4.39,0,0,0,75.24,172a21.33,21.33,0,0,0-.6,5.63,23.32,23.32,0,0,0,.53,5.56,5,5,0,0,0,2.25,3.11q1.72,1.06,5.83,1.06h9.67a.79.79,0,0,1,.79.8V201.2a.81.81,0,0,1-.5.75,34.79,34.79,0,0,1-12.61,2.18q-10.06,0-18-8a26.61,26.61,0,0,1-8-19.47q0-11.46,7.82-18.54A25.88,25.88,0,0,1,80.34,151a23.61,23.61,0,0,1,13.24,3.65q5.57,3.65,8.08,3.64,4.25,0,9.4-7,3-4.24,3-7.48c0-2.17-1.19-4.13-3.58-5.9A54.27,54.27,0,0,0,97,130.46a.93.93,0,0,0-.29-.05H64.19a.92.92,0,0,0-.28.05A50.6,50.6,0,0,0,46,141.69a46.81,46.81,0,0,0-11,15.48.75.75,0,0,0-.07.33v39.07a.87.87,0,0,0,.06.32,50.87,50.87,0,0,0,10.71,15.92q14.56,14.9,34.3,14.9,14.85,0,24.74-5.13a.79.79,0,0,1,1.13.85,55.59,55.59,0,0,0-.74,9.18,51.22,51.22,0,0,0,3.51,19.14,43.93,43.93,0,0,0,8.94,14.44,54.58,54.58,0,0,0,12.25,9.53,57.71,57.71,0,0,0,9.31,4.35.8.8,0,0,0,.27,0H171a.73.73,0,0,0,.25,0,37.05,37.05,0,0,0,6.62-2.69l4.57-2.78c.33-.2.64-.41,1-.62a.81.81,0,0,0,.28-.33,11.17,11.17,0,0,0,1.06-4.76V258.37a.86.86,0,0,0-.14-.47q-4.26-6.07-8-6.08c-1.23,0-3.34.87-6.32,2.63l-.07,0-2.35,1.7a20.14,20.14,0,0,1-5.23,2.12,27.49,27.49,0,0,1-7.75,1.06A28.34,28.34,0,0,1,138,253.54a22.79,22.79,0,0,1-6.75-8.34,28.45,28.45,0,0,1,0-24,22.28,22.28,0,0,1,6.62-8.21q8.34-6,17-6,9.25,0,14.81,4.49l.05,0c2.9,1.94,5.14,2.9,6.73,2.9,2.41,0,5.11-1.87,8.08-5.58a.85.85,0,0,0,.17-.51V193.86a.78.78,0,0,0-.34-.66c-.8-.53-1.8-1.17-3-1.91Z" transform="translate(-35 -130.41)"/><path class="cls-2" d="M184.7,150.72a.81.81,0,0,0-.69-.79c-10.32-1.47-12.55-4.84-13.56-19.52h-1c-1,14.68-3.24,18.05-13.56,19.52a.79.79,0,0,0,0,1.57c9.44,1.35,12.11,4.27,13.28,16a.79.79,0,0,0,1.58,0c1.16-11.69,3.84-14.62,13.27-16a.79.79,0,0,0,.69-.78Z" transform="translate(-35 -130.41)"/><path class="cls-2" d="M157.65,230.08c-4.71.93-6.47,2.86-7.31,8.56a.79.79,0,0,1-1.57,0c-.83-5.7-2.6-7.63-7.31-8.56a.79.79,0,0,1,0-1.56c4.71-.92,6.48-2.85,7.31-8.55a.79.79,0,0,1,1.57,0c.84,5.7,2.6,7.63,7.31,8.55A.79.79,0,0,1,157.65,230.08Z" transform="translate(-35 -130.41)"/><path class="cls-2" d="M77.18,250.06c-14.65-1.75-18-5.49-19.5-23.94a.8.8,0,0,0-1.59,0C54.58,245.22,51,248.55,35,250.24v1.22c17.18,1.82,20,5.53,21.4,28.65h1c1.31-22.39,4-26.58,19.81-28.47A.8.8,0,0,0,77.18,250.06Z" transform="translate(-35 -130.41)"/></svg>