<svg id="_4" data-name="4" xmlns="http://www.w3.org/2000/svg" viewBox="0 0 777 779"><defs><style>.cls-1{fill:#ce7a2e;}.cls-2{fill:#284f36;}.cls-3{fill:#3bb55d;}.cls-4{fill:#7ac44c;}.cls-5{fill:#1b8436;}.cls-6{fill:#561c17;}.cls-7{fill:#8a4d27;}.cls-8{fill:#ffa076;}.cls-9{fill:#fff;}.cls-10{fill:#764678;}.cls-11{opacity:0.3;}.cls-12{fill:#f47c53;}.cls-13{fill:#b8e34d;}.cls-14{fill:#83bf47;}.cls-15{fill:#00784d;}.cls-16{fill:#f9bd38;}.cls-17{fill:#163a24;}</style></defs><polygon class="cls-1" points="720.07 76.22 720.07 650.09 370.83 628.91 371.02 376.54 371.22 203.6 371.31 119.06 561 95.76 585.55 92.78 594.32 91.72 720.07 76.22"/><polygon class="cls-2" points="747.32 76.23 720.12 76.23 720.12 650.1 739.44 648.1 747.32 76.23"/><path class="cls-3" d="M501.69,313.66c-11.36,8.76-30.81,12.33-9.44-5.49s20.8-41.5,17.24-41.21-5.78,9.44-5.78,9.44C464.33,349.19,383.83,373.17,371,376.54l.2-172.94c65.47-18,104-97.25,104-97.25L561,95.76C581.22,223.15,513.05,304.9,501.69,313.66Z"/><path class="cls-4" d="M585.58,92.76s17.94,75.63-8,124.1c0,0-4.22,9.52,7,8.23s28.73-52.44,18.72-100c-1.79-8.47-4.06-20.75-9-33.42Z"/><path class="cls-5" d="M720.12,149.78s-92.66,30.48-106.67,95.41c0,0-1.9,9.38,5,7.84s19.46-35.74,36.35-43.09-40.25,51.86-38.52,90,34.78,21.65,45.74,3.92,37.36-34.78,36.06-22.8,12.42,16.74,22,9.39Z"/><path class="cls-6" d="M761,675.81s-18.46-95.45-21.32-98.25-7.28-.31-5.72,5,23,91.35,23.92,93.28S761.49,678.48,761,675.81Z"/><path class="cls-3" d="M654.83,555.64c-.14-15.58,33.42-59,55.21-64.8,24.69-6.61,56.33-18.62,65.63,3.09s-21.85,88.56-21.85,88.56-1.72,5.94-8,6.6-84,3-84.13,0C661.58,587.18,643.84,558.83,654.83,555.64Z"/><path class="cls-6" d="M622.72,660.8s-2.13,13.86-7.78,20.93c-3.73,4.66-14,13.89-6.7,17,5.84,2.46,17.09-8.48,20.74-11.2s9.15-7.86,7.93-12.25c-2.53-9.09-1.69-20.51-1.69-20.51Z"/><path class="cls-6" d="M651,650s2.83,13.74,0,22.34c-1.87,5.66-8.31,17.89-.38,18.23,6.33.27,13.07-13.89,15.55-17.71s5.85-10.56,3.18-14.25C663.76,651,660.57,640,660.57,640Z"/><path class="cls-7" d="M647,659.75c-75.83-50.57-72.08-94.88-61.57-112.21,12.2-20.12,31.52-36,61.13-43.13a164.69,164.69,0,0,1,21.69-3.62,15.17,15.17,0,0,1,16.69,15.49l-.68,25.8h.06c-12.65-.26-51,3.59-61.09,24-2.09,4.25,48.95,64.19,47,75C668.12,653.25,654.41,664.7,647,659.75Z"/><path class="cls-7" d="M617.6,667.33a15.1,15.1,0,0,1-15.16-16c1.14-19.35,4.74-52.29,16-77.17,6.39-14.11,16.55-26.94,30.2-38.14a169.08,169.08,0,0,1,36.61-22.42c23.28-10.71,40-9.22,40-9.22L738,523.16c-.17,0,3.57,18.93-23.33,35.78-14.85,9.3-44.69,15-57,39-8.76,17.16-12.11,39.9-13.22,55.79a14.58,14.58,0,0,1-14.47,13.54Z"/><path class="cls-8" d="M634.91,437.88s-15.63,24.06-21.24,59.73c-3.7,23.6,39.25-3.88,39.25-3.88l1.91-49.3Z"/><path class="cls-5" d="M713.09,424.28s-11.91-20.36-39.37-14.11-38.65,34.29-40.61,101.64c0,0,16.49,29.18,91.5,23.49,8.31-.63,20.23-1.73,16.16-15.2C733.22,495.05,725.91,445.08,713.09,424.28Z"/><path class="cls-5" d="M743.3,430.23l-28.25,5.3s-50,22.9-63.81,23-19-18.29-19-18.29a73.13,73.13,0,0,1,34.52-27.86,69,69,0,0,1,6.91-2.23A51,51,0,0,1,686,408.11C732.62,407.58,743.3,430.23,743.3,430.23Z"/><path class="cls-6" d="M743.3,430.23c.61,2.22-5.31,5.94-13.23,8.29s-14.82,2.47-15.43.24,5.31-5.94,13.22-8.3S742.69,428,743.3,430.23Z"/><path class="cls-8" d="M686,408.12a8.38,8.38,0,0,1-7.63-3.63L673,396.63l-1.55-2.28-9.06-13.41,4,14.93,2.38,9,.68,2.55a4.22,4.22,0,0,1-2.58,5h0c-.77,2-1.61,6,3.28,6.62,5.76.69,13.72-5.25,15.91-10.91Z"/><path class="cls-6" d="M679,375.19s-.11,2.6,2.29,7.42c3.5,7.05-4.42,11.78-7,10.07-.32-.22-2.37-12.95-2.37-12.95l2.41-2.14Z"/><path class="cls-6" d="M673,396.37a2.34,2.34,0,0,1,0,.26c.56,4.95-4.22,8.22-4.22,8.22l0,0-2.38-9c1.48-.89,3.64-1.92,5.09-1.52A2.16,2.16,0,0,1,673,396.37Z"/><ellipse class="cls-8" cx="662.17" cy="383.49" rx="14.48" ry="17.86" transform="translate(-59.96 130.4) rotate(-10.76)"/><path class="cls-6" d="M654,371.09c.5.46,0,9.92,17.11,8.89s3.23-19.4-9.2-17.51c-17.94,2.72-18.26,15.19-15.73,19.18S654,371.09,654,371.09Z"/><path class="cls-6" d="M677.64,355.1s-6.55,6.45.12,10.08,23,2.68,20.15,11.48S693.58,398,701.66,398s12.88-1.53,17.24,4.07,17.78-.93,15.22-8.1,8.34-16,1.85-21.78-20.33-9.31-25.19-17.57S683,350.1,677.64,355.1Z"/><path class="cls-6" d="M668.7,377.46s8.2,5.91,7.23,13.72c0,0,3.14-5.08,2.92-6.72a63.86,63.86,0,0,0-2.38-7.27Z"/><path class="cls-8" d="M675,383.79c-1.32,1.85-3.55,2.43-5,1.31s-1.51-3.53-.19-5.37,3.54-2.43,5-1.31S676.31,382,675,383.79Z"/><path class="cls-9" d="M718.61,402.15c-2.1-7.91-6.77-8.27-11.71-8.65a25.6,25.6,0,0,1-5.91-.92,3.08,3.08,0,0,1-1.92-1.52c-.87-1.79.14-4.6,1.32-7.85,1.71-4.74,3.66-10.12.76-14.29a19.52,19.52,0,0,0-14.21-8.43c-4.94.31-7.51-.24-7.8-1.7s2-3.1,2.87-3.4c6.93-2.42,14.93-3.4,26.53,5.77,9.15,7.23,8.52,11.3,7.73,16.45-.18,1.13-.36,2.31-.45,3.59a2.9,2.9,0,0,0,.65,2.28c1.12,1.18,3.62,1.15,6,1.13,3.11,0,6.34-.08,7.21,2.4.68,1.94-.1,4.24-.84,6.47s-1.49,4.44-.6,5.95c.58,1,1.82,1.64,3.79,2L732,402c-2.15-.39-3.52-1.14-4.19-2.28-1-1.75-.27-4,.54-6.45.72-2.13,1.46-4.34.85-6.08-.73-2.08-3.6-2-6.65-2-2.54,0-5.16.06-6.46-1.31a3.46,3.46,0,0,1-.81-2.73c.09-1.31.27-2.5.45-3.64.76-5,1.37-8.88-7.51-15.9-11.37-9-19.2-8-26-5.67-.82.29-2.69,1.74-2.49,2.72.1.5,1,1.62,7.21,1.23a20.16,20.16,0,0,1,14.71,8.68c3.07,4.43,1,10.2-.69,14.83-1.13,3.13-2.11,5.83-1.34,7.39a2.44,2.44,0,0,0,1.56,1.21,25.13,25.13,0,0,0,5.78.9c5.16.39,10,.76,12.24,9.09Z"/><path class="cls-9" d="M668.23,374.73a12.9,12.9,0,0,1-8.77-3.7l.4-.36A12.11,12.11,0,0,0,670.1,374l.09.54A12.22,12.22,0,0,1,668.23,374.73Z"/><path class="cls-10" d="M652.69,396.76a5.47,5.47,0,0,1-3.26-.41,7.53,7.53,0,0,1-3.89-4.25c-1.38-3.62,0-7.54,3-8.74a5.42,5.42,0,0,1,4.16.15,7.61,7.61,0,0,1,3.89,4.26c1.38,3.62,0,7.54-3,8.73A4.76,4.76,0,0,1,652.69,396.76Zm-3.18-13.31a4.13,4.13,0,0,0-.83.24c-2.87,1.12-4.13,4.84-2.81,8.28a7.23,7.23,0,0,0,3.7,4.07,5,5,0,0,0,3.89.14c2.87-1.12,4.13-4.84,2.81-8.29a7.24,7.24,0,0,0-3.7-4.06A5.19,5.19,0,0,0,649.51,383.45Z"/><path class="cls-10" d="M666.08,392.21a5.55,5.55,0,0,1-3.26-.41,7.51,7.51,0,0,1-3.88-4.25c-1.39-3.63,0-7.55,3-8.74a5.35,5.35,0,0,1,4.15.15,7.55,7.55,0,0,1,3.89,4.26h0c1.39,3.62,0,7.54-3,8.73A4.64,4.64,0,0,1,666.08,392.21Zm-3.17-13.31a4,4,0,0,0-.83.24c-2.87,1.12-4.14,4.84-2.82,8.28a7.18,7.18,0,0,0,3.7,4.06,5.07,5.07,0,0,0,3.89.15c2.87-1.13,4.13-4.84,2.81-8.29h0a7.17,7.17,0,0,0-3.7-4.06A5.16,5.16,0,0,0,662.91,378.9Z"/><path class="cls-10" d="M655,388.74a.17.17,0,0,1-.15,0,.18.18,0,0,1,0-.25,7.35,7.35,0,0,1,4.94-1.82.16.16,0,0,1,.18.16.18.18,0,0,1-.16.19,7.12,7.12,0,0,0-4.71,1.71A.19.19,0,0,1,655,388.74Z"/><path class="cls-6" d="M660.83,383.92a.32.32,0,0,1-.25-.15.33.33,0,0,1,.1-.46,3.57,3.57,0,0,1,4.36.14.33.33,0,0,1,.08.46.36.36,0,0,1-.46.08,5.61,5.61,0,0,0-3.63-.12A.35.35,0,0,1,660.83,383.92Z"/><path class="cls-6" d="M664.06,387a1.27,1.27,0,0,1-.69,1.61c-.56.12-1.15-.4-1.32-1.16a1.28,1.28,0,0,1,.7-1.62C663.3,385.7,663.89,386.22,664.06,387Z"/><path class="cls-6" d="M649.6,387.8a.33.33,0,0,1-.37-.5,3.56,3.56,0,0,1,4.09-1.54.32.32,0,0,1,.24.4.34.34,0,0,1-.39.24,5.61,5.61,0,0,0-3.4,1.28A.3.3,0,0,1,649.6,387.8Z"/><path class="cls-6" d="M653.76,389.4a1.09,1.09,0,1,1-1.66-.57A1.27,1.27,0,0,1,653.76,389.4Z"/><path class="cls-8" d="M738.42,493c-12.06,18.9-36,31-61.07,30.17L680,503c19.48-3.55,34.4-16.22,37.18-26.9,3.5-13.43,2.3-26.5.63-36.33a2.53,2.53,0,0,1,1-2.44c2.49-1.91,8.94-5.78,20.46-6a2.22,2.22,0,0,1,2.2,1.66C746.27,451.12,749.18,476.08,738.42,493Z"/><g class="cls-11"><path class="cls-12" d="M725.71,499.14a3.07,3.07,0,0,1-1.27-.26c-2.11-.9-2.86-3.94-1.66-6.78a6.4,6.4,0,0,1,3.29-3.48,3.5,3.5,0,0,1,2.73,0c2.11.9,2.85,3.95,1.65,6.79h0a6.44,6.44,0,0,1-3.29,3.48A4,4,0,0,1,725.71,499.14Zm1.81-9.89a2.93,2.93,0,0,0-1.1.23,5.45,5.45,0,0,0-2.78,3c-1,2.37-.48,4.87,1.16,5.57a2.63,2.63,0,0,0,2,0,5.56,5.56,0,0,0,2.78-3c1-2.38.47-4.88-1.17-5.58A2.31,2.31,0,0,0,727.52,489.25Z"/></g><path class="cls-6" d="M605.32,624.65l-.47,0a213,213,0,0,1,6.57-37.08c5-18.09,14.55-41.88,32.19-52.44l.24.41c-17.51,10.47-27.05,34.14-32,52.15A211.3,211.3,0,0,0,605.32,624.65Z"/><path class="cls-6" d="M644,657.54h-.47a137.57,137.57,0,0,1,9.1-48l.43.19A136.85,136.85,0,0,0,644,657.54Z"/><path class="cls-6" d="M659.58,397.07a7.69,7.69,0,0,1-2.25-.32.26.26,0,0,1-.16-.33.26.26,0,0,1,.33-.16c.18.06,4.39,1.46,6.74-2.14a.25.25,0,0,1,.36-.08.26.26,0,0,1,.08.36A5.82,5.82,0,0,1,659.58,397.07Z"/><path class="cls-13" d="M653.89,510.06s35.05-47,38.3-46.25,1.59,4.36-1.44,9.8-27.65,42.45-27.65,42.45Z"/><polygon class="cls-4" points="647.93 517 653.89 510.06 663.1 516.06 658.16 523.66 647.93 517"/><path class="cls-14" d="M647.93,517s-10.7,3.49-11.46,10.92,4,18.54,4,18.54,5.31-8.68,10.56-8.43,7.11-14.37,7.11-14.37Z"/><path class="cls-15" d="M636.44,531s2.36-2.26,4.33.37,4.43-.15,7.06,1.3,2.09,5.48,2.09,5.48-7.93,6.2-9.43,8.34S636.44,531,636.44,531Z"/><path class="cls-8" d="M680,503s-18-5.74-23.76-3-11,10.52-7.1,9.59a42.05,42.05,0,0,0,8.58-3.49S648,512,650.4,513.67s10.78-3.59,10.78-3.59-11,8-8.25,8.85S664,513.65,664,513.65s-9.94,7.85-6.71,8.76,8.17-6.54,10.54-4.87,8.44,9.34,13.89,3.31Z"/><path class="cls-12" d="M657.89,506.23l-.3-.36c.11-.09,2.63-2.18,4.64-1.61l-.13.45C660.33,504.21,657.92,506.21,657.89,506.23Z"/><path class="cls-12" d="M661.33,510.26l-.31-.35a8.19,8.19,0,0,1,5.45-1.93l0,.47A7.85,7.85,0,0,0,661.33,510.26Z"/><path class="cls-12" d="M664.15,513.83l-.3-.36c.13-.11,3.1-2.58,5.19-1.79l-.16.43C667,511.42,664.18,513.8,664.15,513.83Z"/><path class="cls-16" d="M598.47,345.74,492.4,356.69a8.88,8.88,0,0,0-7.58,11.38l51.53,171.42a8.85,8.85,0,0,0,8.35,6.31l112.66,1.71A8.87,8.87,0,0,0,666,536L607.84,351.89A8.88,8.88,0,0,0,598.47,345.74Z"/><path class="cls-3" d="M594.09,356.78l-92.73,9.76a7.89,7.89,0,0,0-6.63,10.12l45,152.66a7.76,7.76,0,0,0,7.3,5.62l98.5,1.52a7.87,7.87,0,0,0,7.51-10.27L602.28,362.26A7.75,7.75,0,0,0,594.09,356.78Z"/><polygon class="cls-16" points="627.29 429.52 506.67 429.52 508.66 441.3 632.49 446.6 627.29 429.52"/><polygon class="cls-16" points="611.21 372.5 575.4 356.74 570.64 356.74 611.21 377.18 611.21 372.5"/><polygon class="cls-16" points="515.68 360.19 499.87 398.32 496.62 393.12 511.52 360.19 515.68 360.19"/><polygon class="cls-16" points="650.15 502.65 631.11 538.7 625.45 538.7 645.66 491.56 650.15 502.65"/><polygon class="cls-14" points="570.64 538.7 532.11 503.34 530.24 509.24 564.51 538.7 570.64 538.7"/><path class="cls-17" d="M642.92,529.4,602.11,408.06a12.87,12.87,0,0,0-13.5-8.7L493.75,409a12.86,12.86,0,0,0-11.12,16.15L513.78,540.8a12.86,12.86,0,0,0,12.91,9.51l104.52-3.95A12.87,12.87,0,0,0,642.92,529.4Z"/><path class="cls-17" d="M682,696.69a2.14,2.14,0,0,0,.65-.1,2.12,2.12,0,0,0,1.41-2.67l-47.55-148.6a2.18,2.18,0,0,0-2.72-1.39c-1.14.35-5.18.91-4.82,2l51,149.24A2.17,2.17,0,0,0,682,696.69Z"/><path class="cls-17" d="M573.24,696.69a2.16,2.16,0,0,0,2.07-2.77l-44.8-150.09c-.36-1.12-4.32-.25-5.48.1a2.12,2.12,0,0,0-1.41,2.67l47.55,148.6A2.17,2.17,0,0,0,573.24,696.69Z"/><path class="cls-17" d="M655.21,543.28H517.49a2.29,2.29,0,0,0-2.36,2.21h0c0,1.22,0,5.21,1.31,5.21l138-1.82c2.17.09,3.12-2.17,3.12-3.39h0A2.29,2.29,0,0,0,655.21,543.28Z"/><path class="cls-6" d="M480.86,438.14H618.07a2.17,2.17,0,0,0,0-4.33H480.86a2.17,2.17,0,1,0,0,4.33Z"/><path class="cls-6" d="M487.66,563.89H599a2.17,2.17,0,1,0,0-4.33l-110.57-2c-1.19,0-2.94,2.94-2.94,4.14A2.16,2.16,0,0,0,487.66,563.89Z"/><path class="cls-6" d="M480.86,696.69a2.17,2.17,0,0,0,2.16-2.06L499.45,436c.06-1.2-4-2.11-5.23-2.17a2.22,2.22,0,0,0-2.27,2.05L478.69,694.41a2.18,2.18,0,0,0,2.06,2.28Z"/><path class="cls-6" d="M592.21,696.69a2.17,2.17,0,0,0,2.16-2.06l13.25-258.54a2.17,2.17,0,0,0-2-2.28c-1.12-.07-6.15,1-6.21,2.17L590,694.41a2.18,2.18,0,0,0,2.05,2.28Z"/></svg>