<svg id="_2" data-name="2" xmlns="http://www.w3.org/2000/svg" viewBox="0 0 777 779"><defs><style>.cls-1{fill:#ce7a2e;}.cls-2{fill:#4bae48;}.cls-3{fill:#7fc064;}.cls-4{fill:#fff;}.cls-5{fill:#ad662b;}.cls-6{fill:#4eaf46;}.cls-7{fill:#b8e34d;}.cls-8{fill:#00a76e;}.cls-9{fill:#ffa076;}.cls-10{fill:#561c17;}.cls-11{fill:#8a4d27;}.cls-12{fill:#00784d;}.cls-13{fill:#632c1e;}.cls-14{fill:#ffc655;}.cls-15{opacity:0.5;}.cls-16{fill:#f47c53;}</style></defs><path class="cls-1" d="M118.92,154,0,655.41s63.46,71,318.13,21l-113.3-528Z"/><path class="cls-2" d="M204.92,148.16c0,2.58-19.27,4.66-43,4.66s-43,3.72-43,1.15c0-18.4,19.19-35.67,43-35.67S204.92,131.67,204.92,148.16Z"/><path class="cls-3" d="M204.83,148.42c.11,1.8-9.18,4-22.88,5.63l-2.42.28c-5.3.6-11.17,1.12-17.36,1.52-5.25.34-10.28.56-14.95.67-1.69,0-3.32.07-4.91.08-13.79.11-23.27-.84-23.39-2.63-.09-1.55,6.81-3.37,17.52-4.91l2.62-.36c4.53-.6,9.64-1.15,15.1-1.6,2.41-.2,4.89-.39,7.42-.55,1.77-.12,3.52-.22,5.22-.3,7.24-.38,13.94-.52,19.63-.45h.4C197.65,146,204.73,146.88,204.83,148.42Z"/><path class="cls-4" d="M186.43,145.8a28.34,28.34,0,0,1-4.71,6.5,26.31,26.31,0,0,1-2.19,2,27.58,27.58,0,0,1-32.31,2.19,27.88,27.88,0,0,1-5.21-4.23,27.47,27.47,0,0,1-2.95-3.59c4.53-.6,9.64-1.15,15.1-1.6,2.41-.2,4.89-.39,7.42-.55,1.77-.12,3.52-.22,5.22-.3C174,145.87,180.74,145.73,186.43,145.8Z"/><path class="cls-2" d="M161.88,121.38h0a1.85,1.85,0,0,1-1.85-1.85V89.06a1.84,1.84,0,0,1,1.85-1.84h0a1.84,1.84,0,0,1,1.85,1.84v30.47A1.85,1.85,0,0,1,161.88,121.38Z"/><path class="cls-2" d="M156.52,119.1a5.36,5.36,0,1,1,5.36,5.42A5.39,5.39,0,0,1,156.52,119.1Z"/><path class="cls-5" d="M180,660.64c-3.48-1.1-7.5-2-9.73-2.93-5.33-2.22-5.52-10.09-5.52-10.09,3.73-18.71,17.31-59,26-98.62,11.38-13.37,13.09-30.1,13.09-30.1l.44.4q-.39-6.94-.76-13.79a2.44,2.44,0,0,0,2.62-2l2.6-14.07c.44.11.88.2,1.33.29l-2.14,11.6a2.44,2.44,0,0,0,4.81.88l2.17-11.77c.46,0,.91.06,1.34.07l-1.8,9.76a2.44,2.44,0,0,0,4.79.88l2.9-15.7c1.6-5.84.2-12.47-.68-15.63a447.69,447.69,0,0,0-7.68-61c-3.68-18-8.5-33.64-14.53-47.33-.89-2.05-1.71-3.89-2.47-5.56l-.18-.4c-.26-2.14-.52-3.94-.79-5.27-.88-4.35-4.56-9.85-8.7-13.58,0-3.27-1.43-6.34-4.33-9.44-4.82-5.11-.91-16,3.63-21.55,2.18-2.68,3-6.6,2.36-10.79-1-6.12-5.08-11.83-11.19-15.68a27.41,27.41,0,0,0-13-4,29.13,29.13,0,0,0-12.42.63s-12.39-2.14-18.81,5.51a40.52,40.52,0,0,0-5,7.49c-.8,1.16-1.67,2.48-2.51,3.86-3.41,5.64-4.51,9.42-3.25,11.24,1.66,2.41,3.78,5.83,2.92,7.63-.41.83-1.47,1.32-3.18,1.44-5.52.39-13,2-15.67,10.77a21.46,21.46,0,0,0-1.91,13.34C96.9,341,94.26,345,94.26,345a79.13,79.13,0,0,0-8,12.67c-8.52,15.73-11.7,31.44-9.22,45.42C80,419.49,90,432.9,107,443.05c-3.82,49.79-30.11,194.49-59.69,206.59-35.1,14.36-20.7,23.47-22.54,32.45a4.76,4.76,0,0,1-.67,1.63l218.85,1.48v-17a.9.9,0,0,0,.4-.65C243.33,664.45,217.32,661.81,180,660.64Zm22.71-173.17c.41.19.84.38,1.3.55l-1.12,6.06q-.17-3-.3-5.91ZM186.16,335.94a21.1,21.1,0,0,0-2.45-1.76,13,13,0,0,0-.83-5.36A12.41,12.41,0,0,1,186.16,335.94Zm-9.09-55.89c5.89,3.7,9.81,9.19,10.77,15.05.64,3.93-.15,7.59-2.16,10.06-3.52,4.31-6.56,11.36-6,17-5.07-11.1,4.3-15.69,4.08-24.63-.16-6.24-4.31-16.05-13.36-20.46A25.2,25.2,0,0,1,177.07,280.05Zm-71.3,125.57a23.29,23.29,0,0,1-2.8-7.51c-1.37-7.57,3.38-15.91,8.41-23.17C109.75,382.13,107.13,394.62,105.77,405.62Zm3.73-85.74c2.09-2.93,5.84-5.43,12.87-5.93,2.06-.15,3.39-.81,3.94-2,1-2.19-.92-5.55-3-8.55-1.14-1.65.58-5.64,2.89-9.58-1.19,3.71-1.36,7-.21,9.11,3.52,6.4,5,10.55-8,12.68A15.47,15.47,0,0,0,109.5,319.88Zm39.65,333.48a55.32,55.32,0,0,0-.58,6.67q-5.92,0-12,0l-6.48,0c-3.49-1.1-7.53-2-9.78-2.94-.24-.1-.48-.23-.71-.35,3.24-7.72,15.41-19.09,29.19-37.58.16-.21.31-.43.46-.64Zm.15-76.56a10.42,10.42,0,0,1,0-3.74Z"/><path class="cls-2" d="M269.41,695.68c0,4.27-49.12,7.74-109.7,7.74S50,700,50,695.68s49.12-7.75,109.71-7.75S269.41,691.4,269.41,695.68Z"/><rect class="cls-2" x="50" y="656.97" width="219" height="39.37"/><ellipse class="cls-6" cx="159.71" cy="656.97" rx="109.7" ry="7.74"/><path class="cls-2" d="M175.75,254.61s-12.73-2.2-19.33,5.66-10,17.69-7.54,22.18c3.62,6.57,5.18,10.83-8.17,13-17.28,2.84-17,26.63-7.61,32.84s67.32-6.34,69.2-6.71,10.37-4.24,2.83-17.23,3.32-17.71,3.07-27.46S198.22,249,175.75,254.61Z"/><path class="cls-3" d="M165.69,310.49a8,8,0,0,0,6.51-4.75l3.57-8.31,1-2.41,6.1-14.17-1.06,14.69-.63,8.81-.19,2.51a4,4,0,0,0,3.31,4.23h0c1.08,1.76,2.58,5.35-1.9,6.78-5.26,1.67-13.78-2.47-16.83-7.38Z"/><path class="cls-2" d="M175.76,297.19a1.93,1.93,0,0,0,0,.24c.35,4.74,5.41,6.95,5.41,6.95l0,0,.63-8.81c-1.55-.57-3.75-1.15-5-.52A2.06,2.06,0,0,0,175.76,297.19Z"/><path class="cls-3" d="M246.33,452l-11,.59a3,3,0,0,0-.69-2.45l-.59-.67a3,3,0,0,0-4.28-.3l-12.26,10.68a3,3,0,0,0-.29,4.28l.58.67a3,3,0,0,0,4.28.29l2.1-1.82-3.41,18.5a2.52,2.52,0,0,0,2,2.93h0a2.52,2.52,0,0,0,2.92-2s.61-10.13,1.08-10l-.56,14.88c-.25,1.36,3,3.57,5-.51,0,0,2.2-12.63,2.66-12.53l-.8,11.21c-.68,4.85,3.09,4.3,4.52.31,0,0,2.17-10.7,2.61-10.69l-.53,9.8c-.57,3.5,2.69,4.83,4.06-.9L247.62,470C249.87,461.72,246.33,452,246.33,452Z"/><path class="cls-3" d="M223.16,454.82c-2.54-27.87-8.34-67.72-21.64-99.27-3.08-7.32-4.36-10.06-6.76-14.05-1.93-3.22,1.53-10.28,7-13.65,5.12-3.15,13.1-2.64,14.36-1.07,2.15,2.66,4.44,7.75,8,15.85,12.38,28.12,19.8,64.44,22.81,111.27Z"/><path class="cls-3" d="M188.69,636.53s.21,8.08,5.68,10.36,21.31,4.34,15.39,9.53c-3.4,3-19.41,1.06-23.93,1.06s-8.77,2-12.13-1.06c-3.69-3.33,0-19.89,0-19.89a18.14,18.14,0,0,0,7.41,1.94C186.17,638.34,188.69,636.53,188.69,636.53Z"/><path class="cls-3" d="M137.34,635.86s.2,8.08,5.67,10.36,21.31,4.34,15.39,9.54c-3.4,3-19.41,1-23.93,1s-8.76,2-12.12-1c-3.7-3.33,0-19.9,0-19.9a18.08,18.08,0,0,0,7.41,1.94C134.81,637.67,137.34,635.86,137.34,635.86Z"/><path class="cls-3" d="M229.34,415s1,33.83-9.78,98.74c-7.8,46.85-26.35,100.2-30.87,122.84-1.61,8.09-16.67,14.8-16,5.89L173,475.71l2.7-50.41Z"/><path class="cls-3" d="M140.08,332.16s8.1-22.79,36.95-21.75,50.63,38.94,56,120.42c0,0-47.24-10.36-102.58,13.81C130.48,444.64,127.41,365.36,140.08,332.16Z"/><path class="cls-3" d="M116.28,325.67l24,18.2s52.53,5.25,66.48,2.72,14.84-9.67,14.84-9.67-12-21.31-37.24-25.83a67.68,67.68,0,0,0-7.31-.68c-4.28-.3-7.16.12-11.38.09C126.4,310.18,116.28,325.67,116.28,325.67Z"/><ellipse class="cls-3" cx="183.58" cy="283.2" rx="13.8" ry="17.02"/><path class="cls-2" d="M186.16,269.38s8.37.95,7.24,7.66,6.55,4.72,6.55,4.72,2.59-15.09-4.13-16.62-9.07-.71-9.07-.71Z"/><path class="cls-7" d="M229.28,504.69s-4.5,39.19-41.17,46.2,6.37,26.54-15.85,56.37S131.85,648.88,147,656.42s-13.74,10.8-13.74,10.8c-39.87-4.24-29.89,24.52-43.56,36.2s-69.77,8.11-72.13-7.74S43,681.17,44.86,671.94,32,653.35,68,638.6s67.35-221.2,61-229.16,6.3-59.19,6.3-59.19c53.19-2.09,63.44-34.76,63.44-34.76,4.87-8.87,19.92,6.06,21.84,15.61s3.65,41.95,3.65,56.44C224.22,399.16,226.19,450.32,229.28,504.69Z"/><path class="cls-3" d="M138.25,426.9,145.94,410a5,5,0,0,0-2-6.33c-10.92-6.24-17.22-13.7-18.75-22.19-2.14-11.8,10.18-25.41,16-34.22,3-4.5-2.35-8.81-7.08-14.32-2-2.29-3.89-3.88-10.16-6.5-3-1.26-6-2.9-7.74-.72-2.66,3.41-4.55,7.44-8.23,14.24-8.75,16.17-12,32.3-9.46,46.66,3.13,17.63,15.65,31.22,34.62,41.82C133.21,428.39,137.11,429.4,138.25,426.9Z"/><path class="cls-3" d="M138.88,405.28s7.87-8.5,14.66-8.37,15.34,5.43,11.12,6.24a44.57,44.57,0,0,1-9.9.35s12.09,1.55,10.5,4.22S153.18,409,153.18,409s14.24,3,11.92,5-13.11-.31-13.11-.31,13.14,3.31,10.39,5.61-10.84-2.8-12.42-.13-8.79,12.75-16.75,9.25Z"/><path class="cls-8" d="M149.76,404.17a.25.25,0,0,1-.19-.09.24.24,0,0,1,0-.35c1.71-1.44,5.08-.51,5.23-.47a.25.25,0,0,1-.14.49s-3.26-.91-4.77.36A.23.23,0,0,1,149.76,404.17Z"/><path class="cls-8" d="M147.21,409.69a.26.26,0,0,1-.22-.13.25.25,0,0,1,.1-.34,8.77,8.77,0,0,1,6.16-.51.25.25,0,0,1-.14.48,8.47,8.47,0,0,0-5.78.47Z"/><path class="cls-8" d="M146.38,414.38a.23.23,0,0,1-.17-.08.24.24,0,0,1,0-.35c1.69-1.69,5.68-.57,5.85-.53a.25.25,0,0,1,.17.31.24.24,0,0,1-.31.17s-3.88-1.07-5.36.41A.29.29,0,0,1,146.38,414.38Z"/><path class="cls-8" d="M130.28,572.31l-.25-.4c16.75-10.43,40.32-33.13,57.41-82a291.24,291.24,0,0,0,13.33-54.61l.47.06A291.54,291.54,0,0,1,187.89,490C178.43,517.1,160.76,553.34,130.28,572.31Z"/><path class="cls-8" d="M126.78,525.09l-.17-.44c29.29-11.66,46.08-34.69,55-52a134.1,134.1,0,0,0,12.49-35.06l.47.07a134.44,134.44,0,0,1-12.53,35.19C173.08,490.24,156.22,513.37,126.78,525.09Z"/><path class="cls-8" d="M137.31,479.37l-.11-.45c21.83-5.1,33.69-16.05,39.8-24.35,6.61-9,8.09-16.87,8.1-16.95l.47.09c0,.08-1.5,8.05-8.18,17.12C171.24,463.2,159.29,474.25,137.31,479.37Z"/><path class="cls-8" d="M214.77,383.87l-.42-.2c8-17.62-6.22-62.5-6.37-62.95l.45-.15C208.58,321,222.89,366.08,214.77,383.87Z"/><path class="cls-8" d="M198.36,360.12l-.41-.24a56.59,56.59,0,0,0,7-38.12l.45-.1A57,57,0,0,1,198.36,360.12Z"/><path class="cls-8" d="M183.88,349.43l-.21-.42c17.51-8.77,16.82-24.81,16.82-25l.47,0C201,324.18,201.66,340.52,183.88,349.43Z"/><path class="cls-2" d="M186.16,269.38s1.82,6.6-7.36,7.39S168.54,285,170.15,290c1.75,5.46,5.49,7.79-.37,11-3,1.62.76,4.56,6,13.19s6,19.29-1.1,22.56c-9,4.17-.34,16-10.45,19.66-17.82,6.4-33.91-6.51-24.55-17.28,12.59-14.5,3.82-27.58-2-26.1s-7.12-10.69,5.29-12.78,16.81-9.33,14-17,5.43-25.44,16.78-24.66S191.63,262.27,186.16,269.38Z"/><path class="cls-3" d="M168.1,285.72c1.56,1.5,3.75,1.65,4.88.35s.78-3.57-.78-5.07-3.75-1.64-4.88-.34S166.54,284.23,168.1,285.72Z"/><path class="cls-9" d="M213.85,356.11c0-4.86,12.29-9.43,12.29-9.43,1.58.29,1.46,29.8,25.08,41.72,10.15,5.12,29.18,1.18,31.47.18.31-.13,8.53,21.38,8.53,21.38-4.15,1.81-3.92,3.28-17.06,2.87C239,411.74,219.79,397.35,213.85,356.11Z"/><path class="cls-10" d="M302.18,679.25s-.35,6.82-5,8.62-18.1,3.18-13.22,7.7c2.81,2.6,16.37,1.33,20.19,1.44s7.35,1.86,10.26-.62c3.19-2.73.45-16.8.45-16.8a15.2,15.2,0,0,1-6.3,1.47A12.11,12.11,0,0,1,302.18,679.25Z"/><path class="cls-11" d="M276.37,555.16c.24,1.84.1,4.8.36,6.7,5.95,42.84,10.81,86.54,14.37,107.25a16.07,16.07,0,0,0,14.66,13.46l3.95.27a13.5,13.5,0,0,0,14.2-14.25L317.7,528.92,316.48,483S269,499.48,276.37,555.16Z"/><path class="cls-10" d="M345.92,680.43s-.36,6.82-5,8.62-18.09,3.18-13.21,7.7c2.8,2.59,16.36,1.33,20.18,1.44s7.36,1.86,10.26-.62c3.2-2.73.46-16.8.46-16.8a15.2,15.2,0,0,1-6.3,1.47A12.11,12.11,0,0,1,345.92,680.43Z"/><path class="cls-11" d="M311.63,473.4s-1.75,30.78,6.49,90.12c5.94,42.85,13.16,86.06,16.71,106.77a16.09,16.09,0,0,0,14.67,13.46l3.94.27a13.5,13.5,0,0,0,14.21-14.25L361.44,530.1l-1.22-46Z"/><path class="cls-10" d="M364.39,508.6c-.2,3.72-22.71,4.59-50.47,3S277,505.72,277.19,502s9.67-5.49,37.44-3.88S364.58,504.89,364.39,508.6Z"/><path class="cls-12" d="M365.17,411.54a23,23,0,0,0-4.66-11.43c-5.4-6.92-17.21-16.91-40.73-17.67-52.28-1.7-47,54.6-47.7,115.05a380.46,380.46,0,0,1,92.36,10.2S368.61,440.7,365.17,411.54Z"/><path class="cls-12" d="M365.76,417.76l-15.91-4.5s-63.71,11.81-75.34,4.1c-13.7-9.07-5.78-27-5.78-27s13.3-4.09,38.33-7.47c2.35-.32,4.78-.54,7.31-.64a111.8,111.8,0,0,1,12.58.6C366.53,385.92,365.76,417.76,365.76,417.76Z"/><path class="cls-9" d="M324.89,378.12l-2.5-8.91-.73-2.59-4.27-15.25-1,15s-.58,6.76-.61,9c-.06,5-.93,6.86-.93,6.86-1.86,1.89-6.52,4.66-2.33,6.65,5.21,2.47,15.22-1,19.09-5.53C331.55,383.39,326.06,382.76,324.89,378.12Z"/><path class="cls-11" d="M275.86,503.67s23-6.79,85.06,7.05l.24,9-84.51.71Z"/><path class="cls-10" d="M356.23,422.75c-1.2,2.6-7.94,2.14-15.05-1s-11.9-7.83-10.7-10.42,7.94-2.15,15,1S357.43,420.15,356.23,422.75Z"/><path class="cls-13" d="M308.55,342.9a20,20,0,0,0-1.66,8.08c0,4.69,6.85-5.42,6.85-5.42Z"/><ellipse class="cls-9" cx="318.78" cy="356.57" rx="16.21" ry="13.44" transform="translate(-122.44 541.2) rotate(-70.91)"/><path class="cls-10" d="M332.75,356.48l-6.24-2a4.76,4.76,0,0,1-3-2.79c-.88-2.31-2.24-3.68-8.23-4.68-7.58-1.27-11.63-6.78-11.64-10.88s4.41-6.13,7.8-3.43,2.73-2.34,6.47-2.1c7,.47,7.18,6,12.78,6.94,7.34,1.28,19.27,9.5,10.43,21.07Z"/><path class="cls-10" d="M318.22,355.76a.28.28,0,0,1,.22-.47,3,3,0,0,1,2.72,2.38.28.28,0,0,1-.19.34.3.3,0,0,1-.34-.2,4.71,4.71,0,0,0-2.25-2A.33.33,0,0,1,318.22,355.76Z"/><path class="cls-10" d="M318.68,359.42c-.3.58-.88.88-1.3.66a1.05,1.05,0,0,1-.23-1.43c.3-.58.88-.88,1.3-.67A1.07,1.07,0,0,1,318.68,359.42Z"/><path class="cls-10" d="M308.51,352.94a.2.2,0,0,1-.11-.17.32.32,0,0,1,.17-.34,1.92,1.92,0,0,1,2.66.87.34.34,0,0,1-.07.38.21.21,0,0,1-.3,0,2.87,2.87,0,0,0-2.21-.73A.23.23,0,0,1,308.51,352.94Z"/><path class="cls-10" d="M310.38,356.17c-.05.65-.47,1.15-.94,1.11s-.81-.59-.76-1.24.47-1.15.94-1.11A1,1,0,0,1,310.38,356.17Z"/><path class="cls-13" d="M341.1,358.64s-6.35,8.59-12.74,8c0,0,6.54-6.2-3.19-12.8C325.17,353.85,335.25,354.32,341.1,358.64Z"/><path class="cls-9" d="M331.22,362.07a2.63,2.63,0,1,1,1.81-3.48A2.78,2.78,0,0,1,331.22,362.07Z"/><path class="cls-13" d="M325.17,353.85s-.79,8.15-2.72,9.32-12.78-.38-17.38-3.34h0a10.63,10.63,0,0,0,6.42,12.25,15.46,15.46,0,0,0,5.12,1h0c3.62.11,7.32-.64,9.43-3.59.64-.9.62-7.24.62-7.24s.25-3.66,2.7-5.09C329.36,357.19,327.41,354.54,325.17,353.85Z"/><path class="cls-10" d="M313,332.33a3.05,3.05,0,0,1-.7-.09l.08-.35a1.67,1.67,0,0,0,2.18-1l.35.11A2,2,0,0,1,313,332.33Z"/><path class="cls-4" d="M313.56,344.49a24.51,24.51,0,0,1-3.78-2.57c-2.44-2.05-3.62-4.08-3.4-5.87a2.94,2.94,0,0,1,1.18-2.38c1-.56,2.43.09,3.69.67l.54.24-.07.17-.55-.25c-1.21-.56-2.59-1.19-3.52-.67a2.76,2.76,0,0,0-1.08,2.24c-.52,4.2,7,8.22,7.08,8.26Z"/><path class="cls-4" d="M333.49,339.7a15.21,15.21,0,0,1-8.62-3.14,10,10,0,0,1-2.45-2.73l.16-.09c0,.06,2.89,5.22,10.92,5.77Z"/><path class="cls-9" d="M311.18,366.76a4.81,4.81,0,0,1-3.68-1.65.27.27,0,1,1,.43-.33c.08.1,2,2.52,5.72.85a.28.28,0,0,1,.36.13.28.28,0,0,1-.14.37A6.62,6.62,0,0,1,311.18,366.76Z"/><path class="cls-14" d="M293.33,408.79l21.81,1.14a10.78,10.78,0,0,1,10.19,10.19c.77,13.94,4.23,39.44,18.88,52.43a12.57,12.57,0,0,1,4.28,9.17l1.79,88.84A16.25,16.25,0,0,1,334,587.14H286.21a12.38,12.38,0,0,1-12.36-11.73c-.94-17.56-2.53-51.83-2.53-81.83,0-8,.84-40.05,1.44-46.49.67-7.12,7.41-23.56,11.28-32.53A9.57,9.57,0,0,1,293.33,408.79Z"/><path class="cls-10" d="M250.19,435.42h0a2.24,2.24,0,0,1-.9-3.05l19.63-36.12a2.25,2.25,0,0,1,3.05-.9h0a2.25,2.25,0,0,1,.9,3.06l-19.63,36.11A2.24,2.24,0,0,1,250.19,435.42Z"/><rect class="cls-10" x="257.59" y="397.92" width="21.78" height="7.68" rx="1.62" transform="translate(224.48 -79.44) rotate(28.53)"/><path class="cls-9" d="M258.94,442.92c-3.4-2.47,12.31-14.14,12.31-14.14,16.23,13.09,32.37,11.24,41.74,8.09,13.6-4.59,20.95-24.33,21-24.52,0,0,3.74-2,10.65,1.38,10.26,5,8.63,9.18,8.63,9.18-.41,1.19-10.9,27.1-36,32.67C293.16,460.92,273.37,455,258.94,442.92Z"/><g class="cls-15"><path class="cls-16" d="M311.24,454.43a5.07,5.07,0,0,1-3.06-.91,2.56,2.56,0,0,1-1-1.72c-.22-1.8,1.67-3.51,4.29-3.88a5.46,5.46,0,0,1,4.05.83,2.61,2.61,0,0,1,1,1.72c.21,1.8-1.68,3.51-4.3,3.89h0A8.24,8.24,0,0,1,311.24,454.43Zm1.19-5.71a6.47,6.47,0,0,0-.87.06c-2.08.3-3.71,1.64-3.56,2.92a1.75,1.75,0,0,0,.71,1.13,4.66,4.66,0,0,0,3.39.66c2.08-.3,3.71-1.63,3.56-2.92a1.7,1.7,0,0,0-.71-1.12A4.14,4.14,0,0,0,312.43,448.72Z"/></g><path class="cls-9" d="M271.25,428.78s-1.59-14.89-6.4-18.71S251,405,253.48,408a32.51,32.51,0,0,0,5.77,5.27s-8.39-5.21-8.82-2.43,6.25,6.49,6.25,6.49-10.18-4.8-9.75-2,7.74,6.48,7.74,6.48-9.48-4.4-8.9-1.2,9.18,4.29,8.75,7.07-1.22,14,6.35,16.12Z"/><path class="cls-16" d="M263.22,417.18c-.33-1.75-3.1-3-3.12-3l.18-.42c.12.05,3,1.35,3.38,3.34Z"/><path class="cls-16" d="M261.82,422.55a7.61,7.61,0,0,0-3.75-3.66l.17-.42a8,8,0,0,1,4,3.91Z"/><path class="cls-16" d="M259.68,426.24c-.18-1.89-3.48-3.36-3.51-3.37l.18-.42c.15.06,3.57,1.59,3.78,3.74Z"/><path class="cls-9" d="M228.18,356.76s3.57-16.15.92-20.72-9.48-8.42-8.44-5.23a34.54,34.54,0,0,0,3.48,6.88s-5.6-7.66-6.83-5.57,3.72,8.7,3.72,8.7-7.4-8.58-7.91-6.24,5.14,8.83,5.14,8.83-7.2-7.71-7.74-5,6,6.33,4.78,8.42-5.38,10.79,0,14.9Z"/><path class="cls-10" d="M208.32,345.49h0a1.38,1.38,0,0,1,.73-1.81l38.24-16.06a1.37,1.37,0,0,1,1.8.73h0a1.37,1.37,0,0,1-.73,1.8l-38.24,16.07A1.37,1.37,0,0,1,208.32,345.49Z"/><path class="cls-9" d="M223.41,350.1s-4-9.69-5.62-9.27,1,10.44.34,13.21,0,4.82,2.21,4.87S225.79,355.21,223.41,350.1Z"/><path class="cls-16" d="M216.76,357a6.37,6.37,0,0,1,.3-4.52c1.48-2.78,0-9.17,0-9.23l.44-.11c.06.27,1.52,6.62,0,9.55a6,6,0,0,0-.25,4.21Z"/><path class="cls-16" d="M224.89,350.08c-2.54-1-5.14-7.58-5.25-7.86l.42-.17c0,.07,2.64,6.65,5,7.6Z"/><path class="cls-14" d="M339.57,470.08s20.38-.92,26.77-9.16c0,0,2.78,3.84-.23,9.16,0,0-10.59,7.67-23.66,8.22S339.57,470.08,339.57,470.08Z"/><path class="cls-14" d="M291.22,411.85s2.94-19.75,14.69-29.45c0,0,2.58-1.55,3.35.26,0,0-8.3,6.38-13.8,29.6Z"/><path class="cls-14" d="M314.18,411.77s9.09-23.46,19.92-28a2.2,2.2,0,0,1,3.32.73s-12.44,7.35-18.64,27.72Z"/><path class="cls-10" d="M290,413.1c.84-1.54,2-2.24,4.22-1.55a3,3,0,0,1,1.94,4c-.74,1.6-2.54,3-4.62,1.75C290.06,416.39,289,415,290,413.1Z"/><path class="cls-3" d="M293.08,417.42a2.54,2.54,0,0,1-1.36-.42c-.93-.58-2.32-1.83-1.29-3.71h0c.83-1.53,1.89-1.94,3.66-1.4a2.66,2.66,0,0,1,1.64,1.46,2.49,2.49,0,0,1,0,2.07,3.47,3.47,0,0,1-2,1.91A2.35,2.35,0,0,1,293.08,417.42Zm-2.52-4.06c-1,1.77.36,3,1.24,3.5a2.25,2.25,0,0,0,1.88.32,3.32,3.32,0,0,0,1.91-1.82,2.33,2.33,0,0,0,0-1.95A2.49,2.49,0,0,0,294,412c-1.68-.51-2.69-.13-3.48,1.32Z"/><path class="cls-3" d="M291.19,413.47a.65.65,0,0,1,.88-.33.63.63,0,0,1,.41.85.67.67,0,0,1-1,.37C291.2,414.16,291,413.86,291.19,413.47Z"/><path class="cls-3" d="M293.71,414.64a.7.7,0,0,1,1.29.52.66.66,0,0,1-1,.36C293.72,415.33,293.49,415,293.71,414.64Z"/><path class="cls-10" d="M312.26,417.64c-.19-1.74.33-2.95,2.59-3.67a3,3,0,0,1,3.88,2.2c.3,1.73-.36,3.94-2.8,4.06C314.18,420.32,312.48,419.74,312.26,417.64Z"/><path class="cls-3" d="M315.63,419.88a2.59,2.59,0,0,1-2.92-2.32h0c-.19-1.73.45-2.67,2.21-3.24a2.67,2.67,0,0,1,2.18.27,2.46,2.46,0,0,1,1.18,1.7,3.45,3.45,0,0,1-.56,2.71,2.4,2.4,0,0,1-1.84.87Zm.08-5.52a2.33,2.33,0,0,0-.74.11c-1.68.54-2.29,1.43-2.11,3.07h0c.22,2,2,2.22,3,2.18a2.26,2.26,0,0,0,1.73-.82,3.3,3.3,0,0,0,.53-2.58,2.34,2.34,0,0,0-1.11-1.6A2.56,2.56,0,0,0,315.71,414.36Z"/><path class="cls-3" d="M313.44,417.27a.7.7,0,0,1,1.36-.31.67.67,0,0,1-.59.86C313.84,417.84,313.49,417.71,313.44,417.27Z"/><path class="cls-3" d="M316.17,416.8c0-.37.07-.62.55-.77a.63.63,0,0,1,.81.46.65.65,0,0,1-.58.85C316.58,417.36,316.22,417.24,316.17,416.8Z"/><path class="cls-10" d="M303.29,528.77c-7.79,0-16.71-.55-21.64-2.13q-3.16-1-3.68-2.45c-2.15-6-.1-46,0-47.69v-.29l.26.12c.17.07,17.09,7.54,47.58-1.95l.22-.07,0,.23c.27,1.95,6.57,47.8,1.39,51.41-2.09,1.46-10.16,2.55-20.56,2.78C305.74,528.76,304.53,528.77,303.29,528.77Zm-25-52c-.18,3.65-2,41.59,0,47.27.29.83,1.45,1.57,3.43,2.21,10.5,3.35,41.12,2.38,45.46-.64,1.42-1,2.76-6.44,1.1-26.78-.92-11.27-2.4-22.31-2.63-24C297.26,483.62,280.6,477.7,278.33,476.79Z"/><path class="cls-16" d="M256,410.92c-.31-.25-3-2.55-3-3.9a.85.85,0,0,1,.31-.66c2.24-1.84,9,2.05,9.33,2.22l-.22.39c-1.89-1.09-7.16-3.62-8.82-2.26a.4.4,0,0,0-.14.31c0,1,2,2.9,2.79,3.56Z"/></svg>