<svg id="_4" data-name="4" xmlns="http://www.w3.org/2000/svg" viewBox="0 0 777 779"><defs><style>.cls-1{fill:#ef9f6f;}.cls-2{fill:#561c17;}.cls-3{fill:#163a24;}.cls-4{fill:#7ac44c;}.cls-5{fill:#ffa076;}.cls-6{fill:#b8e34d;}.cls-7{fill:#00784d;}.cls-8{opacity:0.5;}.cls-9{fill:#f47c53;}.cls-10{fill:#7fc064;}.cls-11{fill:#632c1e;}.cls-12{fill:#fff;}.cls-13{fill:#8a4d27;}.cls-14{fill:#284f36;}</style></defs><path class="cls-1" d="M363.85,209.94s24.68,50.54,66.57,15.78l10.13,18s-23,52.46-81.1,12.86Z"/><path class="cls-2" d="M257.16,562.28s.23,9.16,6.43,11.75,24.18,4.92,17.46,10.81c-3.85,3.38-22,1.2-27.14,1.2s-9.94,2.23-13.75-1.2c-4.19-3.77,0-22.56,0-22.56s4.43,2.3,8.4,2.2C254.3,564.33,257.16,562.28,257.16,562.28Z"/><path class="cls-3" d="M337.37,338.4l-69,221.73a22.25,22.25,0,0,1-20.77,15.8l-4.14.07c-9.8.17-17.29-8.89-15.5-18.74L265.7,348.92c.54-2.48,1.95-13.43,4.34-14.12C283,331.07,338.64,329.23,337.37,338.4Z"/><path class="cls-2" d="M337.3,566s.45,8.56,6.3,10.81,22.69,4,16.57,9.66c-3.51,3.25-20.52,1.67-25.3,1.8s-9.23,2.33-12.87-.77c-4-3.42-.57-21.07-.57-21.07s4.19,2,7.9,1.85C334.68,568,337.3,566,337.3,566Z"/><path class="cls-3" d="M369.67,410.44c-.3,2.31-.13,6-.46,8.41-7.45,53.72-13.55,108.5-18,134.48a20.16,20.16,0,0,1-18.39,16.88l-4.94.33a16.92,16.92,0,0,1-17.81-17.86l7.78-175.14,1.53-57.61S378.91,340.63,369.67,410.44Z"/><path class="cls-2" d="M259.3,352.07c.25,4.66,28.47,5.75,63.29,3.72s46.29-7.34,46.05-12-12.12-6.89-46.94-4.86S259.06,347.41,259.3,352.07Z"/><path class="cls-4" d="M258.32,230.36A28.75,28.75,0,0,1,264.17,216c6.77-8.68,21.58-21.2,51.06-22.16,65.56-2.12,59,68.47,59.82,144.27A515.75,515.75,0,0,0,259.3,352.07S254,266.93,258.32,230.36Z"/><path class="cls-4" d="M257.59,238.16l20-5.65s73.83,12.29,90,5.73c8.71-3.53,12.89-16.2,12.89-16.2s-17.91-23.32-49.29-27.56c-2.95-.4-6-.67-9.16-.79a138,138,0,0,0-15.79.74C256.62,198.24,257.59,238.16,257.59,238.16Z"/><path class="cls-5" d="M308.83,188.45,312,177.28l.91-3.25,5.36-19.11,1.28,18.83s.74,8.48.77,11.31c.07,6.33,1.17,8.61,1.17,8.61,2.33,2.35,8.17,5.84,2.92,8.33-6.53,3.1-19.08-1.26-23.94-6.93C300.48,195.06,307.36,194.27,308.83,188.45Z"/><path class="cls-6" d="M370.31,345.88S342.39,337.59,264.6,355l-2.27,12.56,107-.64Z"/><path class="cls-2" d="M269.54,244.42c1.5,3.25,9.95,2.69,18.87-1.27s14.92-9.81,13.41-13.07-9.95-2.69-18.87,1.27S268,241.16,269.54,244.42Z"/><path class="cls-7" d="M348.4,226.91l-27.34,1.44a13.51,13.51,0,0,0-12.79,12.77c-.95,17.48-5.29,49.45-23.67,65.74a15.79,15.79,0,0,0-5.36,11.5L277,429.76a20.37,20.37,0,0,0,20.37,20.78h60a15.52,15.52,0,0,0,15.51-14.7c1.17-22,3.16-65,3.16-102.61,0-10-1.05-50.22-1.81-58.29-.83-8.93-9.29-29.54-14.14-40.79A12,12,0,0,0,348.4,226.91Z"/><path class="cls-5" d="M395.65,265.26c4.26-3.11-10-20.56-10-20.56-20.36,16.4-39.43,20.56-57.25,15.84-17.39-4.62-30.94-28.93-31-29.16,0,0-4.68-2.49-13.34,1.73-12.88,6.26-10.82,11.51-10.82,11.51.51,1.49,13.65,34,45.17,41C348.61,292.28,377.55,280.34,395.65,265.26Z"/><g class="cls-8"><path class="cls-9" d="M323.94,282.63a8.73,8.73,0,0,1-1.24-.09c-3.29-.48-5.66-2.62-5.39-4.88a3.17,3.17,0,0,1,1.31-2.15,6.89,6.89,0,0,1,5.08-1.05c3.29.48,5.66,2.62,5.38,4.88a3.16,3.16,0,0,1-1.3,2.15A6.36,6.36,0,0,1,323.94,282.63Zm-1.49-7.16a5.29,5.29,0,0,0-3.17.91,2.18,2.18,0,0,0-.88,1.42c-.19,1.6,1.85,3.28,4.46,3.66a5.8,5.8,0,0,0,4.25-.84,2.15,2.15,0,0,0,.89-1.41c.19-1.61-1.85-3.29-4.46-3.66A6.83,6.83,0,0,0,322.45,275.47Z"/></g><path class="cls-7" d="M290.42,303.77s-25.55-1.16-33.57-11.49c0,0-3.48,4.81.3,11.49,0,0,13.27,9.61,29.67,10.3S290.42,303.77,290.42,303.77Z"/><path class="cls-7" d="M351.05,230.75s-3.69-24.77-18.42-36.92c0,0-3.24-2-4.2.32,0,0,10.4,8,17.31,37.12Z"/><path class="cls-7" d="M322.26,230.65s-11.4-29.42-25-35.06c0,0-2.62-1.85-4.17.92,0,0,15.6,9.21,23.37,34.76Z"/><path class="cls-2" d="M352.57,232.32c-1.05-1.94-2.46-2.81-5.3-1.94a3.76,3.76,0,0,0-2.42,5c.92,2,3.18,3.81,5.78,2.19C352.5,236.45,353.83,234.63,352.57,232.32Z"/><path class="cls-10" d="M348.72,237.74a2.84,2.84,0,0,1-.81-.12,4.33,4.33,0,0,1-2.51-2.39,3.11,3.11,0,0,1,0-2.6,3.3,3.3,0,0,1,2.06-1.83c2.22-.67,3.55-.16,4.59,1.75,1.28,2.36-.47,3.93-1.62,4.65A3.18,3.18,0,0,1,348.72,237.74Zm.37-7a5.45,5.45,0,0,0-1.58.27,3.1,3.1,0,0,0-1.93,1.72,2.93,2.93,0,0,0,0,2.44,4.13,4.13,0,0,0,2.4,2.28,2.79,2.79,0,0,0,2.35-.39c1.1-.69,2.76-2.17,1.55-4.39h0A3,3,0,0,0,349.09,230.72Z"/><path class="cls-10" d="M351.09,232.78a.81.81,0,0,0-1.11-.41.79.79,0,0,0-.51,1.06.83.83,0,0,0,1.21.46A.79.79,0,0,0,351.09,232.78Z"/><path class="cls-10" d="M347.93,234.25a.88.88,0,0,0-1.62.65.83.83,0,0,0,1.22.46C347.92,235.11,348.2,234.73,347.93,234.25Z"/><path class="cls-2" d="M324.67,238c.24-2.19-.42-3.7-3.25-4.61a3.76,3.76,0,0,0-4.86,2.76c-.38,2.17.44,5,3.5,5.1C322.26,241.37,324.39,240.64,324.67,238Z"/><path class="cls-10" d="M320.44,240.82h-.31a3,3,0,0,1-2.31-1.09,4.34,4.34,0,0,1-.7-3.4,3.06,3.06,0,0,1,1.48-2.13,3.29,3.29,0,0,1,2.73-.34c2.21.72,3,1.89,2.77,4.06C323.83,240.38,321.82,240.82,320.44,240.82Zm-.1-6.93a3.2,3.2,0,0,0-1.64.46,2.91,2.91,0,0,0-1.39,2,4.07,4.07,0,0,0,.67,3.24,2.75,2.75,0,0,0,2.16,1c1.28.06,3.49-.21,3.77-2.72h0c.23-2.06-.54-3.17-2.64-3.85A3,3,0,0,0,320.34,233.89Z"/><path class="cls-10" d="M323.19,237.55a.81.81,0,0,0-.68-1,.79.79,0,0,0-1,.58.82.82,0,0,0,.73,1.07C322.68,238.26,323.13,238.1,323.19,237.55Z"/><path class="cls-10" d="M319.76,237a.81.81,0,0,0-.68-1,.78.78,0,0,0-1,.58.83.83,0,0,0,.73,1.07C319.25,237.66,319.7,237.51,319.76,237Z"/><path class="cls-2" d="M335.92,377.36c-1.56,0-3.07,0-4.53-.05-13-.29-23.15-1.66-25.77-3.49-6.49-4.52,1.4-62,1.74-64.46l0-.29.28.09c38.25,11.91,59.44,2.53,59.65,2.44l.33-.15,0,.36c.11,2.13,2.68,52.27,0,59.81-.43,1.19-2,2.22-4.62,3.07C356.86,376.67,345.68,377.36,335.92,377.36Zm-28.11-67.64c-.29,2.15-2.14,16-3.3,30.13-2.08,25.49-.39,32.32,1.39,33.57,5.44,3.79,43.84,5,57,.8,2.48-.8,3.93-1.73,4.3-2.77,2.55-7.12.24-54.69,0-59.27C364.37,313.32,343.48,320.74,307.81,309.72Z"/><path class="cls-11" d="M336.56,144.09a25.36,25.36,0,0,1,.91,10.5c-.7,5.95-7.9-7.9-7.9-7.9Z"/><ellipse class="cls-5" cx="321.56" cy="159.92" rx="17.17" ry="20.71" transform="translate(-26.92 73.11) rotate(-12.45)"/><path class="cls-2" d="M322.38,159a.32.32,0,0,0,.14-.27.35.35,0,0,0-.35-.35,3.76,3.76,0,0,0-3.8,2.62.36.36,0,0,0,.2.45.38.38,0,0,0,.45-.19,5.94,5.94,0,0,1,3.15-2.18A.32.32,0,0,0,322.38,159Z"/><path class="cls-2" d="M321.27,163.55c.28.78,1,1.25,1.54,1a1.34,1.34,0,0,0,.5-1.79c-.28-.78-1-1.24-1.54-1A1.33,1.33,0,0,0,321.27,163.55Z"/><path class="cls-2" d="M335.12,156.83a.27.27,0,0,0,.18-.19.44.44,0,0,0-.18-.46,2.44,2.44,0,0,0-3.5.71.42.42,0,0,0,0,.49.26.26,0,0,0,.39,0,3.67,3.67,0,0,1,2.91-.6A.22.22,0,0,0,335.12,156.83Z"/><path class="cls-2" d="M332.27,160.66c0,.83.43,1.52,1,1.54s1.12-.63,1.15-1.46-.43-1.52-1-1.54S332.3,159.83,332.27,160.66Z"/><path class="cls-11" d="M292.93,159.25s6.79,11.85,15,12.05c0,0-7.38-8.84,5.94-15.77C313.85,155.53,301,154.64,292.93,159.25Z"/><path class="cls-5" d="M305,165.07a3.36,3.36,0,1,0-1.77-4.69A3.56,3.56,0,0,0,305,165.07Z"/><path class="cls-11" d="M313.85,155.53s-.2,10.45,2.08,12.23,16.27,1.4,22.54-1.67h0a13.57,13.57,0,0,1-10,14.59,20,20,0,0,1-6.65.56h0c-4.61-.4-9.2-1.9-11.44-6-.68-1.24.29-9.28.29-9.28s.22-4.69-2.69-6.86C308,159.15,310.9,156.08,313.85,155.53Z"/><path class="cls-2" d="M313.85,155.53s-1.77-7.14,3.86-8.15,12-2.53,14.38-1.26,5.52,6.82,5.52,6.82,2.17-11.13-3.94-15.27-24.84-8.68-35.75.42-5,21.16-5,21.16S301,156,313.85,155.53Z"/><path class="cls-2" d="M304.35,137.53s-9.17-6.33-7.69-11.72,10.68-4.53,14.26-4,4.71,6.72,2.25,11S304.35,137.53,304.35,137.53Z"/><path class="cls-11" d="M310.43,175.29s.67,7.11,6.07,10.67,2.36,7.34,7.3,12.63-.34,5.88,7.89,9.32,13.84-.81,11.74-7,4.89-5.11,1-12.83-5.85-2.61-3.87-11.36-2.06-10.63-2.06-10.63-4.32.67-7.78,1.61-6.71.1-9.1,1.1S310.43,175.29,310.43,175.29Z"/><path class="cls-12" d="M335.37,170.12A35.15,35.15,0,0,1,324.29,172s1.32,5.32,7.12,3.73C334.79,174.78,335.37,170.12,335.37,170.12Z"/><path class="cls-13" d="M441.14,257.74l-4.87-14.59-1.41-4.25-8.33-25-1.1,24.84-.66,14.91-.2,4.72c-.14,3.2-2.25,3.88-4.81,6.66-1,1.13,1.68,2.71,9.82,2.9,10.93.26,18.51-.52,18.47-2.61C448,265.34,442.72,262.45,441.14,257.74Z"/><ellipse class="cls-13" cx="427.8" cy="223.25" rx="26.82" ry="23.85" transform="translate(119.07 594.11) rotate(-77.78)"/><path class="cls-13" d="M414.34,213.93c-13.67.47-20.29-6.85-20.45-13.63-.2-8.69,5.69-16.39,12.56-13.16s3.91-4.69,10.51-5.53c12.34-1.57,14.65,6.57,24.74,7,13.32.52,28.5,21.12,17.34,36.16C459,224.74,425.13,213.55,414.34,213.93Z"/><path class="cls-13" d="M402.17,205.16s14.6,13.06,12.68,20.4-1.44,10.22,7.09,14.14,1,10.28,12.36,10.74,25.28-12,25.28-32.51A29.6,29.6,0,0,0,452.51,199Z"/><path class="cls-13" d="M410.45,224.52a5.19,5.19,0,0,1,6.8-1.46,4.38,4.38,0,0,1,.8,6.43,5.17,5.17,0,0,1-6.79,1.46A4.38,4.38,0,0,1,410.45,224.52Z"/><path class="cls-2" d="M434.92,250.8h-.64c-6.51-.27-7.08-2.46-7.74-5-.52-2-1.06-4.09-4.75-5.79-8.53-3.92-9.28-6.92-7.28-14.54.69-2.64-.86-6.55-4.51-11.32-5-.48-9.25-2.19-12.21-4.93a12.63,12.63,0,0,1-4.25-8.91c-.12-5.49,2.17-10.72,5.72-13a7.21,7.21,0,0,1,7.33-.45c3.43,1.61,4.12.36,5.15-1.53.89-1.62,2-3.63,5.18-4,7-.9,10.87,1.32,14.61,3.46,3,1.71,5.82,3.33,10.19,3.5,7.25.29,15.1,6.31,19.09,14.64,3.7,7.73,3.17,15.75-1.45,22C456.66,241.28,445,250.8,434.92,250.8Zm-31.66-64.06a6.56,6.56,0,0,0-3.63,1.12c-3.35,2.18-5.52,7.18-5.4,12.44.19,8.07,8.42,12.49,16,13.17l.15,0,.09.12c3.9,5.07,5.48,9.12,4.72,12-1.95,7.42-1.31,10,6.9,13.74,4,1.83,4.59,4.17,5.13,6.23.62,2.37,1.1,4.23,7.1,4.48,9.9.4,21.72-9,24.38-25.42l.05-.29h.13c4.4-6,4.88-13.77,1.32-21.22-3.83-8-11.61-14-18.5-14.25-4.54-.17-7.57-1.91-10.5-3.59-3.64-2.09-7.41-4.24-14.18-3.38-2.85.36-3.81,2.13-4.66,3.68-1.05,1.91-2,3.71-6.05,1.83A7.11,7.11,0,0,0,403.26,186.74Z"/><path class="cls-2" d="M438.45,235c-.24-.16-5.76-4-5.45-7.79.13-1.72,1.4-3.15,3.77-4.26,5.1-2.39,6.7-7,6-10.25s-3.39-5.3-7.29-5.43c-14.72-.52-19.17-5.45-21.58-10.2a6.42,6.42,0,0,0-4.09-3.62c-3.53-.93-7.45,1.65-7.49,1.68l-.38-.58c.17-.11,4.2-2.77,8-1.77a7.11,7.11,0,0,1,4.53,4c3.28,6.49,9.56,9.43,21,9.83,4.23.15,7.2,2.39,7.93,6s-1,8.46-6.42,11c-2.12,1-3.26,2.24-3.38,3.69-.27,3.45,5.1,7.13,5.15,7.17Z"/><path class="cls-2" d="M453.43,215.12l-.44-.53c3.52-3,2.9-7.92,1.16-11.57-1.83-3.82-5.53-7.33-9.06-6.64-7.09,1.38-15.2-1.62-15.55-1.75l.25-.64c.08,0,8.28,3.06,15.17,1.71,4.06-.79,7.93,3.09,9.81,7S457.25,211.9,453.43,215.12Z"/><path class="cls-2" d="M442.59,239.35l-.22-.66a12.12,12.12,0,0,0,8.25-9.79l.69.06A12.85,12.85,0,0,1,442.59,239.35Z"/><path class="cls-5" d="M385.68,244.7s4.83-18.15,11.53-22,18.12-3.61,14.47-.37a40.58,40.58,0,0,1-8.15,5.42s11.39-4.84,11.4-1.31-9,6.85-9,6.85,13.54-4,12.47-.66-10.84,6.54-10.84,6.54,12.6-3.63,11.26.22-12.2,3.56-12.2,7.08-1.17,17.54-11,18.75Z"/><path class="cls-9" d="M397.86,231.87l-.53-.19c.83-2.39,4.66-3.44,4.83-3.49l.14.55S398.6,229.76,397.86,231.87Z"/><path class="cls-9" d="M398.56,238.79l-.49-.29a10,10,0,0,1,5.71-4.08l.13.55S400.25,235.91,398.56,238.79Z"/><path class="cls-9" d="M400.5,243.76l-.55-.14c.67-2.62,5.21-3.85,5.4-3.91l.15.55C405.45,240.28,401.09,241.46,400.5,243.76Z"/><rect class="cls-14" x="408.36" y="265.26" width="49.35" height="33" rx="5.56"/><rect class="cls-14" x="397.65" y="296.27" width="70.77" height="292.92"/><rect class="cls-14" x="385.11" y="288.05" width="95.85" height="12.7" rx="2.14"/><path class="cls-14" d="M479.53,589.19h-93A13.18,13.18,0,0,1,399.72,576h66.62a13.19,13.19,0,0,1,13.19,13.18Z"/></svg>