<svg xmlns="http://www.w3.org/2000/svg" viewBox="0 0 563.25 564.09"><defs><style>.cls-1{fill:#00784d;}.cls-2{fill:#ffc655;}.cls-3{fill:#f2f0e6;}.cls-4{fill:#ce7a2e;}.cls-5{fill:#284f36;}.cls-6{fill:#3bb55d;}.cls-7{fill:#7ac44c;}.cls-8{fill:#1b8436;}.cls-9{fill:#561c17;}.cls-10{fill:#8a4d27;}.cls-11{fill:#ffa076;}.cls-12{fill:#fff;}.cls-13{fill:#764678;}.cls-14{opacity:0.3;}.cls-15{fill:#f47c53;}.cls-16{fill:#b8e34d;}.cls-17{fill:#83bf47;}.cls-18{fill:#f9bd38;}.cls-19{fill:#163a24;}.cls-20{fill:#ef9f6f;}.cls-21{opacity:0.5;}.cls-22{fill:#7fc064;}.cls-23{fill:#632c1e;}.cls-24{fill:#4bae48;}.cls-25{fill:#ad662b;}.cls-26{fill:#4eaf46;}.cls-27{fill:#00a76e;}.cls-28{fill:#00613e;}.cls-29{fill:#f4f4f4;}.cls-30{fill:#d9644d;}</style></defs><g id="_1" data-name="1"><path class="cls-1" d="M354.83,70.05C353.53,41.82,328.17,18,299.92,18c-40,0-53.16,30.67-54.74,58.88-1.64,29.31,24.19,49.36,52.44,49.36S356.46,105.11,354.83,70.05Z" transform="translate(-18.37 -17.95)"/><path class="cls-2" d="M344.9,73c0-22.48-22.43-46.42-44.9-47.14C266.76,24.79,253.29,58.51,253.29,81s23.2,35.88,45.67,35.88S344.9,95.48,344.9,73Z" transform="translate(-18.37 -17.95)"/><path class="cls-3" d="M304.81,72.24c-.3-3.07-3.56-5.11-6.64-5.11s-6.39,3.71-6.39,6.8,3.3,5.6,6.39,5.6S305.37,77.93,304.81,72.24Z" transform="translate(-18.37 -17.95)"/><path class="cls-3" d="M298.17,75.05h-1.12a1.11,1.11,0,0,1-1.11-1.1c0-.62-1.39-2.69-.78-2.69l.62-1.31,1.33-30.36-1.38.85a1.11,1.11,0,0,1-1.82-1.26l3.41-4.94a1.09,1.09,0,0,1,1.24-.43,1.11,1.11,0,0,1,.78,1.06l1.84,39C301.18,74.47,298.78,75.05,298.17,75.05Z" transform="translate(-18.37 -17.95)"/><path class="cls-3" d="M302,40.6a1.07,1.07,0,0,1-.85-.41l-4.21-3c-.39-.48.12-2.79.6-3.17a1.1,1.1,0,0,1,1.56.16l3.76,4.62a1.1,1.1,0,0,1-.16,1.56A1.07,1.07,0,0,1,302,40.6Z" transform="translate(-18.37 -17.95)"/><path class="cls-3" d="M278.09,78.64a1.1,1.1,0,0,1-.8-.34L274,74.89a1.1,1.1,0,0,1,.8-1.87h0L301,71.64c.61,0,1,1.93,1,2.54V75.3a1.11,1.11,0,0,1-1.11,1.11c-.61,0-2,.55-2-.06l.88-1.06-22.27-.05,1.47,1.53a1.11,1.11,0,0,1-.8,1.87Z" transform="translate(-18.37 -17.95)"/><path class="cls-3" d="M274.8,75.23a1.07,1.07,0,0,1-.7-.25,1.1,1.1,0,0,1-.16-1.56L277,69.66a1.11,1.11,0,1,1,1.71,1.4l-1.2,2.82A10.85,10.85,0,0,1,274.8,75.23Z" transform="translate(-18.37 -17.95)"/><polygon class="cls-4" points="521.71 55.22 521.71 471.01 268.68 455.66 268.82 272.81 268.96 147.52 269.03 86.27 406.46 69.38 424.25 67.22 430.6 66.45 521.71 55.22"/><polygon class="cls-5" points="541.46 55.23 521.75 55.23 521.75 471.02 535.75 469.57 541.46 55.23"/><path class="cls-6" d="M381.86,245.21c-8.23,6.35-22.32,8.93-6.83-4s15.06-30.06,12.48-29.85-4.18,6.83-4.18,6.83c-28.54,52.74-86.86,70.11-96.14,72.56l.14-125.3c47.44-13,75.35-70.46,75.35-70.46l62.16-7.67C439.49,179.63,390.09,238.86,381.86,245.21Z" transform="translate(-18.37 -17.95)"/><path class="cls-7" d="M442.64,85.16s13,54.8-5.81,89.92c0,0-3.06,6.9,5.09,6s20.83-38,13.57-72.44c-1.3-6.13-2.94-15-6.53-24.21Z" transform="translate(-18.37 -17.95)"/><path class="cls-8" d="M540.12,126.47S473,148.56,462.83,195.6c0,0-1.37,6.8,3.65,5.68s14.11-25.89,26.34-31.22-29.16,37.58-27.91,65.2,25.2,15.68,33.14,2.84,27.07-25.21,26.13-16.52,9,12.12,15.94,6.8Z" transform="translate(-18.37 -17.95)"/><path class="cls-9" d="M569.72,507.6s-13.37-69.16-15.44-71.19-5.28-.22-4.15,3.61,16.68,66.18,17.33,67.58S570.1,509.53,569.72,507.6Z" transform="translate(-18.37 -17.95)"/><path class="cls-6" d="M492.82,420.53c-.1-11.28,24.21-42.71,40-46.94,17.89-4.8,40.81-13.5,47.55,2.23S564.54,440,564.54,440a7,7,0,0,1-5.82,4.79c-4.57.48-60.86,2.17-61,0C497.71,443.39,484.86,422.84,492.82,420.53Z" transform="translate(-18.37 -17.95)"/><path class="cls-9" d="M469.55,496.72s-1.54,10-5.64,15.17c-2.7,3.37-10.15,10.06-4.85,12.29,4.23,1.77,12.38-6.15,15-8.12s6.63-5.7,5.75-8.87c-1.83-6.59-1.23-14.86-1.23-14.86Z" transform="translate(-18.37 -17.95)"/><path class="cls-9" d="M490,488.93s2,9.95,0,16.18c-1.36,4.1-6,13-.28,13.21,4.59.2,9.48-10.06,11.27-12.83s4.24-7.65,2.31-10.32c-4-5.54-6.32-13.51-6.32-13.51Z" transform="translate(-18.37 -17.95)"/><path class="cls-10" d="M487.14,496c-54.93-36.64-52.22-68.74-44.61-81.3,8.85-14.58,22.84-26.1,44.3-31.25a119.87,119.87,0,0,1,15.71-2.62A11,11,0,0,1,514.63,392l-.49,18.7h0c-9.16-.19-37,2.6-44.26,17.42-1.51,3.08,35.47,46.51,34.09,54.31C502.45,491.25,492.51,499.55,487.14,496Z" transform="translate(-18.37 -17.95)"/><path class="cls-10" d="M465.84,501.45a10.94,10.94,0,0,1-11-11.58c.83-14,3.43-37.88,11.6-55.91,4.63-10.23,12-19.52,21.88-27.64a122.61,122.61,0,0,1,26.52-16.24c16.88-7.76,29-6.68,29-6.68l9.22,13.6c-.12,0,2.58,13.72-16.91,25.92-10.75,6.74-32.38,10.85-41.27,28.26-6.35,12.43-8.78,28.91-9.58,40.42a10.56,10.56,0,0,1-10.49,9.81Z" transform="translate(-18.37 -17.95)"/><path class="cls-11" d="M478.39,335.21S467.06,352.64,463,378.48c-2.69,17.11,28.43-2.8,28.43-2.8L492.82,340Z" transform="translate(-18.37 -17.95)"/><path class="cls-8" d="M535,325.36s-8.63-14.75-28.52-10.23-28,24.85-29.43,73.65c0,0,11.95,21.14,66.3,17,6-.46,14.65-1.26,11.71-11C549.62,376.63,544.32,340.42,535,325.36Z" transform="translate(-18.37 -17.95)"/><path class="cls-8" d="M556.92,329.67l-20.47,3.84s-36.21,16.59-46.23,16.68-13.73-13.25-13.73-13.25a53,53,0,0,1,25-20.19,51.35,51.35,0,0,1,5-1.62,37.49,37.49,0,0,1,8.9-1.49C549.18,313.26,556.92,329.67,556.92,329.67Z" transform="translate(-18.37 -17.95)"/><path class="cls-9" d="M556.92,329.67c.44,1.61-3.85,4.3-9.58,6s-10.75,1.78-11.19.17,3.85-4.31,9.58-6S556.47,328.05,556.92,329.67Z" transform="translate(-18.37 -17.95)"/><path class="cls-11" d="M515.37,313.65a6.09,6.09,0,0,1-5.53-2.63l-3.85-5.7-1.12-1.65L498.3,294l2.88,10.82,1.72,6.49.5,1.85a3.05,3.05,0,0,1-1.87,3.63h0c-.56,1.47-1.17,4.37,2.38,4.79,4.17.51,9.94-3.8,11.52-7.9Z" transform="translate(-18.37 -17.95)"/><path class="cls-9" d="M510.36,289.79s-.09,1.88,1.65,5.38c2.54,5.1-3.2,8.53-5.07,7.29-.23-.15-1.72-9.38-1.72-9.38l1.75-1.55Z" transform="translate(-18.37 -17.95)"/><path class="cls-9" d="M506,305.14l0,.18c.41,3.59-3.06,6-3.06,6l0,0-1.72-6.49c1.07-.64,2.64-1.39,3.69-1.1A1.57,1.57,0,0,1,506,305.14Z" transform="translate(-18.37 -17.95)"/><ellipse class="cls-11" cx="498.14" cy="295.8" rx="10.49" ry="12.94" transform="translate(-64.85 80.27) rotate(-10.76)"/><path class="cls-9" d="M492.2,286.82c.36.34,0,7.18,12.4,6.44s2.34-14.05-6.67-12.69c-13,2-13.22,11-11.39,13.9S492.2,286.82,492.2,286.82Z" transform="translate(-18.37 -17.95)"/><path class="cls-9" d="M509.35,275.23s-4.75,4.68.09,7.31,16.63,1.94,14.59,8.32-3.13,15.46,2.72,15.46,9.33-1.11,12.49,2.95,12.88-.67,11-5.87,6-11.58,1.34-15.79-14.73-6.74-18.26-12.73S513.21,271.61,509.35,275.23Z" transform="translate(-18.37 -17.95)"/><path class="cls-9" d="M502.87,291.43s5.94,4.28,5.24,9.95c0,0,2.27-3.69,2.11-4.87a46.71,46.71,0,0,0-1.72-5.27Z" transform="translate(-18.37 -17.95)"/><path class="cls-11" d="M507.43,296c-1,1.34-2.57,1.76-3.6,1a2.88,2.88,0,0,1-.13-3.89c.95-1.34,2.56-1.76,3.59-.95A2.89,2.89,0,0,1,507.43,296Z" transform="translate(-18.37 -17.95)"/><path class="cls-12" d="M539,309.32c-1.52-5.73-4.9-6-8.48-6.26a18.6,18.6,0,0,1-4.29-.67,2.26,2.26,0,0,1-1.39-1.1c-.63-1.29.11-3.33,1-5.69,1.24-3.43,2.65-7.33.55-10.35a14.17,14.17,0,0,0-10.29-6.11c-3.59.22-5.44-.18-5.66-1.23s1.46-2.25,2.08-2.47c5-1.75,10.82-2.46,19.22,4.18,6.63,5.24,6.18,8.19,5.6,11.92-.13.82-.26,1.68-.32,2.6a2.1,2.1,0,0,0,.47,1.66c.81.85,2.62.83,4.36.81,2.26,0,4.6-.05,5.23,1.74.49,1.41-.07,3.08-.61,4.69s-1.08,3.22-.43,4.32a3.81,3.81,0,0,0,2.74,1.45l-.07.42a4.14,4.14,0,0,1-3-1.66c-.75-1.26-.2-2.91.39-4.66.52-1.55,1.06-3.15.61-4.41-.52-1.51-2.6-1.48-4.81-1.46-1.84,0-3.74,0-4.68-.94a2.54,2.54,0,0,1-.59-2c.06-.94.2-1.8.32-2.63.56-3.6,1-6.44-5.43-11.52-8.24-6.51-13.91-5.82-18.81-4.11-.6.21-1.95,1.26-1.81,2,.08.36.74,1.17,5.23.89A14.6,14.6,0,0,1,526.73,285c2.23,3.21.72,7.39-.5,10.75-.82,2.26-1.52,4.22-1,5.35a1.76,1.76,0,0,0,1.13.88,18.65,18.65,0,0,0,4.19.65c3.74.28,7.27.55,8.87,6.58Z" transform="translate(-18.37 -17.95)"/><path class="cls-12" d="M502.53,289.46a9.29,9.29,0,0,1-6.35-2.68l.29-.27a8.72,8.72,0,0,0,7.41,2.44l.07.39A8.88,8.88,0,0,1,502.53,289.46Z" transform="translate(-18.37 -17.95)"/><path class="cls-13" d="M491.27,305.42a3.94,3.94,0,0,1-2.37-.3,5.45,5.45,0,0,1-2.81-3.08c-1-2.62,0-5.46,2.18-6.33a3.89,3.89,0,0,1,3,.11,5.5,5.5,0,0,1,2.82,3.08c1,2.63,0,5.47-2.18,6.33A3,3,0,0,1,491.27,305.42Zm-2.3-9.65a3.28,3.28,0,0,0-.61.18c-2.08.81-3,3.51-2,6a5.24,5.24,0,0,0,2.69,2.94,3.62,3.62,0,0,0,2.81.11c2.08-.82,3-3.51,2-6a5.21,5.21,0,0,0-2.68-2.95A3.8,3.8,0,0,0,489,295.77Z" transform="translate(-18.37 -17.95)"/><path class="cls-13" d="M501,302.12a4,4,0,0,1-2.36-.29,5.52,5.52,0,0,1-2.82-3.09c-1-2.62,0-5.46,2.19-6.33a3.9,3.9,0,0,1,3,.11,5.5,5.5,0,0,1,2.81,3.09h0c1,2.62,0,5.46-2.18,6.32A3,3,0,0,1,501,302.12Zm-2.3-9.64a2.56,2.56,0,0,0-.6.17c-2.08.81-3,3.51-2,6a5.16,5.16,0,0,0,2.68,2.94,3.6,3.6,0,0,0,2.82.11c2.08-.81,3-3.51,2-6h0a5.23,5.23,0,0,0-2.69-2.95A3.7,3.7,0,0,0,498.67,292.48Z" transform="translate(-18.37 -17.95)"/><path class="cls-13" d="M493,299.61a.14.14,0,0,1-.11,0,.13.13,0,0,1,0-.18,5.35,5.35,0,0,1,3.59-1.32.13.13,0,0,1,0,.25,5.29,5.29,0,0,0-3.42,1.24S493,299.6,493,299.61Z" transform="translate(-18.37 -17.95)"/><path class="cls-9" d="M497.17,296.11a.23.23,0,0,1-.19-.1.24.24,0,0,1,.07-.33,2.57,2.57,0,0,1,3.17.1.24.24,0,0,1,0,.33.24.24,0,0,1-.33.05,4,4,0,0,0-2.63-.08A.17.17,0,0,1,497.17,296.11Z" transform="translate(-18.37 -17.95)"/><path class="cls-9" d="M499.51,298.34c.12.55-.1,1.08-.51,1.17s-.83-.29-.95-.85.1-1.08.5-1.17S499.39,297.78,499.51,298.34Z" transform="translate(-18.37 -17.95)"/><path class="cls-9" d="M489,298.93a.26.26,0,0,1-.21,0,.25.25,0,0,1-.06-.34,2.59,2.59,0,0,1,3-1.11.24.24,0,0,1,.18.29.26.26,0,0,1-.28.18,4.07,4.07,0,0,0-2.47.92A.27.27,0,0,1,489,298.93Z" transform="translate(-18.37 -17.95)"/><path class="cls-9" d="M492.05,300.09a.92.92,0,0,1,0,1.27c-.33.24-.87.05-1.2-.41a.93.93,0,0,1,0-1.28A.94.94,0,0,1,492.05,300.09Z" transform="translate(-18.37 -17.95)"/><path class="cls-11" d="M553.38,375.11c-8.74,13.69-26,22.44-44.25,21.86l1.94-14.59c14.11-2.57,24.93-11.76,26.94-19.49,2.53-9.73,1.66-19.2.45-26.32a1.83,1.83,0,0,1,.7-1.77c1.8-1.38,6.48-4.19,14.83-4.36a1.63,1.63,0,0,1,1.59,1.2C559.07,344.8,561.18,362.89,553.38,375.11Z" transform="translate(-18.37 -17.95)"/><g class="cls-14"><path class="cls-15" d="M544.18,379.6a2.28,2.28,0,0,1-.93-.19c-1.53-.65-2.07-2.86-1.2-4.92a4.68,4.68,0,0,1,2.38-2.52,2.61,2.61,0,0,1,2,0c1.53.66,2.07,2.86,1.2,4.92h0a4.65,4.65,0,0,1-2.38,2.52A2.71,2.71,0,0,1,544.18,379.6Zm1.31-7.17a2.33,2.33,0,0,0-.8.16,4,4,0,0,0-2,2.16c-.72,1.72-.34,3.53.85,4a1.83,1.83,0,0,0,1.45,0,4,4,0,0,0,2-2.16c.72-1.72.35-3.53-.84-4A1.65,1.65,0,0,0,545.49,372.43Z" transform="translate(-18.37 -17.95)"/></g><path class="cls-9" d="M457,470.53l-.34,0a154,154,0,0,1,4.76-26.86c3.58-13.11,10.54-30.35,23.32-38l.17.29c-12.68,7.59-19.59,24.74-23.16,37.79A152.89,152.89,0,0,0,457,470.53Z" transform="translate(-18.37 -17.95)"/><path class="cls-9" d="M485,494.36h-.34a99.14,99.14,0,0,1,6.59-34.74l.31.13A98.83,98.83,0,0,0,485,494.36Z" transform="translate(-18.37 -17.95)"/><path class="cls-9" d="M496.26,305.65a5.4,5.4,0,0,1-1.63-.24.19.19,0,0,1-.12-.24.2.2,0,0,1,.24-.12c.13.05,3.19,1.06,4.89-1.55a.18.18,0,0,1,.26-.05.19.19,0,0,1,.06.26A4.24,4.24,0,0,1,496.26,305.65Z" transform="translate(-18.37 -17.95)"/><path class="cls-16" d="M492.14,387.51s25.39-34.06,27.75-33.51,1.15,3.16-1,7.1-20,30.76-20,30.76Z" transform="translate(-18.37 -17.95)"/><polygon class="cls-7" points="469.45 374.58 473.76 369.56 480.44 373.9 476.85 379.4 469.45 374.58"/><path class="cls-17" d="M487.82,392.53s-7.75,2.53-8.3,7.92,2.91,13.43,2.91,13.43,3.85-6.29,7.65-6.1,5.15-10.42,5.15-10.42Z" transform="translate(-18.37 -17.95)"/><path class="cls-1" d="M479.49,402.66a2,2,0,0,1,3.15.27c1.43,1.91,3.21-.11,5.11.94s1.51,4,1.51,4-5.74,4.49-6.83,6S479.49,402.66,479.49,402.66Z" transform="translate(-18.37 -17.95)"/><path class="cls-11" d="M511.07,382.38s-13.06-4.16-17.22-2.19-8,7.61-5.14,6.94a30.08,30.08,0,0,0,6.22-2.53s-7,4.31-5.32,5.52,7.81-2.6,7.81-2.6-8,5.8-6,6.42,8-3.83,8-3.83-7.2,5.69-4.86,6.35,5.92-4.74,7.64-3.53,6.11,6.77,10.06,2.39Z" transform="translate(-18.37 -17.95)"/><path class="cls-15" d="M495,384.73l-.22-.26c.08-.06,1.91-1.58,3.36-1.17l-.09.33C496.8,383.27,495.06,384.72,495,384.73Z" transform="translate(-18.37 -17.95)"/><path class="cls-15" d="M497.53,387.65l-.22-.25a5.88,5.88,0,0,1,3.95-1.4l0,.34A5.7,5.7,0,0,0,497.53,387.65Z" transform="translate(-18.37 -17.95)"/><path class="cls-15" d="M499.57,390.24l-.21-.26c.09-.08,2.24-1.87,3.76-1.3L503,389C501.67,388.49,499.59,390.22,499.57,390.24Z" transform="translate(-18.37 -17.95)"/><path class="cls-18" d="M452,268.45l-76.85,7.94a6.43,6.43,0,0,0-5.5,8.24L407,408.83a6.45,6.45,0,0,0,6.06,4.58l81.62,1.23a6.43,6.43,0,0,0,6.23-8.36L458.77,272.91A6.42,6.42,0,0,0,452,268.45Z" transform="translate(-18.37 -17.95)"/><path class="cls-6" d="M448.81,276.45l-67.18,7.07a5.72,5.72,0,0,0-4.81,7.34l32.64,110.6a5.64,5.64,0,0,0,5.29,4.08l71.36,1.1a5.7,5.7,0,0,0,5.44-7.45l-36.8-118.77A5.62,5.62,0,0,0,448.81,276.45Z" transform="translate(-18.37 -17.95)"/><polygon class="cls-18" points="454.49 311.2 367.1 311.2 368.54 319.74 458.26 323.57 454.49 311.2"/><polygon class="cls-18" points="442.84 269.89 416.9 258.47 413.44 258.47 442.84 273.28 442.84 269.89"/><polygon class="cls-18" points="373.63 260.97 362.17 288.6 359.82 284.83 370.61 260.97 373.63 260.97"/><polygon class="cls-18" points="471.05 364.19 457.25 390.3 453.16 390.3 467.8 356.15 471.05 364.19"/><polygon class="cls-17" points="413.44 390.3 385.53 364.69 384.18 368.96 409.01 390.3 413.44 390.3"/><path class="cls-19" d="M484.19,401.52,454.62,313.6a9.33,9.33,0,0,0-9.78-6.3l-68.73,7a9.32,9.32,0,0,0-8.06,11.7l22.57,83.79a9.31,9.31,0,0,0,9.36,6.89l75.72-2.86A9.33,9.33,0,0,0,484.19,401.52Z" transform="translate(-18.37 -17.95)"/><path class="cls-19" d="M512.5,522.73a1.5,1.5,0,0,0,.47-.08,1.53,1.53,0,0,0,1-1.93L479.54,413.06a1.56,1.56,0,0,0-2-1c-.83.25-3.76.66-3.5,1.47L511,521.65A1.57,1.57,0,0,0,512.5,522.73Z" transform="translate(-18.37 -17.95)"/><path class="cls-19" d="M433.7,522.73a1.5,1.5,0,0,0,.47-.08,1.53,1.53,0,0,0,1-1.93L402.75,412c-.26-.82-3.14-.19-4,.07a1.53,1.53,0,0,0-1,1.93l34.46,107.67A1.58,1.58,0,0,0,433.7,522.73Z" transform="translate(-18.37 -17.95)"/><path class="cls-19" d="M493.1,411.57H393.31a1.66,1.66,0,0,0-1.71,1.61h0c0,.88,0,3.77.95,3.77l100-1.32c1.58.07,2.26-1.57,2.26-2.45h0A1.66,1.66,0,0,0,493.1,411.57Z" transform="translate(-18.37 -17.95)"/><path class="cls-9" d="M366.77,335.4h99.41a1.57,1.57,0,0,0,0-3.14H366.77a1.57,1.57,0,0,0,0,3.14Z" transform="translate(-18.37 -17.95)"/><path class="cls-9" d="M371.7,426.51h80.68a1.57,1.57,0,0,0,0-3.14l-80.11-1.43c-.87,0-2.14,2.14-2.14,3A1.57,1.57,0,0,0,371.7,426.51Z" transform="translate(-18.37 -17.95)"/><path class="cls-9" d="M366.77,522.73a1.58,1.58,0,0,0,1.57-1.49l11.9-187.41c0-.86-2.92-1.52-3.79-1.57a1.6,1.6,0,0,0-1.64,1.49L365.2,521.08a1.57,1.57,0,0,0,1.49,1.64Z" transform="translate(-18.37 -17.95)"/><path class="cls-9" d="M447.45,522.73a1.57,1.57,0,0,0,1.56-1.49l9.6-187.33a1.57,1.57,0,0,0-1.48-1.65c-.81-.05-4.46.7-4.5,1.57l-6.75,187.25a1.56,1.56,0,0,0,1.48,1.64Z" transform="translate(-18.37 -17.95)"/><path class="cls-20" d="M282,170.06s17.89,36.62,48.24,11.44l7.34,13s-16.68,38-58.77,9.32Z" transform="translate(-18.37 -17.95)"/><path class="cls-9" d="M204.7,425.34s.16,6.64,4.66,8.52,17.51,3.56,12.64,7.83c-2.79,2.45-15.94.87-19.66.87s-7.2,1.61-10-.87c-3-2.74,0-16.35,0-16.35a14.86,14.86,0,0,0,6.09,1.6A11.85,11.85,0,0,0,204.7,425.34Z" transform="translate(-18.37 -17.95)"/><path class="cls-19" d="M262.81,263.14l-50,160.64a16.1,16.1,0,0,1-15,11.45l-3,.06a11.42,11.42,0,0,1-11.23-13.59l27.36-150.95c.4-1.79,1.41-9.72,3.14-10.22C223.4,257.82,263.73,256.49,262.81,263.14Z" transform="translate(-18.37 -17.95)"/><path class="cls-9" d="M262.76,428.07s.32,6.2,4.56,7.83,16.44,2.89,12,7c-2.54,2.35-14.87,1.21-18.33,1.3s-6.69,1.69-9.33-.56c-2.9-2.48-.41-15.26-.41-15.26a13.91,13.91,0,0,0,5.73,1.34A11.07,11.07,0,0,0,262.76,428.07Z" transform="translate(-18.37 -17.95)"/><path class="cls-19" d="M286.21,315.33c-.22,1.68-.09,4.36-.33,6.09-5.4,38.92-9.82,78.62-13.05,97.44a14.61,14.61,0,0,1-13.32,12.23l-3.58.24A12.27,12.27,0,0,1,243,418.39l5.64-126.89,1.11-41.75S292.91,264.75,286.21,315.33Z" transform="translate(-18.37 -17.95)"/><path class="cls-9" d="M206.25,273c.18,3.37,20.62,4.16,45.85,2.69s33.54-5.31,33.36-8.69-8.78-5-34-3.52S206.07,269.67,206.25,273Z" transform="translate(-18.37 -17.95)"/><path class="cls-7" d="M205.53,184.86a20.87,20.87,0,0,1,4.25-10.39c4.9-6.28,15.63-15.36,37-16.05,47.5-1.54,42.72,49.61,43.34,104.52A373.83,373.83,0,0,0,206.25,273S202.41,211.35,205.53,184.86Z" transform="translate(-18.37 -17.95)"/><path class="cls-7" d="M205,190.5l14.45-4.08s53.49,8.9,65.25,4.14C291,188,294,178.83,294,178.83s-13-16.9-35.71-20q-3.19-.44-6.64-.57a100.92,100.92,0,0,0-11.43.54C204.3,161.58,205,190.5,205,190.5Z" transform="translate(-18.37 -17.95)"/><path class="cls-11" d="M242.13,154.49l2.27-8.09.67-2.35L249,130.19l.93,13.65s.53,6.14.55,8.2c.06,4.58.85,6.23.85,6.23,1.69,1.71,5.92,4.23,2.12,6-4.74,2.24-13.83-.91-17.35-5C236.08,159.28,241.07,158.71,242.13,154.49Z" transform="translate(-18.37 -17.95)"/><path class="cls-16" d="M286.67,268.56s-20.23-6-76.58,6.56l-1.65,9.1,77.52-.46Z" transform="translate(-18.37 -17.95)"/><path class="cls-9" d="M213.66,195c1.09,2.36,7.22,2,13.68-.92s10.81-7.1,9.71-9.47-7.21-2-13.67.92S212.57,192.68,213.66,195Z" transform="translate(-18.37 -17.95)"/><path class="cls-1" d="M270.8,182.36l-19.81,1a9.78,9.78,0,0,0-9.26,9.26c-.7,12.66-3.84,35.82-17.15,47.62a11.45,11.45,0,0,0-3.89,8.33l-1.62,80.72a14.76,14.76,0,0,0,14.75,15.06h43.45a11.26,11.26,0,0,0,11.24-10.66c.85-16,2.29-47.09,2.29-74.34,0-7.24-.76-36.39-1.31-42.23-.61-6.47-6.73-21.41-10.25-29.56A8.7,8.7,0,0,0,270.8,182.36Z" transform="translate(-18.37 -17.95)"/><path class="cls-11" d="M305,210.14c3.08-2.25-7.23-14.9-7.23-14.9-14.75,11.89-28.57,14.9-41.48,11.48-12.6-3.34-22.42-20.95-22.48-21.12,0,0-3.39-1.81-9.67,1.25-9.32,4.54-7.84,8.34-7.84,8.34.37,1.08,9.9,24.61,32.73,29.68C271,229.72,291.92,221.07,305,210.14Z" transform="translate(-18.37 -17.95)"/><g class="cls-21"><path class="cls-15" d="M253.08,222.73a5.46,5.46,0,0,1-.9-.07c-2.39-.34-4.1-1.89-3.9-3.53a2.32,2.32,0,0,1,.94-1.56,5,5,0,0,1,3.68-.76c2.39.34,4.1,1.9,3.91,3.53a2.34,2.34,0,0,1-.95,1.56A4.59,4.59,0,0,1,253.08,222.73ZM252,217.54a3.79,3.79,0,0,0-2.29.66,1.58,1.58,0,0,0-.65,1c-.14,1.16,1.34,2.37,3.23,2.65a4.25,4.25,0,0,0,3.09-.61,1.57,1.57,0,0,0,.64-1c.14-1.17-1.34-2.38-3.23-2.65A5.35,5.35,0,0,0,252,217.54Z" transform="translate(-18.37 -17.95)"/></g><path class="cls-1" d="M228.8,238s-18.52-.84-24.33-8.32c0,0-2.52,3.49.21,8.32,0,0,9.62,7,21.5,7.46S228.8,238,228.8,238Z" transform="translate(-18.37 -17.95)"/><path class="cls-1" d="M272.72,185.14s-2.67-17.95-13.35-26.75c0,0-2.34-1.42-3,.23,0,0,7.54,5.8,12.54,26.89Z" transform="translate(-18.37 -17.95)"/><path class="cls-1" d="M251.86,185.07s-8.26-21.32-18.09-25.4a2,2,0,0,0-3,.66s11.3,6.68,16.93,25.18Z" transform="translate(-18.37 -17.95)"/><path class="cls-9" d="M273.82,186.27c-.76-1.4-1.78-2-3.83-1.4a2.72,2.72,0,0,0-1.76,3.65c.67,1.45,2.31,2.76,4.19,1.59C273.77,189.27,274.74,188,273.82,186.27Z" transform="translate(-18.37 -17.95)"/><path class="cls-22" d="M271,190.2a2.32,2.32,0,0,1-.58-.08,3.13,3.13,0,0,1-1.82-1.73,2.23,2.23,0,0,1,0-1.89,2.38,2.38,0,0,1,1.49-1.32c1.61-.49,2.57-.12,3.32,1.27.93,1.71-.33,2.84-1.17,3.36A2.29,2.29,0,0,1,271,190.2Zm.27-5.08a3.87,3.87,0,0,0-1.14.19,2.25,2.25,0,0,0-1.4,1.25,2.14,2.14,0,0,0,0,1.77,3,3,0,0,0,1.74,1.65,2,2,0,0,0,1.71-.29,2.3,2.3,0,0,0,1.12-3.18h0A2.21,2.21,0,0,0,271.3,185.12Z" transform="translate(-18.37 -17.95)"/><path class="cls-22" d="M272.75,186.61a.58.58,0,0,0-.81-.29.57.57,0,0,0-.37.76.61.61,0,0,0,.89.34A.59.59,0,0,0,272.75,186.61Z" transform="translate(-18.37 -17.95)"/><path class="cls-22" d="M270.46,187.67a.58.58,0,0,0-.8-.29.57.57,0,0,0-.37.76.6.6,0,0,0,.88.34A.58.58,0,0,0,270.46,187.67Z" transform="translate(-18.37 -17.95)"/><path class="cls-9" d="M253.61,190.4c.17-1.58-.31-2.68-2.35-3.34a2.74,2.74,0,0,0-3.53,2c-.27,1.57.32,3.58,2.54,3.7C251.86,192.83,253.4,192.3,253.61,190.4Z" transform="translate(-18.37 -17.95)"/><path class="cls-22" d="M250.54,192.43h-.22a2.15,2.15,0,0,1-1.67-.8,3.09,3.09,0,0,1-.52-2.45,2.27,2.27,0,0,1,1.08-1.55,2.39,2.39,0,0,1,2-.24c1.6.51,2.18,1.37,2,2.94A2.35,2.35,0,0,1,250.54,192.43Zm-.07-5a2.32,2.32,0,0,0-1.19.33,2.13,2.13,0,0,0-1,1.45,3,3,0,0,0,.49,2.35,2,2,0,0,0,1.56.74c.94,0,2.54-.16,2.74-2h0a2.32,2.32,0,0,0-1.91-2.79A2.24,2.24,0,0,0,250.47,187.42Z" transform="translate(-18.37 -17.95)"/><path class="cls-22" d="M252.54,190.07a.59.59,0,0,0-.5-.7.56.56,0,0,0-.74.42.6.6,0,0,0,.53.77C252.17,190.58,252.49,190.47,252.54,190.07Z" transform="translate(-18.37 -17.95)"/><path class="cls-22" d="M250.05,189.64a.57.57,0,0,0-.49-.7.56.56,0,0,0-.74.41.6.6,0,0,0,.53.78C249.68,190.15,250,190,250.05,189.64Z" transform="translate(-18.37 -17.95)"/><path class="cls-9" d="M261.76,291.36c-1.13,0-2.23,0-3.28,0-9.45-.21-16.78-1.2-18.68-2.52-4.7-3.28,1-44.93,1.27-46.7l0-.21.2.06c27.71,8.63,43.07,1.84,43.22,1.77l.24-.11v.26c.08,1.54,1.94,37.87,0,43.33-.31.87-1.43,1.61-3.34,2.23C276.93,290.86,268.83,291.36,261.76,291.36Zm-20.37-49c-.21,1.56-1.55,11.59-2.39,21.83-1.51,18.48-.28,23.43,1,24.33,3.94,2.74,31.76,3.62,41.3.58,1.8-.58,2.85-1.25,3.11-2,1.85-5.16.17-39.62,0-42.94C282.37,245,267.23,250.34,241.39,242.35Z" transform="translate(-18.37 -17.95)"/><path class="cls-23" d="M262.22,122.35a18.28,18.28,0,0,1,.66,7.61c-.51,4.31-5.72-5.72-5.72-5.72Z" transform="translate(-18.37 -17.95)"/><ellipse class="cls-11" cx="251.35" cy="133.82" rx="12.44" ry="15" transform="translate(-41.32 39.4) rotate(-12.45)"/><path class="cls-9" d="M252,133.14a.27.27,0,0,0,.1-.21.25.25,0,0,0-.25-.25,2.74,2.74,0,0,0-2.76,1.9.25.25,0,0,0,.47.19,4.32,4.32,0,0,1,2.29-1.58A.25.25,0,0,0,252,133.14Z" transform="translate(-18.37 -17.95)"/><path class="cls-9" d="M251.14,136.45c.21.57.71.9,1.12.75a1,1,0,0,0,.37-1.29c-.21-.57-.71-.9-1.12-.75A1,1,0,0,0,251.14,136.45Z" transform="translate(-18.37 -17.95)"/><path class="cls-9" d="M261.18,131.58a.17.17,0,0,0,.13-.14.32.32,0,0,0-.13-.33,1.78,1.78,0,0,0-2.54.52.29.29,0,0,0,0,.35.19.19,0,0,0,.28,0,2.66,2.66,0,0,1,2.11-.43A.13.13,0,0,0,261.18,131.58Z" transform="translate(-18.37 -17.95)"/><path class="cls-9" d="M259.11,134.36c0,.6.32,1.1.75,1.11s.81-.45.83-1.05-.31-1.11-.74-1.12S259.14,133.75,259.11,134.36Z" transform="translate(-18.37 -17.95)"/><path class="cls-23" d="M230.61,133.34s4.92,8.58,10.85,8.72c0,0-5.34-6.4,4.31-11.42C245.77,130.64,236.45,130,230.61,133.34Z" transform="translate(-18.37 -17.95)"/><path class="cls-11" d="M239.32,137.55a2.43,2.43,0,1,0-1.28-3.39A2.58,2.58,0,0,0,239.32,137.55Z" transform="translate(-18.37 -17.95)"/><path class="cls-23" d="M245.77,130.64s-.15,7.57,1.5,8.86,11.79,1,16.34-1.21h0a9.83,9.83,0,0,1-7.21,10.57,14.4,14.4,0,0,1-4.82.41h0c-3.34-.29-6.67-1.38-8.29-4.32-.49-.89.21-6.72.21-6.72s.16-3.39-1.94-5C241.56,133.26,243.63,131,245.77,130.64Z" transform="translate(-18.37 -17.95)"/><path class="cls-9" d="M245.77,130.64s-1.28-5.18,2.8-5.91,8.71-1.83,10.42-.9,4,4.94,4,4.94,1.58-8.07-2.85-11.07-18-6.29-25.9.3-3.62,15.34-3.62,15.34A49,49,0,0,1,245.77,130.64Z" transform="translate(-18.37 -17.95)"/><path class="cls-9" d="M238.89,117.6s-6.65-4.58-5.58-8.49,7.74-3.29,10.33-2.91,3.42,4.86,1.63,8S238.89,117.6,238.89,117.6Z" transform="translate(-18.37 -17.95)"/><path class="cls-23" d="M243.29,145s.49,5.16,4.4,7.74,1.71,5.31,5.29,9.15-.25,4.26,5.72,6.75,10-.59,8.5-5.07,3.54-3.7.7-9.29-4.23-1.89-2.8-8.24-1.49-7.7-1.49-7.7-3.13.49-5.64,1.17-4.86.07-6.59.8S243.29,145,243.29,145Z" transform="translate(-18.37 -17.95)"/><path class="cls-12" d="M261.36,141.21a25.56,25.56,0,0,1-8,1.34,3.92,3.92,0,0,0,5.16,2.71C260.94,144.59,261.36,141.21,261.36,141.21Z" transform="translate(-18.37 -17.95)"/><path class="cls-10" d="M338,204.69l-3.53-10.57-1-3.07-6-18.1-.8,18-.47,10.8-.15,3.42c-.11,2.32-1.63,2.81-3.48,4.83-.76.82,1.21,2,7.11,2.1,7.91.19,13.41-.38,13.38-1.89C343,210.2,339.14,208.11,338,204.69Z" transform="translate(-18.37 -17.95)"/><ellipse class="cls-10" cx="328.33" cy="179.71" rx="19.43" ry="17.28" transform="translate(64.84 444.61) rotate(-77.78)"/><path class="cls-10" d="M318.58,173c-9.9.35-14.71-5-14.82-9.87-.15-6.3,4.12-11.88,9.1-9.54s2.84-3.4,7.62-4c8.93-1.14,10.61,4.76,17.92,5.05,9.65.37,20.65,15.3,12.56,26.19C351,180.78,326.39,172.68,318.58,173Z" transform="translate(-18.37 -17.95)"/><path class="cls-10" d="M309.76,166.6s10.58,9.46,9.18,14.78-1,7.41,5.14,10.24.72,7.45,9,7.79,18.32-8.71,18.31-23.56a21.45,21.45,0,0,0-5.12-13.7Z" transform="translate(-18.37 -17.95)"/><path class="cls-10" d="M315.76,180.63a3.74,3.74,0,0,1,4.92-1.06,3.17,3.17,0,0,1,.58,4.66,3.75,3.75,0,0,1-4.92,1.06A3.17,3.17,0,0,1,315.76,180.63Z" transform="translate(-18.37 -17.95)"/><path class="cls-9" d="M333.48,199.66H333c-4.72-.19-5.13-1.78-5.61-3.62a5.33,5.33,0,0,0-3.44-4.19c-6.19-2.84-6.73-5-5.28-10.53.5-1.92-.63-4.75-3.26-8.21a15,15,0,0,1-8.86-3.57,9.13,9.13,0,0,1-3.07-6.45c-.09-4,1.57-7.78,4.14-9.45a5.23,5.23,0,0,1,5.31-.32c2.49,1.17,3,.26,3.73-1.11a4.64,4.64,0,0,1,3.76-2.92c5.07-.65,7.87,1,10.58,2.51,2.17,1.24,4.22,2.41,7.38,2.53,5.26.21,10.94,4.57,13.84,10.61,2.68,5.6,2.29,11.41-1.06,15.95C349.24,192.77,340.76,199.66,333.48,199.66Zm-22.93-46.41a4.78,4.78,0,0,0-2.63.81c-2.43,1.58-4,5.2-3.91,9,.14,5.85,6.1,9,11.58,9.54h.11l.07.09c2.82,3.67,4,6.61,3.42,8.72-1.41,5.38-.95,7.23,5,10a5.8,5.8,0,0,1,3.72,4.52c.45,1.71.8,3.06,5.15,3.24,7.17.29,15.73-6.52,17.66-18.42l0-.21h.09c3.19-4.38,3.54-10,1-15.37-2.77-5.79-8.4-10.13-13.4-10.32a15.52,15.52,0,0,1-7.61-2.61c-2.63-1.51-5.36-3.07-10.27-2.45a4.2,4.2,0,0,0-3.38,2.67c-.75,1.38-1.47,2.69-4.38,1.32A5.13,5.13,0,0,0,310.55,153.25Z" transform="translate(-18.37 -17.95)"/><path class="cls-9" d="M336,188.21c-.17-.11-4.17-2.86-4-5.64.1-1.25,1-2.29,2.74-3.09,3.69-1.73,4.85-5.06,4.37-7.42s-2.46-3.84-5.28-3.94c-10.66-.38-13.89-4-15.63-7.39a4.68,4.68,0,0,0-3-2.63c-2.57-.67-5.4,1.2-5.43,1.22l-.28-.41c.12-.09,3.05-2,5.83-1.29a5.14,5.14,0,0,1,3.29,2.88c2.38,4.7,6.92,6.83,15.2,7.12,3.07.11,5.22,1.73,5.75,4.34s-.71,6.13-4.65,8c-1.54.72-2.36,1.62-2.45,2.68-.2,2.49,3.69,5.16,3.73,5.19Z" transform="translate(-18.37 -17.95)"/><path class="cls-9" d="M346.9,173.81l-.32-.38c2.55-2.15,2.1-5.74.84-8.38s-4-5.32-6.56-4.82c-5.14,1-11-1.16-11.27-1.26l.18-.47c.06,0,6,2.22,11,1.24,2.94-.57,5.74,2.24,7.11,5.09S349.67,171.48,346.9,173.81Z" transform="translate(-18.37 -17.95)"/><path class="cls-9" d="M339.05,191.37l-.16-.48a8.75,8.75,0,0,0,6-7.09l.5,0A9.3,9.3,0,0,1,339.05,191.37Z" transform="translate(-18.37 -17.95)"/><path class="cls-11" d="M297.81,195.24s3.5-13.14,8.35-15.9,13.14-2.62,10.49-.27a29.4,29.4,0,0,1-5.91,3.93s8.26-3.51,8.26-1-6.52,5-6.52,5,9.81-2.9,9-.48-7.85,4.74-7.85,4.74,9.12-2.63,8.15.15S313,194,313,196.56s-.85,12.71-7.95,13.58Z" transform="translate(-18.37 -17.95)"/><path class="cls-15" d="M306.64,186l-.39-.14c.6-1.73,3.38-2.49,3.5-2.52l.11.39S307.17,184.42,306.64,186Z" transform="translate(-18.37 -17.95)"/><path class="cls-15" d="M307.14,191l-.35-.21a7.24,7.24,0,0,1,4.13-2.95l.1.4A6.94,6.94,0,0,0,307.14,191Z" transform="translate(-18.37 -17.95)"/><path class="cls-15" d="M308.55,194.57l-.4-.1c.49-1.91,3.77-2.8,3.91-2.84l.11.4S309,192.9,308.55,194.57Z" transform="translate(-18.37 -17.95)"/><rect class="cls-5" x="295.87" y="192.19" width="35.76" height="23.91" rx="5.56"/><rect class="cls-5" x="288.11" y="214.65" width="51.28" height="212.23"/><rect class="cls-5" x="279.02" y="208.7" width="69.45" height="9.2" rx="2.14"/><path class="cls-5" d="M365.81,444.84H298.44a9.54,9.54,0,0,1,9.55-9.55h48.26a9.55,9.55,0,0,1,9.56,9.55Z" transform="translate(-18.37 -17.95)"/><path class="cls-4" d="M104.54,129.51,18.37,492.82s46,51.42,230.5,15.19L166.78,125.49Z" transform="translate(-18.37 -17.95)"/><path class="cls-24" d="M166.85,125.3c0,1.87-14,3.38-31.19,3.38s-31.12,2.69-31.12.83c0-13.33,13.9-25.85,31.12-25.85S166.85,113.35,166.85,125.3Z" transform="translate(-18.37 -17.95)"/><path class="cls-22" d="M166.78,125.49c.08,1.3-6.65,2.87-16.58,4.08l-1.75.2c-3.84.43-8.1.81-12.58,1.1-3.8.25-7.45.4-10.83.49l-3.56.06c-10,.08-16.86-.61-16.94-1.91-.07-1.12,4.93-2.45,12.69-3.56l1.9-.26c3.28-.44,7-.83,10.94-1.16,1.75-.15,3.54-.28,5.38-.4l3.78-.22c5.24-.27,10.1-.37,14.22-.32h.29C161.58,123.7,166.71,124.37,166.78,125.49Z" transform="translate(-18.37 -17.95)"/><path class="cls-12" d="M153.45,123.59A20.17,20.17,0,0,1,150,128.3q-.76.78-1.59,1.47a19.94,19.94,0,0,1-27.18-1.48,19.09,19.09,0,0,1-2.14-2.6c3.28-.44,7-.83,10.94-1.16,1.75-.15,3.54-.28,5.38-.4l3.78-.22C144.47,123.64,149.33,123.54,153.45,123.59Z" transform="translate(-18.37 -17.95)"/><path class="cls-24" d="M135.66,105.9h0a1.34,1.34,0,0,1-1.34-1.34V82.48a1.34,1.34,0,0,1,1.34-1.34h0A1.34,1.34,0,0,1,137,82.48v22.08A1.34,1.34,0,0,1,135.66,105.9Z" transform="translate(-18.37 -17.95)"/><path class="cls-24" d="M131.78,104.25a3.88,3.88,0,1,1,3.88,3.92A3.9,3.9,0,0,1,131.78,104.25Z" transform="translate(-18.37 -17.95)"/><path class="cls-25" d="M148.8,496.61c-2.52-.8-5.44-1.45-7.05-2.13-3.86-1.6-4-7.3-4-7.3,2.7-13.56,12.54-42.73,18.81-71.46,8.25-9.68,9.49-21.81,9.49-21.81l.32.29c-.19-3.35-.38-6.69-.55-10a1.77,1.77,0,0,0,1.9-1.43l1.88-10.19c.32.08.64.14,1,.21L169,381.2a1.77,1.77,0,0,0,3.49.64l1.57-8.52c.34,0,.66,0,1,0l-1.31,7.08a1.77,1.77,0,0,0,3.48.63l2.1-11.37c1.15-4.23.14-9-.49-11.32a324.13,324.13,0,0,0-5.57-44.19,169.42,169.42,0,0,0-10.52-34.29l-1.79-4c-.05-.09-.09-.19-.14-.29-.18-1.55-.38-2.85-.57-3.81-.64-3.16-3.3-7.14-6.31-9.84,0-2.37-1-4.6-3.13-6.84-3.49-3.71-.66-11.59,2.63-15.62a9.86,9.86,0,0,0,1.71-7.82A17.1,17.1,0,0,0,147,220.29a20,20,0,0,0-9.4-2.93,21.18,21.18,0,0,0-9,.47s-9-1.56-13.63,4a30.5,30.5,0,0,0-3.64,5.43c-.58.84-1.21,1.8-1.81,2.8-2.48,4.08-3.27,6.82-2.36,8.14,1.21,1.75,2.74,4.22,2.11,5.53-.29.61-1.06,1-2.3,1-4,.28-9.39,1.42-11.35,7.8a15.48,15.48,0,0,0-1.38,9.67c-5.68,2.79-7.59,5.71-7.59,5.71a56.44,56.44,0,0,0-5.8,9.18c-6.17,11.4-8.48,22.77-6.67,32.91,2.11,11.86,9.4,21.57,21.68,28.93C93.12,375,74.07,479.87,52.64,488.64c-25.43,10.4-15,17-16.33,23.51a3.4,3.4,0,0,1-.49,1.18l158.57,1.07V502.06a.65.65,0,0,0,.28-.46C194.67,499.37,175.83,497.46,148.8,496.61Zm16.45-125.47c.3.14.61.27.94.4l-.81,4.39c-.07-1.44-.15-2.87-.22-4.28Zm-12-109.79a15.32,15.32,0,0,0-1.77-1.27,9.49,9.49,0,0,0-.6-3.89A9,9,0,0,1,153.25,261.35Zm-6.58-40.49a16.43,16.43,0,0,1,7.8,10.9,9.22,9.22,0,0,1-1.56,7.29c-2.55,3.12-4.76,8.23-4.36,12.35-3.67-8,3.12-11.36,3-17.84a18.1,18.1,0,0,0-9.69-14.83A18.22,18.22,0,0,1,146.67,220.86ZM95,311.84a16.84,16.84,0,0,1-2-5.45c-1-5.48,2.45-11.52,6.09-16.78C97.9,294.82,96,303.87,95,311.84Zm2.7-62.13c1.52-2.11,4.23-3.93,9.33-4.29,1.49-.11,2.45-.59,2.85-1.43.76-1.59-.66-4-2.17-6.19-.82-1.2.43-4.09,2.1-6.94-.86,2.69-1,5.08-.15,6.6,2.55,4.63,3.65,7.64-5.76,9.19A11.19,11.19,0,0,0,97.71,249.71Zm28.73,241.62a38,38,0,0,0-.42,4.84q-4.29,0-8.72,0h-4.69c-2.53-.8-5.46-1.45-7.09-2.13a4,4,0,0,1-.51-.25c2.34-5.59,11.16-13.83,21.15-27.22l.33-.47Zm.11-55.47a7.7,7.7,0,0,1,0-2.71Z" transform="translate(-18.37 -17.95)"/><path class="cls-24" d="M213.57,522c0,3.1-35.59,5.61-79.48,5.61S54.6,525.09,54.6,522s35.59-5.61,79.49-5.61S213.57,518.89,213.57,522Z" transform="translate(-18.37 -17.95)"/><rect class="cls-24" x="36.23" y="475.99" width="158.68" height="28.53"/><ellipse class="cls-26" cx="115.71" cy="475.99" rx="79.48" ry="5.61"/><path class="cls-24" d="M145.71,202.43s-9.22-1.59-14,4.1-7.25,12.81-5.47,16.07c2.62,4.76,3.76,7.85-5.92,9.44-12.52,2.06-12.34,19.29-5.51,23.79S163.58,251.24,165,251s7.51-3.07,2.05-12.49,2.4-12.83,2.23-19.89S162,198.33,145.71,202.43Z" transform="translate(-18.37 -17.95)"/><path class="cls-22" d="M138.43,242.92a5.81,5.81,0,0,0,4.71-3.45l2.59-6,.75-1.74,4.42-10.27-.77,10.64-.46,6.39-.13,1.82a2.9,2.9,0,0,0,2.4,3.06h0c.79,1.28,1.87,3.88-1.37,4.92-3.81,1.21-10-1.79-12.2-5.35Z" transform="translate(-18.37 -17.95)"/><path class="cls-24" d="M145.72,233.28a1,1,0,0,0,0,.17c.25,3.43,3.92,5,3.92,5h0l.46-6.39c-1.12-.41-2.72-.83-3.65-.37A1.48,1.48,0,0,0,145.72,233.28Z" transform="translate(-18.37 -17.95)"/><path class="cls-22" d="M196.85,345.43l-7.95.42a2.15,2.15,0,0,0-.5-1.77l-.43-.49a2.2,2.2,0,0,0-3.1-.21L176,351.11a2.2,2.2,0,0,0-.21,3.1l.42.49a2.2,2.2,0,0,0,3.1.21l1.52-1.32L178.35,367a1.83,1.83,0,0,0,1.46,2.12h0a1.83,1.83,0,0,0,2.12-1.46s.43-7.34.77-7.21l-.4,10.78c-.18,1,2.2,2.58,3.63-.37,0,0,1.59-9.15,1.93-9.08l-.58,8.12c-.5,3.52,2.24,3.12,3.27.22,0,0,1.58-7.75,1.89-7.74l-.38,7.1c-.41,2.54,1.95,3.5,2.94-.65l2.78-10.38C199.42,352.49,196.85,345.43,196.85,345.43Z" transform="translate(-18.37 -17.95)"/><path class="cls-22" d="M180.06,347.49c-1.84-20.2-6-49.07-15.67-71.93a69.69,69.69,0,0,0-4.91-10.18c-1.4-2.33,1.11-7.45,5.07-9.89,3.71-2.28,9.49-1.91,10.41-.78,1.55,1.93,3.21,5.62,5.79,11.49,9,20.37,14.35,46.69,16.53,80.62Z" transform="translate(-18.37 -17.95)"/><path class="cls-22" d="M155.09,479.14s.15,5.85,4.11,7.5,15.44,3.15,11.15,6.91c-2.46,2.16-14.06.77-17.34.77s-6.35,1.42-8.78-.77c-2.68-2.41,0-14.41,0-14.41a13.08,13.08,0,0,0,5.37,1.4A10.41,10.41,0,0,0,155.09,479.14Z" transform="translate(-18.37 -17.95)"/><path class="cls-22" d="M117.88,478.65s.15,5.86,4.11,7.51,15.44,3.14,11.15,6.91c-2.46,2.16-14.06.76-17.34.76s-6.35,1.43-8.78-.76c-2.68-2.41,0-14.42,0-14.42a13,13,0,0,0,5.37,1.41A10.35,10.35,0,0,0,117.88,478.65Z" transform="translate(-18.37 -17.95)"/><path class="cls-22" d="M184.54,318.6s.73,24.51-7.09,71.53c-5.65,33.95-19.09,72.61-22.36,89-1.17,5.86-12.08,10.72-11.62,4.27l.24-120.79,2-36.52Z" transform="translate(-18.37 -17.95)"/><path class="cls-22" d="M119.87,258.61s5.87-16.51,26.77-15.76,36.68,28.22,40.59,87.25c0,0-34.23-7.5-74.32,10C112.91,340.11,110.69,282.67,119.87,258.61Z" transform="translate(-18.37 -17.95)"/><path class="cls-22" d="M102.62,253.91,120,267.1s38.06,3.8,48.16,2,10.75-7,10.75-7-8.68-15.44-27-18.71a49.41,49.41,0,0,0-5.3-.49c-3.1-.22-5.19.08-8.25.06C110,242.69,102.62,253.91,102.62,253.91Z" transform="translate(-18.37 -17.95)"/><ellipse class="cls-22" cx="133.01" cy="205.19" rx="10" ry="12.33"/><path class="cls-24" d="M153.25,213.13s6.07.69,5.25,5.55,4.74,3.42,4.74,3.42,1.88-10.93-3-12-6.57-.52-6.57-.52Z" transform="translate(-18.37 -17.95)"/><path class="cls-16" d="M184.5,383.62s-3.27,28.39-29.83,33.47,4.61,19.23-11.49,40.84-29.28,30.16-18.33,35.62-10,7.83-10,7.83C86,498.3,93.23,519.14,83.33,527.6S32.78,533.48,31.07,522s18.44-10.51,19.81-17.2-9.35-13.46,16.78-24.15,48.79-160.27,44.17-166,4.57-42.88,4.57-42.88c38.53-1.51,46-25.18,46-25.18,3.53-6.43,14.43,4.39,15.83,11.3s2.64,30.4,2.64,40.9C180.83,307.16,182.26,344.22,184.5,383.62Z" transform="translate(-18.37 -17.95)"/><path class="cls-22" d="M118.54,327.26,124.11,315a3.59,3.59,0,0,0-1.42-4.58c-7.91-4.52-12.47-9.93-13.59-16.08-1.54-8.54,7.39-18.41,11.62-24.79,2.17-3.26-1.7-6.39-5.13-10.38-1.42-1.66-2.81-2.81-7.36-4.71-2.19-.91-4.38-2.1-5.61-.52-1.92,2.47-3.29,5.39-6,10.32C90.32,275.94,88,287.63,89.8,298c2.27,12.77,11.34,22.62,25.09,30.3C114.89,328.34,117.72,329.07,118.54,327.26Z" transform="translate(-18.37 -17.95)"/><path class="cls-22" d="M119,311.59s5.7-6.16,10.62-6.06,11.12,3.93,8.06,4.52a33,33,0,0,1-7.18.26s8.76,1.11,7.61,3.05-8.75.89-8.75.89,10.31,2.16,8.64,3.63-9.51-.21-9.51-.21,9.52,2.39,7.54,4.06-7.86-2-9-.09-6.36,9.23-12.13,6.7Z" transform="translate(-18.37 -17.95)"/><path class="cls-27" d="M126.88,310.79a.21.21,0,0,1-.14-.07.18.18,0,0,1,0-.25c1.23-1,3.68-.37,3.78-.34a.19.19,0,0,1,.13.22.19.19,0,0,1-.23.13s-2.36-.65-3.45.26A.21.21,0,0,1,126.88,310.79Z" transform="translate(-18.37 -17.95)"/><path class="cls-27" d="M125,314.79a.2.2,0,0,1-.16-.1.18.18,0,0,1,.08-.24,6.38,6.38,0,0,1,4.46-.38.18.18,0,1,1-.11.35,6.17,6.17,0,0,0-4.18.34Z" transform="translate(-18.37 -17.95)"/><path class="cls-27" d="M124.43,318.18a.15.15,0,0,1-.12-.05.18.18,0,0,1,0-.26c1.22-1.22,4.11-.41,4.23-.38a.19.19,0,0,1,.13.23.18.18,0,0,1-.22.12s-2.81-.78-3.89.29A.15.15,0,0,1,124.43,318.18Z" transform="translate(-18.37 -17.95)"/><path class="cls-27" d="M112.76,432.61l-.18-.29c12.14-7.56,29.22-24,41.6-59.42a210.62,210.62,0,0,0,9.66-39.57l.34,0A211.3,211.3,0,0,1,154.5,373C147.65,392.61,134.85,418.86,112.76,432.61Z" transform="translate(-18.37 -17.95)"/><path class="cls-27" d="M110.23,398.4l-.12-.32c21.22-8.45,33.39-25.14,39.86-37.65a97.05,97.05,0,0,0,9-25.4l.34.05a97.28,97.28,0,0,1-9.08,25.5C143.78,373.14,131.56,389.91,110.23,398.4Z" transform="translate(-18.37 -17.95)"/><path class="cls-27" d="M117.86,365.28l-.08-.34c15.82-3.69,24.41-11.62,28.84-17.63A33.15,33.15,0,0,0,152.49,335l.33.06a33.29,33.29,0,0,1-5.92,12.41C142.44,353.55,133.79,361.56,117.86,365.28Z" transform="translate(-18.37 -17.95)"/><path class="cls-27" d="M174,296.08l-.32-.14c5.83-12.77-4.5-45.29-4.6-45.62l.32-.1C169.5,250.55,179.86,283.19,174,296.08Z" transform="translate(-18.37 -17.95)"/><path class="cls-27" d="M162.09,278.87l-.29-.17a41,41,0,0,0,5.07-27.62l.33-.08A41.28,41.28,0,0,1,162.09,278.87Z" transform="translate(-18.37 -17.95)"/><path class="cls-27" d="M151.6,271.12l-.15-.3c12.68-6.35,12.19-18,12.18-18.09l.34,0C164,252.83,164.48,264.67,151.6,271.12Z" transform="translate(-18.37 -17.95)"/><path class="cls-24" d="M153.25,213.13s1.32,4.78-5.33,5.35-7.43,6-6.27,9.6c1.27,4,4,5.65-.26,7.93-2.2,1.18.54,3.31,4.32,9.57s4.33,14-.79,16.34c-6.53,3-.25,11.61-7.58,14.24-12.91,4.64-24.56-4.72-17.79-12.52,9.13-10.5,2.77-20-1.46-18.91s-5.17-7.74,3.83-9.26,12.18-6.76,10.13-12.33,3.94-18.43,12.16-17.87S157.21,208,153.25,213.13Z" transform="translate(-18.37 -17.95)"/><path class="cls-22" d="M140.17,225c1.13,1.08,2.71,1.19,3.53.25a2.74,2.74,0,0,0-.56-3.67c-1.13-1.08-2.72-1.19-3.54-.25A2.76,2.76,0,0,0,140.17,225Z" transform="translate(-18.37 -17.95)"/><path class="cls-11" d="M173.32,276c0-3.51,8.9-6.83,8.9-6.83,1.15.21,1.06,21.59,18.17,30.23,7.35,3.71,21.14.86,22.81.13.22-.09,6.17,15.49,6.17,15.49-3,1.31-2.84,2.38-12.36,2.08C191.54,316.27,177.62,305.85,173.32,276Z" transform="translate(-18.37 -17.95)"/><path class="cls-9" d="M237.32,510.09s-.26,4.94-3.64,6.25-13.12,2.3-9.58,5.58c2,1.88,11.86,1,14.62,1s5.33,1.35,7.44-.45c2.31-2,.33-12.17.33-12.17a11,11,0,0,1-4.57,1.06A8.75,8.75,0,0,1,237.32,510.09Z" transform="translate(-18.37 -17.95)"/><path class="cls-10" d="M218.61,420.18c.18,1.34.08,3.48.27,4.86,4.3,31,7.83,62.7,10.41,77.71a11.65,11.65,0,0,0,10.62,9.75l2.86.19a9.78,9.78,0,0,0,10.29-10.32l-4.5-101.2-.88-33.29S213.27,379.84,218.61,420.18Z" transform="translate(-18.37 -17.95)"/><path class="cls-9" d="M269,511s-.25,4.94-3.64,6.24-13.11,2.3-9.57,5.58c2,1.88,11.86,1,14.62,1s5.33,1.35,7.44-.45c2.31-2,.32-12.17.32-12.17a11.08,11.08,0,0,1-4.56,1.07A8.93,8.93,0,0,1,269,511Z" transform="translate(-18.37 -17.95)"/><path class="cls-10" d="M244.16,361s-1.27,22.3,4.7,65.29c4.31,31.05,9.54,62.35,12.11,77.36a11.64,11.64,0,0,0,10.63,9.75l2.85.19a9.78,9.78,0,0,0,10.3-10.32L280.25,402l-.89-33.3Z" transform="translate(-18.37 -17.95)"/><path class="cls-9" d="M282.39,386.45c-.15,2.69-16.45,3.32-36.57,2.15s-26.75-4.24-26.61-6.93,7-4,27.12-2.81S282.53,383.76,282.39,386.45Z" transform="translate(-18.37 -17.95)"/><path class="cls-1" d="M283,316.13a16.62,16.62,0,0,0-3.39-8.28c-3.91-5-12.46-12.25-29.5-12.81C212.19,293.81,216,334.6,215.5,378.4a275.37,275.37,0,0,1,66.92,7.39S285.44,337.26,283,316.13Z" transform="translate(-18.37 -17.95)"/><path class="cls-1" d="M283.38,320.63l-11.53-3.26s-46.16,8.56-54.58,3c-9.93-6.58-4.19-19.54-4.19-19.54s9.63-3,27.77-5.41a52.05,52.05,0,0,1,5.29-.46,76.73,76.73,0,0,1,9.12.43C283.94,297.57,283.38,320.63,283.38,320.63Z" transform="translate(-18.37 -17.95)"/><path class="cls-11" d="M253.77,291.91,252,285.46l-.53-1.88-3.1-11.05-.74,10.89s-.42,4.89-.44,6.53c-.05,3.66-.68,5-.68,5-1.34,1.37-4.72,3.38-1.69,4.82,3.78,1.79,11-.73,13.84-4C258.59,295.73,254.62,295.27,253.77,291.91Z" transform="translate(-18.37 -17.95)"/><path class="cls-10" d="M218.25,382.88s16.68-4.92,61.62,5.1l.18,6.51-61.24.52Z" transform="translate(-18.37 -17.95)"/><path class="cls-9" d="M276.47,324.25c-.87,1.88-5.75,1.55-10.9-.73s-8.62-5.67-7.75-7.56,5.75-1.55,10.9.74S277.34,322.36,276.47,324.25Z" transform="translate(-18.37 -17.95)"/><path class="cls-23" d="M241.93,266.4a14.5,14.5,0,0,0-1.21,5.85c0,3.4,5-3.93,5-3.93Z" transform="translate(-18.37 -17.95)"/><ellipse class="cls-11" cx="249.34" cy="276.3" rx="11.74" ry="9.74" transform="translate(-111.68 403.61) rotate(-70.91)"/><path class="cls-9" d="M259.46,276.24l-4.52-1.43a3.42,3.42,0,0,1-2.18-2c-.65-1.68-1.63-2.67-6-3.4-5.49-.91-8.43-4.9-8.43-7.88s3.19-4.44,5.65-2.49,2-1.69,4.68-1.51c5.07.33,5.21,4.32,9.26,5,5.32.93,14,6.89,7.56,15.27Z" transform="translate(-18.37 -17.95)"/><path class="cls-9" d="M248.94,275.71a.17.17,0,0,1-.06-.16.2.2,0,0,1,.22-.18,2.16,2.16,0,0,1,2,1.73.21.21,0,0,1-.14.24.22.22,0,0,1-.25-.14,3.42,3.42,0,0,0-1.63-1.44A.16.16,0,0,1,248.94,275.71Z" transform="translate(-18.37 -17.95)"/><path class="cls-9" d="M249.27,278.36c-.22.42-.64.64-.94.49a.78.78,0,0,1-.17-1.05c.22-.42.63-.63.94-.48A.77.77,0,0,1,249.27,278.36Z" transform="translate(-18.37 -17.95)"/><path class="cls-9" d="M241.9,273.67a.15.15,0,0,1-.08-.12.23.23,0,0,1,.13-.25,1.39,1.39,0,0,1,1.92.63.23.23,0,0,1-.05.27.15.15,0,0,1-.22,0,2.12,2.12,0,0,0-1.6-.53A.12.12,0,0,1,241.9,273.67Z" transform="translate(-18.37 -17.95)"/><path class="cls-9" d="M243.26,276c0,.47-.35.83-.69.8s-.58-.43-.55-.9.35-.82.69-.8S243.29,275.54,243.26,276Z" transform="translate(-18.37 -17.95)"/><path class="cls-23" d="M265.51,277.8s-4.6,6.23-9.23,5.8c0,0,4.74-4.49-2.31-9.27C254,274.33,261.27,274.67,265.51,277.8Z" transform="translate(-18.37 -17.95)"/><path class="cls-11" d="M258.36,280.29a1.91,1.91,0,1,1,1.3-2.53A2,2,0,0,1,258.36,280.29Z" transform="translate(-18.37 -17.95)"/><path class="cls-23" d="M254,274.33s-.57,5.9-2,6.75-9.26-.27-12.59-2.42h0a7.7,7.7,0,0,0,4.65,8.88,11,11,0,0,0,3.71.74h0c2.62.08,5.3-.46,6.83-2.6.47-.65.45-5.24.45-5.24s.18-2.66,2-3.69A7.53,7.53,0,0,0,254,274.33Z" transform="translate(-18.37 -17.95)"/><path class="cls-9" d="M245.12,258.74a1.89,1.89,0,0,1-.51-.07l.06-.26a1.21,1.21,0,0,0,1.58-.72l.25.07A1.43,1.43,0,0,1,245.12,258.74Z" transform="translate(-18.37 -17.95)"/><path class="cls-12" d="M245.56,267.55a18.46,18.46,0,0,1-2.74-1.86c-1.77-1.49-2.62-3-2.46-4.26a2.12,2.12,0,0,1,.85-1.72c.74-.41,1.77.06,2.67.48l.4.18-.06.12-.39-.18c-.88-.4-1.88-.86-2.56-.49a2,2,0,0,0-.78,1.63c-.37,3,5.08,5.95,5.13,6Z" transform="translate(-18.37 -17.95)"/><path class="cls-12" d="M260,264.07a11,11,0,0,1-6.25-2.27,7.54,7.54,0,0,1-1.78-2l.12-.06s2.1,3.78,7.92,4.18Z" transform="translate(-18.37 -17.95)"/><path class="cls-11" d="M243.83,283.68a3.57,3.57,0,0,1-2.67-1.19.2.2,0,0,1,0-.28.2.2,0,0,1,.28,0c.06.07,1.45,1.82,4.14.61a.2.2,0,0,1,.26.1.19.19,0,0,1-.1.26A4.57,4.57,0,0,1,243.83,283.68Z" transform="translate(-18.37 -17.95)"/><path class="cls-2" d="M230.9,314.13l15.8.83a7.82,7.82,0,0,1,7.39,7.39c.55,10.1,3.06,28.57,13.68,38a9.12,9.12,0,0,1,3.1,6.64l1.29,64.37a11.76,11.76,0,0,1-11.77,12H225.74a9,9,0,0,1-9-8.49c-.67-12.73-1.83-37.56-1.83-59.3,0-5.77.61-29,1.05-33.67.48-5.16,5.37-17.07,8.17-23.58A7,7,0,0,1,230.9,314.13Z" transform="translate(-18.37 -17.95)"/><path class="cls-9" d="M199.64,333.43h0a1.63,1.63,0,0,1-.65-2.21l14.22-26.17a1.64,1.64,0,0,1,2.22-.65h0a1.63,1.63,0,0,1,.65,2.21l-14.22,26.17A1.64,1.64,0,0,1,199.64,333.43Z" transform="translate(-18.37 -17.95)"/><rect class="cls-9" x="205.01" y="306.26" width="15.78" height="5.57" rx="1.62" transform="translate(155.08 -82.11) rotate(28.53)"/><path class="cls-11" d="M206,338.87c-2.46-1.8,8.92-10.25,8.92-10.25,11.77,9.48,23.46,8.15,30.25,5.86,9.85-3.33,15.17-17.63,15.22-17.76s2.7-1.44,7.71,1c7.44,3.62,6.25,6.65,6.25,6.65-.29.86-7.89,19.64-26.1,23.68C230.78,351.91,216.44,347.58,206,338.87Z" transform="translate(-18.37 -17.95)"/><g class="cls-21"><path class="cls-15" d="M243.88,347.2a3.66,3.66,0,0,1-2.22-.66,1.83,1.83,0,0,1-.76-1.24c-.15-1.31,1.21-2.54,3.12-2.82a4,4,0,0,1,2.93.61,1.83,1.83,0,0,1,.76,1.24c.15,1.31-1.21,2.54-3.12,2.82h0A5.78,5.78,0,0,1,243.88,347.2Zm.86-4.14a4.46,4.46,0,0,0-.63.05c-1.51.22-2.69,1.18-2.58,2.11a1.29,1.29,0,0,0,.51.82,3.36,3.36,0,0,0,2.46.48c1.51-.22,2.69-1.18,2.58-2.11a1.29,1.29,0,0,0-.51-.82A3.08,3.08,0,0,0,244.74,343.06Z" transform="translate(-18.37 -17.95)"/></g><path class="cls-11" d="M214.9,328.62s-1.15-10.79-4.64-13.56-10-3.67-8.23-1.49a23.9,23.9,0,0,0,4.18,3.82s-6.08-3.78-6.39-1.76,4.53,4.7,4.53,4.7-7.38-3.47-7.06-1.48,5.6,4.7,5.6,4.7-6.87-3.19-6.44-.88,6.65,3.12,6.33,5.13-.88,10.12,4.61,11.68Z" transform="translate(-18.37 -17.95)"/><path class="cls-15" d="M209.08,320.21c-.23-1.27-2.24-2.16-2.26-2.17l.14-.3c.08,0,2.18,1,2.45,2.41Z" transform="translate(-18.37 -17.95)"/><path class="cls-15" d="M208.07,324.1a5.53,5.53,0,0,0-2.72-2.65l.13-.3a5.74,5.74,0,0,1,2.9,2.83Z" transform="translate(-18.37 -17.95)"/><path class="cls-15" d="M206.52,326.77c-.13-1.36-2.52-2.43-2.54-2.44l.13-.3c.11.05,2.59,1.15,2.74,2.71Z" transform="translate(-18.37 -17.95)"/><path class="cls-11" d="M183.7,276.44s2.58-11.7.67-15-6.88-6.09-6.12-3.79a25.2,25.2,0,0,0,2.52,5s-4.06-5.55-4.94-4,2.69,6.31,2.69,6.31-5.36-6.22-5.74-4.52,3.73,6.39,3.73,6.39-5.21-5.58-5.6-3.6,4.34,4.59,3.45,6.1-3.89,7.82,0,10.8Z" transform="translate(-18.37 -17.95)"/><path class="cls-9" d="M169.31,268.27h0a1,1,0,0,1,.53-1.31l27.7-11.64a1,1,0,0,1,1.31.54h0a1,1,0,0,1-.53,1.3L170.61,268.8A1,1,0,0,1,169.31,268.27Z" transform="translate(-18.37 -17.95)"/><path class="cls-11" d="M180.24,271.61s-2.92-7-4.07-6.71.7,7.56.25,9.57,0,3.49,1.6,3.52S182,275.31,180.24,271.61Z" transform="translate(-18.37 -17.95)"/><path class="cls-15" d="M175.43,276.63a4.68,4.68,0,0,1,.21-3.28c1.08-2,0-6.64,0-6.69l.32-.07c0,.19,1.1,4.79,0,6.92a4.3,4.3,0,0,0-.18,3Z" transform="translate(-18.37 -17.95)"/><path class="cls-15" d="M181.31,271.59c-1.84-.74-3.72-5.49-3.8-5.69l.3-.12c0,.05,1.92,4.82,3.63,5.51Z" transform="translate(-18.37 -17.95)"/><path class="cls-2" d="M264.4,358.54s14.77-.67,19.4-6.63c0,0,2,2.78-.17,6.63,0,0-7.67,5.55-17.14,5.95S264.4,358.54,264.4,358.54Z" transform="translate(-18.37 -17.95)"/><path class="cls-2" d="M229.37,316.35S231.5,302,240,295c0,0,1.87-1.13,2.42.18,0,0-6,4.63-10,21.45Z" transform="translate(-18.37 -17.95)"/><path class="cls-2" d="M246,316.29s6.58-17,14.43-20.25a1.6,1.6,0,0,1,2.41.53s-9,5.32-13.51,20.08Z" transform="translate(-18.37 -17.95)"/><path class="cls-9" d="M228.49,317.26c.61-1.12,1.42-1.63,3.06-1.12a2.18,2.18,0,0,1,1.41,2.91c-.54,1.15-1.84,2.2-3.35,1.27C228.53,319.64,227.76,318.6,228.49,317.26Z" transform="translate(-18.37 -17.95)"/><path class="cls-22" d="M230.72,320.39a1.82,1.82,0,0,1-1-.31,1.94,1.94,0,0,1-.93-2.69h0a2,2,0,0,1,2.65-1,1.92,1.92,0,0,1,1.19,1.06,1.79,1.79,0,0,1,0,1.5,2.49,2.49,0,0,1-1.46,1.38A1.47,1.47,0,0,1,230.72,320.39Zm-1.82-2.94a1.82,1.82,0,0,0,.89,2.53,1.61,1.61,0,0,0,1.36.23,2.41,2.41,0,0,0,1.39-1.32,1.69,1.69,0,0,0,0-1.41,1.79,1.79,0,0,0-1.11-1,1.85,1.85,0,0,0-2.52,1Z" transform="translate(-18.37 -17.95)"/><path class="cls-22" d="M229.35,317.52a.47.47,0,0,1,.64-.23.46.46,0,0,1,.3.61.5.5,0,0,1-.71.27A.47.47,0,0,1,229.35,317.52Z" transform="translate(-18.37 -17.95)"/><path class="cls-22" d="M231.17,318.37a.47.47,0,0,1,.65-.23.46.46,0,0,1,.29.61.48.48,0,0,1-.7.26C231.18,318.87,231,318.65,231.17,318.37Z" transform="translate(-18.37 -17.95)"/><path class="cls-9" d="M244.61,320.55c-.13-1.27.25-2.14,1.88-2.67a2.18,2.18,0,0,1,2.81,1.6c.22,1.25-.25,2.86-2,2.95C246,322.49,244.78,322.07,244.61,320.55Z" transform="translate(-18.37 -17.95)"/><path class="cls-22" d="M247.06,322.17a1.88,1.88,0,0,1-2.12-1.68h0a2.15,2.15,0,0,1,3.18-2.15,1.76,1.76,0,0,1,.86,1.23,2.47,2.47,0,0,1-.41,2,1.7,1.7,0,0,1-1.33.63Zm.06-4a2,2,0,0,0-.54.08,1.86,1.86,0,0,0-1.53,2.23h0a1.84,1.84,0,0,0,2.19,1.57,1.58,1.58,0,0,0,1.24-.59,2.37,2.37,0,0,0,.39-1.87,1.68,1.68,0,0,0-.81-1.16A1.85,1.85,0,0,0,247.12,318.17Z" transform="translate(-18.37 -17.95)"/><path class="cls-22" d="M245.47,320.28a.51.51,0,0,1,1-.22.49.49,0,0,1-.43.62C245.76,320.69,245.51,320.6,245.47,320.28Z" transform="translate(-18.37 -17.95)"/><path class="cls-22" d="M247.45,319.94c0-.27.05-.45.4-.56a.46.46,0,0,1,.59.33.49.49,0,0,1-.43.62C247.74,320.35,247.49,320.26,247.45,319.94Z" transform="translate(-18.37 -17.95)"/><path class="cls-9" d="M238.12,401.06c-5.64,0-12.11-.39-15.68-1.54q-2.3-.74-2.67-1.77c-1.56-4.36-.07-33.33,0-34.56V363l.19.09c.13.05,12.38,5.46,34.47-1.41l.16-.05,0,.16c.2,1.42,4.76,34.64,1,37.25-1.51,1.06-7.36,1.85-14.89,2ZM220,363.41c-.14,2.64-1.47,30.13,0,34.24.21.6,1.05,1.14,2.48,1.6,7.61,2.43,29.8,1.73,32.94-.46,1-.72,2-4.67.8-19.4-.67-8.17-1.74-16.17-1.9-17.41C233.75,368.35,221.68,364.06,220,363.41Z" transform="translate(-18.37 -17.95)"/><path class="cls-15" d="M203.87,315.68c-.22-.19-2.14-1.85-2.13-2.83a.59.59,0,0,1,.22-.48c1.62-1.33,6.55,1.49,6.76,1.61l-.17.29c-1.37-.79-5.18-2.63-6.38-1.65a.3.3,0,0,0-.11.24c0,.69,1.46,2.09,2,2.57Z" transform="translate(-18.37 -17.95)"/><path class="cls-9" d="M245.9,557.15s15.19-81.12,17.54-83.5,6-.26,4.71,4.23-18.94,77.63-19.68,79.27S245.48,559.42,245.9,557.15Z" transform="translate(-18.37 -17.95)"/><path class="cls-1" d="M304.88,477.75c.11-12.83-.45-68-18.39-72.77-20.32-5.44-46.36-15.32-54,2.54s18,72.88,18,72.88a8,8,0,0,0,6.61,5.43c5.19.55,69.13,2.46,69.23,0C326.37,484.26,313.92,480.37,304.88,477.75Z" transform="translate(-18.37 -17.95)"/><path class="cls-11" d="M338.19,365.57s16.14,25.11,50,10.35C404,369,394,411.59,355.51,410.43c-18.35-.54-38.37-31.17-38.37-31.17Z" transform="translate(-18.37 -17.95)"/><path class="cls-9" d="M367.73,561.22s-.19,6.44,4.06,8.48,16.75,4.37,11.82,8.25c-2.83,2.22-15.47,0-19.06-.2s-7.05,1.18-9.59-1.37c-2.79-2.8.86-15.81.86-15.81a14.4,14.4,0,0,0,5.81,1.87A11.44,11.44,0,0,0,367.73,561.22Z" transform="translate(-18.37 -17.95)"/><path class="cls-9" d="M403.33,558.08s-.19,6.43,4.06,8.48,16.75,4.37,11.82,8.24c-2.83,2.22-15.47,0-19.06-.2s-7,1.19-9.59-1.36c-2.79-2.81.86-15.81.86-15.81a14.38,14.38,0,0,0,5.8,1.86A11.41,11.41,0,0,0,403.33,558.08Z" transform="translate(-18.37 -17.95)"/><path class="cls-2" d="M411.52,550.56c-3.18-42.13-3.93-70.56-17.26-88.83-14.59-20-53.71-34.12-68.8-35-24.59-1.44-36.19,2.23-36.19,2.23-18.46,38.39,10.46,43.49,31.86,44.54l2.12.12c13,.81,36,4.1,44.7,17,6.9,10.19,11.69,24.5,13.71,61.41a13.09,13.09,0,0,0,13.42,12.38S412.67,565.71,411.52,550.56Z" transform="translate(-18.37 -17.95)"/><path class="cls-2" d="M376.61,552.73c.42-42.25,1.73-63.82-10.95-82.54-8.15-12-20.4-21.11-36.42-27-11.43-4.2-24.87-6.77-40-7.65-24.59-1.44-35.65-4.41-35.65-4.41-19.91,49.15,52.92,38.71,71.88,59.65,8.26,9.13,18.49,26.48,20.51,63.39a13.09,13.09,0,0,0,13.42,12.38S376.46,568.18,376.61,552.73Z" transform="translate(-18.37 -17.95)"/><path class="cls-9" d="M376.49,511.23c0-.25-1.26-25.31-5.46-34.07-5.32-11.08-20.74-22.64-36.68-27.5l.08-.27c16,4.88,31.51,16.51,36.85,27.65,4.23,8.8,5.48,33.92,5.49,34.18Z" transform="translate(-18.37 -17.95)"/><path class="cls-19" d="M271.08,353.1s10.47-17.89,34.59-12.4,34,30.13,35.68,89.3c0,0-22.33-.82-81,18.64-6.95,2.31-17.15.48-13.58-11.36C253.4,415.27,259.82,371.37,271.08,353.1Z" transform="translate(-18.37 -17.95)"/><path class="cls-19" d="M244.54,358.32,269.36,363s43.39,12.83,55.54,12.93,17.17-8.78,17.17-8.78a64.3,64.3,0,0,0-30.33-24.48,59.08,59.08,0,0,0-6.07-2,45,45,0,0,0-10.79-1.81C253.92,338.42,244.54,358.32,244.54,358.32Z" transform="translate(-18.37 -17.95)"/><path class="cls-9" d="M244.54,358.32c-.53,2,4.67,5.22,11.62,7.29s13,2.17,13.56.21-4.66-5.22-11.61-7.29S245.08,356.37,244.54,358.32Z" transform="translate(-18.37 -17.95)"/><path class="cls-11" d="M254.83,422.28c10.27,16.82,23.42,23.57,46.91,27.85l4.49-14.54c-17.11-3.12-25.87-13.42-32.75-24.69-9.79-16-8-35.57-6.56-44.21a2.21,2.21,0,0,0-.84-2.14c-2.19-1.68-7.86-5.09-18-5.29a2,2,0,0,0-1.93,1.46C241.93,376.68,241.9,401.11,254.83,422.28Z" transform="translate(-18.37 -17.95)"/><g class="cls-14"><path class="cls-15" d="M260,418.87a3.47,3.47,0,0,1-1.27-.26,5.62,5.62,0,0,1-2.89-3.06h0c-1.05-2.49-.4-5.17,1.46-6a3.1,3.1,0,0,1,2.39,0,5.69,5.69,0,0,1,2.89,3.06c1.05,2.5.4,5.17-1.46,6A2.84,2.84,0,0,1,260,418.87Zm-1.58-8.69a2,2,0,0,0-.8.16c-1.45.62-1.91,2.81-1,4.9h0a4.8,4.8,0,0,0,2.44,2.61,2.23,2.23,0,0,0,1.77,0c1.45-.61,1.91-2.81,1-4.89a4.8,4.8,0,0,0-2.45-2.62A2.62,2.62,0,0,0,258.41,410.18Z" transform="translate(-18.37 -17.95)"/></g><path class="cls-9" d="M307.25,332.31l-.1-.24s2.82-1.08,3.38-3.15a3.87,3.87,0,0,0-1-3.46l-1.28-1.57c-2.7-3.29-3.71-4.52-3.47-7.52l.26,0c-.23,2.9.69,4,3.41,7.33l1.28,1.57a4.1,4.1,0,0,1,1.1,3.7C310.19,331.19,307.37,332.27,307.25,332.31Z" transform="translate(-18.37 -17.95)"/><path class="cls-9" d="M304.86,316.38a13.45,13.45,0,0,0,3.18,9c3.61,4.35.79,8.23-3.51,6.93s-5.18,4.07-10.74,1.87S304.86,316.38,304.86,316.38Z" transform="translate(-18.37 -17.95)"/><path class="cls-11" d="M283.41,339.33A6.18,6.18,0,0,0,288,335l2-6.8.57-2,3.35-11.7.64,11.6.39,7,.11,2c.08,1.62,1.51,4,3.14,4.06,0,0,2.45,2.87-.91,4.43-4,1.84-11.12-.68-14-4.21Z" transform="translate(-18.37 -17.95)"/><path class="cls-9" d="M290,328.05a1.62,1.62,0,0,0,0,.19c.74,3.67,4.93,4.89,4.93,4.89l0,0-.39-7c-1.26-.29-3.05-.53-4,.1A1.63,1.63,0,0,0,290,328.05Z" transform="translate(-18.37 -17.95)"/><ellipse class="cls-11" cx="294.68" cy="316.33" rx="10.88" ry="13.42" transform="translate(-56.12 21.98) rotate(-7.29)"/><path class="cls-11" d="M285.59,319.53c1.37,1,3.09.91,3.85-.22a3,3,0,0,0-1.12-3.88c-1.37-1-3.09-.92-3.85.22S284.21,318.52,285.59,319.53Z" transform="translate(-18.37 -17.95)"/><path class="cls-9" d="M295.74,316.32a.25.25,0,0,0,0-.47,2.68,2.68,0,0,0-3.09,1.12.24.24,0,0,0,.05.34.28.28,0,0,0,.35-.05,4.23,4.23,0,0,1,2.56-.93A.22.22,0,0,0,295.74,316.32Z" transform="translate(-18.37 -17.95)"/><path class="cls-9" d="M294.14,319.27c.06.58.45,1,.87,1s.73-.55.68-1.14-.45-1-.88-1S294.08,318.68,294.14,319.27Z" transform="translate(-18.37 -17.95)"/><path class="cls-9" d="M304.66,316.48a.26.26,0,0,0,.2-.1.25.25,0,0,0-.05-.35,2.69,2.69,0,0,0-3.28-.14.25.25,0,0,0-.08.34.26.26,0,0,0,.34.08,4.22,4.22,0,0,1,2.72.12A.3.3,0,0,0,304.66,316.48Z" transform="translate(-18.37 -17.95)"/><path class="cls-9" d="M302.06,318.59a1,1,0,0,0,.44,1.25c.41.13.88-.23,1.05-.79s0-1.13-.43-1.25S302.24,318,302.06,318.59Z" transform="translate(-18.37 -17.95)"/><path class="cls-9" d="M297.87,304.84s.35,4.65-5.31,6.17-9.34,4.48-8,8.53,11.71,11.49,5.3,15.71-5.75-2.2-13,.19-9.82-7.33-5.46-13.73.36-21.32,19.58-23.09S305.13,313,305.13,313,298.51,309.94,297.87,304.84Z" transform="translate(-18.37 -17.95)"/><path class="cls-12" d="M288,336.35l-.08-.13a3.87,3.87,0,0,0,2.23-2.8c.43-3.12-3.75-7.31-7.44-11-1-1-1.9-1.91-2.73-2.8a7.41,7.41,0,0,1-1.54-8.45c1.51-3,4.9-4.67,8.86-4.27,7.31.74,9.74-3.92,9.76-4l.14.07s-2.49,4.8-9.92,4.05c-3.88-.4-7.22,1.21-8.7,4.18-1.35,2.71-.78,5.8,1.52,8.28.82.88,1.75,1.81,2.72,2.79,3.72,3.72,7.93,7.94,7.48,11.15A4,4,0,0,1,288,336.35Z" transform="translate(-18.37 -17.95)"/><path class="cls-13" d="M300.59,320.68l.15-.15a11.53,11.53,0,0,1-.32-3.36A1.92,1.92,0,0,0,300,317,11.41,11.41,0,0,0,300.59,320.68Zm-.51-1a11.81,11.81,0,0,0,.28,1.24,6.23,6.23,0,0,0,2.95,4.1h0a3.14,3.14,0,0,0,2.81-.1,4.13,4.13,0,0,0,1-.74,5.83,5.83,0,0,0,.74-.87,9.33,9.33,0,0,0,1.44-3.66c.75-4.07-.68-8.31-3.19-9.46a4.84,4.84,0,0,0-.49-.18,3,3,0,0,0-1.64,0,3.88,3.88,0,0,0-.71.28,3.61,3.61,0,0,0-.76.51l-.39.36a8.57,8.57,0,0,0-2.05,4.39c0,.15-.05.3-.07.45v0h0c0,.3-.07.61-.09.92A12.23,12.23,0,0,0,300.08,319.69Zm8.93-1.13a7.14,7.14,0,0,1-.14,1,8.77,8.77,0,0,1-1.28,3.36,5.33,5.33,0,0,1-.69.85,4.12,4.12,0,0,1-1,.73,2.72,2.72,0,0,1-2.33.1s-.05,0-.08,0a5.86,5.86,0,0,1-2.78-4.06,11.53,11.53,0,0,1-.32-3.36q0-.48.09-1l.09-.55a7.94,7.94,0,0,1,2-4.2,4,4,0,0,1,1-.73,2.34,2.34,0,0,1,.68-.25,1.8,1.8,0,0,1,.38-.07h0a2.61,2.61,0,0,1,1,.11l.34.13c2.11,1,3.38,4.37,3.06,7.88A0,0,0,0,1,309,318.56Z" transform="translate(-18.37 -17.95)"/><g class="cls-14"><path class="cls-12" d="M287.31,314.62c-.38,3.91,1.53,7.82,4.26,8.72s5.25-1.53,5.63-5.44-1.52-7.82-4.25-8.72S287.69,310.71,287.31,314.62Z" transform="translate(-18.37 -17.95)"/></g><g class="cls-14"><path class="cls-12" d="M300.06,315.9c-.38,3.93,1.31,7.92,3.77,8.92s4.76-1.38,5.14-5.31-1.31-7.93-3.77-8.92S300.44,312,300.06,315.9Z" transform="translate(-18.37 -17.95)"/></g><path class="cls-13" d="M287.09,316.93a10.5,10.5,0,0,0,1.07,3.23,6.57,6.57,0,0,0,3.25,3.14,2.15,2.15,0,0,0,.27.1,4,4,0,0,0,1.77.19,4.28,4.28,0,0,0,1-.26,4.56,4.56,0,0,0,.76-.39A7.2,7.2,0,0,0,298,317.5c0-.22,0-.45.05-.67s0-.62,0-.93a9.82,9.82,0,0,0-2.51-6.3,5.43,5.43,0,0,0-2.21-1.44,4,4,0,0,0-3.5.48,6.84,6.84,0,0,0-2.73,4.73q-.06.35-.09.69c0,.25,0,.5-.05.74A11.5,11.5,0,0,0,287.09,316.93Zm9,4.47a4.88,4.88,0,0,1-1.19,1.13,4.41,4.41,0,0,1-.52.28,3.58,3.58,0,0,1-2.56.14l-.28-.11a6,6,0,0,1-2.91-2.83,10.26,10.26,0,0,1-1.2-5.08,7.34,7.34,0,0,1,.05-.81,7.79,7.79,0,0,1,.18-1.11,5.33,5.33,0,0,1,.2-.74v0a7.17,7.17,0,0,1,.48-1.17,5.27,5.27,0,0,1,1.75-2,3.45,3.45,0,0,1,1.53-.57,3.5,3.5,0,0,1,1.56.15,4.78,4.78,0,0,1,2,1.26,9.39,9.39,0,0,1,2.43,6.11c0,.31,0,.62,0,.93s0,.35,0,.53a7.92,7.92,0,0,1-1.41,3.9Z" transform="translate(-18.37 -17.95)"/><path class="cls-13" d="M300.75,317.26a.48.48,0,0,1-.3-.07h0a4,4,0,0,0-3.29-.16.46.46,0,0,1-.57-.29.44.44,0,0,1,.29-.56,4.87,4.87,0,0,1,4.06.24.45.45,0,0,1,.13.63A.44.44,0,0,1,300.75,317.26Z" transform="translate(-18.37 -17.95)"/><path class="cls-9" d="M297.56,326a6.51,6.51,0,0,1-2.73-.67.36.36,0,1,1,.33-.63s2.53,1.3,4.27,0a.35.35,0,0,1,.5.07.36.36,0,0,1-.08.5A3.74,3.74,0,0,1,297.56,326Z" transform="translate(-18.37 -17.95)"/><path class="cls-11" d="M306.23,435.59s15.52-.88,19.52,2.45,6.61,10.6,3.69,9.07a34.56,34.56,0,0,1-6.11-4.53s6.51,6.71,4.28,7.56-7.84-5.05-7.84-5.05,7.12,8.61,4.75,8.72-7.72-6.46-7.72-6.46,6.3,8.27,3.55,8.34-5.16-6.87-7.4-6-8.61,5.71-11.71-.2Z" transform="translate(-18.37 -17.95)"/><path class="cls-15" d="M323.17,442.69s-1.52-2.11-3-2.06v-.39h.06c1.69,0,3.24,2.14,3.3,2.23Z" transform="translate(-18.37 -17.95)"/><path class="cls-15" d="M319.61,445.2a6.44,6.44,0,0,0-3.69-2.48l.07-.38a6.74,6.74,0,0,1,3.94,2.64Z" transform="translate(-18.37 -17.95)"/><path class="cls-15" d="M316.64,447.46s-1.8-2.51-3.41-2.33l0-.38c1.82-.19,3.69,2.38,3.76,2.49Z" transform="translate(-18.37 -17.95)"/><path class="cls-26" d="M398.88,372.61s-39-28.43-41.36-27.05-.19,3.81,3.51,7.35,32.07,26.65,32.07,26.65Z" transform="translate(-18.37 -17.95)"/><polygon class="cls-7" points="386.88 358.65 380.51 354.65 374.72 361.61 380.46 366.38 386.88 358.65"/><path class="cls-17" d="M405.25,376.61s9.27.14,11.67,5.8S418.27,398,418.27,398s-6.29-5.53-10.35-4.06-9.09-9.57-9.09-9.57Z" transform="translate(-18.37 -17.95)"/><path class="cls-1" d="M417.69,384.8a2.3,2.3,0,0,0-3.32,1.35c-.91,2.55-3.52,1-5.23,2.74s-.31,4.8-.31,4.8,7.74,3,9.44,4.27S417.69,384.8,417.69,384.8Z" transform="translate(-18.37 -17.95)"/><path class="cls-10" d="M463,483.46H391.79a4.55,4.55,0,0,1-4.53-4.54h0a4.55,4.55,0,0,1,4.53-4.53H463a4.55,4.55,0,0,1,4.53,4.53h0A4.55,4.55,0,0,1,463,483.46Z" transform="translate(-18.37 -17.95)"/><path class="cls-10" d="M390.27,551.8h37.55a5.93,5.93,0,0,1,5.93,5.93v6.37a0,0,0,0,1,0,0h-49.4a0,0,0,0,1,0,0v-6.37A5.93,5.93,0,0,1,390.27,551.8Z"/><rect class="cls-10" x="406.16" y="464.26" width="5.76" height="92.24"/><path class="cls-11" d="M397.6,369.29s-3,10.37,1.67,11.8,11.07.11,11.45-2.28.5-6.65-2.05-7S398.69,366.42,397.6,369.29Z" transform="translate(-18.37 -17.95)"/><path class="cls-1" d="M484.37,424a58.88,58.88,0,0,1-3.58,20.9c-8.6,22.9-31.51,33.73-54.81,33.73-25.26,0-51-17.53-57.84-41.09a43.8,43.8,0,0,1-1.79-12.35c0-29.51,30.12-53.43,59.63-53.43S484.37,394.5,484.37,424Z" transform="translate(-18.37 -17.95)"/><path class="cls-1" d="M405.34,338.74s43.17-1.28,44.21,0,2.62,3.54-8.37,4.12c-7.36.39-7.37,25.76,7.66,34s17.27,13,17.27,13l-76.65-3.74a65.85,65.85,0,0,1,14.27-10.07c9-4.6,11.94-8.86,12.32-17.29.46-10.34.76-17-4.61-16.38C404.27,343.33,400.56,338.87,405.34,338.74Z" transform="translate(-18.37 -17.95)"/><path class="cls-28" d="M396.57,469.15s-6.06,6.45-4.2,8,45,8.36,68.6,0c0,0,3.67-.59,2.27-3.65a34,34,0,0,0-3.66-5.93Z" transform="translate(-18.37 -17.95)"/><path class="cls-29" d="M428.25,410.31s-2.41-.52-3.23.92-.79,4.58,1.62,4.32S430.61,411.49,428.25,410.31Z" transform="translate(-18.37 -17.95)"/><path class="cls-29" d="M437.14,409.9s-2.42-.53-3.24.91-.79,4.58,1.62,4.32S439.49,411.07,437.14,409.9Z" transform="translate(-18.37 -17.95)"/><path class="cls-29" d="M446,408.12s-2.42-.52-3.24.92-.79,4.58,1.62,4.32S448.39,409.3,446,408.12Z" transform="translate(-18.37 -17.95)"/><path class="cls-29" d="M453.36,406.34s-2.41-.52-3.23.92-.79,4.58,1.62,4.32S455.72,407.52,453.36,406.34Z" transform="translate(-18.37 -17.95)"/><path class="cls-29" d="M461.61,403s-2.42-.53-3.24.91-.78,4.58,1.62,4.32S464,404.13,461.61,403Z" transform="translate(-18.37 -17.95)"/><path class="cls-29" d="M469.83,398.71s-2.41-.52-3.24.92-.78,4.58,1.62,4.32S472.19,399.89,469.83,398.71Z" transform="translate(-18.37 -17.95)"/><path class="cls-29" d="M419,409.9s-2.41-.53-3.23.91-.79,4.58,1.62,4.32S421.31,411.07,419,409.9Z" transform="translate(-18.37 -17.95)"/><path class="cls-29" d="M409.56,408.12s-2.42-.52-3.24.92-.78,4.58,1.62,4.32S411.92,409.3,409.56,408.12Z" transform="translate(-18.37 -17.95)"/><path class="cls-29" d="M400.54,406.34s-2.41-.52-3.23.92-.79,4.58,1.62,4.32S402.9,407.52,400.54,406.34Z" transform="translate(-18.37 -17.95)"/><path class="cls-29" d="M400.54,426.48s-2.41-.52-3.23.92-.79,4.58,1.62,4.32S402.9,427.66,400.54,426.48Z" transform="translate(-18.37 -17.95)"/><path class="cls-29" d="M385,420.9s-2.42-.52-3.24.92-.78,4.58,1.62,4.32S387.4,422.08,385,420.9Z" transform="translate(-18.37 -17.95)"/><path class="cls-29" d="M417.33,429.12s-2.42-.52-3.24.92-.79,4.58,1.62,4.32S419.68,430.3,417.33,429.12Z" transform="translate(-18.37 -17.95)"/><path class="cls-29" d="M432.25,429.12s-2.41-.52-3.23.92-.79,4.58,1.61,4.32S434.61,430.3,432.25,429.12Z" transform="translate(-18.37 -17.95)"/><path class="cls-29" d="M449,426.48s-2.42-.52-3.24.92-.79,4.58,1.62,4.32S451.36,427.66,449,426.48Z" transform="translate(-18.37 -17.95)"/><path class="cls-29" d="M465.31,420.67s-2.42-.52-3.24.92-.79,4.58,1.62,4.32S467.66,421.85,465.31,420.67Z" transform="translate(-18.37 -17.95)"/><path class="cls-29" d="M476.31,415.64s-2-.44-2.72.77-.66,3.85,1.36,3.63S478.29,416.63,476.31,415.64Z" transform="translate(-18.37 -17.95)"/><path class="cls-29" d="M372.29,414.44s-1.93-.42-2.58.73-.63,3.66,1.29,3.45S374.17,415.38,372.29,414.44Z" transform="translate(-18.37 -17.95)"/><path class="cls-29" d="M391.44,403.67s-2.42-.52-3.24.92-.78,4.58,1.62,4.32S393.8,404.85,391.44,403.67Z" transform="translate(-18.37 -17.95)"/><path class="cls-29" d="M383.51,400.28s-2.41-.52-3.23.92-.79,4.58,1.62,4.32S385.87,401.46,383.51,400.28Z" transform="translate(-18.37 -17.95)"/><path class="cls-29" d="M423.22,420.84c-32,0-51.24-16.9-51.43-17.07l.35-.39c.19.18,19.84,17.38,52.39,16.92s53.47-18.81,53.67-19l.35.39c-.21.19-21.25,18.67-54,19.14Z" transform="translate(-18.37 -17.95)"/><path class="cls-29" d="M423,427.72l-.45,0a4.45,4.45,0,0,1-3.46-2.21,4,4,0,0,0-3.08-2c-1.77-.19-2.45.78-3.24,1.9a4.26,4.26,0,0,1-3.26,2.29c-3.49.27-4.77-2.55-5.5-5a2.41,2.41,0,0,0-1.93-1.39A6.76,6.76,0,0,0,395.9,423a3.11,3.11,0,0,1-3.85.65c-1.77-.85-3.08-2.87-2.85-4.41a3.46,3.46,0,0,0-1.51-3.16,4.27,4.27,0,0,0-4.51-.3c-3.33,1.59-5.46,1.94-6.73,1.08-.88-.6-1.27-1.79-1.15-3.53a3.53,3.53,0,0,0-1-2.92c-1.63-1.57-4.78-1.25-4.82-1.25l-.05-.52c.14,0,3.42-.35,5.23,1.39a4,4,0,0,1,1.13,3.34c-.1,1.54.21,2.57.93,3.06,1.08.73,3.1.36,6.2-1.12a4.77,4.77,0,0,1,5.05.35,4,4,0,0,1,1.72,3.66c-.2,1.31,1,3.11,2.56,3.86a2.61,2.61,0,0,0,3.23-.54,7.33,7.33,0,0,1,6.7-1.91,2.86,2.86,0,0,1,2.31,1.75c.72,2.44,1.87,4.89,5,4.66,1.5-.12,2.16-1.07,2.87-2.07s1.65-2.34,3.73-2.12a4.47,4.47,0,0,1,3.44,2.21,4,4,0,0,0,3.09,2c1.74.18,2.75-.82,3.82-1.87s2.25-2.19,4.2-2.16a5.3,5.3,0,0,1,3.64,1.7,4.4,4.4,0,0,0,4.66,1.29,7.74,7.74,0,0,0,4.2-2.87c1.13-1.28,2.2-2.48,4.51-2.39a10.57,10.57,0,0,1,4.17,1.22c1.73.81,3.1,1.44,5.19.05s2.23-2.21,2.51-3.23a6,6,0,0,1,1.63-2.93c1.57-1.62,3.32-.72,4.86.07,1.14.58,2.12,1.08,2.87.59s1-1.6,1.23-2.74c.28-1.5.61-3.2,2.39-3.93s2.72.22,3.56.95,1.36,1.1,2.16.47c1.1-.87,1.2-2.15,1.3-3.4a4.66,4.66,0,0,1,.69-2.62l.41.33A4.35,4.35,0,0,0,480,408c-.1,1.3-.21,2.76-1.49,3.77s-2.05.17-2.83-.49-1.65-1.41-3-.85-1.8,2.1-2.08,3.54c-.23,1.2-.47,2.44-1.46,3.08s-2.21,0-3.38-.57c-1.52-.77-2.95-1.5-4.25-.17a5.47,5.47,0,0,0-1.51,2.71c-.29,1.08-.58,2.1-2.72,3.53-2.34,1.55-4,.79-5.7,0a9.8,9.8,0,0,0-4-1.16c-2.07-.09-3,1-4.09,2.21a8.37,8.37,0,0,1-4.47,3,4.88,4.88,0,0,1-5.13-1.41,4.86,4.86,0,0,0-3.32-1.56c-1.74,0-2.74.95-3.81,2S424.72,427.72,423,427.72Z" transform="translate(-18.37 -17.95)"/><path class="cls-29" d="M425.6,376.62a35.88,35.88,0,0,1-16-3.75l.77-1.36c.16.08,15.65,8.58,31.53-1l.81,1.35A32.68,32.68,0,0,1,425.6,376.62Z" transform="translate(-18.37 -17.95)"/><path class="cls-29" d="M426.69,380a39.81,39.81,0,0,1-19.83-5.48l.28-.44c.19.13,18.81,12.08,37.89,0l.28.44A34.28,34.28,0,0,1,426.69,380Z" transform="translate(-18.37 -17.95)"/><path class="cls-28" d="M480.79,444.92c-8.6,22.9-31.51,33.73-54.81,33.73-25.26,0-51-17.53-57.84-41.09,3.29-.94,9.86-1.43,16.19,6.25,8.94,10.83,15.23-.73,24.78-1.23s5.41,11.28,14.68,11.28,3.08-5.95,12.07-6.51,3.23,9.39,11.87,6.51,4.7-15.56,15-16.81C472,435.93,472,451.61,480.79,444.92Z" transform="translate(-18.37 -17.95)"/><path class="cls-30" d="M432.44,343.11c-5.79,0-12.42-.14-18.95-.33-2,0-3.56-.1-4.45-.11-3.35,0-4.7-.77-5.25-1.37a1.35,1.35,0,0,1-.4-.93l.52,0a.91.91,0,0,0,.29.57c.4.42,1.57,1.13,4.85,1.17.89,0,2.46.05,4.46.11,10.09.28,33.73.95,36-1.05l.34.39C448.57,342.75,441.54,343.11,432.44,343.11Z" transform="translate(-18.37 -17.95)"/></g></svg>