<svg id="_1" data-name="1" xmlns="http://www.w3.org/2000/svg" viewBox="0 0 777 779"><defs><style>.cls-1{fill:#561c17;}.cls-2{fill:#00784d;}.cls-3{fill:#ffa076;}.cls-4{fill:#ffc655;}.cls-5{fill:#163a24;}.cls-6{opacity:0.3;}.cls-7{fill:#f47c53;}.cls-8{fill:#fff;}.cls-9{fill:#764678;}.cls-10{fill:#4eaf46;}.cls-11{fill:#7ac44c;}.cls-12{fill:#83bf47;}.cls-13{fill:#8a4d27;}.cls-14{fill:#00613e;}.cls-15{fill:#f4f4f4;}.cls-16{fill:#d9644d;}</style></defs><path class="cls-1" d="M314,744.2s21-112,24.22-115.25,8.26-.36,6.49,5.84S318.6,741.94,317.58,744.2,313.45,747.33,314,744.2Z"/><path class="cls-2" d="M395.43,634.61c.16-17.7-.62-93.8-25.38-100.43-28-7.51-64-21.15-74.54,3.5s24.81,100.59,24.81,100.59,2,6.74,9.13,7.5,95.42,3.4,95.56,0C425.09,643.6,407.91,638.22,395.43,634.61Z"/><path class="cls-3" d="M441.41,479.78s22.28,34.66,69,14.29c21.79-9.5,8,49.22-45.13,47.63-25.33-.75-53-43-53-43Z"/><path class="cls-1" d="M482.19,749.82s-.26,8.88,5.6,11.71,23.11,6,16.31,11.37c-3.9,3.07-21.35,0-26.31-.27s-9.73,1.64-13.23-1.88c-3.86-3.88,1.19-21.82,1.19-21.82s4.16,2.46,8,2.57C479.31,751.66,482.19,749.82,482.19,749.82Z"/><path class="cls-1" d="M531.32,745.48s-.26,8.88,5.6,11.71,23.11,6,16.31,11.38c-3.9,3.06-21.35,0-26.31-.28s-9.73,1.64-13.23-1.88c-3.86-3.88,1.19-21.82,1.19-21.82s4.16,2.46,8,2.57C528.44,747.32,531.32,745.48,531.32,745.48Z"/><path class="cls-4" d="M542.63,735.1c-4.39-58.15-5.43-97.38-23.83-122.59-20.14-27.59-74.13-47.11-94.95-48.32-34-2-50,3.06-50,3.06-25.49,53,14.43,60,44,61.48l2.94.16c17.87,1.13,49.66,5.67,61.69,23.43,9.53,14.07,16.14,33.82,18.92,84.76a18.06,18.06,0,0,0,18.52,17.08S544.2,756,542.63,735.1Z"/><path class="cls-4" d="M494.44,738.1c.58-58.32,2.39-88.09-15.12-113.93-11.24-16.6-28.15-29.13-50.26-37.25-15.77-5.79-34.33-9.34-55.15-10.56-34-2-49.21-6.08-49.21-6.08-27.47,67.84,73,53.43,99.2,82.34,11.41,12.59,25.53,36.54,28.32,87.48a18.06,18.06,0,0,0,18.52,17.08S494.23,759.42,494.44,738.1Z"/><path class="cls-1" d="M494.27,680.82c0-.34-1.74-34.94-7.54-47-7.33-15.29-28.62-31.25-50.62-38l.12-.37c22.09,6.73,43.48,22.78,50.85,38.16,5.83,12.15,7.56,46.83,7.58,47.17Z"/><path class="cls-5" d="M348.79,462.57s14.44-24.69,47.74-17.11S443.39,487,445.78,568.71c0,0-30.83-1.13-111.82,25.73-9.59,3.18-23.66.66-18.74-15.68C324.38,548.38,333.25,487.79,348.79,462.57Z"/><path class="cls-5" d="M312.16,469.78l34.25,6.44s59.89,17.71,76.65,17.85S446.77,482,446.77,482s-13.52-23-41.86-33.79a82.17,82.17,0,0,0-8.38-2.7,61.7,61.7,0,0,0-14.89-2.5C325.1,442.32,312.16,469.78,312.16,469.78Z"/><path class="cls-1" d="M312.16,469.78c-.74,2.7,6.44,7.2,16,10.06s18,3,18.72.29-6.44-7.21-16-10.07S312.9,467.08,312.16,469.78Z"/><path class="cls-3" d="M326.36,558.06c14.17,23.2,32.32,32.52,64.75,38.43l6.19-20.06c-23.61-4.31-35.7-18.53-45.2-34.09-13.51-22.13-11.08-49.09-9.06-61a3,3,0,0,0-1.16-3c-3-2.32-10.84-7-24.82-7.29a2.7,2.7,0,0,0-2.66,2C308.55,495.11,308.51,528.83,326.36,558.06Z"/><g class="cls-6"><path class="cls-7" d="M333.48,553.35a4.73,4.73,0,0,1-1.76-.36,7.76,7.76,0,0,1-4-4.22h0c-1.46-3.45-.56-7.14,2-8.23a4.25,4.25,0,0,1,3.3,0,7.85,7.85,0,0,1,4,4.22c1.45,3.45.55,7.14-2,8.23A3.91,3.91,0,0,1,333.48,553.35Zm-2.19-12a2.74,2.74,0,0,0-1.1.22c-2,.85-2.63,3.89-1.42,6.76h0a6.61,6.61,0,0,0,3.38,3.61,3.14,3.14,0,0,0,2.44.06c2-.85,2.62-3.88,1.41-6.76a6.63,6.63,0,0,0-3.37-3.61A3.5,3.5,0,0,0,331.29,541.35Z"/></g><path class="cls-1" d="M398.7,433.88l-.13-.34s3.89-1.49,4.66-4.34c.4-1.48-.08-3.09-1.45-4.78-.64-.8-1.23-1.51-1.77-2.17-3.72-4.54-5.11-6.23-4.78-10.38l.36,0c-.32,4,1,5.54,4.7,10.12l1.78,2.17c1.44,1.79,1.95,3.51,1.51,5.1C402.76,432.33,398.87,433.82,398.7,433.88Z"/><path class="cls-1" d="M395.41,411.89a18.54,18.54,0,0,0,4.39,12.43c5,6,1.08,11.36-4.84,9.57s-7.15,5.62-14.83,2.59S395.41,411.89,395.41,411.89Z"/><path class="cls-3" d="M365.8,443.57a8.56,8.56,0,0,0,6.4-5.92l2.69-9.4.79-2.74,4.63-16.14.89,16,.53,9.6.15,2.71c.12,2.24,2.09,5.5,4.33,5.61,0,0,3.39,3.95-1.25,6.11-5.45,2.54-15.35-.93-19.32-5.81Z"/><path class="cls-1" d="M374.84,428c0,.09,0,.18.05.26,1,5.07,6.81,6.76,6.81,6.76l0,0-.53-9.6c-1.75-.4-4.21-.72-5.52.14A2.25,2.25,0,0,0,374.84,428Z"/><ellipse class="cls-3" cx="381.35" cy="411.81" rx="15.02" ry="18.53" transform="translate(-49.15 51.7) rotate(-7.29)"/><path class="cls-3" d="M368.81,416.23c1.89,1.4,4.27,1.26,5.31-.3s.36-4-1.54-5.36-4.27-1.26-5.31.31S366.91,414.84,368.81,416.23Z"/><path class="cls-1" d="M382.82,411.81a.38.38,0,0,0,.2-.23.34.34,0,0,0-.25-.42,3.69,3.69,0,0,0-4.26,1.54.34.34,0,0,0,.08.48.36.36,0,0,0,.47-.08,5.91,5.91,0,0,1,3.54-1.28A.41.41,0,0,0,382.82,411.81Z"/><path class="cls-1" d="M380.61,415.87c.08.81.62,1.43,1.21,1.37s1-.76.93-1.57-.62-1.42-1.21-1.37S380.54,415.06,380.61,415.87Z"/><path class="cls-1" d="M395.14,412a.34.34,0,0,0,.2-.62,3.7,3.7,0,0,0-4.52-.2.34.34,0,0,0-.12.47.38.38,0,0,0,.47.12,5.81,5.81,0,0,1,3.76.16A.4.4,0,0,0,395.14,412Z"/><path class="cls-1" d="M391.55,415a1.32,1.32,0,0,0,.59,1.72c.57.17,1.22-.32,1.46-1.1a1.31,1.31,0,0,0-.6-1.72C392.44,413.67,391.79,414.17,391.55,415Z"/><path class="cls-1" d="M385.76,396s.49,6.42-7.33,8.52-12.89,6.18-11.09,11.78,16.16,15.85,7.32,21.67-7.93-3-17.91.27-13.56-10.12-7.53-18.95.49-29.43,27-31.88,19.54,19.86,19.54,19.86S386.64,403,385.76,396Z"/><path class="cls-8" d="M372.1,439.46l-.11-.19c1.85-1,2.85-2.3,3.07-3.86.6-4.32-5.17-10.1-10.26-15.2-1.35-1.35-2.63-2.63-3.77-3.86-3.19-3.43-4-7.9-2.13-11.67,2.08-4.18,6.77-6.44,12.23-5.89,10.09,1,13.44-5.41,13.48-5.47l.19.1c0,.06-3.44,6.63-13.69,5.59-5.37-.54-10,1.67-12,5.77-1.86,3.74-1.08,8,2.09,11.42,1.14,1.23,2.41,2.51,3.76,3.86,5.13,5.14,10.94,11,10.32,15.38A5.59,5.59,0,0,1,372.1,439.46Z"/><path class="cls-9" d="M389.52,417.83l.2-.22a15.89,15.89,0,0,1-.44-4.63,3.14,3.14,0,0,0-.57-.25A16.08,16.08,0,0,0,389.52,417.83Zm-.7-1.37a13.29,13.29,0,0,0,.38,1.71c.76,2.66,2.2,4.79,4.07,5.65l0,0a4.33,4.33,0,0,0,2.33.36,4.79,4.79,0,0,0,1.56-.49,6.27,6.27,0,0,0,1.39-1,7.67,7.67,0,0,0,1-1.21,12.68,12.68,0,0,0,2-5.05c1-5.62-.95-11.47-4.41-13.05a4.55,4.55,0,0,0-.67-.25,4.13,4.13,0,0,0-2.26,0,5.09,5.09,0,0,0-1,.38,6,6,0,0,0-1.06.71,6.26,6.26,0,0,0-.53.51,11.68,11.68,0,0,0-2.83,6.05c0,.21-.08.41-.1.61,0,0,0,0,0,.06h0c-.06.42-.1.85-.13,1.27A16.67,16.67,0,0,0,388.82,416.46Zm12.32-1.56c0,.47-.11.94-.19,1.41a12.41,12.41,0,0,1-1.77,4.63,7.45,7.45,0,0,1-.95,1.17,5.43,5.43,0,0,1-1.34,1,3.72,3.72,0,0,1-3.22.14.25.25,0,0,1-.11,0c-1.81-.82-3.18-3-3.84-5.61a15.89,15.89,0,0,1-.44-4.63,11.79,11.79,0,0,1,.13-1.32c0-.26.07-.51.12-.76a11,11,0,0,1,2.71-5.8,5.78,5.78,0,0,1,1.36-1,3.53,3.53,0,0,1,.95-.35,2.27,2.27,0,0,1,.52-.09h0a3.62,3.62,0,0,1,1.38.15l.47.18c2.91,1.33,4.66,6,4.21,10.88C401.15,414.88,401.15,414.88,401.14,414.9Z"/><g class="cls-6"><path class="cls-8" d="M371.19,409.46c-.52,5.4,2.11,10.79,5.88,12s7.24-2.12,7.77-7.52-2.11-10.79-5.88-12S371.71,404.06,371.19,409.46Z"/></g><g class="cls-6"><path class="cls-8" d="M388.78,411.22c-.52,5.43,1.81,10.94,5.2,12.32s6.57-1.91,7.09-7.34-1.8-10.93-5.19-12.31S389.31,405.8,388.78,411.22Z"/></g><path class="cls-9" d="M370.88,412.65a14.82,14.82,0,0,0,1.48,4.46,9.05,9.05,0,0,0,4.48,4.33,2.79,2.79,0,0,0,.37.14,5.31,5.31,0,0,0,2.45.25,4.78,4.78,0,0,0,1.32-.35,6.15,6.15,0,0,0,1-.54c2.15-1.41,3.57-4.14,3.91-7.5,0-.31.06-.62.06-.93s0-.86,0-1.28a13.65,13.65,0,0,0-3.46-8.7,7.54,7.54,0,0,0-3.05-2,5.55,5.55,0,0,0-4.84.66,9.47,9.47,0,0,0-3.76,6.54c-.06.31-.1.63-.13.95s-.06.68-.07,1A15.86,15.86,0,0,0,370.88,412.65Zm12.42,6.17a6.71,6.71,0,0,1-1.64,1.56,5.49,5.49,0,0,1-.71.39,4.94,4.94,0,0,1-3.53.18,3.54,3.54,0,0,1-.39-.14,8.36,8.36,0,0,1-4-3.91,14.1,14.1,0,0,1-1.65-7c0-.37,0-.75.06-1.12a15,15,0,0,1,.25-1.54c.08-.35.17-.69.28-1v0a8.9,8.9,0,0,1,.66-1.61,7.31,7.31,0,0,1,2.41-2.82,4.93,4.93,0,0,1,4.26-.59,6.91,6.91,0,0,1,2.72,1.75,12.92,12.92,0,0,1,3.34,8.43,10.93,10.93,0,0,1,0,1.28,6.13,6.13,0,0,1-.05.74,10.93,10.93,0,0,1-1.93,5.38Z"/><path class="cls-9" d="M389.74,413.1a.55.55,0,0,1-.41-.1h0a5.7,5.7,0,0,0-4.54-.21.64.64,0,0,1-.79-.4.61.61,0,0,1,.39-.78,6.67,6.67,0,0,1,5.6.34.62.62,0,0,1,.19.86A.6.6,0,0,1,389.74,413.1Z"/><path class="cls-1" d="M385.33,425.14a8.83,8.83,0,0,1-3.76-.93.49.49,0,1,1,.46-.86s3.49,1.79,5.88,0a.49.49,0,1,1,.59.78A5.2,5.2,0,0,1,385.33,425.14Z"/><path class="cls-3" d="M397.3,576.43s21.41-1.22,26.94,3.37,9.13,14.64,5.09,12.52a47.37,47.37,0,0,1-8.43-6.25s9,9.27,5.91,10.43-10.82-7-10.82-7,9.82,11.88,6.56,12-10.67-8.92-10.67-8.92,8.7,11.42,4.91,11.52-7.13-9.49-10.21-8.32-11.89,7.88-16.17-.28Z"/><path class="cls-7" d="M420.68,586.23s-2.1-2.92-4.19-2.86v-.53h.07c2.33,0,4.47,2.95,4.56,3.08Z"/><path class="cls-7" d="M415.77,589.68a8.94,8.94,0,0,0-5.1-3.42l.09-.52a9.36,9.36,0,0,1,5.45,3.64Z"/><path class="cls-7" d="M411.67,592.81s-2.49-3.46-4.71-3.21l0-.53c2.51-.27,5.08,3.28,5.19,3.43Z"/><path class="cls-10" d="M525.18,489.49s-53.81-39.24-57.09-37.32-.26,5.26,4.85,10.14S517.2,499.1,517.2,499.1Z"/><polygon class="cls-11" points="533.97 495.02 525.18 489.49 517.2 499.1 525.11 505.68 533.97 495.02"/><path class="cls-12" d="M534,495s12.79.19,16.1,8,1.87,21.45,1.87,21.45-8.68-7.62-14.29-5.59-12.54-13.21-12.54-13.21Z"/><path class="cls-2" d="M551.13,506.32s-3.32-1.66-4.58,1.86-4.86,1.32-7.22,3.78-.43,6.64-.43,6.64,10.69,4.07,13,5.88S551.13,506.32,551.13,506.32Z"/><path class="cls-13" d="M613.72,642.49H515.39a6.28,6.28,0,0,1-6.26-6.26h0a6.28,6.28,0,0,1,6.26-6.26h98.33a6.28,6.28,0,0,1,6.26,6.26h0A6.28,6.28,0,0,1,613.72,642.49Z"/><path class="cls-13" d="M536.39,761.59h56.33a5.93,5.93,0,0,1,5.93,5.93v11a0,0,0,0,1,0,0H530.47a0,0,0,0,1,0,0v-11A5.93,5.93,0,0,1,536.39,761.59Z"/><rect class="cls-13" x="560.58" y="640.77" width="7.95" height="127.3"/><path class="cls-3" d="M523.41,484.92s-4.13,14.3,2.3,16.28,15.29.15,15.81-3.14.69-9.19-2.84-9.71S524.92,481,523.41,484.92Z"/><path class="cls-2" d="M643.17,560.45a81.4,81.4,0,0,1-4.94,28.85c-11.88,31.61-43.49,46.56-75.65,46.56-34.87,0-70.34-24.2-79.83-56.71a60.24,60.24,0,0,1-2.47-17c0-40.73,41.57-73.75,82.3-73.75S643.17,519.72,643.17,560.45Z"/><path class="cls-2" d="M534.1,442.75s59.57-1.77,61,0,3.62,4.89-11.56,5.69c-10.14.53-10.16,35.55,10.58,47s23.84,18,23.84,18l-105.79-5.15a91.07,91.07,0,0,1,19.69-13.9c12.36-6.35,16.48-12.23,17-23.87.63-14.27,1.06-23.49-6.36-22.6C532.61,449.08,527.5,442.93,534.1,442.75Z"/><path class="cls-14" d="M522,622.75s-8.36,8.89-5.8,11,62.17,11.54,94.68,0c0,0,5.07-.81,3.14-5a46.86,46.86,0,0,0-5.06-8.19Z"/><path class="cls-15" d="M565.72,541.53s-3.34-.72-4.47,1.27-1.09,6.32,2.23,6S569,543.16,565.72,541.53Z"/><path class="cls-15" d="M578,541s-3.34-.72-4.47,1.26-1.08,6.33,2.23,6S581.23,542.59,578,541Z"/><path class="cls-15" d="M590.26,538.51s-3.33-.73-4.47,1.26-1.08,6.33,2.24,6S593.51,540.13,590.26,538.51Z"/><path class="cls-15" d="M600.37,536.05s-3.33-.72-4.46,1.27-1.09,6.32,2.23,6S603.63,537.68,600.37,536.05Z"/><path class="cls-15" d="M611.76,531.38s-3.34-.72-4.47,1.27-1.09,6.32,2.23,6S615,533,611.76,531.38Z"/><path class="cls-15" d="M623.1,525.53s-3.33-.72-4.46,1.26-1.09,6.33,2.23,6S626.36,527.15,623.1,525.53Z"/><path class="cls-15" d="M552.88,541s-3.33-.72-4.47,1.26-1.08,6.33,2.24,6S556.13,542.59,552.88,541Z"/><path class="cls-15" d="M539.92,538.51s-3.34-.73-4.47,1.26-1.09,6.33,2.23,6S543.17,540.13,539.92,538.51Z"/><path class="cls-15" d="M527.47,536.05s-3.33-.72-4.47,1.27-1.08,6.32,2.24,6S530.73,537.68,527.47,536.05Z"/><path class="cls-15" d="M527.47,563.85s-3.33-.72-4.47,1.27-1.08,6.32,2.24,6S530.73,565.48,527.47,563.85Z"/><path class="cls-15" d="M506.07,556.15s-3.33-.72-4.47,1.27-1.08,6.32,2.24,6S509.33,557.78,506.07,556.15Z"/><path class="cls-15" d="M550.63,567.49s-3.33-.72-4.46,1.27-1.09,6.32,2.23,6S553.89,569.12,550.63,567.49Z"/><path class="cls-15" d="M571.24,567.49s-3.34-.72-4.47,1.27-1.09,6.32,2.23,6S574.49,569.12,571.24,567.49Z"/><path class="cls-15" d="M594.36,563.85s-3.34-.72-4.47,1.27-1.08,6.32,2.23,6S597.61,565.48,594.36,563.85Z"/><path class="cls-15" d="M616.86,555.83s-3.34-.72-4.47,1.26-1.09,6.33,2.23,6S620.11,557.46,616.86,555.83Z"/><path class="cls-15" d="M632,548.89s-2.8-.61-3.75,1.06-.91,5.32,1.88,5S634.78,550.26,632,548.89Z"/><path class="cls-15" d="M488.47,547.23s-2.66-.58-3.56,1-.87,5,1.78,4.76S491.07,548.53,488.47,547.23Z"/><path class="cls-15" d="M514.9,532.37s-3.33-.73-4.46,1.26-1.09,6.33,2.23,6S518.16,534,514.9,532.37Z"/><path class="cls-15" d="M504,527.69s-3.34-.72-4.47,1.27-1.09,6.32,2.23,6S507.22,529.32,504,527.69Z"/><path class="cls-15" d="M558.77,556.06c-44.14,0-70.72-23.31-71-23.55l.48-.54c.27.24,27.39,24,72.31,23.36s73.79-26,74.08-26.23l.48.54c-.29.26-29.33,25.76-74.55,26.41Z"/><path class="cls-15" d="M558.48,565.56l-.63,0c-2.69-.28-3.75-1.68-4.77-3s-1.88-2.51-4.25-2.77-3.38,1.08-4.47,2.63c-1,1.39-2.09,3-4.49,3.16-4.83.36-6.6-3.52-7.6-7a3.34,3.34,0,0,0-2.66-1.92,9.39,9.39,0,0,0-8.55,2.43,4.3,4.3,0,0,1-5.31.9c-2.45-1.18-4.25-4-3.93-6.08a4.78,4.78,0,0,0-2.09-4.36,5.88,5.88,0,0,0-6.23-.42c-4.59,2.2-7.54,2.67-9.28,1.49-1.22-.83-1.75-2.47-1.59-4.87a4.82,4.82,0,0,0-1.34-4c-2.25-2.17-6.6-1.73-6.65-1.73l-.07-.71c.19,0,4.72-.49,7.22,1.92a5.52,5.52,0,0,1,1.56,4.6c-.14,2.13.29,3.55,1.28,4.22,1.49,1,4.29.5,8.56-1.54a6.58,6.58,0,0,1,7,.49,5.46,5.46,0,0,1,2.37,5c-.27,1.8,1.38,4.29,3.53,5.32a3.62,3.62,0,0,0,4.47-.74,10.12,10.12,0,0,1,9.25-2.64c1.71.4,2.84,1.26,3.18,2.42,1,3.36,2.58,6.75,6.85,6.42,2.06-.15,3-1.46,4-2.85,1.11-1.59,2.27-3.24,5.14-2.92,2.68.28,3.73,1.69,4.75,3s1.88,2.51,4.27,2.76,3.79-1.13,5.27-2.59,3.11-3,5.79-3a7.45,7.45,0,0,1,5,2.34c1.56,1.36,3,2.64,6.43,1.79a10.68,10.68,0,0,0,5.8-4c1.55-1.76,3-3.41,6.22-3.29a14.49,14.49,0,0,1,5.75,1.68c2.39,1.12,4.28,2,7.16.07s3.07-3.05,3.47-4.46a8.16,8.16,0,0,1,2.25-4c2.16-2.23,4.58-1,6.71.09,1.57.8,2.92,1.49,3.95.82s1.39-2.21,1.7-3.79c.4-2.07.85-4.41,3.3-5.41s3.75.3,4.92,1.3,1.88,1.52,3,.65c1.52-1.19,1.66-3,1.79-4.69a6.51,6.51,0,0,1,.95-3.61l.57.44a6,6,0,0,0-.8,3.23c-.14,1.78-.29,3.81-2.06,5.2s-2.83.24-3.9-.67-2.28-2-4.17-1.18c-2.1.85-2.49,2.9-2.87,4.88-.32,1.66-.65,3.37-2,4.26s-3.06,0-4.68-.78c-2.09-1.07-4.07-2.09-5.86-.24a7.56,7.56,0,0,0-2.08,3.73c-.41,1.49-.8,2.9-3.76,4.87-3.22,2.15-5.48,1.1-7.87,0a13.68,13.68,0,0,0-5.47-1.62c-2.86-.12-4.15,1.35-5.65,3a11.44,11.44,0,0,1-6.17,4.19c-3.76.94-5.45-.52-7.08-1.94A6.68,6.68,0,0,0,569,560c-2.4,0-3.79,1.31-5.26,2.76S560.84,565.56,558.48,565.56Z"/><path class="cls-15" d="M562.05,495A49.55,49.55,0,0,1,540,489.86l1.06-1.89c.22.12,21.59,11.85,43.51-1.42l1.13,1.85A45.06,45.06,0,0,1,562.05,495Z"/><path class="cls-15" d="M563.56,499.7a55.1,55.1,0,0,1-27.38-7.56l.4-.61c.26.17,26,16.66,52.29,0l.39.61A47.33,47.33,0,0,1,563.56,499.7Z"/><path class="cls-14" d="M638.23,589.3c-11.88,31.61-43.49,46.56-75.65,46.56-34.87,0-70.34-24.2-79.83-56.71,4.54-1.3,13.61-2,22.35,8.61,12.34,15,21-1,34.2-1.69s7.46,15.57,20.26,15.57,4.25-8.21,16.65-9,4.47,13,16.38,9,6.5-21.48,20.77-23.21C626.11,576.89,626,598.54,638.23,589.3Z"/><path class="cls-16" d="M571.49,448.79c-8,0-17.14-.21-26.15-.46-2.75-.08-4.92-.14-6.14-.15-4.62-.06-6.5-1.06-7.25-1.9a1.84,1.84,0,0,1-.55-1.28l.72.06a1.25,1.25,0,0,0,.4.78c.56.58,2.16,1.56,6.69,1.62,1.22,0,3.4.07,6.15.15,13.94.39,46.56,1.31,49.75-1.46l.48.55C593.75,448.29,584.05,448.79,571.49,448.79Z"/></svg>