<svg id="_5" data-name="5" xmlns="http://www.w3.org/2000/svg" viewBox="0 0 777 779"><defs><style>.cls-1{fill:#00784d;}.cls-2{fill:#ffc655;}.cls-3{fill:#f2f0e6;}</style></defs><path class="cls-1" d="M464.38,71.9c-1.8-39-36.79-71.9-75.79-71.9C333.34,0,315.21,42.33,313,81.27c-2.27,40.44,33.38,68.12,72.38,68.12S466.62,120.29,464.38,71.9Z"/><path class="cls-2" d="M450.67,76c0-31-31-64.08-62-65.07C342.83,9.44,324.23,56,324.23,87s32,49.52,63,49.52S450.67,107,450.67,76Z"/><path class="cls-3" d="M395.34,74.93c-.41-4.24-4.91-7.06-9.17-7.06s-8.82,5.13-8.82,9.38S381.91,85,386.17,85,396.12,82.78,395.34,74.93Z"/><path class="cls-3" d="M386.17,78.81h-1.54a1.53,1.53,0,0,1-1.53-1.53c0-.85-1.93-3.71-1.08-3.71l.86-1.8,1.83-41.91L382.8,31a1.52,1.52,0,1,1-2.51-1.73L385,22.47a1.52,1.52,0,0,1,2.78.87l2.55,53.83C390.33,78,387,78.81,386.17,78.81Z"/><path class="cls-3" d="M391.45,31.25a1.52,1.52,0,0,1-1.18-.56l-5.81-4.16c-.53-.65.17-3.84.83-4.37a1.52,1.52,0,0,1,2.15.21l5.2,6.39a1.53,1.53,0,0,1-.22,2.15A1.55,1.55,0,0,1,391.45,31.25Z"/><path class="cls-3" d="M358.46,83.76a1.49,1.49,0,0,1-1.1-.47l-4.54-4.7a1.53,1.53,0,0,1,1.1-2.59h0L390,74.1c.84,0,1.32,2.67,1.32,3.51v1.54a1.52,1.52,0,0,1-1.53,1.53c-.84,0-2.75.76-2.75-.09l1.22-1.45-30.74-.07,2,2.1a1.53,1.53,0,0,1-1.1,2.59Z"/><path class="cls-3" d="M353.92,79.06a1.54,1.54,0,0,1-1.19-2.5l4.25-5.2a1.53,1.53,0,1,1,2.37,1.93l-1.67,3.9A15,15,0,0,1,353.92,79.06Z"/></svg>