<svg xmlns="http://www.w3.org/2000/svg" viewBox="0 0 500 600"><defs><style>.cls-1{fill:#e48928;}.cls-2{fill:#ef9f6f;}.cls-3{fill:#163a24;}.cls-4{fill:#561c17;}.cls-5{fill:#7ac44c;}.cls-6{fill:#ffa076;}.cls-7{fill:#b8e34d;}.cls-8{fill:#00784d;}.cls-9{opacity:0.5;}.cls-10{fill:#f47c53;}.cls-11{fill:#7fc064;}.cls-12{fill:#632c1e;}.cls-13{fill:#fff;}.cls-14{fill:#8a4d27;}.cls-15{fill:#3bb55d;}.cls-16{fill:#ce7a2e;}.cls-17{fill:#4bae48;}.cls-18{fill:#ad662b;}.cls-19{fill:#4eaf46;}.cls-20{fill:#00a76e;}.cls-21{fill:#ffc655;}.cls-22{fill:#284f36;}.cls-23{fill:#1b8436;}.cls-24{fill:#764678;}.cls-25{opacity:0.3;}.cls-26{fill:#83bf47;}.cls-27{fill:#f9bd38;}.cls-28{fill:#00613e;}.cls-29{fill:#f4f4f4;}.cls-30{fill:#d9644d;}</style></defs><g id="Layer_2" data-name="Layer 2"><rect class="cls-1" width="500" height="600"/></g><g id="Layer_1" data-name="Layer 1"><path class="cls-2" d="M442.67,436s15.88,32.51,42.82,10.15L492,457.68S477.2,491.43,439.83,466Z"/><path class="cls-3" d="M425.63,518.61l-44.4,142.63a14.32,14.32,0,0,1-13.36,10.17l-2.66,0a10.13,10.13,0,0,1-10-12.06l24.29-134c.35-1.59,1.25-8.64,2.79-9.08C390.65,513.89,426.45,512.71,425.63,518.61Z"/><path class="cls-3" d="M446.41,565c-.19,1.48-.08,3.87-.29,5.4-4.8,34.56-8.72,69.81-11.59,86.52a13,13,0,0,1-11.83,10.85l-3.18.22a10.89,10.89,0,0,1-11.46-11.49l5-112.67,1-37.06S452.35,520,446.41,565Z"/><path class="cls-4" d="M375.41,527.4c.16,3,18.32,3.7,40.71,2.39s29.78-4.72,29.63-7.72-7.8-4.43-30.2-3.12S375.26,524.4,375.41,527.4Z"/><path class="cls-5" d="M374.78,449.11a18.41,18.41,0,0,1,3.76-9.22c4.36-5.59,13.88-13.64,32.85-14.26,42.17-1.36,37.93,44.05,38.48,92.81a331.59,331.59,0,0,0-74.46,9S372,472.63,374.78,449.11Z"/><path class="cls-5" d="M374.31,454.12l12.83-3.63s47.5,7.9,57.93,3.68c5.6-2.27,8.29-10.42,8.29-10.42s-11.51-15-31.7-17.72a58.08,58.08,0,0,0-5.9-.51,87.78,87.78,0,0,0-10.15.47C373.68,428.44,374.31,454.12,374.31,454.12Z"/><path class="cls-6" d="M407.28,422.15l2-7.19.59-2.09,3.45-12.3.82,12.12s.47,5.45.49,7.27c.05,4.08.75,5.54.75,5.54,1.5,1.52,5.26,3.76,1.89,5.36-4.21,2-12.28-.81-15.4-4.46C401.9,426.4,406.33,425.89,407.28,422.15Z"/><path class="cls-7" d="M446.82,523.42s-18-5.34-68,5.83l-1.46,8.08,68.83-.41Z"/><path class="cls-4" d="M382,458.15c1,2.09,6.4,1.73,12.14-.82s9.59-6.31,8.63-8.41-6.41-1.73-12.15.82S381,456.05,382,458.15Z"/><path class="cls-8" d="M432.73,446.89l-17.59.92a8.69,8.69,0,0,0-8.22,8.22c-.62,11.24-3.41,31.81-15.23,42.28a10.15,10.15,0,0,0-3.45,7.4l-1.45,71.66a13.12,13.12,0,0,0,13.11,13.37h38.57a10,10,0,0,0,10-9.45c.75-14.17,2-41.81,2-66,0-6.43-.67-32.31-1.16-37.5-.54-5.74-6-19-9.1-26.24A7.71,7.71,0,0,0,432.73,446.89Z"/><path class="cls-6" d="M463.12,471.55c2.74-2-6.41-13.22-6.41-13.22-13.1,10.55-25.37,13.22-36.83,10.19-11.19-3-19.9-18.61-20-18.76,0,0-3-1.6-8.58,1.11-8.28,4-7,7.41-7,7.41.33,1,8.78,21.85,29.05,26.35C432.87,488.94,451.48,481.25,463.12,471.55Z"/><g class="cls-9"><path class="cls-10" d="M417,482.73a5.49,5.49,0,0,1-.8-.06c-2.11-.31-3.64-1.68-3.46-3.14a2,2,0,0,1,.84-1.38,4.47,4.47,0,0,1,3.27-.68c2.12.31,3.64,1.69,3.46,3.14a2,2,0,0,1-.84,1.38A4.07,4.07,0,0,1,417,482.73Zm-1-4.61a3.39,3.39,0,0,0-2,.59,1.39,1.39,0,0,0-.57.91c-.13,1,1.19,2.11,2.86,2.35a3.71,3.71,0,0,0,2.74-.53,1.36,1.36,0,0,0,.57-.91c.13-1-1.18-2.12-2.86-2.36A5.78,5.78,0,0,0,416,478.12Z"/></g><path class="cls-8" d="M395.43,496.33s-16.44-.75-21.59-7.39c0,0-2.25,3.09.19,7.39,0,0,8.53,6.18,19.08,6.62S395.43,496.33,395.43,496.33Z"/><path class="cls-8" d="M434.43,449.35s-2.37-15.93-11.85-23.75c0,0-2.08-1.25-2.7.21,0,0,6.69,5.15,11.13,23.88Z"/><path class="cls-8" d="M415.91,449.29s-7.33-18.92-16.06-22.55a1.79,1.79,0,0,0-2.69.59s10,5.92,15,22.36Z"/><path class="cls-4" d="M435.41,450.36c-.68-1.24-1.58-1.8-3.41-1.24a2.42,2.42,0,0,0-1.56,3.24c.6,1.28,2.05,2.45,3.72,1.41C435.37,453,436.22,451.85,435.41,450.36Z"/><path class="cls-11" d="M432.93,453.85a1.93,1.93,0,0,1-.52-.08,2.76,2.76,0,0,1-1.61-1.53,2,2,0,0,1,0-1.67,2.09,2.09,0,0,1,1.32-1.18,2.27,2.27,0,0,1,1.91,4.12A2.11,2.11,0,0,1,432.93,453.85Zm.24-4.52a3.32,3.32,0,0,0-1,.18,2,2,0,0,0-1.25,1.11,1.85,1.85,0,0,0,0,1.56,2.63,2.63,0,0,0,1.54,1.47,1.8,1.8,0,0,0,1.52-.25,2,2,0,0,0,1-2.82h0A2,2,0,0,0,433.17,449.33Z"/><path class="cls-11" d="M434.46,450.66a.57.57,0,0,0-1,.42.54.54,0,0,0,.79.3C434.45,451.22,434.63,451,434.46,450.66Z"/><path class="cls-11" d="M432.43,451.6a.54.54,0,0,0-.72-.26.52.52,0,0,0-.33.68.54.54,0,0,0,.79.3C432.42,452.16,432.6,451.92,432.43,451.6Z"/><path class="cls-4" d="M417.46,454c.16-1.41-.27-2.39-2.09-3a2.42,2.42,0,0,0-3.13,1.78c-.24,1.39.29,3.18,2.26,3.28C415.91,456.19,417.28,455.72,417.46,454Z"/><path class="cls-11" d="M414.74,455.83h-.2a1.92,1.92,0,0,1-1.48-.71,2.78,2.78,0,0,1-.46-2.18,2,2,0,0,1,1-1.37,2.1,2.1,0,0,1,1.76-.22A2.17,2.17,0,0,1,417.1,454,2.09,2.09,0,0,1,414.74,455.83Zm-.06-4.45a2.11,2.11,0,0,0-1.06.29,1.88,1.88,0,0,0-.89,1.29,2.61,2.61,0,0,0,.43,2.08,1.79,1.79,0,0,0,1.39.66A2,2,0,0,0,417,454h0a2.05,2.05,0,0,0-1.69-2.48A2.08,2.08,0,0,0,414.68,451.38Z"/><path class="cls-11" d="M416.51,453.73c0-.3-.06-.5-.44-.62a.51.51,0,0,0-.66.37.54.54,0,0,0,.48.69C416.18,454.18,416.47,454.08,416.51,453.73Z"/><path class="cls-11" d="M414.3,453.35c0-.3-.05-.5-.43-.62a.5.5,0,0,0-.66.37.54.54,0,0,0,.47.69C414,453.8,414.27,453.7,414.3,453.35Z"/><path class="cls-4" d="M424.7,543.67c-1,0-2,0-2.91,0-8.39-.18-14.9-1.06-16.58-2.24-4.18-2.91.9-39.89,1.12-41.47l0-.18.17.05c24.61,7.66,38.24,1.63,38.38,1.57l.21-.09v.23c.07,1.37,1.72,33.62,0,38.47-.27.77-1.27,1.43-3,2C438.17,543.22,431,543.67,424.7,543.67Zm-18.08-43.52c-.19,1.39-1.38,10.29-2.12,19.39-1.34,16.4-.26,20.79.89,21.59,3.5,2.44,28.2,3.22,36.67.52,1.59-.52,2.52-1.11,2.76-1.78,1.64-4.59.15-35.19,0-38.13C443,502.47,429.56,507.25,406.62,500.15Z"/><path class="cls-12" d="M425.11,393.61a16.4,16.4,0,0,1,.59,6.75c-.46,3.83-5.08-5.08-5.08-5.08Z"/><ellipse class="cls-6" cx="415.46" cy="403.79" rx="11.05" ry="13.32" transform="translate(-77.3 99.09) rotate(-12.45)"/><path class="cls-4" d="M416,403.18a.23.23,0,0,0,.09-.18.22.22,0,0,0-.22-.22,2.43,2.43,0,0,0-2.45,1.69.23.23,0,0,0,.13.29.25.25,0,0,0,.29-.13,3.85,3.85,0,0,1,2-1.4A.21.21,0,0,0,416,403.18Z"/><path class="cls-4" d="M415.27,406.13c.19.5.63.8,1,.66a.86.86,0,0,0,.32-1.15c-.18-.5-.63-.8-1-.66A.87.87,0,0,0,415.27,406.13Z"/><path class="cls-4" d="M424.19,401.8a.15.15,0,0,0,.11-.12.26.26,0,0,0-.12-.29,1.57,1.57,0,0,0-2.25.45.27.27,0,0,0,0,.32.16.16,0,0,0,.24,0,2.31,2.31,0,0,1,1.87-.38A.17.17,0,0,0,424.19,401.8Z"/><path class="cls-4" d="M422.35,404.27c0,.53.28,1,.67,1s.71-.41.73-.94-.27-1-.66-1S422.37,403.73,422.35,404.27Z"/><path class="cls-12" d="M397,403.36s4.37,7.62,9.64,7.75c0,0-4.75-5.68,3.82-10.14C410.5,401,402.23,400.39,397,403.36Z"/><path class="cls-6" d="M404.78,407.1a2.16,2.16,0,1,0-1.14-3A2.28,2.28,0,0,0,404.78,407.1Z"/><path class="cls-12" d="M410.5,401s-.13,6.72,1.34,7.86,10.46.91,14.5-1.07h0a8.74,8.74,0,0,1-6.4,9.39,12.77,12.77,0,0,1-4.28.35h0c-3-.25-5.92-1.22-7.36-3.82-.44-.8.19-6,.19-6s.14-3-1.73-4.42A8.54,8.54,0,0,1,410.5,401Z"/><path class="cls-4" d="M410.5,401s-1.14-4.6,2.49-5.25,7.73-1.63,9.25-.8,3.55,4.38,3.55,4.38,1.39-7.16-2.54-9.82-16-5.59-23,.27S397,403.36,397,403.36A43.62,43.62,0,0,1,410.5,401Z"/><path class="cls-4" d="M404.39,389.39s-5.9-4.07-4.95-7.54,6.88-2.92,9.18-2.59,3,4.32,1.44,7.08S404.39,389.39,404.39,389.39Z"/><path class="cls-12" d="M408.3,413.68s.44,4.57,3.91,6.86,1.52,4.72,4.69,8.13-.21,3.78,5.08,6,8.9-.52,7.55-4.5,3.15-3.29.62-8.25-3.76-1.68-2.48-7.31-1.33-6.84-1.33-6.84-2.78.43-5,1-4.32.07-5.86.71S408.3,413.68,408.3,413.68Z"/><path class="cls-13" d="M424.35,410.35a22.56,22.56,0,0,1-7.13,1.19,3.47,3.47,0,0,0,4.58,2.4C424,413.35,424.35,410.35,424.35,410.35Z"/><path class="cls-14" d="M492.39,466.72l-3.13-9.39-.92-2.73L483,438.53l-.7,16-.42,9.6-.14,3c-.09,2.06-1.44,2.5-3.09,4.29-.66.72,1.08,1.74,6.32,1.86,7,.17,11.91-.33,11.88-1.67C496.8,471.61,493.4,469.75,492.39,466.72Z"/><ellipse class="cls-14" cx="483.8" cy="444.53" rx="17.25" ry="15.34" transform="translate(-53.04 823.3) rotate(-77.78)"/><path class="cls-14" d="M475.15,438.53c-8.8.31-13.06-4.4-13.16-8.76-.13-5.59,3.66-10.55,8.08-8.47s2.52-3,6.76-3.56c7.94-1,9.43,4.23,15.92,4.49,8.56.33,18.33,13.59,11.15,23.26C503.9,445.49,482.09,438.29,475.15,438.53Z"/><path class="cls-14" d="M467.32,432.89s9.39,8.4,8.15,13.13-.92,6.57,4.56,9.09.64,6.62,8,6.91,16.27-7.72,16.27-20.91A19,19,0,0,0,499.7,429Z"/><path class="cls-14" d="M472.65,445.35a3.34,3.34,0,0,1,4.37-.94,2.81,2.81,0,0,1,.51,4.14,3.34,3.34,0,0,1-4.37.94A2.81,2.81,0,0,1,472.65,445.35Z"/><path class="cls-4" d="M488.38,462.25H488c-4.18-.17-4.55-1.57-5-3.21a4.72,4.72,0,0,0-3.05-3.72c-5.49-2.52-6-4.45-4.68-9.35.44-1.7-.56-4.22-2.9-7.28a13.24,13.24,0,0,1-7.86-3.18,8.07,8.07,0,0,1-2.73-5.72c-.08-3.54,1.39-6.9,3.67-8.39a4.67,4.67,0,0,1,4.72-.29c2.21,1,2.65.24,3.31-1a4.15,4.15,0,0,1,3.33-2.6c4.51-.57,7,.85,9.4,2.23a13.42,13.42,0,0,0,6.56,2.26c4.66.18,9.71,4.05,12.28,9.41,2.38,5,2,10.13-.93,14.16C502.37,456.13,494.84,462.25,488.38,462.25ZM468,421a4.26,4.26,0,0,0-2.34.72c-2.15,1.41-3.55,4.62-3.47,8,.12,5.19,5.42,8,10.28,8.47h.1l.06.08c2.51,3.26,3.53,5.87,3,7.74-1.26,4.78-.84,6.42,4.43,8.84a5.14,5.14,0,0,1,3.3,4c.4,1.52.71,2.72,4.57,2.88,6.37.26,14-5.79,15.69-16.35l0-.19h.08c2.83-3.88,3.14-8.85.85-13.65-2.46-5.13-7.47-9-11.9-9.16a13.87,13.87,0,0,1-6.76-2.31c-2.34-1.35-4.76-2.73-9.12-2.18a3.73,3.73,0,0,0-3,2.37c-.67,1.23-1.3,2.39-3.89,1.17A4.67,4.67,0,0,0,468,421Z"/><path class="cls-4" d="M490.65,452.08c-.15-.1-3.7-2.54-3.5-5,.08-1.1.9-2,2.42-2.74,3.28-1.54,4.32-4.49,3.89-6.59s-2.18-3.41-4.69-3.5c-9.47-.33-12.33-3.5-13.88-6.56a4.17,4.17,0,0,0-2.63-2.33c-2.28-.59-4.79,1.07-4.82,1.08l-.25-.37c.11-.07,2.71-1.78,5.18-1.14a4.62,4.62,0,0,1,2.92,2.56c2.11,4.17,6.15,6.06,13.5,6.32,2.72.09,4.63,1.53,5.1,3.85s-.63,5.44-4.13,7.08c-1.37.64-2.1,1.44-2.17,2.38-.18,2.21,3.28,4.58,3.31,4.6Z"/><path class="cls-4" d="M500.29,439.3,500,439c2.26-1.91,1.87-5.09.74-7.44s-3.55-4.72-5.82-4.28c-4.56.89-9.78-1-10-1.12l.15-.41c.05,0,5.33,2,9.76,1.1,2.61-.51,5.1,2,6.31,4.52S502.75,437.23,500.29,439.3Z"/><path class="cls-4" d="M493.32,454.89l-.14-.43a7.77,7.77,0,0,0,5.3-6.3l.45,0A8.3,8.3,0,0,1,493.32,454.89Z"/><path class="cls-6" d="M456.71,458.33s3.11-11.68,7.42-14.13,11.65-2.32,9.31-.23a26.32,26.32,0,0,1-5.25,3.48s7.33-3.11,7.33-.84-5.79,4.4-5.79,4.4,8.72-2.56,8-.42-7,4.21-7,4.21,8.1-2.34,7.24.14-7.85,2.29-7.85,4.56-.75,11.28-7.06,12.05Z"/><path class="cls-10" d="M464.55,450.07l-.35-.12c.54-1.54,3-2.21,3.11-2.24l.09.35S465,448.72,464.55,450.07Z"/><path class="cls-10" d="M465,454.52l-.31-.18a6.36,6.36,0,0,1,3.67-2.62l.09.35A6.19,6.19,0,0,0,465,454.52Z"/><path class="cls-10" d="M466.24,457.73l-.35-.09c.43-1.69,3.35-2.49,3.47-2.52l.1.36S466.62,456.25,466.24,457.73Z"/><rect class="cls-15" x="471.3" y="471.55" width="31.75" height="21.23" rx="5.56"/><rect class="cls-15" x="464.41" y="491.5" width="45.53" height="188.43"/><rect class="cls-15" x="456.34" y="486.22" width="61.66" height="8.17" rx="2.14"/><path class="cls-16" d="M8,289.53-63.32,590s38,42.54,190.64,12.57L59.43,286.21Z"/><path class="cls-17" d="M59.48,286.05c0,1.54-11.55,2.79-25.79,2.79S8,291.07,8,289.53c0-11,11.49-21.37,25.74-21.37S59.48,276.17,59.48,286.05Z"/><path class="cls-11" d="M59.43,286.21c.06,1.08-5.5,2.37-13.72,3.37l-1.45.17c-3.17.36-6.69.67-10.4.91-3.14.2-6.16.33-8.95.4-1,0-2,0-2.95.05-8.26.07-13.94-.5-14-1.58-.06-.93,4.08-2,10.49-2.94l1.58-.22c2.71-.36,5.77-.68,9-1,1.45-.12,2.93-.23,4.45-.33l3.13-.18c4.34-.22,8.35-.3,11.76-.26h.24C55.12,284.73,59.37,285.28,59.43,286.21Z"/><path class="cls-13" d="M48.4,284.64a16.76,16.76,0,0,1-4.14,5.11,16.52,16.52,0,0,1-19.35,1.31,16.29,16.29,0,0,1-3.13-2.53A16.6,16.6,0,0,1,20,286.37c2.71-.36,5.77-.68,9-1,1.45-.12,2.93-.23,4.45-.33l3.13-.18C41,284.68,45,284.6,48.4,284.64Z"/><path class="cls-17" d="M33.69,270h0a1.11,1.11,0,0,1-1.11-1.11V250.64a1.11,1.11,0,0,1,1.11-1.11h0a1.11,1.11,0,0,1,1.1,1.11V268.9A1.11,1.11,0,0,1,33.69,270Z"/><path class="cls-17" d="M30.48,268.64a3.21,3.21,0,1,1,3.21,3.24A3.22,3.22,0,0,1,30.48,268.64Z"/><path class="cls-18" d="M44.55,593.15c-2.08-.66-4.49-1.2-5.83-1.76-3.19-1.33-3.31-6-3.31-6C37.65,574.14,45.79,550,51,526.25a36.68,36.68,0,0,0,7.84-18l.27.24c-.16-2.77-.31-5.53-.46-8.26A1.46,1.46,0,0,0,60.2,499l1.56-8.43.79.17-1.28,6.95a1.46,1.46,0,0,0,2.88.53l1.3-7.05.81,0-1.08,5.85a1.46,1.46,0,1,0,2.87.52l1.73-9.4c1-3.51.12-7.48-.4-9.37a270.12,270.12,0,0,0-4.6-36.54,140.4,140.4,0,0,0-8.71-28.36c-.54-1.23-1-2.34-1.48-3.33,0-.08-.07-.17-.11-.25-.15-1.27-.31-2.35-.47-3.15-.53-2.61-2.73-5.9-5.22-8.14a8.13,8.13,0,0,0-2.59-5.65c-2.89-3.07-.55-9.59,2.18-12.92A8.16,8.16,0,0,0,49.79,374a14.15,14.15,0,0,0-6.71-9.39,16.41,16.41,0,0,0-7.77-2.43,17.55,17.55,0,0,0-7.45.39s-7.42-1.29-11.27,3.29a24.71,24.71,0,0,0-3,4.5c-.48.69-1,1.48-1.5,2.31-2,3.38-2.7,5.64-1.95,6.73,1,1.44,2.27,3.49,1.75,4.57-.24.51-.88.8-1.9.87-3.31.23-7.78,1.18-9.4,6.45a13,13,0,0,0-1.14,8C-5.25,401.61-6.83,404-6.83,404a47.53,47.53,0,0,0-4.8,7.59c-5.1,9.43-7,18.84-5.52,27.22,1.75,9.81,7.78,17.85,17.94,23.93C-1.5,492.6-17.25,579.3-35,586.56c-21,8.6-12.4,14.06-13.5,19.44a3.12,3.12,0,0,1-.4,1l131.14.89V597.66a.56.56,0,0,0,.24-.39C82.5,595.43,66.91,593.85,44.55,593.15ZM58.16,489.38l.78.33-.67,3.63-.18-3.54Zm-9.92-90.8a13.51,13.51,0,0,0-1.47-1.06,7.71,7.71,0,0,0-.5-3.21A7.43,7.43,0,0,1,48.24,398.58Zm-5.45-33.49a13.55,13.55,0,0,1,6.46,9,7.59,7.59,0,0,1-1.3,6c-2.11,2.58-3.93,6.81-3.6,10.22-3-6.65,2.58-9.4,2.44-14.76a14.92,14.92,0,0,0-8-12.26A14.82,14.82,0,0,1,42.79,365.09ZM.07,440.33a13.68,13.68,0,0,1-1.68-4.5c-.82-4.53,2-9.53,5-13.88C2.45,426.26.88,433.74.07,440.33ZM2.3,389c1.25-1.75,3.5-3.25,7.71-3.55a2.62,2.62,0,0,0,2.37-1.18c.63-1.32-.56-3.33-1.8-5.12-.68-1,.35-3.39,1.74-5.74-.72,2.22-.82,4.2-.13,5.45,2.11,3.84,3,6.32-4.77,7.6A9.26,9.26,0,0,0,2.3,389ZM26.06,588.78a32.5,32.5,0,0,0-.35,4l-7.21,0H14.62c-2.09-.67-4.51-1.2-5.86-1.77a3.42,3.42,0,0,1-.43-.21c1.94-4.62,9.24-11.43,17.5-22.51l.27-.39Zm.09-45.87a6,6,0,0,1,0-2.24Z"/><rect class="cls-17" x="-33.35" y="590.95" width="131.24" height="23.59"/><ellipse class="cls-19" cx="32.39" cy="590.95" rx="65.74" ry="4.64"/><path class="cls-17" d="M42,349.84s-7.63-1.32-11.58,3.39-6,10.6-4.52,13.29c2.16,3.94,3.1,6.5-4.9,7.81-10.35,1.7-10.21,16-4.55,19.68s40.33-3.8,41.46-4,6.22-2.54,1.7-10.33,2-10.61,1.84-16.45S55.47,346.45,42,349.84Z"/><path class="cls-11" d="M36,383.33a4.81,4.81,0,0,0,3.9-2.85l2.14-5,.62-1.44,3.66-8.49-.63,8.8-.39,5.28-.1,1.5a2.41,2.41,0,0,0,2,2.54h0c.65,1.06,1.55,3.21-1.14,4.06-3.15,1-8.25-1.48-10.08-4.42Z"/><path class="cls-17" d="M42,375.36s0,.09,0,.14c.21,2.84,3.25,4.16,3.25,4.16h0l.39-5.28a4.53,4.53,0,0,0-3-.31A1.25,1.25,0,0,0,42,375.36Z"/><path class="cls-11" d="M84.3,468.11l-6.58.35a1.79,1.79,0,0,0-.41-1.46l-.36-.41a1.82,1.82,0,0,0-2.56-.17L67,472.81a1.83,1.83,0,0,0-.17,2.57l.35.4a1.81,1.81,0,0,0,2.56.18l1.26-1.1L69,486a1.51,1.51,0,0,0,1.2,1.76h0A1.52,1.52,0,0,0,72,486.5s.36-6.07.64-6l-.33,8.91c-.15.82,1.82,2.14,3-.31,0,0,1.32-7.56,1.6-7.5l-.48,6.71c-.41,2.91,1.85,2.58,2.7.19,0,0,1.31-6.41,1.57-6.41L80.34,488c-.35,2.1,1.6,2.89,2.43-.54l2.3-8.59C86.42,474,84.3,468.11,84.3,468.11Z"/><path class="cls-11" d="M70.41,469.82c-1.52-16.71-5-40.58-13-59.49a56.11,56.11,0,0,0-4-8.42c-1.16-1.93.92-6.16,4.19-8.18,3.07-1.89,7.85-1.58,8.61-.64,1.28,1.59,2.66,4.64,4.79,9.49,7.42,16.85,11.87,38.62,13.67,66.68Z"/><path class="cls-11" d="M49.76,578.7s.12,4.84,3.4,6.21,12.77,2.6,9.22,5.71c-2,1.79-11.63.63-14.34.63s-5.25,1.19-7.27-.63c-2.21-2,0-11.92,0-11.92a10.76,10.76,0,0,0,4.44,1.16A8.71,8.71,0,0,0,49.76,578.7Z"/><path class="cls-11" d="M19,578.3s.12,4.84,3.4,6.21,12.77,2.6,9.22,5.71c-2,1.79-11.63.64-14.34.64S12,592,10,590.22c-2.22-2,0-11.92,0-11.92a10.76,10.76,0,0,0,4.44,1.16A8.64,8.64,0,0,0,19,578.3Z"/><path class="cls-11" d="M74.12,445.92s.6,20.28-5.87,59.17c-4.67,28.08-15.79,60-18.49,73.61-1,4.85-10,8.87-9.61,3.53l.2-99.9L42,452.13Z"/><path class="cls-11" d="M20.63,396.31s4.85-13.65,22.14-13,30.34,23.33,33.57,72.16c0,0-28.31-6.21-61.47,8.27C14.87,463.71,13,416.21,20.63,396.31Z"/><path class="cls-11" d="M6.36,392.42l14.37,10.91s31.48,3.15,39.84,1.63,8.89-5.79,8.89-5.79-7.18-12.78-22.31-15.48a40.44,40.44,0,0,0-4.38-.41c-2.57-.18-4.29.07-6.82.05C12.43,383.14,6.36,392.42,6.36,392.42Z"/><ellipse class="cls-11" cx="46.69" cy="366.97" rx="8.27" ry="10.2"/><path class="cls-17" d="M48.24,358.69s5,.57,4.34,4.59,3.92,2.83,3.92,2.83,1.55-9-2.47-10-5.44-.42-5.44-.42Z"/><path class="cls-7" d="M74.08,499.7s-2.7,23.48-24.67,27.68,3.82,15.91-9.5,33.78S15.69,586.1,24.74,590.62s-8.23,6.47-8.23,6.47c-23.89-2.54-17.92,14.69-26.11,21.7s-41.8,4.86-43.21-4.65,15.25-8.69,16.38-14.22-7.74-11.14,13.87-20S17.8,447.39,14,442.62s3.78-35.47,3.78-35.47c31.87-1.25,38-20.83,38-20.83,2.92-5.32,11.94,3.63,13.09,9.35s2.19,25.15,2.19,33.83C71.05,436.46,72.23,467.12,74.08,499.7Z"/><path class="cls-11" d="M19.53,453.08l4.6-10.16A3,3,0,0,0,23,439.14c-6.54-3.75-10.32-8.22-11.24-13.31-1.27-7.06,6.11-15.22,9.61-20.5,1.8-2.7-1.41-5.28-4.24-8.58-1.18-1.37-2.33-2.33-6.09-3.9-1.81-.75-3.62-1.73-4.64-.43-1.59,2-2.72,4.46-4.93,8.54-5.24,9.68-7.2,19.35-5.67,28,1.88,10.56,9.38,18.71,20.75,25.06C16.51,454,18.85,454.58,19.53,453.08Z"/><path class="cls-11" d="M19.91,440.13s4.71-5.1,8.78-5,9.19,3.25,6.67,3.74a26.47,26.47,0,0,1-5.94.21s7.25.93,6.3,2.53-7.25.73-7.25.73,8.54,1.79,7.15,3-7.86-.18-7.86-.18,7.87,2,6.23,3.36-6.5-1.68-7.45-.07-5.26,7.63-10,5.54Z"/><path class="cls-20" d="M26.43,439.46a.17.17,0,0,1-.12,0,.15.15,0,0,1,0-.21c1-.86,3.05-.31,3.13-.28a.15.15,0,0,1,.11.18.16.16,0,0,1-.19.11s-2-.54-2.86.22A.14.14,0,0,1,26.43,439.46Z"/><path class="cls-20" d="M24.9,442.77a.13.13,0,0,1-.13-.08.14.14,0,0,1,.06-.2,5.3,5.3,0,0,1,3.69-.31.15.15,0,0,1-.09.29,5.06,5.06,0,0,0-3.46.28Z"/><path class="cls-20" d="M24.4,445.58a.18.18,0,0,1-.1,0,.16.16,0,0,1,0-.22c1-1,3.4-.34,3.5-.31a.14.14,0,0,1,.1.18.15.15,0,0,1-.18.11s-2.32-.65-3.21.24A.21.21,0,0,1,24.4,445.58Z"/><path class="cls-20" d="M14.75,540.22,14.6,540c10-6.25,24.16-19.85,34.4-49.15a173.39,173.39,0,0,0,8-32.73l.28,0a173.54,173.54,0,0,1-8,32.78C43.6,507.13,33,528.85,14.75,540.22Z"/><path class="cls-20" d="M12.66,511.92l-.11-.26c17.56-7,27.62-20.79,33-31.14a79.81,79.81,0,0,0,7.48-21l.28.05a80.79,80.79,0,0,1-7.51,21.08C40.4,491,30.3,504.9,12.66,511.92Z"/><path class="cls-20" d="M19,484.53l-.06-.28c13.08-3.05,20.19-9.61,23.85-14.58a27.26,27.26,0,0,0,4.85-10.16l.28.05A27.64,27.64,0,0,1,43,469.82C39.3,474.83,32.14,481.45,19,484.53Z"/><path class="cls-20" d="M65.38,427.3l-.25-.12c4.82-10.56-3.73-37.46-3.81-37.73l.26-.08C61.67,389.64,70.25,416.64,65.38,427.3Z"/><path class="cls-20" d="M55.55,413.06l-.25-.14a33.86,33.86,0,0,0,4.2-22.84l.28-.06A34.19,34.19,0,0,1,55.55,413.06Z"/><path class="cls-20" d="M46.87,406.66l-.12-.25c10.49-5.26,10.08-14.87,10.07-15l.28,0C57.11,391.53,57.53,401.32,46.87,406.66Z"/><path class="cls-17" d="M48.24,358.69s1.09,4-4.41,4.43-6.15,4.93-5.19,7.94c1,3.27,3.29,4.67-.22,6.56-1.81,1,.46,2.74,3.58,7.91s3.58,11.56-.66,13.51c-5.39,2.5-.2,9.6-6.26,11.78-10.68,3.84-20.32-3.9-14.72-10.35,7.55-8.69,2.29-16.53-1.21-15.64s-4.27-6.41,3.17-7.66S32.4,371.58,30.7,367,34,351.73,40.76,352.2,51.51,354.43,48.24,358.69Z"/><path class="cls-11" d="M37.42,368.48a2,2,0,0,0,2.92.21,2.26,2.26,0,0,0-.47-3,2,2,0,0,0-2.92-.21A2.26,2.26,0,0,0,37.42,368.48Z"/><path class="cls-6" d="M64.83,410.66c0-2.91,7.36-5.65,7.36-5.65,1,.18.88,17.86,15,25,6.09,3.07,17.49.71,18.86.11.19-.08,5.11,12.81,5.11,12.81-2.49,1.08-2.35,2-10.22,1.72C79.9,444,68.39,435.37,64.83,410.66Z"/><path class="cls-14" d="M102.29,529.94c.15,1.1.07,2.88.22,4,3.57,25.67,6.48,51.85,8.61,64.27a9.62,9.62,0,0,0,8.79,8.06l2.36.16a8.09,8.09,0,0,0,8.51-8.54l-3.72-83.69-.73-27.54S97.88,496.58,102.29,529.94Z"/><path class="cls-14" d="M123.43,481s-1.05,18.44,3.88,54c3.56,25.68,7.89,51.57,10,64a9.64,9.64,0,0,0,8.79,8.07l2.36.16a8.09,8.09,0,0,0,8.51-8.54l-3.72-83.7-.73-27.53Z"/><path class="cls-4" d="M155,502c-.12,2.23-13.61,2.75-30.24,1.78s-22.13-3.51-22-5.73,5.79-3.3,22.43-2.33S155.16,499.82,155,502Z"/><path class="cls-8" d="M155.51,443.88a13.65,13.65,0,0,0-2.8-6.85c-3.23-4.15-10.31-10.13-24.4-10.59-31.33-1-28.18,32.72-28.59,68.94a227.61,227.61,0,0,1,55.35,6.12S157.57,461.35,155.51,443.88Z"/><path class="cls-8" d="M155.86,447.6l-9.53-2.69s-38.18,7.08-45.15,2.46c-8.21-5.44-3.47-16.16-3.47-16.16s8-2.45,23-4.48c1.41-.19,2.87-.32,4.38-.38a67.57,67.57,0,0,1,7.55.36C156.32,428.53,155.86,447.6,155.86,447.6Z"/><path class="cls-6" d="M131.37,423.85l-1.5-5.34-.43-1.55-2.57-9.14-.61,9s-.35,4.05-.37,5.4a11,11,0,0,1-.55,4.11c-1.12,1.13-3.91,2.79-1.4,4,3.12,1.49,9.12-.6,11.44-3.31C135.36,427,132.07,426.63,131.37,423.85Z"/><path class="cls-14" d="M102,499.09s13.8-4.07,51,4.22l.14,5.38-50.64.43Z"/><path class="cls-4" d="M150.15,450.59c-.72,1.56-4.76,1.29-9-.6s-7.13-4.69-6.41-6.25,4.76-1.28,9,.61S150.87,449,150.15,450.59Z"/><path class="cls-12" d="M121.58,402.75a12,12,0,0,0-1,4.84c0,2.81,4.11-3.25,4.11-3.25Z"/><ellipse class="cls-6" cx="127.71" cy="410.94" rx="9.71" ry="8.05" transform="translate(-302.4 397.22) rotate(-70.91)"/><path class="cls-4" d="M136.08,410.89l-3.74-1.18a2.85,2.85,0,0,1-1.81-1.68c-.53-1.38-1.34-2.21-4.93-2.8-4.55-.76-7-4.06-7-6.52s2.64-3.67,4.67-2.06,1.63-1.4,3.87-1.25c4.19.27,4.31,3.57,7.66,4.15,4.4.77,11.55,5.7,6.25,12.63Z"/><path class="cls-4" d="M127.38,410.45a.14.14,0,0,1,0-.14.17.17,0,0,1,.18-.14,1.78,1.78,0,0,1,1.63,1.43.16.16,0,0,1-.12.2.18.18,0,0,1-.2-.12,2.77,2.77,0,0,0-1.35-1.18A.13.13,0,0,1,127.38,410.45Z"/><path class="cls-4" d="M127.65,412.65c-.18.34-.53.52-.78.39s-.31-.51-.14-.86.53-.52.78-.39S127.82,412.3,127.65,412.65Z"/><path class="cls-4" d="M121.56,408.76a.1.1,0,0,1-.07-.1.18.18,0,0,1,.1-.2,1.16,1.16,0,0,1,1.6.52.2.2,0,0,1,0,.22.12.12,0,0,1-.18,0,1.69,1.69,0,0,0-1.32-.43Z"/><path class="cls-4" d="M122.68,410.7c0,.39-.29.69-.57.66s-.48-.35-.45-.74.28-.69.56-.66S122.71,410.31,122.68,410.7Z"/><path class="cls-12" d="M141.08,412.18s-3.8,5.15-7.63,4.8c0,0,3.92-3.72-1.91-7.67C131.54,409.31,137.58,409.59,141.08,412.18Z"/><path class="cls-6" d="M135.17,414.24a1.58,1.58,0,1,1,1.08-2.09A1.67,1.67,0,0,1,135.17,414.24Z"/><path class="cls-12" d="M131.54,409.31s-.47,4.88-1.63,5.58-7.66-.22-10.42-2h0a6.37,6.37,0,0,0,3.85,7.34,9.08,9.08,0,0,0,3.07.62h0c2.17.07,4.39-.38,5.65-2.15.39-.54.37-4.34.37-4.34s.15-2.19,1.62-3.05A6.17,6.17,0,0,0,131.54,409.31Z"/><path class="cls-4" d="M124.21,396.41a1.7,1.7,0,0,1-.42-.05l.06-.21a1,1,0,0,0,1.3-.61l.21.07A1.19,1.19,0,0,1,124.21,396.41Z"/><path class="cls-13" d="M124.58,403.7a15.36,15.36,0,0,1-2.26-1.54c-1.47-1.23-2.17-2.44-2-3.52a1.74,1.74,0,0,1,.7-1.42c.61-.34,1.46,0,2.22.4l.32.14,0,.1-.33-.14c-.73-.34-1.55-.72-2.11-.41a1.68,1.68,0,0,0-.65,1.35c-.31,2.51,4.2,4.92,4.24,4.94Z"/><path class="cls-13" d="M136.53,400.83a9.16,9.16,0,0,1-5.17-1.88,6.09,6.09,0,0,1-1.47-1.64l.09-.05s1.74,3.13,6.55,3.46Z"/><path class="cls-6" d="M123.15,417a2.91,2.91,0,0,1-2.2-1,.16.16,0,0,1,0-.23.15.15,0,0,1,.23,0,2.73,2.73,0,0,0,3.42.51.16.16,0,0,1,.22.08.17.17,0,0,1-.08.22A4,4,0,0,1,123.15,417Z"/><path class="cls-21" d="M112.46,442.23l13.07.69a6.45,6.45,0,0,1,6.11,6.1c.45,8.36,2.53,23.63,11.31,31.42a7.53,7.53,0,0,1,2.56,5.49l1.07,53.24a9.73,9.73,0,0,1-9.73,9.93H108.19a7.42,7.42,0,0,1-7.41-7c-.56-10.53-1.51-31.06-1.51-49,0-4.78.5-24,.86-27.86.4-4.26,4.44-14.12,6.76-19.49A5.72,5.72,0,0,1,112.46,442.23Z"/><path class="cls-4" d="M86.61,458.19h0a1.34,1.34,0,0,1-.54-1.83l11.76-21.64a1.34,1.34,0,0,1,1.83-.54h0a1.35,1.35,0,0,1,.54,1.83L88.44,457.65A1.35,1.35,0,0,1,86.61,458.19Z"/><rect class="cls-4" x="91.04" y="435.72" width="13.05" height="4.6" rx="1.62" transform="translate(221.05 6.59) rotate(28.53)"/><path class="cls-6" d="M91.85,462.69c-2-1.49,7.38-8.48,7.38-8.48,9.73,7.84,19.4,6.74,25,4.84,8.15-2.74,12.55-14.57,12.59-14.68s2.24-1.2,6.38.82c6.15,3,5.17,5.5,5.17,5.5-.24.71-6.53,16.24-21.59,19.58C112.36,473.47,100.5,469.89,91.85,462.69Z"/><g class="cls-9"><path class="cls-10" d="M123.19,469.58a3,3,0,0,1-1.83-.55,1.49,1.49,0,0,1-.63-1c-.13-1.08,1-2.11,2.58-2.33a3.25,3.25,0,0,1,2.42.5,1.52,1.52,0,0,1,.63,1c.13,1.08-1,2.1-2.58,2.33h0A5.85,5.85,0,0,1,123.19,469.58Zm.71-3.42-.52,0c-1.25.18-2.22,1-2.13,1.75a1,1,0,0,0,.42.68,2.84,2.84,0,0,0,2,.4c1.25-.18,2.22-1,2.13-1.75a1,1,0,0,0-.42-.68A2.58,2.58,0,0,0,123.9,466.16Z"/></g><path class="cls-6" d="M99.23,454.21s-1-8.92-3.84-11.21-8.29-3-6.81-1.24A19.55,19.55,0,0,0,92,444.92s-5-3.12-5.29-1.46,3.75,3.9,3.75,3.9-6.11-2.88-5.84-1.23S89.29,450,89.29,450s-5.68-2.64-5.33-.73,5.5,2.58,5.24,4.24-.73,8.37,3.81,9.66Z"/><path class="cls-10" d="M94.41,447.26c-.19-1.05-1.85-1.79-1.87-1.8l.11-.25c.08,0,1.81.81,2,2Z"/><path class="cls-10" d="M93.58,450.48a4.61,4.61,0,0,0-2.25-2.2l.1-.25a4.79,4.79,0,0,1,2.4,2.35Z"/><path class="cls-10" d="M92.3,452.68c-.11-1.13-2.09-2-2.11-2l.11-.25c.09,0,2.14.95,2.27,2.24Z"/><path class="cls-6" d="M73.42,411.05s2.14-9.67.55-12.42-5.68-5-5.06-3.13A20.78,20.78,0,0,0,71,399.63s-3.36-4.59-4.09-3.34,2.22,5.21,2.22,5.21-4.43-5.14-4.74-3.74,3.09,5.29,3.09,5.29-4.32-4.62-4.64-3,3.59,3.8,2.86,5.05-3.23,6.47,0,8.93Z"/><path class="cls-4" d="M61.51,404.3h0a.83.83,0,0,1,.45-1.08l22.91-9.63A.82.82,0,0,1,86,394h0a.82.82,0,0,1-.44,1.08l-22.92,9.63A.83.83,0,0,1,61.51,404.3Z"/><path class="cls-6" d="M70.56,407.06s-2.42-5.81-3.37-5.55.58,6.25.21,7.91,0,2.89,1.32,2.92S72,410.12,70.56,407.06Z"/><path class="cls-10" d="M66.58,411.21a3.8,3.8,0,0,1,.18-2.71c.88-1.67,0-5.5,0-5.53l.27-.07c0,.17.91,4,0,5.73a3.55,3.55,0,0,0-.16,2.52Z"/><path class="cls-10" d="M71.44,407.05c-1.52-.62-3.08-4.55-3.14-4.71l.25-.1s1.58,4,3,4.55Z"/><path class="cls-21" d="M140.17,479s12.21-.55,16-5.49a5.15,5.15,0,0,1-.14,5.49,29.12,29.12,0,0,1-14.18,4.92C134.05,484.21,140.17,479,140.17,479Z"/><path class="cls-21" d="M111.19,444.06S113,432.23,120,426.42c0,0,1.54-.93,2,.15,0,0-5,3.83-8.27,17.74Z"/><path class="cls-21" d="M125,444s5.45-14.06,11.94-16.76a1.32,1.32,0,0,1,2,.44s-7.46,4.4-11.17,16.61Z"/><path class="cls-4" d="M110.47,444.81a1.84,1.84,0,0,1,2.53-.92,1.81,1.81,0,0,1,1.16,2.41,1.89,1.89,0,0,1-2.77,1C110.5,446.79,109.86,445.92,110.47,444.81Z"/><path class="cls-11" d="M112.31,447.4a1.51,1.51,0,0,1-.82-.25,1.61,1.61,0,0,1-.77-2.22h0a1.6,1.6,0,0,1,2.19-.84,1.57,1.57,0,0,1,1,.87,1.48,1.48,0,0,1,0,1.25,2.1,2.1,0,0,1-1.21,1.14A1.65,1.65,0,0,1,112.31,447.4ZM110.8,445a1.52,1.52,0,0,0,.74,2.1,1.36,1.36,0,0,0,1.13.19,2,2,0,0,0,1.14-1.09,1.41,1.41,0,0,0,0-1.17,1.48,1.48,0,0,0-.93-.82,1.52,1.52,0,0,0-2.08.79Z"/><path class="cls-11" d="M111.17,445a.4.4,0,0,1,.54-.19.38.38,0,0,1,.24.51.42.42,0,1,1-.78-.32Z"/><path class="cls-11" d="M112.68,445.74a.42.42,0,0,1,.78.31.4.4,0,0,1-.58.22C112.69,446.15,112.56,446,112.68,445.74Z"/><path class="cls-4" d="M123.8,447.54a1.85,1.85,0,0,1,1.55-2.21,1.8,1.8,0,0,1,2.33,1.32,1.89,1.89,0,0,1-1.68,2.44C125,449.14,123.94,448.79,123.8,447.54Z"/><path class="cls-11" d="M125.82,448.87a1.54,1.54,0,0,1-1.75-1.38h0a1.61,1.61,0,0,1,1.33-1.94,1.57,1.57,0,0,1,1.3.16,1.44,1.44,0,0,1,.71,1,2,2,0,0,1-.34,1.62,1.43,1.43,0,0,1-1.1.52Zm.05-3.3a1.41,1.41,0,0,0-.45.07,1.53,1.53,0,0,0-1.26,1.84h0a1.52,1.52,0,0,0,1.81,1.3,1.34,1.34,0,0,0,1-.49,2,2,0,0,0,.32-1.55,1.36,1.36,0,0,0-.67-.95A1.46,1.46,0,0,0,125.87,445.57Z"/><path class="cls-11" d="M124.51,447.31c0-.22,0-.37.32-.46a.38.38,0,0,1,.49.28c0,.22,0,.5-.35.51S124.54,447.58,124.51,447.31Z"/><path class="cls-11" d="M126.15,447c0-.22,0-.37.32-.46a.38.38,0,0,1,.49.27.4.4,0,0,1-.35.52C126.39,447.37,126.18,447.29,126.15,447Z"/><path class="cls-4" d="M118.43,514.13c-4.67,0-10-.33-13-1.28-1.26-.4-2-.89-2.21-1.46-1.28-3.61-.06-27.57,0-28.59v-.17l.16.07c.1.05,10.24,4.52,28.51-1.16l.13-.05,0,.14c.16,1.17,3.94,28.65.84,30.81-1.26.87-6.09,1.52-12.32,1.66Q119.54,514.13,118.43,514.13Zm-15-31.15c-.11,2.19-1.21,24.92,0,28.33.18.49.87.94,2.06,1.32,6.29,2,24.64,1.43,27.24-.39.85-.59,1.66-3.85.66-16-.55-6.76-1.43-13.37-1.57-14.4C114.81,487.07,104.83,483.52,103.47,483Z"/><path class="cls-10" d="M90.1,443.51c-.18-.15-1.77-1.53-1.76-2.34a.5.5,0,0,1,.18-.4c1.34-1.1,5.42,1.24,5.59,1.33l-.13.24c-1.14-.65-4.29-2.17-5.29-1.36a.26.26,0,0,0-.08.19c0,.58,1.2,1.74,1.67,2.13Z"/><polygon class="cls-16" points="492.33 -91.5 492.33 185.04 324.04 174.84 324.13 53.22 324.23 -30.11 324.27 -70.85 415.68 -82.08 427.51 -83.52 431.73 -84.03 492.33 -91.5"/><polygon class="cls-22" points="505.46 -91.49 492.36 -91.49 492.36 185.05 501.67 184.08 505.46 -91.49"/><path class="cls-15" d="M387.1,22.92c-5.48,4.22-14.85,5.94-4.55-2.64s10-20,8.31-19.86S388.07,5,388.07,5C369.09,40,330.3,51.6,324.13,53.22l.1-83.33C355.78-38.79,374.34-77,374.34-77l41.34-5.1C425.42-20.69,392.57,18.7,387.1,22.92Z"/><path class="cls-23" d="M492.35-56s-44.65,14.69-51.4,46c0,0-.91,4.52,2.43,3.77s9.38-17.22,17.51-20.76-19.39,25-18.56,43.36,16.76,10.43,22,1.89,18-16.76,17.38-11,6,8.07,10.6,4.53Z"/><path class="cls-4" d="M512,197.44s-8.89-46-10.27-47.35-3.51-.15-2.76,2.4,11.1,44,11.53,44.95S512.29,198.72,512,197.44Z"/><path class="cls-15" d="M460.89,139.53C460.83,132,477,111.12,487.5,108.3c11.9-3.18,27.15-9,31.62,1.49s-10.52,42.68-10.52,42.68a4.66,4.66,0,0,1-3.87,3.18c-3,.32-40.49,1.44-40.54,0C464.15,154.73,455.6,141.06,460.89,139.53Z"/><path class="cls-4" d="M445.42,190.2s-1,6.68-3.75,10.09c-1.8,2.24-6.75,6.69-3.23,8.17,2.82,1.18,8.24-4.08,10-5.39s4.41-3.79,3.82-5.91a34.2,34.2,0,0,1-.82-9.88Z"/><path class="cls-4" d="M459,185s1.36,6.62,0,10.76c-.9,2.73-4,8.62-.18,8.79,3.05.13,6.3-6.7,7.49-8.54s2.82-5.09,1.53-6.86a34.33,34.33,0,0,1-4.2-9Z"/><path class="cls-14" d="M457.12,189.7c-36.54-24.37-34.73-45.72-29.67-54.07,5.88-9.7,15.19-17.37,29.46-20.79a79,79,0,0,1,10.45-1.74,7.3,7.3,0,0,1,8,7.46L475.08,133h0c-6.09-.12-24.59,1.74-29.43,11.59-1,2,23.58,30.94,22.67,36.12C467.3,186.56,460.69,192.08,457.12,189.7Z"/><path class="cls-14" d="M443,193.35a7.27,7.27,0,0,1-7.3-7.7c.55-9.33,2.28-25.2,7.71-37.19a51.26,51.26,0,0,1,14.56-18.38,81.33,81.33,0,0,1,17.64-10.81c11.22-5.16,19.3-4.44,19.3-4.44l6.13,9c-.08,0,1.72,9.12-11.24,17.24-7.15,4.48-21.54,7.22-27.45,18.79-4.22,8.27-5.84,19.23-6.37,26.89a7,7,0,0,1-7,6.52Z"/><path class="cls-6" d="M451.3,82.78a80.47,80.47,0,0,0-10.24,28.78C439.28,122.94,460,109.7,460,109.7l.92-23.76Z"/><path class="cls-23" d="M489,76.23s-5.74-9.81-19-6.8-18.63,16.52-19.57,49c0,0,7.94,14.06,44.09,11.32,4-.31,9.75-.84,7.79-7.33C498.67,110.33,495.15,86.25,489,76.23Z"/><path class="cls-23" d="M503.53,79.09l-13.61,2.56s-24.09,11-30.75,11.09S450,83.93,450,83.93A35.32,35.32,0,0,1,466.67,70.5c1.06-.4,2.17-.76,3.33-1.07a24.12,24.12,0,0,1,5.92-1C498.38,68.18,503.53,79.09,503.53,79.09Z"/><path class="cls-4" d="M503.53,79.09c.29,1.08-2.56,2.87-6.38,4s-7.14,1.19-7.43.11,2.55-2.86,6.37-4S503.23,78,503.53,79.09Z"/><path class="cls-6" d="M475.89,68.44a4,4,0,0,1-3.68-1.75l-2.56-3.79-.74-1.1-4.37-6.46,1.91,7.19,1.15,4.32.33,1.23a2,2,0,0,1-1.24,2.42h0c-.37,1-.78,2.91,1.58,3.19,2.77.34,6.61-2.53,7.67-5.25Z"/><path class="cls-4" d="M472.56,52.57a8.24,8.24,0,0,0,1.1,3.58c1.69,3.39-2.13,5.67-3.37,4.85-.16-.1-1.15-6.24-1.15-6.24l1.17-1Z"/><path class="cls-4" d="M469.64,62.78s0,.08,0,.12c.28,2.39-2,4-2,4h0l-1.15-4.32a3.89,3.89,0,0,1,2.46-.73A1,1,0,0,1,469.64,62.78Z"/><ellipse class="cls-6" cx="464.43" cy="56.57" rx="6.98" ry="8.61" transform="translate(-2.39 87.72) rotate(-10.76)"/><path class="cls-4" d="M460.49,50.6c.23.22,0,4.77,8.24,4.28s1.55-9.35-4.43-8.44c-8.65,1.31-8.8,7.32-7.58,9.24S460.49,50.6,460.49,50.6Z"/><path class="cls-4" d="M471.89,42.89s-3.16,3.11.06,4.86S483,49,481.65,53.28s-2.08,10.29,1.81,10.28,6.21-.73,8.31,2,8.57-.45,7.34-3.91,4-7.7.88-10.5-9.79-4.48-12.13-8.46S474.46,40.48,471.89,42.89Z"/><path class="cls-4" d="M467.58,53.67s3.95,2.84,3.48,6.61c0,0,1.52-2.45,1.41-3.24a31.05,31.05,0,0,0-1.15-3.5Z"/><path class="cls-6" d="M470.61,56.72a1.71,1.71,0,0,1-2.39.63,1.91,1.91,0,0,1-.09-2.59,1.71,1.71,0,0,1,2.39-.63A1.91,1.91,0,0,1,470.61,56.72Z"/><path class="cls-13" d="M491.63,65.56c-1-3.81-3.26-4-5.64-4.16a12.63,12.63,0,0,1-2.85-.45,1.47,1.47,0,0,1-.93-.73c-.42-.86.07-2.22.64-3.78.83-2.29,1.76-4.88.36-6.89a9.4,9.4,0,0,0-6.84-4.06c-2.38.15-3.62-.12-3.76-.82s1-1.5,1.38-1.64c3.34-1.17,7.2-1.64,12.79,2.78,4.41,3.48,4.1,5.44,3.72,7.93a17.07,17.07,0,0,0-.21,1.73,1.41,1.41,0,0,0,.31,1.1c.54.57,1.74.55,2.9.54,1.5,0,3.06,0,3.48,1.16a5.15,5.15,0,0,1-.41,3.12c-.37,1.1-.72,2.14-.29,2.86a2.52,2.52,0,0,0,1.83,1l-.05.28a2.74,2.74,0,0,1-2-1.1c-.5-.84-.13-1.94.26-3.1a4.93,4.93,0,0,0,.41-2.94c-.35-1-1.74-1-3.21-1-1.22,0-2.48,0-3.11-.63a1.71,1.71,0,0,1-.39-1.32c0-.63.13-1.2.22-1.76.37-2.39.66-4.28-3.62-7.66-5.48-4.33-9.25-3.87-12.51-2.73-.4.14-1.3.84-1.2,1.31.05.24.49.78,3.48.59a9.74,9.74,0,0,1,7.08,4.19c1.48,2.13.48,4.91-.33,7.14-.55,1.51-1,2.81-.65,3.56a1.18,1.18,0,0,0,.75.59,12.56,12.56,0,0,0,2.79.43c2.49.19,4.83.37,5.9,4.38Z"/><path class="cls-13" d="M467.35,52.35a6.19,6.19,0,0,1-4.22-1.78l.19-.18A5.82,5.82,0,0,0,468.25,52l.05.26A5.3,5.3,0,0,1,467.35,52.35Z"/><path class="cls-24" d="M459.86,63a2.7,2.7,0,0,1-1.57-.2,3.68,3.68,0,0,1-1.87-2.05,3.19,3.19,0,0,1,1.45-4.21,2.58,2.58,0,0,1,2,.07,3.66,3.66,0,0,1,1.88,2.05,3.2,3.2,0,0,1-1.46,4.21A2.13,2.13,0,0,1,459.86,63Zm-1.53-6.42a2.74,2.74,0,0,0-1.75,4.11,3.48,3.48,0,0,0,1.78,2,2.44,2.44,0,0,0,1.87.07,3,3,0,0,0,1.36-4,3.46,3.46,0,0,0-1.78-1.95A2.48,2.48,0,0,0,458.33,56.55Z"/><path class="cls-24" d="M466.32,60.77a2.68,2.68,0,0,1-1.57-.19,3.66,3.66,0,0,1-1.88-2,3.2,3.2,0,0,1,1.46-4.21,2.58,2.58,0,0,1,2,.07,3.64,3.64,0,0,1,1.87,2h0a3.19,3.19,0,0,1-1.45,4.21A3.45,3.45,0,0,1,466.32,60.77Zm-1.53-6.41a1.82,1.82,0,0,0-.4.11,3,3,0,0,0-1.36,4,3.46,3.46,0,0,0,1.78,2,2.42,2.42,0,0,0,1.88.07,3,3,0,0,0,1.35-4h0a3.48,3.48,0,0,0-1.78-2A2.51,2.51,0,0,0,464.79,54.36Z"/><path class="cls-24" d="M461,59.1a.07.07,0,0,1-.07,0,.09.09,0,0,1,0-.12,3.62,3.62,0,0,1,2.38-.88.09.09,0,1,1,0,.17,3.44,3.44,0,0,0-2.27.83Z"/><path class="cls-4" d="M463.79,56.78a.18.18,0,0,1-.13-.08.16.16,0,0,1,0-.21,1.73,1.73,0,0,1,2.11.06.16.16,0,0,1,0,.22c-.05.08-.14.07-.22,0a2.8,2.8,0,0,0-1.75-.06A.16.16,0,0,1,463.79,56.78Z"/><path class="cls-4" d="M465.34,58.26A.6.6,0,0,1,465,59c-.27.06-.55-.19-.64-.56a.61.61,0,0,1,.34-.77C465,57.64,465.26,57.89,465.34,58.26Z"/><path class="cls-4" d="M458.38,58.65a.17.17,0,0,1-.14,0,.15.15,0,0,1,0-.22,1.7,1.7,0,0,1,2-.74.16.16,0,0,1,.12.19.19.19,0,0,1-.2.12,2.62,2.62,0,0,0-1.63.61A.16.16,0,0,1,458.38,58.65Z"/><path class="cls-4" d="M460.38,59.42a.62.62,0,0,1,0,.85.61.61,0,0,1-.8-.28.52.52,0,1,1,.81-.57Z"/><path class="cls-6" d="M501.18,109.32c-5.82,9.11-17.33,14.92-29.43,14.54l1.29-9.71c9.38-1.71,16.57-7.82,17.91-13a41.78,41.78,0,0,0,.3-17.51,1.2,1.2,0,0,1,.47-1.17c1.19-.92,4.3-2.79,9.86-2.9a1.08,1.08,0,0,1,1.06.8C505,89.16,506.36,101.19,501.18,109.32Z"/><g class="cls-25"><path class="cls-10" d="M495.05,112.3a1.58,1.58,0,0,1-.61-.12c-1-.44-1.38-1.9-.8-3.27a3.08,3.08,0,0,1,1.58-1.68,1.73,1.73,0,0,1,1.32,0c1,.44,1.37,1.9.8,3.27h0a3.13,3.13,0,0,1-1.59,1.68A1.75,1.75,0,0,1,495.05,112.3Zm.87-4.76a1.46,1.46,0,0,0-.53.1,2.72,2.72,0,0,0-1.34,1.44c-.48,1.14-.23,2.35.56,2.69a1.3,1.3,0,0,0,1,0,2.64,2.64,0,0,0,1.34-1.44c.49-1.14.23-2.35-.56-2.69A1.08,1.08,0,0,0,495.92,107.54Z"/></g><path class="cls-4" d="M437,172.78h-.23A103.11,103.11,0,0,1,440,154.9c2.38-8.72,7-20.18,15.51-25.27l.11.2c-8.43,5-13,16.45-15.4,25.13A100.93,100.93,0,0,0,437,172.78Z"/><path class="cls-4" d="M455.66,188.63h-.23a66.31,66.31,0,0,1,4.38-23.11l.21.09A66.1,66.1,0,0,0,455.66,188.63Z"/><path class="cls-4" d="M463.18,63.12A3.79,3.79,0,0,1,462.1,63a.12.12,0,0,1-.08-.16.14.14,0,0,1,.16-.08,2.82,2.82,0,0,0,3.25-1,.14.14,0,0,1,.18,0,.14.14,0,0,1,0,.18A2.81,2.81,0,0,1,463.18,63.12Z"/><path class="cls-7" d="M460.44,117.56s16.89-22.65,18.46-22.28.76,2.1-.7,4.72-13.32,20.46-13.32,20.46Z"/><polygon class="cls-5" points="457.57 120.91 460.44 117.56 464.88 120.46 462.5 124.12 457.57 120.91"/><path class="cls-26" d="M457.57,120.91s-5.16,1.68-5.52,5.26S454,135.1,454,135.1s2.56-4.18,5.09-4.06,3.43-6.92,3.43-6.92Z"/><path class="cls-8" d="M452,127.64a1.34,1.34,0,0,1,2.09.18c.95,1.27,2.14-.07,3.4.63s1,2.63,1,2.63a41.66,41.66,0,0,0-4.55,4C453.26,136.13,452,127.64,452,127.64Z"/><path class="cls-6" d="M473,114.15s-8.69-2.76-11.46-1.46-5.3,5.07-3.42,4.62a19.76,19.76,0,0,0,4.14-1.68s-4.68,2.87-3.54,3.67,5.19-1.73,5.19-1.73-5.3,3.86-4,4.27,5.33-2.55,5.33-2.55-4.78,3.79-3.23,4.23,3.94-3.16,5.08-2.35,4.07,4.5,6.69,1.59Z"/><path class="cls-10" d="M462.37,115.72l-.14-.18s1.26-1.05,2.23-.77l-.06.22C463.54,114.74,462.38,115.71,462.37,115.72Z"/><path class="cls-10" d="M464,117.66l-.15-.17a4,4,0,0,1,2.63-.93l0,.23A3.74,3.74,0,0,0,464,117.66Z"/><path class="cls-10" d="M465.39,119.38l-.15-.17c.06,0,1.5-1.25,2.5-.87l-.08.21C466.78,118.22,465.4,119.37,465.39,119.38Z"/><path class="cls-27" d="M433.74,38.38l-51.12,5.28A4.27,4.27,0,0,0,379,49.14l24.83,82.61a4.27,4.27,0,0,0,4,3l54.28.82a4.27,4.27,0,0,0,4.14-5.56l-28-88.71A4.27,4.27,0,0,0,433.74,38.38Z"/><path class="cls-15" d="M431.63,43.7l-44.69,4.7a3.8,3.8,0,0,0-3.19,4.88l21.7,73.57a3.75,3.75,0,0,0,3.52,2.7l47.47.74a3.79,3.79,0,0,0,3.61-4.95l-24.48-79A3.73,3.73,0,0,0,431.63,43.7Z"/><polygon class="cls-27" points="447.63 78.75 389.5 78.75 390.46 84.43 450.13 86.98 447.63 78.75"/><polygon class="cls-27" points="439.88 51.27 422.62 43.68 420.32 43.68 439.88 53.53 439.88 51.27"/><polygon class="cls-27" points="393.84 45.34 386.22 63.72 384.65 61.21 391.84 45.34 393.84 45.34"/><polygon class="cls-27" points="458.64 113.99 449.46 131.36 446.74 131.36 456.48 108.65 458.64 113.99"/><polygon class="cls-26" points="420.32 131.36 401.76 114.33 400.86 117.17 417.37 131.36 420.32 131.36"/><path class="cls-3" d="M455.15,126.88,435.49,68.41A6.22,6.22,0,0,0,429,64.22l-45.71,4.64a6.21,6.21,0,0,0-5.36,7.78l15,55.74a6.2,6.2,0,0,0,6.22,4.58l50.37-1.91A6.19,6.19,0,0,0,455.15,126.88Z"/><path class="cls-3" d="M474,207.5a1.12,1.12,0,0,0,.31-.05,1,1,0,0,0,.68-1.29l-22.91-71.6a1,1,0,0,0-1.31-.67c-.55.17-2.5.43-2.33,1L473,206.78A1,1,0,0,0,474,207.5Z"/><path class="cls-3" d="M421.58,207.5a1.12,1.12,0,0,0,.31-.05,1,1,0,0,0,.68-1.29L401,133.84c-.18-.54-2.09-.13-2.64,0a1,1,0,0,0-.68,1.28l22.91,71.61A1,1,0,0,0,421.58,207.5Z"/><path class="cls-3" d="M461.08,133.57H394.71a1.1,1.1,0,0,0-1.13,1.06h0c0,.59,0,2.52.63,2.52l66.5-.88c1.05,0,1.5-1.05,1.5-1.64h0A1.1,1.1,0,0,0,461.08,133.57Z"/><path class="cls-4" d="M377.06,82.91h66.12a1,1,0,0,0,0-2.09H377.06a1,1,0,0,0,0,2.09Z"/><path class="cls-4" d="M380.34,143.51H434a1,1,0,0,0,0-2.09l-53.29-.95c-.57,0-1.41,1.42-1.41,2A1,1,0,0,0,380.34,143.51Z"/><path class="cls-4" d="M377.06,207.5a1,1,0,0,0,1-1L386,81.86c0-.57-1.94-1-2.52-1a1.07,1.07,0,0,0-1.1,1L376,206.4a1,1,0,0,0,1,1.1Z"/><path class="cls-4" d="M430.72,207.5a1,1,0,0,0,1-1l6.39-124.59a1.06,1.06,0,0,0-1-1.1c-.54,0-3,.47-3,1L429.67,206.4a1,1,0,0,0,1,1.1Z"/><path class="cls-4" d="M1.14,182.44s10.71-57.21,12.37-58.89,4.23-.19,3.32,3S3.47,181.29,3,182.44.84,184,1.14,182.44Z"/><path class="cls-8" d="M42.74,126.44c.08-9-.32-47.94-13-51.32C15.44,71.28-2.93,64.31-8.32,76.91s12.67,51.4,12.67,51.4A5.63,5.63,0,0,0,9,132.14c3.66.39,48.76,1.74,48.83,0C57.89,131,49.11,128.29,42.74,126.44Z"/><path class="cls-6" d="M66.23,47.32S77.62,65,101.51,54.62c11.14-4.85,4.07,25.15-23.06,24.34-13-.39-27.07-22-27.07-22Z"/><path class="cls-4" d="M87.07,185.31s-.14,4.54,2.86,6,11.81,3.09,8.34,5.82c-2,1.57-10.91,0-13.45-.14s-5,.83-6.76-1c-2-2,.61-11.15.61-11.15a10.2,10.2,0,0,0,4.09,1.31A8.07,8.07,0,0,0,87.07,185.31Z"/><path class="cls-4" d="M112.17,183.1s-.13,4.53,2.87,6,11.81,3.08,8.33,5.81c-2,1.57-10.91,0-13.44-.14s-5,.84-6.76-1c-2-2,.6-11.15.6-11.15a10.1,10.1,0,0,0,4.1,1.31A8.12,8.12,0,0,0,112.17,183.1Z"/><path class="cls-21" d="M118,177.79c-2.24-29.71-2.77-49.76-12.17-62.65C95.49,101,67.89,91.07,57.26,90.45,39.91,89.44,31.73,92,31.73,92c-13,27.08,7.38,30.67,22.47,31.41l1.5.09c9.13.57,25.37,2.89,31.52,12,4.87,7.19,8.25,17.28,9.67,43.31a9.24,9.24,0,0,0,9.47,8.73S118.76,188.48,118,177.79Z"/><path class="cls-21" d="M93.33,179.32c.29-29.8,1.22-45-7.73-58.22-5.74-8.48-14.38-14.88-25.68-19a99.16,99.16,0,0,0-28.18-5.4c-17.35-1-25.15-3.11-25.15-3.11-14,34.67,37.32,27.31,50.69,42.08,5.83,6.44,13,18.67,14.47,44.7a9.25,9.25,0,0,0,9.47,8.74S93.22,190.22,93.33,179.32Z"/><path class="cls-4" d="M93.24,150.05c0-.17-.89-17.85-3.85-24-3.75-7.81-14.63-16-25.87-19.39l.06-.19c11.29,3.44,22.22,11.64,26,19.5,3,6.21,3.86,23.93,3.87,24.1Z"/><path class="cls-3" d="M18.9,38.52s7.38-12.61,24.4-8.74S67.24,51,68.46,92.76c0,0-15.75-.58-57.14,13.15-4.9,1.63-12.09.34-9.57-8C6.43,82.37,11,51.41,18.9,38.52Z"/><path class="cls-3" d="M.18,42.21l17.5,3.29s30.61,9,39.18,9.12A13.88,13.88,0,0,0,69,48.43,45.36,45.36,0,0,0,47.58,31.16a43.76,43.76,0,0,0-4.28-1.38,31.73,31.73,0,0,0-7.61-1.28C6.8,28.17.18,42.21.18,42.21Z"/><path class="cls-4" d="M.18,42.21c-.38,1.38,3.29,3.68,8.2,5.14s9.18,1.53,9.56.15-3.29-3.69-8.19-5.15S.56,40.83.18,42.21Z"/><path class="cls-6" d="M7.44,87.32C14.68,99.18,24,103.94,40.52,107l3.17-10.25c-12.07-2.2-18.24-9.47-23.1-17.42C13.69,68,14.93,54.2,16,48.11a1.56,1.56,0,0,0-.59-1.51C13.83,45.41,9.83,43,2.69,42.87a1.37,1.37,0,0,0-1.36,1C-1.66,55.15-1.68,72.38,7.44,87.32Z"/><g class="cls-25"><path class="cls-10" d="M11.08,84.91a2.45,2.45,0,0,1-.9-.18,4,4,0,0,1-2-2.16h0c-.74-1.76-.28-3.64,1-4.2a2.16,2.16,0,0,1,1.69,0,3.93,3.93,0,0,1,2,2.16c.75,1.76.29,3.64-1,4.2A2,2,0,0,1,11.08,84.91ZM10,78.78a1.56,1.56,0,0,0-.57.11c-1,.44-1.34,2-.72,3.46h0A3.39,3.39,0,0,0,10.4,84.2a1.62,1.62,0,0,0,1.24,0c1-.43,1.34-2,.72-3.45a3.38,3.38,0,0,0-1.72-1.85A1.88,1.88,0,0,0,10,78.78Z"/></g><path class="cls-4" d="M44.41,23.86l-.07-.17s2-.76,2.38-2.22A2.71,2.71,0,0,0,46,19l-.9-1.11c-1.91-2.32-2.62-3.18-2.45-5.3h.19c-.17,2,.48,2.83,2.4,5.17l.91,1.11a2.94,2.94,0,0,1,.77,2.61C46.48,23.07,44.49,23.83,44.41,23.86Z"/><path class="cls-4" d="M42.72,12.63A9.49,9.49,0,0,0,45,19c2.54,3.07.55,5.8-2.48,4.89s-3.65,2.87-7.57,1.32S42.72,12.63,42.72,12.63Z"/><path class="cls-6" d="M27.59,28.82a4.38,4.38,0,0,0,3.27-3L32.24,21l.4-1.4L35,11.34l.45,8.17.27,4.91.08,1.38c.06,1.15,1.07,2.81,2.21,2.87,0,0,1.74,2-.64,3.12-2.78,1.3-7.84-.47-9.87-3Z"/><path class="cls-4" d="M32.21,20.86l0,.13c.53,2.59,3.48,3.45,3.48,3.45v0l-.27-4.91a4.16,4.16,0,0,0-2.82.08A1.16,1.16,0,0,0,32.21,20.86Z"/><ellipse class="cls-6" cx="35.54" cy="12.59" rx="7.67" ry="9.47" transform="translate(-1.31 4.61) rotate(-7.29)"/><path class="cls-6" d="M29.13,14.85a1.89,1.89,0,0,0,2.72-.16A2.12,2.12,0,0,0,31.06,12a1.89,1.89,0,0,0-2.72.16A2.12,2.12,0,0,0,29.13,14.85Z"/><path class="cls-4" d="M36.29,12.58a.16.16,0,0,0,.1-.11.18.18,0,0,0-.12-.22,1.91,1.91,0,0,0-2.18.79.16.16,0,0,0,0,.24.19.19,0,0,0,.24,0,3,3,0,0,1,1.81-.66A.14.14,0,0,0,36.29,12.58Z"/><path class="cls-4" d="M35.16,14.66c0,.42.32.73.62.7s.51-.39.47-.8-.31-.73-.61-.7S35.12,14.25,35.16,14.66Z"/><path class="cls-4" d="M42.58,12.7a.18.18,0,0,0,.11-.32,1.9,1.9,0,0,0-2.31-.1.18.18,0,0,0-.06.24.2.2,0,0,0,.24.06,3,3,0,0,1,1.92.08A.21.21,0,0,0,42.58,12.7Z"/><path class="cls-4" d="M40.75,14.19a.68.68,0,0,0,.31.88c.28.09.62-.17.74-.56a.69.69,0,0,0-.31-.89C41.21,13.54,40.87,13.79,40.75,14.19Z"/><path class="cls-4" d="M37.79,4.48S38,7.76,34.05,8.84s-6.59,3.16-5.67,6,8.26,8.1,3.74,11.07-4-1.55-9.15.14S16,20.9,19.12,16.39,19.37,1.35,32.93.1s10,10.14,10,10.14S38.24,8.08,37.79,4.48Z"/><path class="cls-13" d="M30.81,26.71l0-.09a2.72,2.72,0,0,0,1.56-2c.31-2.21-2.64-5.16-5.24-7.77-.69-.69-1.34-1.35-1.93-2a5.23,5.23,0,0,1-1.08-6c1.06-2.14,3.46-3.29,6.25-3,5.15.52,6.87-2.76,6.88-2.79l.1,0s-1.76,3.38-7,2.85c-2.75-.27-5.1.86-6.14,3a5.07,5.07,0,0,0,1.07,5.84c.58.63,1.23,1.28,1.92,2,2.62,2.63,5.59,5.6,5.27,7.86A2.85,2.85,0,0,1,30.81,26.71Z"/><path class="cls-24" d="M39.71,15.66l.11-.11a8,8,0,0,1-.23-2.37,1.18,1.18,0,0,0-.29-.13A8.49,8.49,0,0,0,39.71,15.66Zm-.36-.7a8.63,8.63,0,0,0,.2.88,4.36,4.36,0,0,0,2.08,2.88h0a2.16,2.16,0,0,0,1.19.19,2.42,2.42,0,0,0,.8-.26,2.87,2.87,0,0,0,.71-.52,4,4,0,0,0,.52-.61,6.47,6.47,0,0,0,1-2.58c.53-2.88-.48-5.87-2.25-6.67a1.58,1.58,0,0,0-.34-.13,2.18,2.18,0,0,0-1.16,0,3,3,0,0,0-.5.19,2.73,2.73,0,0,0-.54.37,3.08,3.08,0,0,0-.27.25,6.07,6.07,0,0,0-1.45,3.1c0,.1,0,.21-.05.31v0h0c0,.22,0,.43-.06.65A8.69,8.69,0,0,0,39.35,15Zm6.3-.8a5.93,5.93,0,0,1-.1.72,6.18,6.18,0,0,1-.9,2.37,3.28,3.28,0,0,1-.49.6,2.47,2.47,0,0,1-.68.51,1.91,1.91,0,0,1-1.65.08l0,0a4.19,4.19,0,0,1-2-2.87,8,8,0,0,1-.23-2.37,5.08,5.08,0,0,1,.07-.67,2.63,2.63,0,0,1,.06-.39,5.47,5.47,0,0,1,1.39-3,2.61,2.61,0,0,1,.69-.52,2.34,2.34,0,0,1,.48-.18l.27-.05h0a1.87,1.87,0,0,1,.7.08l.24.09c1.49.68,2.38,3.08,2.15,5.56C45.66,14.15,45.66,14.16,45.65,14.16Z"/><g class="cls-25"><path class="cls-13" d="M30.35,11.39c-.27,2.75,1.07,5.51,3,6.15s3.7-1.09,4-3.84-1.07-5.52-3-6.16S30.61,8.63,30.35,11.39Z"/></g><g class="cls-25"><path class="cls-13" d="M39.34,12.29c-.27,2.77.92,5.58,2.65,6.29s3.36-1,3.63-3.75S44.7,9.24,43,8.54,39.61,9.51,39.34,12.29Z"/></g><path class="cls-24" d="M30.19,13A7.24,7.24,0,0,0,31,15.29a4.59,4.59,0,0,0,2.29,2.22l.18.07a2.88,2.88,0,0,0,1.26.13,2.78,2.78,0,0,0,.67-.18,4.63,4.63,0,0,0,.54-.28,5.11,5.11,0,0,0,2-3.83l0-.48c0-.22,0-.43,0-.65a7,7,0,0,0-1.77-4.45,4,4,0,0,0-1.56-1,2.81,2.81,0,0,0-2.47.33,4.85,4.85,0,0,0-1.93,3.34,4.1,4.1,0,0,0-.06.49c0,.18,0,.35,0,.52A8.39,8.39,0,0,0,30.19,13Zm6.34,3.15a3.49,3.49,0,0,1-.83.8,3.24,3.24,0,0,1-.37.19,2.48,2.48,0,0,1-1.8.1l-.2-.08a4.23,4.23,0,0,1-2.06-2,7.26,7.26,0,0,1-.84-3.58,5.44,5.44,0,0,1,0-.57,6.34,6.34,0,0,1,.13-.78,4.58,4.58,0,0,1,.14-.53h0a5,5,0,0,1,.34-.82,3.68,3.68,0,0,1,1.24-1.44A2.48,2.48,0,0,1,33.38,7a2.6,2.6,0,0,1,1.1.11A3.59,3.59,0,0,1,35.87,8a6.61,6.61,0,0,1,1.71,4.31,4.85,4.85,0,0,1,0,.66c0,.12,0,.24,0,.37a5.65,5.65,0,0,1-1,2.75Z"/><path class="cls-24" d="M39.83,13.24a.3.3,0,0,1-.21,0h0a2.84,2.84,0,0,0-2.32-.12.33.33,0,0,1-.41-.2.32.32,0,0,1,.2-.4,3.52,3.52,0,0,1,2.87.17.32.32,0,0,1,.09.44A.28.28,0,0,1,39.83,13.24Z"/><path class="cls-4" d="M37.57,19.4a4.54,4.54,0,0,1-1.92-.48.25.25,0,0,1,.23-.44s1.79.92,3,0a.25.25,0,0,1,.35.05.24.24,0,0,1-.05.35A2.65,2.65,0,0,1,37.57,19.4Z"/><path class="cls-6" d="M43.69,96.71s10.94-.63,13.77,1.72,4.66,7.48,2.6,6.4a24,24,0,0,1-4.31-3.2s4.59,4.74,3,5.34-5.53-3.57-5.53-3.57,5,6.07,3.35,6.16S51.14,105,51.14,105s4.45,5.83,2.51,5.88S50,106,48.43,106.63s-6.07,4-8.26-.14Z"/><path class="cls-10" d="M55.64,101.71s-1.07-1.49-2.14-1.45V100h0c1.19,0,2.28,1.51,2.33,1.57Z"/><path class="cls-10" d="M53.13,103.48a4.6,4.6,0,0,0-2.61-1.75l0-.27a4.76,4.76,0,0,1,2.78,1.87Z"/><path class="cls-10" d="M51,105.08s-1.27-1.77-2.4-1.64l0-.27c1.28-.14,2.6,1.67,2.65,1.75Z"/><path class="cls-19" d="M109,52.28S81.54,32.23,79.87,33.21s-.14,2.69,2.47,5.18S105,57.19,105,57.19Z"/><polygon class="cls-5" points="113.53 55.1 109.04 52.28 104.96 57.19 109 60.55 113.53 55.1"/><path class="cls-26" d="M113.53,55.1s6.53.1,8.23,4.1.95,11,.95,11-4.43-3.9-7.3-2.86S109,60.55,109,60.55Z"/><path class="cls-8" d="M122.3,60.88a1.62,1.62,0,0,0-2.34.95c-.64,1.8-2.48.68-3.69,1.93s-.22,3.4-.22,3.4,5.46,2.08,6.66,3S122.3,60.88,122.3,60.88Z"/><path class="cls-14" d="M154.29,130.46H104a3.2,3.2,0,0,1-3.2-3.19h0a3.21,3.21,0,0,1,3.2-3.2h50.25a3.21,3.21,0,0,1,3.19,3.2h0A3.2,3.2,0,0,1,154.29,130.46Z"/><path class="cls-14" d="M117.67,191.33h23a5.93,5.93,0,0,1,5.93,5.93V200a0,0,0,0,1,0,0H111.74a0,0,0,0,1,0,0v-2.75a5.93,5.93,0,0,1,5.93-5.93Z"/><rect class="cls-14" x="127.13" y="129.59" width="4.06" height="65.05"/><path class="cls-6" d="M108.13,49.94s-2.1,7.31,1.18,8.33,7.81.07,8.08-1.61.35-4.69-1.45-5S108.9,47.92,108.13,49.94Z"/><path class="cls-8" d="M169.33,88.54a41.56,41.56,0,0,1-2.52,14.74c-6.07,16.16-22.23,23.8-38.66,23.8-17.82,0-35.94-12.37-40.8-29a30.93,30.93,0,0,1-1.25-8.71c0-20.82,21.23-37.69,42.05-37.69S169.33,67.73,169.33,88.54Z"/><path class="cls-8" d="M113.59,28.39s30.45-.9,31.19,0,1.84,2.5-5.91,2.91c-5.19.27-5.2,18.17,5.4,24s12.18,9.2,12.18,9.2l-54.06-2.64a46.51,46.51,0,0,1,10.07-7.1c6.32-3.25,8.42-6.25,8.68-12.2.33-7.29.54-12-3.24-11.55C112.84,31.63,110.22,28.49,113.59,28.39Z"/><path class="cls-28" d="M107.41,120.38s-4.28,4.54-3,5.63,31.77,5.89,48.39,0c0,0,2.59-.42,1.6-2.58a24.22,24.22,0,0,0-2.59-4.18Z"/><path class="cls-29" d="M129.75,78.87s-1.7-.37-2.28.65-.55,3.23,1.14,3S131.42,79.71,129.75,78.87Z"/><path class="cls-29" d="M136,78.58s-1.71-.37-2.28.65-.56,3.23,1.14,3S137.68,79.41,136,78.58Z"/><path class="cls-29" d="M142.3,77.33S140.59,77,140,78s-.55,3.23,1.14,3S144,78.16,142.3,77.33Z"/><path class="cls-29" d="M147.46,76.08s-1.7-.37-2.28.64-.55,3.23,1.14,3S149.13,76.91,147.46,76.08Z"/><path class="cls-29" d="M153.28,73.69s-1.71-.37-2.28.64-.56,3.24,1.14,3S154.94,74.52,153.28,73.69Z"/><path class="cls-29" d="M159.08,70.7s-1.71-.37-2.29.64-.55,3.23,1.15,3S160.74,71.53,159.08,70.7Z"/><path class="cls-29" d="M123.19,78.58s-1.7-.37-2.28.65-.55,3.23,1.14,3S124.86,79.41,123.19,78.58Z"/><path class="cls-29" d="M116.57,77.33s-1.71-.37-2.28.65-.56,3.23,1.14,3S118.23,78.16,116.57,77.33Z"/><path class="cls-29" d="M110.21,76.08s-1.7-.37-2.28.64-.56,3.23,1.14,3S111.87,76.91,110.21,76.08Z"/><path class="cls-29" d="M110.21,90.28s-1.7-.37-2.28.65-.56,3.23,1.14,3S111.87,91.11,110.21,90.28Z"/><path class="cls-29" d="M99.27,86.34S97.57,86,97,87s-.55,3.23,1.14,3.05S100.94,87.18,99.27,86.34Z"/><path class="cls-29" d="M122.05,92.14s-1.71-.37-2.29.65-.55,3.23,1.14,3S123.71,93,122.05,92.14Z"/><path class="cls-29" d="M132.57,92.14s-1.7-.37-2.28.65-.55,3.23,1.14,3S134.24,93,132.57,92.14Z"/><path class="cls-29" d="M144.39,90.28s-1.71-.37-2.28.65-.56,3.23,1.14,3S146.05,91.11,144.39,90.28Z"/><path class="cls-29" d="M155.89,86.18s-1.71-.37-2.29.65-.55,3.23,1.14,3S157.55,87,155.89,86.18Z"/><path class="cls-29" d="M163.65,82.63s-1.44-.31-1.92.55-.47,2.71,1,2.56S165,83.33,163.65,82.63Z"/><path class="cls-29" d="M90.28,81.79s-1.36-.3-1.82.51-.44,2.58.91,2.43S91.61,82.45,90.28,81.79Z"/><path class="cls-29" d="M103.79,74.19s-1.71-.37-2.29.65-.55,3.23,1.15,3S105.45,75,103.79,74.19Z"/><path class="cls-29" d="M98.2,71.8s-1.71-.37-2.29.65-.55,3.23,1.15,3S99.86,72.63,98.2,71.8Z"/><path class="cls-29" d="M126.2,86.3c-22.56,0-36.13-11.92-36.27-12l.25-.27c.13.12,14,12.26,36.95,11.93A62.52,62.52,0,0,0,165,72.52l.25.28a63,63,0,0,1-38.1,13.49Z"/><path class="cls-29" d="M126.06,91.15h-.33a3.13,3.13,0,0,1-2.43-1.56,2.84,2.84,0,0,0-2.18-1.41c-1.25-.13-1.73.55-2.28,1.34a3,3,0,0,1-2.3,1.61c-2.46.19-3.37-1.79-3.88-3.54a1.71,1.71,0,0,0-1.36-1,4.81,4.81,0,0,0-4.37,1.25,2.21,2.21,0,0,1-2.71.46,3.42,3.42,0,0,1-2-3.11A2.43,2.43,0,0,0,101.14,83,3,3,0,0,0,98,82.74c-2.34,1.13-3.85,1.37-4.74.77A2.62,2.62,0,0,1,92.4,81,2.49,2.49,0,0,0,91.72,79c-1.15-1.11-3.37-.88-3.4-.88l0-.37c.1,0,2.42-.25,3.7,1a2.85,2.85,0,0,1,.79,2.36c-.07,1.08.15,1.81.66,2.15.76.52,2.19.26,4.37-.79a3.39,3.39,0,0,1,3.56.25,2.83,2.83,0,0,1,1.22,2.59,3,3,0,0,0,1.8,2.71,1.84,1.84,0,0,0,2.28-.38,5.19,5.19,0,0,1,4.73-1.34A2,2,0,0,1,113,87.47c.51,1.72,1.32,3.45,3.5,3.29a2.64,2.64,0,0,0,2-1.46,2.6,2.6,0,0,1,2.62-1.5,3.18,3.18,0,0,1,2.43,1.56,2.82,2.82,0,0,0,2.18,1.41,3.23,3.23,0,0,0,2.7-1.32,3.92,3.92,0,0,1,3-1.52A3.76,3.76,0,0,1,134,89.12a3.12,3.12,0,0,0,3.28.92,5.54,5.54,0,0,0,3-2,3.67,3.67,0,0,1,3.18-1.68,7.44,7.44,0,0,1,2.94.85c1.22.57,2.18,1,3.66,0a3.41,3.41,0,0,0,1.77-2.28A4.23,4.23,0,0,1,153,82.87c1.1-1.14,2.34-.5,3.43,0,.8.41,1.49.76,2,.42a2.8,2.8,0,0,0,.86-1.94c.21-1.05.44-2.25,1.69-2.76a2.24,2.24,0,0,1,2.52.66c.61.53,1,.78,1.52.33a3,3,0,0,0,.91-2.39,3.36,3.36,0,0,1,.49-1.85l.29.23a3.08,3.08,0,0,0-.41,1.65,3.39,3.39,0,0,1-1.05,2.66c-.83.65-1.45.12-2-.35s-1.17-1-2.14-.6-1.27,1.48-1.46,2.49a3.1,3.1,0,0,1-1,2.18c-.71.46-1.56,0-2.39-.4-1.07-.55-2.08-1.06-3-.12A3.86,3.86,0,0,0,152.15,85a3.73,3.73,0,0,1-1.92,2.49c-1.65,1.09-2.8.56-4,0a7,7,0,0,0-2.8-.83,3.35,3.35,0,0,0-2.89,1.56,5.81,5.81,0,0,1-3.15,2.14,3.44,3.44,0,0,1-3.61-1,3.45,3.45,0,0,0-2.34-1.11,3.64,3.64,0,0,0-2.69,1.42A3.76,3.76,0,0,1,126.06,91.15Z"/><path class="cls-29" d="M127.88,55.11a25.29,25.29,0,0,1-11.27-2.64l.54-1c.11.06,11,6.05,22.23-.73l.58.95A23.07,23.07,0,0,1,127.88,55.11Z"/><path class="cls-29" d="M128.65,57.5a28,28,0,0,1-14-3.87l.2-.31c.14.09,13.27,8.52,26.73,0l.19.31A24.15,24.15,0,0,1,128.65,57.5Z"/><path class="cls-28" d="M166.81,103.28c-6.07,16.16-22.23,23.8-38.66,23.8-17.82,0-35.94-12.37-40.8-29,2.33-.67,7-1,11.43,4.4,6.3,7.64,10.73-.51,17.47-.87s3.82,8,10.36,8,2.17-4.2,8.51-4.59,2.28,6.62,8.37,4.59,3.32-11,10.61-11.86C160.61,96.94,160.57,108,166.81,103.28Z"/><path class="cls-30" d="M132.71,31.48c-4.09,0-8.76-.1-13.37-.23l-3.14-.08c-2.36,0-3.32-.54-3.7-1a.92.92,0,0,1-.28-.65l.37,0a.57.57,0,0,0,.2.39c.28.3,1.1.8,3.42.83l3.14.08c7.12.2,23.79.67,25.42-.75l.25.28C144.08,31.22,139.12,31.48,132.71,31.48Z"/></g></svg>