<svg id="Layer_1" data-name="Layer 1" xmlns="http://www.w3.org/2000/svg" viewBox="0 0 1200 650"><defs><style>.cls-1{fill:#e48928;}.cls-2{fill:#ef9f6f;}.cls-3{fill:#561c17;}.cls-4{fill:#163a24;}.cls-5{fill:#7ac44c;}.cls-6{fill:#ffa076;}.cls-7{fill:#b8e34d;}.cls-8{fill:#00784d;}.cls-9{opacity:0.5;}.cls-10{fill:#f47c53;}.cls-11{fill:#7fc064;}.cls-12{fill:#632c1e;}.cls-13{fill:#fff;}.cls-14{fill:#8a4d27;}.cls-15{fill:#3bb55d;}.cls-16{fill:#ce7a2e;}.cls-17{fill:#4bae48;}.cls-18{fill:#ad662b;}.cls-19{fill:#4eaf46;}.cls-20{fill:#00a76e;}.cls-21{fill:#ffc655;}.cls-22{fill:#284f36;}.cls-23{fill:#1b8436;}.cls-24{fill:#764678;}.cls-25{opacity:0.3;}.cls-26{fill:#83bf47;}.cls-27{fill:#f9bd38;}.cls-28{fill:#00613e;}.cls-29{fill:#f4f4f4;}.cls-30{fill:#d9644d;}.cls-31{fill:#f2f0e6;}</style></defs><rect class="cls-1" width="1200" height="650"/><path class="cls-2" d="M1053.82,413.67s16.27,33.31,43.87,10.41l6.68,11.84s-15.17,34.57-53.46,8.48Z"/><path class="cls-3" d="M983.5,645.89s.15,6,4.24,7.75,15.93,3.24,11.51,7.12c-2.54,2.23-14.51.79-17.89.79s-6.55,1.47-9.06-.79c-2.77-2.49,0-14.87,0-14.87a13.43,13.43,0,0,0,5.53,1.45A10.81,10.81,0,0,0,983.5,645.89Z"/><path class="cls-4" d="M1036.37,498.34l-45.5,146.13a14.66,14.66,0,0,1-13.68,10.42l-2.74.05a10.38,10.38,0,0,1-10.21-12.36l24.89-137.31c.36-1.63,1.28-8.85,2.86-9.3C1000.52,493.51,1037.2,492.29,1036.37,498.34Z"/><path class="cls-3" d="M1036.32,648.37s.29,5.64,4.15,7.13,15,2.62,10.92,6.36c-2.31,2.14-13.52,1.1-16.68,1.19s-6.07,1.54-8.48-.51c-2.64-2.26-.37-13.89-.37-13.89a12.57,12.57,0,0,0,5.21,1.22A10.08,10.08,0,0,0,1036.32,648.37Z"/><path class="cls-4" d="M1057.66,545.82c-.21,1.52-.09,4-.31,5.54-4.91,35.4-8.93,71.51-11.87,88.63a13.29,13.29,0,0,1-12.12,11.13l-3.26.22a11.16,11.16,0,0,1-11.74-11.78l5.14-115.42,1-38S1063.74,499.81,1057.66,545.82Z"/><path class="cls-3" d="M984.91,507.35c.16,3.07,18.77,3.79,41.71,2.45s30.51-4.84,30.35-7.91-8-4.54-30.93-3.2S984.75,504.28,984.91,507.35Z"/><path class="cls-5" d="M984.26,427.13a19,19,0,0,1,3.86-9.44c4.46-5.72,14.22-14,33.66-14.61,43.2-1.4,38.85,45.13,39.42,95.08a340.36,340.36,0,0,0-76.29,9.19S981.42,451.23,984.26,427.13Z"/><path class="cls-5" d="M983.78,432.27l13.15-3.72s48.66,8.1,59.35,3.77c5.74-2.32,8.5-10.67,8.5-10.67s-11.8-15.37-32.49-18.16a60.57,60.57,0,0,0-6-.53,92,92,0,0,0-10.4.49C983.14,406,983.78,432.27,983.78,432.27Z"/><path class="cls-6" d="M1017.56,399.51l2.06-7.36.6-2.14,3.54-12.6.84,12.41s.49,5.59.51,7.46c.05,4.17.77,5.67.77,5.67,1.53,1.55,5.38,3.85,1.92,5.49-4.3,2-12.57-.83-15.77-4.57C1012.05,403.87,1016.58,403.34,1017.56,399.51Z"/><path class="cls-7" d="M1058.07,503.27s-18.4-5.47-69.66,6l-1.5,8.28,70.51-.42Z"/><path class="cls-3" d="M991.66,436.39c1,2.15,6.56,1.78,12.43-.83s9.84-6.47,8.85-8.61-6.57-1.78-12.44.83S990.66,434.25,991.66,436.39Z"/><path class="cls-8" d="M1043.63,424.86l-18,.94a8.91,8.91,0,0,0-8.42,8.43c-.63,11.52-3.49,32.58-15.6,43.32a10.43,10.43,0,0,0-3.54,7.58l-1.48,73.42a13.44,13.44,0,0,0,13.43,13.7h39.52a10.24,10.24,0,0,0,10.22-9.69c.77-14.51,2.09-42.84,2.09-67.63,0-6.59-.7-33.1-1.2-38.42-.55-5.88-6.12-19.47-9.32-26.88A7.91,7.91,0,0,0,1043.63,424.86Z"/><path class="cls-6" d="M1074.78,450.13c2.8-2-6.58-13.55-6.58-13.55-13.41,10.81-26,13.55-37.73,10.44C1019,444,1010.08,428,1010,427.81s-3.08-1.65-8.79,1.13c-8.49,4.13-7.13,7.59-7.13,7.59.33,1,9,22.39,29.77,27C1043.78,467.94,1062.85,460.07,1074.78,450.13Z"/><g class="cls-9"><path class="cls-10" d="M1027.51,461.58a5.52,5.52,0,0,1-.81-.06c-2.17-.31-3.73-1.72-3.55-3.21a2.06,2.06,0,0,1,.86-1.42,4.49,4.49,0,0,1,3.34-.69c2.17.31,3.73,1.72,3.55,3.21a2.06,2.06,0,0,1-.86,1.42A4.15,4.15,0,0,1,1027.51,461.58Zm-1-4.72a3.5,3.5,0,0,0-2.09.6,1.42,1.42,0,0,0-.58.93c-.13,1.06,1.22,2.17,2.94,2.42a3.81,3.81,0,0,0,2.8-.55,1.43,1.43,0,0,0,.59-.94c.13-1.06-1.22-2.16-2.94-2.41A5.94,5.94,0,0,0,1026.53,456.86Z"/></g><path class="cls-8" d="M1005.42,475.51s-16.84-.76-22.12-7.57c0,0-2.3,3.17.19,7.57,0,0,8.75,6.34,19.56,6.79S1005.42,475.51,1005.42,475.51Z"/><path class="cls-8" d="M1045.38,427.39s-2.43-16.32-12.14-24.34c0,0-2.13-1.28-2.77.22,0,0,6.86,5.27,11.41,24.46Z"/><path class="cls-8" d="M1026.41,427.32s-7.52-19.39-16.46-23.1a1.82,1.82,0,0,0-2.75.6s10.28,6.07,15.4,22.91Z"/><path class="cls-3" d="M1046.38,428.42c-.69-1.27-1.62-1.85-3.49-1.28a2.49,2.49,0,0,0-1.6,3.33c.61,1.31,2.1,2.51,3.82,1.44C1046.34,431.14,1047.22,430,1046.38,428.42Z"/><path class="cls-11" d="M1043.84,432a1.67,1.67,0,0,1-.53-.08,2.85,2.85,0,0,1-1.66-1.57,2,2,0,0,1,0-1.71,2.16,2.16,0,0,1,1.35-1.21,2.33,2.33,0,0,1,2,4.22A2,2,0,0,1,1043.84,432Zm.25-4.62a3.87,3.87,0,0,0-1,.17,2.09,2.09,0,0,0-1.28,1.14,2,2,0,0,0,0,1.61,2.72,2.72,0,0,0,1.58,1.5,1.83,1.83,0,0,0,1.55-.26,2.09,2.09,0,0,0,1-2.89h0A2,2,0,0,0,1044.09,427.37Z"/><path class="cls-11" d="M1045.41,428.73a.54.54,0,0,0-.74-.27.52.52,0,0,0-.33.7.55.55,0,0,0,.8.3A.53.53,0,0,0,1045.41,428.73Z"/><path class="cls-11" d="M1043.33,429.69a.55.55,0,0,0-.74-.27.52.52,0,0,0-.33.7.55.55,0,0,0,.8.31C1043.32,430.26,1043.5,430,1043.33,429.69Z"/><path class="cls-3" d="M1028,432.18c.15-1.45-.28-2.45-2.15-3a2.47,2.47,0,0,0-3.2,1.81c-.25,1.43.29,3.27,2.31,3.37C1026.41,434.39,1027.81,433.91,1028,432.18Z"/><path class="cls-11" d="M1025.21,434H1025a2,2,0,0,1-1.52-.72,2.84,2.84,0,0,1-.46-2.24,2,2,0,0,1,1-1.41,2.47,2.47,0,0,1,3.63,2.46A2.14,2.14,0,0,1,1025.21,434Zm-.07-4.56a2.1,2.1,0,0,0-1.08.3,1.92,1.92,0,0,0-.92,1.32,2.72,2.72,0,0,0,.44,2.14,1.9,1.9,0,0,0,1.43.67,2.09,2.09,0,0,0,2.48-1.8h0a2.09,2.09,0,0,0-1.74-2.53A1.81,1.81,0,0,0,1025.14,429.46Z"/><path class="cls-11" d="M1027,431.87c0-.3-.06-.51-.45-.64a.52.52,0,0,0-.67.38.55.55,0,0,0,.48.71C1026.68,432.34,1027,432.23,1027,431.87Z"/><path class="cls-11" d="M1024.76,431.48c0-.3-.06-.51-.45-.64a.52.52,0,0,0-.67.38.55.55,0,0,0,.48.71C1024.42,431.94,1024.72,431.84,1024.76,431.48Z"/><path class="cls-3" d="M1035.41,524c-1,0-2,0-3,0-8.6-.19-15.27-1.09-17-2.3-4.28-3,.92-40.87,1.15-42.48l0-.19.19.06c25.21,7.84,39.17,1.67,39.31,1.6l.22-.1v.24c.07,1.41,1.77,34.45,0,39.42-.28.79-1.3,1.47-3,2C1049.21,523.56,1041.84,524,1035.41,524Zm-18.53-44.58c-.19,1.42-1.41,10.54-2.17,19.86-1.37,16.8-.26,21.31.91,22.13,3.59,2.5,28.89,3.3,37.57.52,1.64-.52,2.59-1.13,2.84-1.82,1.67-4.69.15-36,0-39.06C1054.16,481.81,1040.39,486.7,1016.88,479.43Z"/><path class="cls-12" d="M1035.83,370.27a16.68,16.68,0,0,1,.6,6.92c-.46,3.92-5.2-5.2-5.2-5.2Z"/><ellipse class="cls-6" cx="1025.94" cy="380.7" rx="11.32" ry="13.65" transform="translate(-57.96 230.2) rotate(-12.45)"/><path class="cls-3" d="M1026.49,380.08a.24.24,0,0,0,.09-.18.23.23,0,0,0-.23-.23,2.48,2.48,0,0,0-2.51,1.73.24.24,0,0,0,.13.3.27.27,0,0,0,.3-.13,4,4,0,0,1,2.08-1.44A.24.24,0,0,0,1026.49,380.08Z"/><path class="cls-3" d="M1025.75,383.1c.19.52.65.82,1,.68a.89.89,0,0,0,.33-1.18c-.19-.51-.64-.81-1-.68A.89.89,0,0,0,1025.75,383.1Z"/><path class="cls-3" d="M1034.88,378.67a.18.18,0,0,0,.12-.13.28.28,0,0,0-.12-.3,1.61,1.61,0,0,0-2.31.47.27.27,0,0,0,0,.32.16.16,0,0,0,.25,0,2.45,2.45,0,0,1,1.92-.39A.15.15,0,0,0,1034.88,378.67Z"/><path class="cls-3" d="M1033,381.19c0,.55.29,1,.68,1s.74-.42.76-1-.28-1-.68-1S1033,380.65,1033,381.19Z"/><path class="cls-12" d="M1007.07,380.27s4.48,7.8,9.88,7.93c0,0-4.87-5.82,3.92-10.39C1020.87,377.81,1012.39,377.22,1007.07,380.27Z"/><path class="cls-6" d="M1015,384.1a2.21,2.21,0,1,0-1.17-3.09A2.35,2.35,0,0,0,1015,384.1Z"/><path class="cls-12" d="M1020.87,377.81s-.14,6.89,1.36,8.06,10.72.93,14.86-1.1h0a9,9,0,0,1-6.56,9.62,13.37,13.37,0,0,1-4.38.37h0c-3-.27-6.06-1.25-7.54-3.93-.45-.81.19-6.11.19-6.11s.14-3.09-1.77-4.52A8.69,8.69,0,0,1,1020.87,377.81Z"/><path class="cls-3" d="M1020.87,377.81s-1.17-4.71,2.54-5.37,7.92-1.67,9.48-.83,3.63,4.5,3.63,4.5,1.43-7.34-2.6-10.07-16.36-5.72-23.55.28-3.3,13.95-3.3,13.95A44.87,44.87,0,0,1,1020.87,377.81Z"/><path class="cls-3" d="M1014.6,366s-6-4.17-5.07-7.73,7-3,9.4-2.64,3.1,4.42,1.48,7.24S1014.6,366,1014.6,366Z"/><path class="cls-12" d="M1018.61,390.83s.44,4.69,4,7,1.56,4.83,4.81,8.32-.22,3.88,5.2,6.15,9.12-.54,7.74-4.62,3.22-3.36.64-8.45-3.86-1.72-2.55-7.49-1.36-7-1.36-7-2.85.45-5.13,1.06-4.42.07-6,.73S1018.61,390.83,1018.61,390.83Z"/><path class="cls-13" d="M1035.05,387.43a23.21,23.21,0,0,1-7.31,1.22,3.56,3.56,0,0,0,4.7,2.46C1034.66,390.5,1035.05,387.43,1035.05,387.43Z"/><path class="cls-14" d="M1104.76,445.18l-3.21-9.62-.93-2.8-5.5-16.46-.72,16.37-.43,9.83-.14,3.11c-.09,2.11-1.48,2.56-3.16,4.39-.69.75,1.1,1.78,6.47,1.91,7.2.17,12.2-.34,12.17-1.71C1109.28,450.19,1105.79,448.28,1104.76,445.18Z"/><ellipse class="cls-14" cx="1095.96" cy="422.45" rx="17.67" ry="15.72" transform="translate(451.16 1404.19) rotate(-77.78)"/><path class="cls-14" d="M1087.09,416.3c-9,.32-13.37-4.51-13.47-9-.14-5.73,3.75-10.8,8.27-8.67s2.58-3.09,6.93-3.65c8.13-1,9.66,4.33,16.31,4.59,8.77.35,18.78,13.93,11.42,23.84C1116.55,423.43,1094.21,416.05,1087.09,416.3Z"/><path class="cls-14" d="M1079.07,410.52s9.63,8.61,8.36,13.45-1,6.74,4.67,9.32.66,6.77,8.15,7.08,16.66-7.92,16.66-21.43a19.5,19.5,0,0,0-4.66-12.46Z"/><path class="cls-14" d="M1084.53,423.28a3.43,3.43,0,0,1,4.48-1,2.89,2.89,0,0,1,.53,4.24,3.41,3.41,0,0,1-4.48,1A2.89,2.89,0,0,1,1084.53,423.28Z"/><path class="cls-3" d="M1100.65,440.6h-.41c-4.29-.17-4.67-1.61-5.1-3.28a4.88,4.88,0,0,0-3.14-3.82c-5.62-2.58-6.11-4.56-4.79-9.58.45-1.74-.57-4.32-3-7.46a13.62,13.62,0,0,1-8.06-3.25,8.31,8.31,0,0,1-2.79-5.87c-.09-3.62,1.43-7.07,3.76-8.59a4.77,4.77,0,0,1,4.84-.3c2.26,1.07,2.71.24,3.39-1a4.24,4.24,0,0,1,3.41-2.66c4.62-.58,7.17.88,9.63,2.29a13.68,13.68,0,0,0,6.72,2.31c4.78.18,9.95,4.15,12.58,9.65,2.44,5.09,2.09,10.37-1,14.5C1115,434.33,1107.27,440.6,1100.65,440.6Zm-20.86-42.22a4.36,4.36,0,0,0-2.39.74c-2.21,1.44-3.64,4.73-3.56,8.2.13,5.32,5.55,8.23,10.54,8.68h.1l.06.08c2.56,3.34,3.61,6,3.11,7.94-1.29,4.89-.86,6.57,4.54,9.05a5.31,5.31,0,0,1,3.39,4.11c.4,1.56.72,2.79,4.68,2.95,6.52.27,14.31-5.93,16.07-16.75l0-.19h.08c2.9-4,3.22-9.08.87-14-2.52-5.26-7.65-9.21-12.19-9.39a14.11,14.11,0,0,1-6.92-2.37c-2.4-1.37-4.88-2.79-9.35-2.22a3.81,3.81,0,0,0-3.07,2.42c-.69,1.26-1.34,2.45-4,1.2A4.75,4.75,0,0,0,1079.79,398.38Z"/><path class="cls-3" d="M1103,430.18c-.15-.1-3.79-2.6-3.59-5.13.09-1.13.92-2.08,2.49-2.81,3.36-1.57,4.41-4.6,4-6.75s-2.23-3.49-4.8-3.58c-9.7-.35-12.63-3.59-14.22-6.73a4.24,4.24,0,0,0-2.69-2.38c-2.34-.61-4.91,1.09-4.94,1.1l-.25-.37c.11-.08,2.77-1.84,5.3-1.17a4.67,4.67,0,0,1,3,2.62c2.16,4.27,6.3,6.21,13.83,6.47,2.79.1,4.75,1.57,5.23,3.95s-.65,5.57-4.23,7.25c-1.4.66-2.15,1.48-2.23,2.43-.18,2.27,3.36,4.7,3.4,4.73Z"/><path class="cls-3" d="M1112.86,417.09l-.29-.35c2.31-1.95,1.91-5.22.76-7.63s-3.65-4.83-6-4.38c-4.67.92-10-1.06-10.25-1.14l.16-.43c.06,0,5.46,2,10,1.13,2.67-.52,5.22,2,6.46,4.63S1115.38,415,1112.86,417.09Z"/><path class="cls-3" d="M1105.71,433.05l-.14-.43a8,8,0,0,0,5.44-6.45l.45,0A8.47,8.47,0,0,1,1105.71,433.05Z"/><path class="cls-6" d="M1068.2,436.58s3.19-12,7.6-14.47,12-2.38,9.54-.24a27,27,0,0,1-5.37,3.57s7.51-3.19,7.51-.87-5.93,4.52-5.93,4.52,8.92-2.63,8.22-.44-7.14,4.32-7.14,4.32,8.3-2.4,7.42.14-8,2.34-8,4.67-.77,11.55-7.23,12.35Z"/><path class="cls-10" d="M1076.23,428.12l-.35-.12c.55-1.58,3.08-2.27,3.18-2.3l.1.37S1076.72,426.73,1076.23,428.12Z"/><path class="cls-10" d="M1076.69,432.68l-.32-.19a6.55,6.55,0,0,1,3.76-2.68l.09.36A6.37,6.37,0,0,0,1076.69,432.68Z"/><path class="cls-10" d="M1078,436l-.36-.1c.44-1.73,3.43-2.54,3.56-2.57l.1.36S1078.36,434.45,1078,436Z"/><rect class="cls-15" x="1083.15" y="450.13" width="32.53" height="21.75" rx="5.56"/><rect class="cls-15" x="1076.09" y="470.57" width="46.64" height="193.06"/><rect class="cls-15" x="1067.83" y="465.15" width="63.17" height="8.37" rx="2.14"/><path class="cls-16" d="M118.06,285.88,39.68,616.37s41.83,46.78,209.67,13.83l-74.67-348Z"/><path class="cls-17" d="M174.74,282.06c0,1.69-12.7,3.07-28.37,3.07s-28.31,2.45-28.31.75c0-12.12,12.65-23.51,28.31-23.51S174.74,271.19,174.74,282.06Z"/><path class="cls-11" d="M174.68,282.23c.08,1.18-6.05,2.61-15.08,3.71l-1.59.18c-3.49.4-7.37.74-11.44,1-3.46.23-6.78.37-9.86.44l-3.23.06c-9.09.07-15.34-.55-15.42-1.74-.06-1,4.49-2.22,11.55-3.23l1.73-.24c3-.4,6.35-.76,9.95-1.05,1.59-.14,3.22-.26,4.89-.37l3.44-.2c4.77-.24,9.18-.34,12.93-.29h.27C170,280.6,174.62,281.21,174.68,282.23Z"/><path class="cls-13" d="M162.55,280.5a18.21,18.21,0,0,1-25.84,7.06,18.32,18.32,0,0,1-3.43-2.78,19.1,19.1,0,0,1-1.94-2.37c3-.4,6.35-.76,9.95-1.05,1.59-.14,3.22-.26,4.89-.37l3.44-.2C154.39,280.55,158.8,280.45,162.55,280.5Z"/><path class="cls-17" d="M146.37,264.41h0a1.22,1.22,0,0,1-1.21-1.22V243.11a1.21,1.21,0,0,1,1.21-1.22h0a1.21,1.21,0,0,1,1.22,1.22v20.08A1.22,1.22,0,0,1,146.37,264.41Z"/><path class="cls-17" d="M142.84,262.91a3.53,3.53,0,1,1,3.53,3.56A3.55,3.55,0,0,1,142.84,262.91Z"/><path class="cls-18" d="M158.32,619.82c-2.29-.73-4.94-1.32-6.41-1.93-3.51-1.47-3.64-6.65-3.64-6.65,2.46-12.33,11.41-38.87,17.12-65A40.4,40.4,0,0,0,174,526.4l.29.26q-.26-4.57-.5-9.08a1.62,1.62,0,0,0,1.73-1.3l1.7-9.28.88.2-1.41,7.64a1.62,1.62,0,0,0,1.3,1.87,1.6,1.6,0,0,0,1.87-1.29l1.43-7.75c.31,0,.6,0,.88,0L181,514.14a1.61,1.61,0,0,0,3.16.58l1.91-10.34c1-3.86.13-8.22-.45-10.3a295.93,295.93,0,0,0-5.06-40.2A153.87,153.87,0,0,0,171,422.69q-.88-2-1.62-3.66a1.59,1.59,0,0,1-.12-.27c-.18-1.41-.35-2.59-.53-3.47-.58-2.87-3-6.49-5.73-9a9,9,0,0,0-2.86-6.22c-3.17-3.37-.59-10.54,2.4-14.21a9,9,0,0,0,1.55-7.11,15.56,15.56,0,0,0-7.37-10.33,18.16,18.16,0,0,0-8.56-2.67,19.23,19.23,0,0,0-8.18.42s-8.17-1.41-12.4,3.63a27.51,27.51,0,0,0-3.31,4.94c-.52.76-1.1,1.63-1.65,2.54-2.25,3.72-3,6.21-2.14,7.41,1.09,1.59,2.49,3.84,1.92,5-.27.55-1,.87-2.1,1-3.63.26-8.54,1.3-10.33,7.09a14.25,14.25,0,0,0-1.25,8.8c-5.16,2.54-6.9,5.2-6.9,5.2a51.74,51.74,0,0,0-5.28,8.35c-5.61,10.37-7.71,20.72-6.07,29.93,1.92,10.79,8.55,19.63,19.73,26.32-2.51,32.82-19.84,128.18-39.34,136.16C47.72,622,57.21,628,56,634a3.23,3.23,0,0,1-.44,1.07l144.24,1V624.78a.61.61,0,0,0,.26-.42C200.06,622.33,182.92,620.59,158.32,619.82Zm15-114.13.86.36-.74,4c-.07-1.31-.14-2.6-.2-3.89Zm-10.91-99.87a13.57,13.57,0,0,0-1.62-1.16,8.69,8.69,0,0,0-.54-3.54A8.2,8.2,0,0,1,162.38,405.82Zm-6-36.84a15,15,0,0,1,7.1,9.92,8.35,8.35,0,0,1-1.43,6.63c-2.32,2.84-4.32,7.49-4,11.24-3.34-7.32,2.84-10.34,2.69-16.23A16.44,16.44,0,0,0,152,367.05,16.83,16.83,0,0,1,156.39,369Zm-47,82.76a15.12,15.12,0,0,1-1.85-4.95c-.9-5,2.23-10.48,5.54-15.27C112,436.26,110.29,444.49,109.4,451.74Zm2.45-56.51c1.38-1.93,3.85-3.58,8.49-3.91,1.36-.09,2.23-.53,2.59-1.29.7-1.45-.6-3.66-2-5.64-.75-1.09.39-3.72,1.91-6.31-.79,2.44-.9,4.62-.14,6,2.32,4.22,3.32,6.95-5.24,8.36A10.21,10.21,0,0,0,111.85,395.23ZM138,615a38.92,38.92,0,0,0-.38,4.4q-3.9,0-7.93,0H125.4c-2.3-.73-5-1.32-6.44-1.94l-.47-.23c2.13-5.09,10.16-12.58,19.24-24.77l.3-.42Zm.11-50.46a6.77,6.77,0,0,1,0-2.46Z"/><path class="cls-17" d="M217.25,642.91c0,2.82-32.38,5.1-72.31,5.1s-72.3-2.28-72.3-5.1,32.37-5.1,72.3-5.1S217.25,640.09,217.25,642.91Z"/><rect class="cls-17" x="72.64" y="617.4" width="144.34" height="25.95"/><ellipse class="cls-19" cx="144.94" cy="617.4" rx="72.3" ry="5.1"/><path class="cls-17" d="M155.52,352.22s-8.39-1.45-12.74,3.72-6.6,11.66-5,14.62c2.38,4.34,3.41,7.14-5.39,8.59-11.39,1.87-11.23,17.55-5,21.64s44.36-4.17,45.61-4.42,6.83-2.79,1.86-11.36,2.19-11.67,2-18.09S170.33,348.49,155.52,352.22Z"/><path class="cls-11" d="M148.89,389.05a5.26,5.26,0,0,0,4.28-3.14l2.36-5.47.68-1.59,4-9.34-.69,9.68-.42,5.81-.12,1.65a2.65,2.65,0,0,0,2.18,2.79h0c.72,1.17,1.71,3.53-1.25,4.47-3.47,1.11-9.08-1.62-11.09-4.86Z"/><path class="cls-17" d="M155.52,380.28c0,.05,0,.1,0,.16.23,3.12,3.57,4.57,3.57,4.57h0l.42-5.81c-1-.38-2.48-.76-3.33-.34A1.37,1.37,0,0,0,155.52,380.28Z"/><path class="cls-11" d="M202,482.3l-7.24.38a2,2,0,0,0-.45-1.61l-.39-.44a2,2,0,0,0-2.82-.2l-8.08,7a2,2,0,0,0-.19,2.82l.38.44a2,2,0,0,0,2.82.2l1.39-1.21-2.25,12.2a1.66,1.66,0,0,0,1.32,1.93h0a1.67,1.67,0,0,0,1.93-1.33s.4-6.68.71-6.56l-.37,9.81c-.16.89,2,2.35,3.3-.34,0,0,1.45-8.32,1.75-8.26l-.52,7.39c-.45,3.2,2,2.83,3,.2,0,0,1.44-7.05,1.73-7l-.35,6.46c-.38,2.31,1.77,3.18,2.68-.6l2.53-9.44C204.37,488.72,202,482.3,202,482.3Z"/><path class="cls-11" d="M186.76,484.17c-1.67-18.37-5.5-44.63-14.26-65.43a62.1,62.1,0,0,0-4.46-9.26c-1.27-2.12,1-6.77,4.61-9,3.38-2.08,8.64-1.74,9.47-.71,1.41,1.75,2.92,5.11,5.27,10.44,8.17,18.54,13.06,42.48,15,73.34Z"/><path class="cls-11" d="M164.05,603.93s.13,5.32,3.74,6.83,14,2.86,10.14,6.28c-2.24,2-12.79.7-15.77.7s-5.78,1.29-8-.7c-2.44-2.19,0-13.11,0-13.11a11.89,11.89,0,0,0,4.88,1.28A9.56,9.56,0,0,0,164.05,603.93Z"/><path class="cls-11" d="M130.2,603.49s.13,5.32,3.74,6.83,14.05,2.86,10.14,6.28c-2.24,2-12.79.7-15.77.7s-5.78,1.29-8-.7c-2.44-2.19,0-13.11,0-13.11a11.89,11.89,0,0,0,4.88,1.28A9.56,9.56,0,0,0,130.2,603.49Z"/><path class="cls-11" d="M190.84,457.89s.67,22.3-6.45,65.08c-5.14,30.88-17.37,66-20.34,81-1.07,5.33-11,9.75-10.57,3.88l.22-109.87,1.78-33.22Z"/><path class="cls-11" d="M132,403.32s5.34-15,24.35-14.33,33.37,25.67,36.92,79.37c0,0-31.13-6.83-67.6,9.1C125.68,477.46,123.66,425.21,132,403.32Z"/><path class="cls-11" d="M116.32,399.05l15.81,12s34.62,3.46,43.81,1.8,9.78-6.38,9.78-6.38-7.9-14-24.54-17a45.85,45.85,0,0,0-4.82-.45c-2.82-.2-4.72.08-7.5.06C123,388.84,116.32,399.05,116.32,399.05Z"/><ellipse class="cls-11" cx="160.67" cy="371.06" rx="9.09" ry="11.22"/><path class="cls-17" d="M162.38,362s5.51.62,4.77,5.05,4.31,3.11,4.31,3.11,1.71-9.95-2.71-11-6-.46-6-.46Z"/><path class="cls-7" d="M190.8,517s-3,25.83-27.14,30.45,4.2,17.49-10.44,37.15-26.64,27.43-16.68,32.4-9.06,7.12-9.06,7.12c-26.28-2.8-19.7,16.15-28.71,23.86s-46,5.34-47.54-5.11,16.78-9.56,18-15.64-8.5-12.25,15.26-22,44.39-145.79,40.19-151,4.15-39,4.15-39c35.06-1.38,41.81-22.91,41.81-22.91,3.21-5.85,13.13,4,14.4,10.28s2.4,27.66,2.4,37.21C187.46,447.49,188.76,481.2,190.8,517Z"/><path class="cls-11" d="M130.8,465.77l5.07-11.18a3.27,3.27,0,0,0-1.29-4.16c-7.2-4.12-11.35-9-12.36-14.63-1.41-7.78,6.71-16.75,10.57-22.55,2-3-1.55-5.81-4.67-9.44-1.29-1.51-2.56-2.56-6.7-4.29-2-.83-4-1.91-5.1-.47-1.75,2.24-3,4.9-5.42,9.39-5.77,10.65-7.92,21.28-6.24,30.75,2.06,11.62,10.32,20.58,22.82,27.56C127.48,466.75,130.05,467.42,130.8,465.77Z"/><path class="cls-11" d="M131.22,451.52s5.19-5.61,9.66-5.52,10.11,3.58,7.33,4.11a29.28,29.28,0,0,1-6.53.24s8,1,6.93,2.77-8,.81-8,.81,9.39,2,7.86,3.31-8.64-.2-8.64-.2,8.65,2.18,6.85,3.7-7.15-1.85-8.19-.09-5.79,8.41-11,6.1Z"/><path class="cls-20" d="M138.39,450.78a.19.19,0,0,1-.13,0,.17.17,0,0,1,0-.24c1.13-.94,3.35-.33,3.45-.3a.16.16,0,0,1,.11.2.16.16,0,0,1-.2.12s-2.15-.6-3.15.24A.17.17,0,0,1,138.39,450.78Z"/><path class="cls-20" d="M136.71,454.42a.18.18,0,0,1-.15-.08.18.18,0,0,1,.07-.23,5.82,5.82,0,0,1,4.06-.33.16.16,0,1,1-.1.31,5.59,5.59,0,0,0-3.8.31A.13.13,0,0,1,136.71,454.42Z"/><path class="cls-20" d="M136.16,457.51a.19.19,0,0,1-.12,0,.18.18,0,0,1,0-.24c1.12-1.11,3.75-.38,3.86-.35a.16.16,0,0,1,.11.21.15.15,0,0,1-.2.11s-2.56-.71-3.53.27A.17.17,0,0,1,136.16,457.51Z"/><path class="cls-20" d="M125.55,561.6l-.17-.26c11.05-6.88,26.58-21.84,37.84-54.06a191.94,191.94,0,0,0,8.79-36l.31,0a192.62,192.62,0,0,1-8.81,36.05C157.28,525.21,145.63,549.1,125.55,561.6Z"/><path class="cls-20" d="M123.24,530.48l-.11-.29c19.31-7.68,30.37-22.86,36.26-34.25a88.35,88.35,0,0,0,8.23-23.1l.3.05a88.17,88.17,0,0,1-8.25,23.19C153.76,507.51,142.64,522.76,123.24,530.48Z"/><path class="cls-20" d="M130.18,500.35l-.07-.3c14.39-3.36,22.21-10.58,26.23-16a30.14,30.14,0,0,0,5.34-11.18l.31.06a30.48,30.48,0,0,1-5.39,11.29C152.54,489.69,144.67,497,130.18,500.35Z"/><path class="cls-20" d="M181.24,437.41l-.29-.13c5.3-11.62-4.09-41.2-4.19-41.5l.3-.09C177.15,396,186.58,425.68,181.24,437.41Z"/><path class="cls-20" d="M170.42,421.75l-.27-.16a37.18,37.18,0,0,0,4.61-25.12l.31-.07A37.57,37.57,0,0,1,170.42,421.75Z"/><path class="cls-20" d="M160.88,414.71l-.14-.28c11.53-5.78,11.08-16.35,11.08-16.46h.31C172.14,398.07,172.59,408.84,160.88,414.71Z"/><path class="cls-17" d="M162.38,362s1.2,4.35-4.85,4.87-6.77,5.42-5.7,8.73c1.15,3.6,3.61,5.14-.25,7.22-2,1.07.5,3,3.94,8.69s3.93,12.72-.73,14.87c-5.93,2.75-.22,10.56-6.89,13-11.74,4.22-22.34-4.29-16.18-11.39,8.3-9.56,2.52-18.18-1.33-17.2s-4.7-7.05,3.48-8.42,11.08-6.15,9.22-11.22,3.58-16.77,11.06-16.25S166,357.26,162.38,362Z"/><path class="cls-11" d="M150.47,372.72a2.25,2.25,0,0,0,3.22.23,2.5,2.5,0,0,0-.51-3.34,2.25,2.25,0,0,0-3.22-.23A2.5,2.5,0,0,0,150.47,372.72Z"/><path class="cls-6" d="M180.63,419.11c0-3.2,8.09-6.22,8.09-6.22,1.05.2,1,19.64,16.54,27.5,6.69,3.38,19.23.78,20.74.12.2-.08,5.62,14.09,5.62,14.09-2.74,1.19-2.58,2.17-11.24,1.9C197.2,455.77,184.54,446.29,180.63,419.11Z"/><path class="cls-3" d="M238.85,632.09s-.24,4.49-3.32,5.68-11.92,2.09-8.71,5.07c1.85,1.71,10.79.88,13.31.95s4.84,1.23,6.76-.41c2.11-1.79.3-11.07.3-11.07a10.09,10.09,0,0,1-4.15,1A8,8,0,0,1,238.85,632.09Z"/><path class="cls-14" d="M221.83,550.3c.16,1.21.07,3.16.24,4.41,3.92,28.24,7.13,57,9.47,70.69a10.59,10.59,0,0,0,9.66,8.87l2.6.18a8.91,8.91,0,0,0,9.37-9.39l-4.1-92-.8-30.29S217,513.6,221.83,550.3Z"/><path class="cls-3" d="M267.67,632.86s-.23,4.5-3.31,5.68-11.93,2.1-8.71,5.08c1.85,1.71,10.79.88,13.3.94s4.85,1.23,6.76-.4c2.11-1.8.3-11.07.3-11.07a10.09,10.09,0,0,1-4.15,1A8,8,0,0,1,267.67,632.86Z"/><path class="cls-14" d="M245.07,496.42s-1.15,20.28,4.28,59.39c3.92,28.24,8.67,56.72,11,70.37a10.6,10.6,0,0,0,9.67,8.87l2.6.18a8.9,8.9,0,0,0,9.36-9.39l-4.09-92.06-.81-30.28Z"/><path class="cls-3" d="M279.84,519.62c-.12,2.44-15,3-33.26,2s-24.33-3.86-24.21-6.31,6.38-3.62,24.68-2.55S280,517.17,279.84,519.62Z"/><path class="cls-8" d="M280.36,455.64a15.09,15.09,0,0,0-3.08-7.53c-3.55-4.56-11.34-11.14-26.84-11.65-34.45-1.11-31,36-31.44,75.83A251,251,0,0,1,279.88,519S282.63,474.86,280.36,455.64Z"/><path class="cls-8" d="M280.75,459.74l-10.49-3s-42,7.79-49.65,2.71c-9-6-3.82-17.77-3.82-17.77s8.77-2.7,25.27-4.92a46,46,0,0,1,4.81-.42,71.53,71.53,0,0,1,8.3.39C281.26,438.76,280.75,459.74,280.75,459.74Z"/><path class="cls-6" d="M253.81,433.61l-1.65-5.87-.48-1.7L248.86,416l-.67,9.9s-.39,4.45-.4,5.94a12,12,0,0,1-.62,4.52c-1.22,1.24-4.29,3.08-1.53,4.38,3.43,1.63,10-.66,12.58-3.64C258.2,437.09,254.58,436.67,253.81,433.61Z"/><path class="cls-14" d="M221.5,516.36s15.17-4.47,56.06,4.65l.16,5.92-55.7.47Z"/><path class="cls-3" d="M274.47,463c-.8,1.71-5.24,1.41-9.92-.67s-7.85-5.15-7.06-6.86,5.24-1.42,9.92.66S275.26,461.32,274.47,463Z"/><path class="cls-12" d="M243,410.4a13.13,13.13,0,0,0-1.09,5.33c0,3.09,4.51-3.57,4.51-3.57Z"/><ellipse class="cls-6" cx="249.78" cy="419.41" rx="10.68" ry="8.86" transform="translate(-228.25 518.29) rotate(-70.91)"/><path class="cls-3" d="M259,419.36l-4.11-1.3a3.14,3.14,0,0,1-2-1.84c-.58-1.53-1.48-2.43-5.42-3.09-5-.83-7.67-4.46-7.68-7.17s2.91-4,5.14-2.26,1.8-1.54,4.27-1.38c4.6.31,4.73,3.93,8.42,4.57,4.84.84,12.7,6.26,6.87,13.89Z"/><path class="cls-3" d="M249.42,418.88a.2.2,0,0,1-.06-.15.19.19,0,0,1,.2-.16,1.94,1.94,0,0,1,1.79,1.57.17.17,0,0,1-.12.22.19.19,0,0,1-.22-.13,3,3,0,0,0-1.49-1.3A.23.23,0,0,1,249.42,418.88Z"/><path class="cls-3" d="M249.72,421.29c-.2.38-.58.58-.86.44a.71.71,0,0,1-.15-1c.2-.38.58-.58.85-.43A.69.69,0,0,1,249.72,421.29Z"/><path class="cls-3" d="M243,417a.14.14,0,0,1-.08-.11.21.21,0,0,1,.12-.22,1.26,1.26,0,0,1,1.75.57.22.22,0,0,1-.05.25.13.13,0,0,1-.2,0,1.85,1.85,0,0,0-1.45-.47Z"/><path class="cls-3" d="M244.25,419.15c0,.43-.31.76-.62.73s-.54-.39-.5-.82.31-.75.62-.73S244.28,418.72,244.25,419.15Z"/><path class="cls-12" d="M264.49,420.78s-4.18,5.66-8.39,5.28c0,0,4.31-4.09-2.11-8.44C254,417.62,260.64,417.93,264.49,420.78Z"/><path class="cls-6" d="M258,423a1.73,1.73,0,1,1,1.18-2.29A1.84,1.84,0,0,1,258,423Z"/><path class="cls-12" d="M254,417.62s-.51,5.37-1.79,6.14-8.42-.25-11.45-2.2h0a7,7,0,0,0,4.23,8.08,10.32,10.32,0,0,0,3.37.68h0c2.39.07,4.83-.43,6.22-2.37.42-.59.4-4.77.4-4.77s.17-2.42,1.79-3.36A6.87,6.87,0,0,0,254,417.62Z"/><path class="cls-3" d="M245.94,403.44a2,2,0,0,1-.46-.06l.05-.24a1.1,1.1,0,0,0,1.44-.66l.23.07A1.32,1.32,0,0,1,245.94,403.44Z"/><path class="cls-13" d="M246.35,411.45a16,16,0,0,1-2.5-1.69c-1.61-1.35-2.38-2.69-2.24-3.87a1.94,1.94,0,0,1,.78-1.57c.67-.37,1.6.06,2.43.44l.36.16-.05.11-.36-.16c-.8-.37-1.71-.79-2.32-.44-.39.21-.62.69-.72,1.48-.34,2.76,4.62,5.41,4.67,5.43Z"/><path class="cls-13" d="M259.48,408.29a10,10,0,0,1-5.68-2.07,6.62,6.62,0,0,1-1.62-1.79l.11-.06s1.9,3.44,7.2,3.8Z"/><path class="cls-6" d="M244.77,426.13a3.16,3.16,0,0,1-2.42-1.09.18.18,0,0,1,.28-.22,3,3,0,0,0,3.77.56.18.18,0,0,1,.15.33A4.34,4.34,0,0,1,244.77,426.13Z"/><path class="cls-21" d="M233,453.83l14.37.75a7.11,7.11,0,0,1,6.72,6.72c.51,9.19,2.79,26,12.45,34.55a8.31,8.31,0,0,1,2.82,6l1.17,58.55a10.7,10.7,0,0,1-10.7,10.93H228.32a8.16,8.16,0,0,1-8.15-7.73c-.62-11.58-1.67-34.17-1.67-53.94,0-5.25.56-26.39,1-30.63.44-4.7,4.88-15.53,7.43-21.45A6.31,6.31,0,0,1,233,453.83Z"/><path class="cls-3" d="M204.58,471.38h0a1.48,1.48,0,0,1-.6-2l12.94-23.8a1.48,1.48,0,0,1,2-.6h0a1.5,1.5,0,0,1,.6,2l-12.94,23.8A1.47,1.47,0,0,1,204.58,471.38Z"/><rect class="cls-3" x="209.46" y="446.67" width="14.36" height="5.06" rx="1.62" transform="translate(240.84 -48.92) rotate(28.53)"/><path class="cls-6" d="M210.34,476.33c-2.24-1.63,8.12-9.32,8.12-9.32,10.7,8.62,21.34,7.41,27.51,5.32,9-3,13.8-16,13.85-16.15s2.46-1.31,7,.91c6.77,3.29,5.69,6.05,5.69,6.05-.27.78-7.18,17.86-23.74,21.53C232.9,488.19,219.85,484.25,210.34,476.33Z"/><g class="cls-9"><path class="cls-10" d="M244.82,483.91a3.32,3.32,0,0,1-2-.6,1.64,1.64,0,0,1-.69-1.13c-.14-1.19,1.1-2.31,2.83-2.56a3.63,3.63,0,0,1,2.67.55,1.68,1.68,0,0,1,.69,1.13c.14,1.19-1.1,2.31-2.83,2.56h0A4.87,4.87,0,0,1,244.82,483.91Zm.78-3.77a3.9,3.9,0,0,0-.58.05c-1.37.19-2.44,1.08-2.34,1.92a1.11,1.11,0,0,0,.47.74,3,3,0,0,0,2.23.44c1.38-.2,2.45-1.08,2.35-1.92a1.15,1.15,0,0,0-.47-.74A2.7,2.7,0,0,0,245.6,480.14Z"/></g><path class="cls-6" d="M218.46,467s-1.05-9.82-4.22-12.34-9.13-3.33-7.49-1.35a21.53,21.53,0,0,0,3.8,3.47s-5.53-3.43-5.82-1.6,4.13,4.28,4.13,4.28-6.72-3.16-6.43-1.35,5.1,4.28,5.1,4.28-6.25-2.91-5.86-.8,6.05,2.83,5.76,4.66-.8,9.21,4.19,10.62Z"/><path class="cls-10" d="M213.16,459.36c-.21-1.16-2-2-2-2l.12-.27c.08,0,2,.89,2.23,2.2Z"/><path class="cls-10" d="M212.24,462.9a5,5,0,0,0-2.47-2.41l.11-.28a5.21,5.21,0,0,1,2.64,2.58Z"/><path class="cls-10" d="M210.83,465.33c-.12-1.25-2.29-2.21-2.31-2.22l.12-.28c.1.05,2.35,1.05,2.49,2.47Z"/><path class="cls-6" d="M190.07,419.54s2.35-10.64.61-13.66-6.25-5.54-5.57-3.45a23.28,23.28,0,0,0,2.3,4.54s-3.69-5.05-4.5-3.67,2.45,5.73,2.45,5.73-4.88-5.65-5.22-4.11,3.4,5.82,3.4,5.82-4.75-5.08-5.1-3.28,3.95,4.18,3.14,5.55-3.54,7.12,0,9.82Z"/><path class="cls-3" d="M177,412.11h0a.91.91,0,0,1,.48-1.19l25.21-10.59a.91.91,0,0,1,1.19.49h0a.91.91,0,0,1-.49,1.18l-25.2,10.59A.9.9,0,0,1,177,412.11Z"/><path class="cls-6" d="M186.93,415.15s-2.66-6.39-3.71-6.11.64,6.88.23,8.71,0,3.17,1.45,3.21S188.5,418.52,186.93,415.15Z"/><path class="cls-10" d="M182.55,419.71a4.2,4.2,0,0,1,.19-3c1-1.83,0-6,0-6.08l.29-.07c0,.17,1,4.36,0,6.29a3.91,3.91,0,0,0-.17,2.77Z"/><path class="cls-10" d="M187.9,415.13c-1.67-.67-3.39-5-3.46-5.18l.28-.11c0,.05,1.74,4.39,3.29,5Z"/><path class="cls-21" d="M263.49,494.23s13.43-.61,17.64-6a5.69,5.69,0,0,1-.15,6,32,32,0,0,1-15.6,5.41C256.76,500,263.49,494.23,263.49,494.23Z"/><path class="cls-21" d="M231.62,455.85s1.94-13,9.68-19.41c0,0,1.7-1,2.21.17,0,0-5.47,4.21-9.1,19.51Z"/><path class="cls-21" d="M246.75,455.8s6-15.47,13.13-18.43a1.45,1.45,0,0,1,2.19.48s-8.2,4.84-12.29,18.27Z"/><path class="cls-3" d="M230.82,456.67a2,2,0,0,1,2.78-1,2,2,0,0,1,1.28,2.65,2.08,2.08,0,0,1-3,1.15C230.86,458.84,230.16,457.89,230.82,456.67Z"/><path class="cls-11" d="M232.84,459.52a1.61,1.61,0,0,1-.89-.28,1.76,1.76,0,0,1-.85-2.45h0a2,2,0,0,1,3.49,0,1.62,1.62,0,0,1,0,1.36,2.25,2.25,0,0,1-1.32,1.26A1.54,1.54,0,0,1,232.84,459.52Zm-1.65-2.68a1.67,1.67,0,0,0,.81,2.31,1.48,1.48,0,0,0,1.24.21,2.17,2.17,0,0,0,1.26-1.2,1.55,1.55,0,0,0,0-1.28,1.87,1.87,0,0,0-3.31,0Z"/><path class="cls-11" d="M231.6,456.91a.42.42,0,0,1,.58-.21.42.42,0,0,1,.27.56.44.44,0,0,1-.64.24A.43.43,0,0,1,231.6,456.91Z"/><path class="cls-11" d="M233.26,457.69a.46.46,0,0,1,.85.34.44.44,0,0,1-.64.24C233.27,458.14,233.12,457.94,233.26,457.69Z"/><path class="cls-3" d="M245.48,459.67c-.12-1.16.23-1.95,1.71-2.43a2,2,0,0,1,2.56,1.45,2.07,2.07,0,0,1-1.84,2.68C246.75,461.43,245.63,461.05,245.48,459.67Z"/><path class="cls-11" d="M247.71,461.14a1.71,1.71,0,0,1-1.93-1.53h0a1.77,1.77,0,0,1,1.46-2.13,1.74,1.74,0,0,1,1.44.17,1.65,1.65,0,0,1,.78,1.13,2.26,2.26,0,0,1-.38,1.78,1.53,1.53,0,0,1-1.21.57Zm0-3.64a1.4,1.4,0,0,0-.49.08,1.68,1.68,0,0,0-1.39,2h0a1.68,1.68,0,0,0,2,1.43,1.44,1.44,0,0,0,1.13-.53,2.17,2.17,0,0,0,.36-1.71,1.53,1.53,0,0,0-.74-1.05A1.64,1.64,0,0,0,247.76,457.5Z"/><path class="cls-11" d="M246.26,459.42a.43.43,0,0,1,.36-.51.42.42,0,0,1,.54.31.44.44,0,0,1-.39.56C246.53,459.79,246.29,459.71,246.26,459.42Z"/><path class="cls-11" d="M248.07,459.11a.46.46,0,0,1,.89-.2.44.44,0,0,1-.39.56C248.33,459.48,248.1,459.4,248.07,459.11Z"/><path class="cls-3" d="M239.57,532.91c-5.13,0-11-.37-14.26-1.41-1.38-.44-2.2-1-2.42-1.61-1.42-4-.07-30.32,0-31.44v-.19l.17.08c.11.05,11.26,5,31.35-1.28l.15,0,0,.15c.18,1.28,4.33,31.5.92,33.88-1.38,1-6.7,1.68-13.55,1.83C241.19,532.9,240.39,532.91,239.57,532.91Zm-16.44-34.26c-.12,2.41-1.34,27.41,0,31.15.19.55,1,1,2.26,1.46,6.92,2.21,27.1,1.57,30-.42.94-.66,1.83-4.25.73-17.65-.61-7.43-1.58-14.7-1.73-15.84C235.6,503.15,224.62,499.25,223.13,498.65Z"/><path class="cls-10" d="M208.42,455.24c-.2-.17-1.95-1.69-1.94-2.58a.54.54,0,0,1,.2-.43c1.48-1.21,6,1.35,6.15,1.46l-.15.26c-1.24-.72-4.72-2.39-5.81-1.49a.26.26,0,0,0-.09.21c0,.63,1.32,1.9,1.84,2.34Z"/><polygon class="cls-16" points="636.33 -8.5 636.33 268.04 468.04 257.83 468.13 136.22 468.23 52.89 468.27 12.15 559.68 0.92 571.51 -0.52 575.73 -1.03 636.33 -8.5"/><polygon class="cls-22" points="649.47 -8.49 636.36 -8.49 636.36 268.05 645.67 267.08 649.47 -8.49"/><path class="cls-15" d="M531.1,105.92c-5.48,4.22-14.85,5.94-4.55-2.64s10-20,8.31-19.86S532.07,88,532.07,88c-19,35.07-57.77,46.63-63.94,48.25l.1-83.33C499.78,44.21,518.34,6,518.34,6L559.68.92C569.42,62.31,536.57,101.7,531.1,105.92Z"/><path class="cls-5" d="M571.52-.53s8.65,36.45-3.86,59.81c0,0-2,4.58,3.39,4s13.84-25.27,9-48.18A97.49,97.49,0,0,0,575.73-1Z"/><path class="cls-23" d="M636.35,27s-44.65,14.69-51.4,46c0,0-.91,4.52,2.43,3.77s9.38-17.22,17.51-20.76-19.39,25-18.56,43.36,16.76,10.43,22,1.89,18-16.76,17.38-11,6,8.07,10.6,4.53Z"/><path class="cls-3" d="M656,280.44s-8.89-46-10.27-47.35-3.51-.15-2.76,2.4,11.1,44,11.53,44.95S656.29,281.72,656,280.44Z"/><path class="cls-15" d="M604.89,222.53C604.83,215,621,194.12,631.5,191.3c11.9-3.18,27.15-9,31.62,1.49s-10.52,42.68-10.52,42.68a4.66,4.66,0,0,1-3.87,3.18c-3,.32-40.49,1.44-40.54,0C608.15,237.73,599.6,224.06,604.89,222.53Z"/><path class="cls-3" d="M589.42,273.2s-1,6.68-3.75,10.09c-1.8,2.24-6.75,6.69-3.23,8.17,2.82,1.18,8.24-4.08,10-5.39s4.41-3.79,3.82-5.91a34.2,34.2,0,0,1-.82-9.88Z"/><path class="cls-3" d="M603,268s1.36,6.62,0,10.76c-.9,2.73-4,8.62-.18,8.79,3,.13,6.3-6.7,7.49-8.54s2.82-5.09,1.53-6.86a34.33,34.33,0,0,1-4.2-9Z"/><path class="cls-14" d="M601.12,272.7c-36.54-24.37-34.73-45.72-29.67-54.07,5.88-9.7,15.19-17.37,29.46-20.79a79,79,0,0,1,10.45-1.74,7.3,7.3,0,0,1,8,7.46L619.08,216h0c-6.09-.12-24.59,1.74-29.43,11.59-1,2,23.58,30.94,22.67,36.12C611.3,269.56,604.69,275.08,601.12,272.7Z"/><path class="cls-14" d="M587,276.35a7.27,7.27,0,0,1-7.3-7.7c.55-9.33,2.28-25.2,7.71-37.19a51.26,51.26,0,0,1,14.56-18.38,81.33,81.33,0,0,1,17.64-10.81c11.22-5.16,19.3-4.44,19.3-4.44l6.13,9c-.08,0,1.72,9.12-11.24,17.24-7.15,4.48-21.54,7.22-27.45,18.79-4.22,8.27-5.84,19.23-6.37,26.89a7,7,0,0,1-7,6.52Z"/><path class="cls-6" d="M595.3,165.78a80.47,80.47,0,0,0-10.24,28.78C583.28,205.94,604,192.7,604,192.7l.92-23.76Z"/><path class="cls-23" d="M633,159.23s-5.74-9.81-19-6.8-18.63,16.52-19.57,49c0,0,7.94,14.06,44.09,11.32,4-.31,9.75-.84,7.79-7.33C642.67,193.33,639.15,169.25,633,159.23Z"/><path class="cls-23" d="M647.53,162.09l-13.61,2.56s-24.09,11-30.75,11.09-9.14-8.81-9.14-8.81a35.32,35.32,0,0,1,16.64-13.43c1.06-.4,2.17-.76,3.33-1.07a24.12,24.12,0,0,1,5.92-1C642.38,151.18,647.53,162.09,647.53,162.09Z"/><path class="cls-3" d="M647.53,162.09c.29,1.08-2.56,2.87-6.38,4s-7.14,1.19-7.43.11,2.55-2.86,6.37-4S647.23,161,647.53,162.09Z"/><path class="cls-6" d="M619.89,151.44a4,4,0,0,1-3.68-1.75l-2.56-3.79-.74-1.1-4.37-6.46,1.91,7.19,1.15,4.32.33,1.23a2,2,0,0,1-1.24,2.42h0c-.37,1-.78,2.91,1.58,3.19,2.77.34,6.61-2.53,7.67-5.25Z"/><path class="cls-3" d="M616.56,135.57a8.24,8.24,0,0,0,1.1,3.58c1.69,3.39-2.13,5.67-3.37,4.85-.16-.1-1.15-6.24-1.15-6.24l1.17-1Z"/><path class="cls-3" d="M613.64,145.78s0,.08,0,.12c.28,2.39-2,4-2,4h0l-1.15-4.32a3.89,3.89,0,0,1,2.46-.73A1,1,0,0,1,613.64,145.78Z"/><ellipse class="cls-6" cx="608.43" cy="139.57" rx="6.98" ry="8.61" transform="translate(-15.36 116.07) rotate(-10.76)"/><path class="cls-3" d="M604.49,133.6c.23.22,0,4.77,8.24,4.28s1.55-9.35-4.43-8.44c-8.65,1.31-8.8,7.32-7.58,9.24S604.49,133.6,604.49,133.6Z"/><path class="cls-3" d="M615.89,125.89s-3.16,3.11.06,4.86,11.06,1.29,9.7,5.53-2.08,10.29,1.81,10.28,6.21-.73,8.31,2,8.57-.45,7.34-3.91,4-7.7.88-10.5-9.79-4.48-12.13-8.46S618.46,123.48,615.89,125.89Z"/><path class="cls-3" d="M611.58,136.67s3.95,2.84,3.48,6.61c0,0,1.52-2.45,1.41-3.24a31.05,31.05,0,0,0-1.15-3.5Z"/><path class="cls-6" d="M614.61,139.72a1.71,1.71,0,0,1-2.39.63,1.91,1.91,0,0,1-.09-2.59,1.71,1.71,0,0,1,2.39-.63A1.91,1.91,0,0,1,614.61,139.72Z"/><path class="cls-13" d="M635.63,148.56c-1-3.81-3.26-4-5.64-4.16a12.63,12.63,0,0,1-2.85-.45,1.47,1.47,0,0,1-.93-.73c-.42-.86.07-2.22.64-3.78.83-2.29,1.76-4.88.36-6.89a9.4,9.4,0,0,0-6.84-4.06c-2.38.15-3.62-.12-3.76-.82s1-1.5,1.38-1.64c3.34-1.17,7.2-1.64,12.79,2.78,4.41,3.48,4.1,5.44,3.72,7.93a17.07,17.07,0,0,0-.21,1.73,1.41,1.41,0,0,0,.31,1.1c.54.57,1.74.55,2.9.54,1.5,0,3.06,0,3.48,1.16a5.15,5.15,0,0,1-.41,3.12c-.37,1.1-.72,2.14-.29,2.86a2.52,2.52,0,0,0,1.83,1l-.05.28a2.74,2.74,0,0,1-2-1.1c-.5-.84-.13-1.94.26-3.1a4.93,4.93,0,0,0,.41-2.94c-.35-1-1.74-1-3.21-1-1.22,0-2.48,0-3.11-.63a1.71,1.71,0,0,1-.39-1.32c0-.63.13-1.2.22-1.76.37-2.39.66-4.28-3.62-7.66-5.48-4.33-9.25-3.87-12.51-2.73-.4.14-1.3.84-1.2,1.31.05.24.49.78,3.48.59a9.74,9.74,0,0,1,7.08,4.19c1.48,2.13.48,4.91-.33,7.14-.55,1.51-1,2.81-.65,3.56a1.18,1.18,0,0,0,.75.59,12.56,12.56,0,0,0,2.79.43c2.49.19,4.83.37,5.9,4.38Z"/><path class="cls-13" d="M611.35,135.35a6.19,6.19,0,0,1-4.22-1.78l.19-.18a5.82,5.82,0,0,0,4.93,1.62l0,.26A5.3,5.3,0,0,1,611.35,135.35Z"/><path class="cls-24" d="M603.86,146a2.7,2.7,0,0,1-1.57-.2,3.68,3.68,0,0,1-1.87-2.05,3.19,3.19,0,0,1,1.45-4.21,2.58,2.58,0,0,1,2,.07,3.66,3.66,0,0,1,1.88,2,3.2,3.2,0,0,1-1.46,4.21A2.13,2.13,0,0,1,603.86,146Zm-1.53-6.42a2.74,2.74,0,0,0-1.75,4.11,3.48,3.48,0,0,0,1.78,2,2.44,2.44,0,0,0,1.87.07,3,3,0,0,0,1.36-4,3.46,3.46,0,0,0-1.78-1.95A2.48,2.48,0,0,0,602.33,139.55Z"/><path class="cls-24" d="M610.32,143.77a2.68,2.68,0,0,1-1.57-.19,3.66,3.66,0,0,1-1.88-2.05,3.2,3.2,0,0,1,1.46-4.21,2.58,2.58,0,0,1,2,.07,3.64,3.64,0,0,1,1.87,2.05h0a3.19,3.19,0,0,1-1.45,4.21A3.45,3.45,0,0,1,610.32,143.77Zm-1.53-6.41a1.82,1.82,0,0,0-.4.11,3,3,0,0,0-1.36,4,3.46,3.46,0,0,0,1.78,1.95,2.42,2.42,0,0,0,1.88.07,3,3,0,0,0,1.35-4h0a3.48,3.48,0,0,0-1.78-2A2.51,2.51,0,0,0,608.79,137.36Z"/><path class="cls-24" d="M605,142.1a.07.07,0,0,1-.07,0,.09.09,0,0,1,0-.12,3.62,3.62,0,0,1,2.38-.88.09.09,0,1,1,0,.17,3.44,3.44,0,0,0-2.27.83Z"/><path class="cls-3" d="M607.79,139.78a.18.18,0,0,1-.13-.08.16.16,0,0,1,.05-.21,1.73,1.73,0,0,1,2.11.06.16.16,0,0,1,0,.22c-.05.08-.14.07-.22,0a2.8,2.8,0,0,0-1.75-.06A.16.16,0,0,1,607.79,139.78Z"/><path class="cls-3" d="M609.34,141.26a.6.6,0,0,1-.33.77c-.27.06-.55-.19-.64-.56a.61.61,0,0,1,.34-.77C609,140.64,609.26,140.89,609.34,141.26Z"/><path class="cls-3" d="M602.38,141.65a.17.17,0,0,1-.14,0,.15.15,0,0,1,0-.22,1.7,1.7,0,0,1,2-.74.16.16,0,0,1,.12.19.19.19,0,0,1-.2.12,2.62,2.62,0,0,0-1.63.61A.16.16,0,0,1,602.38,141.65Z"/><path class="cls-3" d="M604.38,142.42a.62.62,0,0,1,0,.85.61.61,0,0,1-.8-.28.52.52,0,1,1,.81-.57Z"/><path class="cls-6" d="M645.18,192.32c-5.82,9.11-17.33,14.92-29.43,14.54l1.29-9.71c9.38-1.71,16.57-7.82,17.91-13a41.78,41.78,0,0,0,.3-17.51,1.2,1.2,0,0,1,.47-1.17c1.19-.92,4.3-2.79,9.86-2.9a1.08,1.08,0,0,1,1.06.8C649,172.16,650.36,184.19,645.18,192.32Z"/><g class="cls-25"><path class="cls-10" d="M639.05,195.3a1.58,1.58,0,0,1-.61-.12c-1-.44-1.38-1.9-.8-3.27a3.08,3.08,0,0,1,1.58-1.68,1.73,1.73,0,0,1,1.32,0c1,.44,1.37,1.9.8,3.27h0a3.13,3.13,0,0,1-1.59,1.68A1.75,1.75,0,0,1,639.05,195.3Zm.87-4.76a1.46,1.46,0,0,0-.53.1,2.72,2.72,0,0,0-1.34,1.44c-.48,1.14-.23,2.35.56,2.69a1.3,1.3,0,0,0,1,0,2.64,2.64,0,0,0,1.34-1.44c.49-1.14.23-2.35-.56-2.69A1.08,1.08,0,0,0,639.92,190.54Z"/></g><path class="cls-3" d="M581,255.78h-.23A103.11,103.11,0,0,1,584,237.9c2.38-8.72,7-20.18,15.51-25.27l.11.2c-8.43,5-13,16.45-15.4,25.13A100.93,100.93,0,0,0,581,255.78Z"/><path class="cls-3" d="M599.66,271.63h-.23a66.31,66.31,0,0,1,4.38-23.11l.21.09A66.1,66.1,0,0,0,599.66,271.63Z"/><path class="cls-3" d="M607.18,146.12a3.79,3.79,0,0,1-1.08-.16.12.12,0,0,1-.08-.16.14.14,0,0,1,.16-.08,2.82,2.82,0,0,0,3.25-1,.14.14,0,0,1,.18,0,.14.14,0,0,1,0,.18A2.81,2.81,0,0,1,607.18,146.12Z"/><path class="cls-7" d="M604.44,200.56s16.89-22.65,18.46-22.28.76,2.1-.7,4.72-13.32,20.46-13.32,20.46Z"/><polygon class="cls-5" points="601.57 203.91 604.44 200.56 608.88 203.46 606.5 207.12 601.57 203.91"/><path class="cls-26" d="M601.57,203.91s-5.16,1.68-5.52,5.26S598,218.1,598,218.1s2.56-4.18,5.09-4.06,3.43-6.92,3.43-6.92Z"/><path class="cls-8" d="M596,210.64a1.34,1.34,0,0,1,2.09.18c1,1.27,2.14-.07,3.4.63s1,2.63,1,2.63a41.66,41.66,0,0,0-4.55,4C597.26,219.13,596,210.64,596,210.64Z"/><path class="cls-6" d="M617,197.15s-8.69-2.76-11.46-1.46-5.3,5.07-3.42,4.62a19.76,19.76,0,0,0,4.14-1.68s-4.68,2.87-3.54,3.67,5.19-1.73,5.19-1.73-5.3,3.86-4,4.27,5.33-2.55,5.33-2.55-4.78,3.79-3.23,4.23,3.94-3.16,5.08-2.35,4.07,4.5,6.69,1.59Z"/><path class="cls-10" d="M606.37,198.72l-.14-.18s1.26-1,2.23-.77l-.06.22C607.54,197.74,606.38,198.71,606.37,198.72Z"/><path class="cls-10" d="M608,200.66l-.15-.17a4,4,0,0,1,2.63-.93l0,.23A3.74,3.74,0,0,0,608,200.66Z"/><path class="cls-10" d="M609.39,202.38l-.15-.17c.06-.05,1.5-1.25,2.5-.87l-.08.21C610.78,201.22,609.4,202.37,609.39,202.38Z"/><path class="cls-27" d="M577.74,121.38l-51.12,5.28a4.27,4.27,0,0,0-3.65,5.48l24.83,82.61a4.27,4.27,0,0,0,4,3l54.28.82a4.27,4.27,0,0,0,4.14-5.56l-28-88.71A4.27,4.27,0,0,0,577.74,121.38Z"/><path class="cls-15" d="M575.63,126.7l-44.69,4.7a3.8,3.8,0,0,0-3.19,4.88l21.7,73.57a3.75,3.75,0,0,0,3.52,2.7l47.47.74a3.79,3.79,0,0,0,3.61-4.95l-24.48-79A3.73,3.73,0,0,0,575.63,126.7Z"/><polygon class="cls-27" points="591.63 161.75 533.5 161.75 534.46 167.43 594.13 169.98 591.63 161.75"/><polygon class="cls-27" points="583.88 134.27 566.62 126.68 564.32 126.68 583.88 136.53 583.88 134.27"/><polygon class="cls-27" points="537.84 128.34 530.22 146.72 528.65 144.21 535.84 128.34 537.84 128.34"/><polygon class="cls-27" points="602.64 196.99 593.46 214.36 590.74 214.36 600.48 191.65 602.64 196.99"/><polygon class="cls-26" points="564.32 214.36 545.76 197.33 544.86 200.17 561.37 214.36 564.32 214.36"/><path class="cls-4" d="M599.15,209.88l-19.66-58.47a6.22,6.22,0,0,0-6.51-4.19l-45.71,4.64a6.21,6.21,0,0,0-5.36,7.78l15,55.74a6.2,6.2,0,0,0,6.22,4.58l50.37-1.91A6.19,6.19,0,0,0,599.15,209.88Z"/><path class="cls-4" d="M618,290.5a1.12,1.12,0,0,0,.31-.05,1,1,0,0,0,.68-1.29l-22.91-71.6a1,1,0,0,0-1.31-.67c-.55.17-2.5.43-2.33,1L617,289.78A1,1,0,0,0,618,290.5Z"/><path class="cls-4" d="M565.58,290.5a1.12,1.12,0,0,0,.31-.05,1,1,0,0,0,.68-1.29L545,216.84c-.18-.54-2.09-.13-2.64,0a1,1,0,0,0-.68,1.28l22.91,71.61A1,1,0,0,0,565.58,290.5Z"/><path class="cls-4" d="M605.08,216.57H538.71a1.1,1.1,0,0,0-1.13,1.06h0c0,.59,0,2.52.63,2.52l66.5-.88c1,0,1.5-1.05,1.5-1.64h0A1.1,1.1,0,0,0,605.08,216.57Z"/><path class="cls-3" d="M521.06,165.91h66.12a1,1,0,0,0,0-2.09H521.06a1,1,0,0,0,0,2.09Z"/><path class="cls-3" d="M524.34,226.51H578a1,1,0,0,0,0-2.09l-53.29-.95c-.57,0-1.41,1.42-1.41,2A1,1,0,0,0,524.34,226.51Z"/><path class="cls-3" d="M521.06,290.5a1,1,0,0,0,1-1L530,164.86c0-.57-1.94-1-2.52-1a1.07,1.07,0,0,0-1.1,1L520,289.4a1,1,0,0,0,1,1.1Z"/><path class="cls-3" d="M574.72,290.5a1,1,0,0,0,1-1l6.39-124.59a1.06,1.06,0,0,0-1-1.1c-.54,0-3,.47-3,1L573.67,289.4a1,1,0,0,0,1,1.1Z"/><path class="cls-3" d="M522.29,592.3s13.82-73.79,16-75.95,5.45-.25,4.28,3.84-17.23,70.62-17.9,72.11S521.9,594.37,522.29,592.3Z"/><path class="cls-8" d="M575.94,520.07c.1-11.66-.41-61.82-16.73-66.19-18.48-4.95-42.17-13.94-49.13,2.31s16.36,66.29,16.36,66.29a7.25,7.25,0,0,0,6,4.95c4.72.49,62.89,2.24,63,0C595.49,526,584.16,522.46,575.94,520.07Z"/><path class="cls-6" d="M606.24,418s14.68,22.84,45.5,9.42c14.37-6.26,5.25,32.44-29.74,31.39-16.7-.5-34.91-28.36-34.91-28.36Z"/><path class="cls-3" d="M633.12,596s-.18,5.85,3.69,7.71,15.23,4,10.75,7.5c-2.58,2-14.07,0-17.34-.18s-6.41,1.08-8.72-1.24c-2.54-2.55.78-14.38.78-14.38a13.06,13.06,0,0,0,5.28,1.69A10.41,10.41,0,0,0,633.12,596Z"/><path class="cls-3" d="M665.5,593.15s-.18,5.85,3.69,7.71,15.23,4,10.75,7.5c-2.57,2-14.07,0-17.34-.18s-6.41,1.08-8.72-1.24c-2.54-2.55.78-14.38.78-14.38a13.06,13.06,0,0,0,5.28,1.69A10.41,10.41,0,0,0,665.5,593.15Z"/><path class="cls-21" d="M673,586.31c-2.89-38.33-3.58-64.19-15.7-80.8-13.28-18.19-48.86-31.05-62.58-31.85-22.38-1.31-32.93,2-32.93,2-16.79,34.93,9.52,39.56,29,40.52l1.93.11c11.79.74,32.74,3.73,40.66,15.44C639.59,541,644,554,645.79,587.61A11.91,11.91,0,0,0,658,598.87S674,600.09,673,586.31Z"/><path class="cls-21" d="M641.19,588.28c.38-38.43,1.57-58-10-75.09-7.41-10.94-18.56-19.2-33.13-24.55-10.39-3.81-22.62-6.15-36.35-7-22.37-1.3-32.43-4-32.43-4-18.11,44.71,48.14,35.22,65.38,54.27,7.52,8.3,16.83,24.09,18.67,57.66a11.89,11.89,0,0,0,12.2,11.26S641.05,602.33,641.19,588.28Z"/><path class="cls-3" d="M641.08,550.53c0-.23-1.15-23-5-31-4.83-10.08-18.86-20.6-33.36-25l.07-.24c14.56,4.43,28.66,15,33.52,25.15,3.85,8,5,30.86,5,31.09Z"/><path class="cls-4" d="M545.2,406.69s9.52-16.28,31.46-11.28,30.89,27.4,32.46,81.23c0,0-20.32-.75-73.7,17-6.32,2.1-15.59.43-12.35-10.34C529.11,463.24,535,423.31,545.2,406.69Z"/><path class="cls-4" d="M521.06,411.44l22.57,4.24s39.47,11.67,50.52,11.77,15.62-8,15.62-8a58.46,58.46,0,0,0-27.59-22.27,54.06,54.06,0,0,0-5.52-1.78,40.45,40.45,0,0,0-9.81-1.65C529.59,393.34,521.06,411.44,521.06,411.44Z"/><path class="cls-3" d="M521.06,411.44c-.49,1.78,4.24,4.75,10.56,6.63s11.85,2,12.34.19-4.24-4.75-10.57-6.63S521.54,409.66,521.06,411.44Z"/><path class="cls-6" d="M530.41,469.62c9.35,15.29,21.3,21.43,42.68,25.33l4.08-13.23c-15.56-2.83-23.53-12.21-29.79-22.46-8.91-14.59-7.3-32.36-6-40.21a2,2,0,0,0-.77-1.95c-2-1.53-7.14-4.62-16.35-4.81a1.8,1.8,0,0,0-1.76,1.33C518.68,428.13,518.65,450.36,530.41,469.62Z"/><g class="cls-25"><path class="cls-10" d="M535.11,466.51a3,3,0,0,1-1.16-.23,5.14,5.14,0,0,1-2.63-2.78h0c-1-2.27-.36-4.71,1.33-5.43a2.82,2.82,0,0,1,2.17,0,5.14,5.14,0,0,1,2.63,2.78c1,2.27.37,4.71-1.32,5.43A2.58,2.58,0,0,1,535.11,466.51Zm-1.45-7.9a2,2,0,0,0-.72.14c-1.32.57-1.73,2.56-.93,4.46h0a4.35,4.35,0,0,0,2.22,2.38,2.1,2.1,0,0,0,1.61,0c1.31-.57,1.73-2.56.93-4.46a4.42,4.42,0,0,0-2.22-2.38A2.4,2.4,0,0,0,533.66,458.61Z"/></g><path class="cls-3" d="M578.09,387.78l-.08-.23s2.56-1,3.07-2.86a3.55,3.55,0,0,0-1-3.15L579,380.11c-2.46-3-3.37-4.11-3.16-6.84l.24,0c-.21,2.64.63,3.65,3.1,6.67.36.43.75.91,1.17,1.43a3.74,3.74,0,0,1,1,3.36C580.77,386.75,578.2,387.74,578.09,387.78Z"/><path class="cls-3" d="M575.92,373.28a12.23,12.23,0,0,0,2.9,8.2c3.28,4,.71,7.49-3.2,6.3s-4.71,3.71-9.77,1.71S575.92,373.28,575.92,373.28Z"/><path class="cls-6" d="M556.41,394.16a5.65,5.65,0,0,0,4.22-3.9l1.77-6.19.52-1.81L566,371.62l.59,10.55.34,6.33.1,1.78c.08,1.48,1.38,3.63,2.86,3.7,0,0,2.24,2.6-.82,4-3.6,1.67-10.12-.62-12.74-3.84Z"/><path class="cls-3" d="M562.37,383.9l0,.17c.68,3.34,4.49,4.45,4.49,4.45v0l-.34-6.33c-1.16-.26-2.78-.48-3.64.09A1.49,1.49,0,0,0,562.37,383.9Z"/><ellipse class="cls-6" cx="566.66" cy="373.23" rx="9.9" ry="12.21" transform="translate(-42.76 74.89) rotate(-7.29)"/><path class="cls-6" d="M558.39,376.15c1.25.92,2.82.83,3.5-.2a2.71,2.71,0,0,0-1-3.53c-1.25-.92-2.82-.83-3.51.2A2.73,2.73,0,0,0,558.39,376.15Z"/><path class="cls-3" d="M567.62,373.23a.23.23,0,0,0,0-.43,2.43,2.43,0,0,0-2.81,1,.21.21,0,0,0,.05.31.23.23,0,0,0,.31-.05,3.8,3.8,0,0,1,2.33-.84A.22.22,0,0,0,567.62,373.23Z"/><path class="cls-3" d="M566.17,375.91c.05.53.41.94.8.9s.66-.5.61-1-.41-.93-.8-.9S566.12,375.37,566.17,375.91Z"/><path class="cls-3" d="M575.74,373.37a.22.22,0,0,0,.14-.4,2.43,2.43,0,0,0-3-.13.23.23,0,0,0-.08.31.26.26,0,0,0,.31.07,3.84,3.84,0,0,1,2.48.11A.22.22,0,0,0,575.74,373.37Z"/><path class="cls-3" d="M573.38,375.3a.86.86,0,0,0,.39,1.13c.37.12.8-.21,1-.72a.88.88,0,0,0-.39-1.14C574,374.46,573.54,374.78,573.38,375.3Z"/><path class="cls-3" d="M569.56,362.78s.33,4.23-4.83,5.62-8.49,4.07-7.3,7.76,10.65,10.45,4.82,14.29-5.23-2-11.8.17-8.94-6.67-5-12.49.33-19.39,17.81-21,12.88,13.09,12.88,13.09S570.14,367.43,569.56,362.78Z"/><path class="cls-13" d="M560.56,391.45l-.07-.12a3.49,3.49,0,0,0,2-2.54c.39-2.85-3.41-6.66-6.76-10-.89-.89-1.73-1.74-2.49-2.55a6.75,6.75,0,0,1-1.4-7.69c1.37-2.75,4.46-4.24,8.06-3.88,6.65.67,8.86-3.56,8.88-3.61l.13.07s-2.27,4.37-9,3.68c-3.54-.35-6.58,1.1-7.92,3.81a6.53,6.53,0,0,0,1.38,7.53c.75.81,1.59,1.65,2.48,2.54,3.38,3.38,7.21,7.22,6.8,10.14A3.67,3.67,0,0,1,560.56,391.45Z"/><path class="cls-24" d="M572,377.2l.14-.15a10.11,10.11,0,0,1-.3-3.05,2.33,2.33,0,0,0-.37-.17A10.58,10.58,0,0,0,572,377.2Zm-.46-.9a10.84,10.84,0,0,0,.25,1.13,5.67,5.67,0,0,0,2.68,3.72h0a2.94,2.94,0,0,0,1.53.24,3,3,0,0,0,1-.33,3.86,3.86,0,0,0,.92-.67,4.73,4.73,0,0,0,.67-.79,8.49,8.49,0,0,0,1.32-3.33c.68-3.71-.63-7.57-2.91-8.61a3.29,3.29,0,0,0-.44-.16,2.61,2.61,0,0,0-1.49,0,3.23,3.23,0,0,0-.65.25,3.37,3.37,0,0,0-.69.47,3.61,3.61,0,0,0-.35.33,7.75,7.75,0,0,0-1.87,4,3,3,0,0,0-.06.4s0,0,0,0h0a8,8,0,0,0-.08.84A10.73,10.73,0,0,0,571.58,376.3Zm8.12-1c0,.31-.07.62-.13.93a8.06,8.06,0,0,1-1.16,3.05,5.52,5.52,0,0,1-.63.77,3.38,3.38,0,0,1-.88.66,2.49,2.49,0,0,1-2.13.1l-.07,0a5.31,5.31,0,0,1-2.52-3.7,10.11,10.11,0,0,1-.3-3.05,8.55,8.55,0,0,1,.09-.87c0-.17,0-.33.08-.5a7.15,7.15,0,0,1,1.79-3.82,3.53,3.53,0,0,1,.89-.67,2.6,2.6,0,0,1,.62-.23,2.14,2.14,0,0,1,.35-.06h0a2.31,2.31,0,0,1,.9.1l.31.12c1.92.88,3.08,4,2.78,7.17Z"/><g class="cls-25"><path class="cls-13" d="M560,371.68c-.35,3.56,1.39,7.11,3.87,7.94s4.78-1.4,5.13-5-1.39-7.11-3.88-7.93S560.31,368.13,560,371.68Z"/></g><g class="cls-25"><path class="cls-13" d="M571.56,372.85c-.35,3.57,1.18,7.2,3.42,8.11s4.33-1.26,4.68-4.83-1.19-7.21-3.43-8.12S571.9,369.27,571.56,372.85Z"/></g><path class="cls-24" d="M559.76,373.79a9.69,9.69,0,0,0,1,2.94,6,6,0,0,0,3,2.85,1,1,0,0,0,.24.09,3.74,3.74,0,0,0,1.61.17,3.31,3.31,0,0,0,.87-.24,4.16,4.16,0,0,0,.7-.35,6.56,6.56,0,0,0,2.57-4.95,6,6,0,0,0,0-.61,7.85,7.85,0,0,0,0-.84,9,9,0,0,0-2.28-5.73,4.87,4.87,0,0,0-2-1.31,3.62,3.62,0,0,0-3.19.43,6.26,6.26,0,0,0-2.48,4.31l-.09.62c0,.23,0,.46,0,.67A9.64,9.64,0,0,0,559.76,373.79Zm8.18,4.06a4.2,4.2,0,0,1-1.08,1,3,3,0,0,1-.47.25,3.23,3.23,0,0,1-2.33.13l-.25-.1a5.52,5.52,0,0,1-2.66-2.58,9.46,9.46,0,0,1-1.09-4.61c0-.25,0-.5.05-.75a8,8,0,0,1,.16-1,4.85,4.85,0,0,1,.19-.68h0a8,8,0,0,1,.43-1.07,4.86,4.86,0,0,1,1.6-1.85,3.17,3.17,0,0,1,1.39-.53,3.26,3.26,0,0,1,1.41.14,4.55,4.55,0,0,1,1.79,1.15,8.5,8.5,0,0,1,2.21,5.56,7.85,7.85,0,0,1,0,.84,4,4,0,0,1,0,.49A7.18,7.18,0,0,1,568,377.8.09.09,0,0,1,567.94,377.85Z"/><path class="cls-24" d="M572.18,374.08a.45.45,0,0,1-.27-.06h0a3.68,3.68,0,0,0-3-.14.43.43,0,0,1-.52-.27.41.41,0,0,1,.26-.51,4.42,4.42,0,0,1,3.69.22.42.42,0,0,1,.13.57A.4.4,0,0,1,572.18,374.08Z"/><path class="cls-3" d="M569.28,382a6,6,0,0,1-2.48-.61.33.33,0,0,1,.3-.58s2.3,1.19,3.88,0a.33.33,0,0,1,.46.06.34.34,0,0,1-.07.46A3.43,3.43,0,0,1,569.28,382Z"/><path class="cls-6" d="M577.17,481.72s14.11-.8,17.76,2.23,6,9.65,3.35,8.25a31.29,31.29,0,0,1-5.56-4.12s5.93,6.11,3.9,6.88-7.13-4.6-7.13-4.6,6.47,7.83,4.32,7.94-7-5.88-7-5.88S592.51,500,590,500s-4.7-6.25-6.72-5.48-7.84,5.19-10.66-.19Z"/><path class="cls-10" d="M592.58,488.18s-1.38-1.92-2.76-1.87V486h0c1.54,0,2.95,1.94,3,2Z"/><path class="cls-10" d="M589.34,490.46a5.85,5.85,0,0,0-3.36-2.25l.06-.35a6.2,6.2,0,0,1,3.59,2.4Z"/><path class="cls-10" d="M586.64,492.52s-1.64-2.28-3.1-2.11l0-.35c1.66-.18,3.35,2.16,3.42,2.26Z"/><path class="cls-19" d="M661.45,424.43s-35.46-25.86-37.62-24.6-.18,3.47,3.19,6.68,29.17,24.25,29.17,24.25Z"/><polygon class="cls-5" points="667.25 428.07 661.45 424.43 656.19 430.76 661.41 435.1 667.25 428.07"/><path class="cls-26" d="M667.25,428.07s8.42.13,10.61,5.28,1.23,14.14,1.23,14.14-5.72-5-9.42-3.69-8.26-8.7-8.26-8.7Z"/><path class="cls-8" d="M678.56,435.52a2.09,2.09,0,0,0-3,1.23c-.83,2.32-3.2.87-4.76,2.49s-.28,4.37-.28,4.37,7,2.69,8.59,3.88S678.56,435.52,678.56,435.52Z"/><path class="cls-14" d="M719.81,525.27H655a4.14,4.14,0,0,1-4.12-4.13h0A4.13,4.13,0,0,1,655,517h64.81a4.13,4.13,0,0,1,4.12,4.12h0A4.14,4.14,0,0,1,719.81,525.27Z"/><path class="cls-14" d="M670.86,603.76h33.09a5.93,5.93,0,0,1,5.93,5.93v5.26a0,0,0,0,1,0,0H664.94a0,0,0,0,1,0,0v-5.26A5.93,5.93,0,0,1,670.86,603.76Z"/><rect class="cls-14" x="684.78" y="524.14" width="5.24" height="83.9"/><path class="cls-6" d="M660.28,421.41s-2.71,9.43,1.52,10.74,10.08.1,10.42-2.07.46-6.06-1.87-6.4S661.28,418.81,660.28,421.41Z"/><path class="cls-8" d="M739.21,471.2a53.61,53.61,0,0,1-3.25,19c-7.83,20.83-28.66,30.68-49.86,30.68-23,0-46.36-15.94-52.61-37.37a39.77,39.77,0,0,1-1.63-11.23c0-26.85,27.39-48.61,54.24-48.61S739.21,444.35,739.21,471.2Z"/><path class="cls-8" d="M667.33,393.62s39.26-1.16,40.21,0,2.39,3.22-7.62,3.75c-6.68.35-6.7,23.43,7,31s15.72,11.86,15.72,11.86l-69.73-3.4a60,60,0,0,1,13-9.16c8.15-4.19,10.87-8.06,11.21-15.74.41-9.4.69-15.48-4.19-14.89C666.35,397.8,663,393.74,667.33,393.62Z"/><path class="cls-28" d="M659.35,512.25s-5.51,5.87-3.82,7.27,41,7.6,62.4,0c0,0,3.34-.54,2.06-3.32a30.56,30.56,0,0,0-3.33-5.4Z"/><path class="cls-29" d="M688.17,458.73s-2.2-.48-2.95.83-.71,4.17,1.48,3.93S690.31,459.8,688.17,458.73Z"/><path class="cls-29" d="M696.25,458.35s-2.2-.48-3,.83-.71,4.17,1.48,3.93S698.39,459.42,696.25,458.35Z"/><path class="cls-29" d="M704.35,456.73s-2.2-.47-3,.84-.71,4.17,1.47,3.93S706.49,457.81,704.35,456.73Z"/><path class="cls-29" d="M711,455.12s-2.2-.48-2.94.83-.72,4.17,1.47,3.93S713.15,456.19,711,455.12Z"/><path class="cls-29" d="M718.51,452s-2.2-.48-2.94.83-.72,4.17,1.47,3.93S720.66,453.11,718.51,452Z"/><path class="cls-29" d="M726,448.18s-2.2-.48-2.94.83-.72,4.17,1.47,3.93S728.13,449.25,726,448.18Z"/><path class="cls-29" d="M679.71,458.35s-2.2-.48-3,.83-.71,4.17,1.48,3.93S681.85,459.42,679.71,458.35Z"/><path class="cls-29" d="M671.16,456.73s-2.19-.47-2.94.84-.72,4.17,1.47,3.93S673.31,457.81,671.16,456.73Z"/><path class="cls-29" d="M663,455.12s-2.2-.48-2.94.83-.72,4.17,1.47,3.93S665.11,456.19,663,455.12Z"/><path class="cls-29" d="M663,473.44s-2.2-.48-2.94.83-.72,4.17,1.47,3.93S665.11,474.51,663,473.44Z"/><path class="cls-29" d="M648.86,468.36s-2.2-.47-3,.84-.71,4.17,1.48,3.93S651,469.43,648.86,468.36Z"/><path class="cls-29" d="M678.23,475.84s-2.2-.48-3,.83-.71,4.17,1.48,3.93S680.37,476.91,678.23,475.84Z"/><path class="cls-29" d="M691.81,475.84s-2.2-.48-2.95.83-.71,4.17,1.47,3.93S694,476.91,691.81,475.84Z"/><path class="cls-29" d="M707.05,473.44s-2.2-.48-2.95.83-.71,4.17,1.47,3.93S709.19,474.51,707.05,473.44Z"/><path class="cls-29" d="M721.87,468.15s-2.19-.48-2.94.83-.72,4.17,1.47,3.93S724,469.22,721.87,468.15Z"/><path class="cls-29" d="M731.88,463.58s-1.84-.4-2.47.7-.6,3.5,1.24,3.3S733.69,464.48,731.88,463.58Z"/><path class="cls-29" d="M637.26,462.48s-1.75-.38-2.35.67-.57,3.32,1.17,3.13S639,463.34,637.26,462.48Z"/><path class="cls-29" d="M654.68,452.69s-2.2-.48-2.95.83-.71,4.17,1.48,3.93S656.82,453.76,654.68,452.69Z"/><path class="cls-29" d="M647.47,449.61s-2.2-.48-2.94.83-.72,4.17,1.47,3.93S649.61,450.68,647.47,449.61Z"/><path class="cls-29" d="M683.59,468.3c-29.09,0-46.61-15.36-46.78-15.52l.31-.36c.18.16,18.06,15.82,47.66,15.4s48.64-17.12,48.83-17.29l.31.36c-.19.17-19.33,17-49.13,17.41Z"/><path class="cls-29" d="M683.4,474.56a2.88,2.88,0,0,1-.41,0,4.07,4.07,0,0,1-3.15-2,3.62,3.62,0,0,0-2.8-1.82c-1.61-.18-2.23.71-2.95,1.73a3.88,3.88,0,0,1-3,2.08c-3.18.24-4.34-2.32-5-4.58a2.19,2.19,0,0,0-1.75-1.26,6.18,6.18,0,0,0-5.64,1.6,2.81,2.81,0,0,1-3.49.59c-1.62-.78-2.8-2.61-2.59-4a3.15,3.15,0,0,0-1.38-2.87,3.87,3.87,0,0,0-4.1-.28c-3,1.45-5,1.76-6.12,1-.81-.54-1.16-1.62-1-3.2a3.19,3.19,0,0,0-.88-2.66c-1.49-1.43-4.36-1.14-4.39-1.14l-.05-.47c.13,0,3.12-.32,4.77,1.26a3.65,3.65,0,0,1,1,3c-.09,1.4.19,2.34.85,2.78,1,.66,2.82.33,5.64-1a4.35,4.35,0,0,1,4.59.32,3.65,3.65,0,0,1,1.57,3.34c-.18,1.18.9,2.82,2.32,3.5a2.37,2.37,0,0,0,2.94-.49,6.7,6.7,0,0,1,6.1-1.74,2.61,2.61,0,0,1,2.1,1.6c.65,2.21,1.7,4.45,4.51,4.23a3.38,3.38,0,0,0,2.61-1.88c.74-1.05,1.5-2.13,3.39-1.93a4.08,4.08,0,0,1,3.13,2,3.62,3.62,0,0,0,2.81,1.82c1.58.16,2.51-.75,3.48-1.71s2-2,3.82-2a4.86,4.86,0,0,1,3.31,1.54,4,4,0,0,0,4.24,1.18,7,7,0,0,0,3.83-2.61c1-1.16,2-2.25,4.1-2.17a9.52,9.52,0,0,1,3.78,1.1c1.58.74,2.82,1.32,4.73.05a4.37,4.37,0,0,0,2.28-2.94,5.42,5.42,0,0,1,1.49-2.66c1.42-1.47,3-.66,4.42.06,1,.52,1.92,1,2.6.54a3.62,3.62,0,0,0,1.12-2.5c.26-1.36.56-2.91,2.18-3.57s2.47.2,3.24.86,1.24,1,2,.43c1-.79,1.08-2,1.17-3.09a4.25,4.25,0,0,1,.63-2.38l.38.29a3.92,3.92,0,0,0-.53,2.12,4.35,4.35,0,0,1-1.36,3.43c-1.07.85-1.87.16-2.57-.44s-1.5-1.29-2.75-.78-1.64,1.92-1.89,3.22a4,4,0,0,1-1.33,2.81c-.91.59-2,0-3.08-.52-1.38-.7-2.68-1.37-3.86-.15a4.94,4.94,0,0,0-1.37,2.46,4.8,4.8,0,0,1-2.48,3.21c-2.13,1.41-3.61.72-5.19,0a8.81,8.81,0,0,0-3.6-1.07c-1.89-.08-2.74.89-3.73,2a7.49,7.49,0,0,1-4.06,2.76,4.45,4.45,0,0,1-4.67-1.28,4.41,4.41,0,0,0-3-1.42c-1.58,0-2.49.86-3.46,1.82A4.82,4.82,0,0,1,683.4,474.56Z"/><path class="cls-29" d="M685.75,428.08a32.58,32.58,0,0,1-14.54-3.41l.7-1.24c.14.08,14.23,7.8,28.68-.94l.74,1.22A29.67,29.67,0,0,1,685.75,428.08Z"/><path class="cls-29" d="M686.75,431.16a36.22,36.22,0,0,1-18-5l.27-.4c.17.12,17.11,11,34.46,0l.25.41A31.23,31.23,0,0,1,686.75,431.16Z"/><path class="cls-28" d="M736,490.21c-7.83,20.83-28.66,30.68-49.86,30.68-23,0-46.36-15.94-52.61-37.37,3-.86,9-1.3,14.72,5.68,8.14,9.85,13.85-.66,22.55-1.12s4.91,10.26,13.35,10.26,2.8-5.41,11-5.92,2.94,8.54,10.79,5.92,4.28-14.15,13.69-15.29C728,482,727.92,496.3,736,490.21Z"/><path class="cls-30" d="M692,397.6c-5.27,0-11.3-.13-17.24-.3l-4-.1c-3.05,0-4.28-.7-4.78-1.25a1.21,1.21,0,0,1-.36-.84l.48,0a.76.76,0,0,0,.26.52c.37.38,1.43,1,4.41,1.06.81,0,2.24,0,4,.11,9.19.25,30.69.86,32.79-1l.31.36C706.65,397.27,700.25,397.6,692,397.6Z"/><path class="cls-8" d="M276,139.9c-1.11-23.89-22.57-44.09-46.48-44.09-33.88,0-45,26-46.33,49.84-1.39,24.8,20.47,41.77,44.38,41.77S277.32,169.58,276,139.9Z"/><path class="cls-21" d="M267.54,142.4c0-19-19-39.29-38-39.9-28.13-.9-39.54,27.64-39.54,46.67s19.64,30.36,38.66,30.36S267.54,161.43,267.54,142.4Z"/><path class="cls-31" d="M233.61,141.76c-.25-2.6-3-4.33-5.62-4.33s-5.41,3.15-5.41,5.76,2.8,4.74,5.41,4.74S234.08,146.57,233.61,141.76Z"/><path class="cls-31" d="M228,144.14h-1a.94.94,0,0,1-.94-.94c0-.52-1.18-2.27-.66-2.27l.53-1.11,1.12-25.7-1.17.72a.93.93,0,0,1-1.3.24.92.92,0,0,1-.24-1.3l2.89-4.19a.93.93,0,0,1,1.7.54l1.57,33C230.54,143.65,228.5,144.14,228,144.14Z"/><path class="cls-31" d="M231.23,115a.92.92,0,0,1-.73-.35l-3.56-2.55c-.33-.4.1-2.35.51-2.68a.93.93,0,0,1,1.31.13l3.19,3.92a.94.94,0,0,1-.13,1.32A1,1,0,0,1,231.23,115Z"/><path class="cls-31" d="M211,147.18a.93.93,0,0,1-.67-.29L207.53,144a1,1,0,0,1-.19-1,.94.94,0,0,1,.87-.57h0l22.13-1.17c.52,0,.81,1.64.81,2.15v.95a.94.94,0,0,1-.94.94c-.52,0-1.68.46-1.68-.06l.75-.89-18.86,0,1.25,1.29a.92.92,0,0,1,0,1.32A.91.91,0,0,1,211,147.18Z"/><path class="cls-31" d="M208.21,144.29a1,1,0,0,1-.6-.21.94.94,0,0,1-.13-1.32l2.6-3.19a.94.94,0,0,1,1.46,1.19l-1,2.39A9.55,9.55,0,0,1,208.21,144.29Z"/><path class="cls-8" d="M1087.3,110.77c-1.58-34-32.13-62.77-66.18-62.77-48.23,0-64,37-66,71-2,35.31,29.15,59.47,63.2,59.47S1089.25,153,1087.3,110.77Z"/><path class="cls-21" d="M1075.33,114.33c0-27.08-27-55.94-54.11-56.8-40.05-1.29-56.29,39.34-56.29,66.43s28,43.23,55,43.23S1075.33,141.41,1075.33,114.33Z"/><path class="cls-31" d="M1027,113.41c-.36-3.69-4.29-6.16-8-6.16s-7.7,4.48-7.7,8.19,4,6.75,7.7,6.75S1027.7,120.27,1027,113.41Z"/><path class="cls-31" d="M1018.85,112.34l.95-1a1.34,1.34,0,0,1,1.89,0c.52.53,3.48,1.11,3,1.63l.58,1.64,24.74,27,.45-1.9a1.34,1.34,0,0,1,2.63-.48l1.3,7.12a1.33,1.33,0,0,1-2.25,1.18l-34.8-31.65C1016.78,115.41,1018.33,112.86,1018.85,112.34Z"/><path class="cls-31" d="M1045,145a1.34,1.34,0,0,1,1.08-.38l6.15-1c.73.08,2.27,2.48,2.19,3.21a1.34,1.34,0,0,1-1.46,1.2l-7.15-.73a1.34,1.34,0,0,1-1.2-1.47A1.38,1.38,0,0,1,1045,145Z"/><path class="cls-31" d="M1032.9,92.18a1.31,1.31,0,0,1,1-.39l5.71.1a1.34,1.34,0,0,1,.92,2.28h0l-21.11,23.45c-.52.52-2.46-.83-3-1.35l-1-1a1.33,1.33,0,0,1,0-1.89c.52-.52,1.22-2.16,1.75-1.64l.14,1.65,19-18.94-2.56,0a1.34,1.34,0,0,1-.92-2.28Z"/><path class="cls-31" d="M1038.61,92.28a1.31,1.31,0,0,1,.81-.38,1.33,1.33,0,0,1,1.46,1.19l.59,5.83a1.34,1.34,0,1,1-2.66.27l-1.37-3.43A13.21,13.21,0,0,1,1038.61,92.28Z"/></svg>